G04 #@! TF.FileFunction,Profile,NP*
%FSLAX46Y46*%
G04 Gerber Fmt 4.6, Leading zero omitted, Abs format (unit mm)*
G04 Created by KiCad (PCBNEW (2015-07-11 BZR 5925, Git c291b88)-product) date 8/5/2015 3:00:13 PM*
%MOMM*%
G01*
G04 APERTURE LIST*
%ADD10C,0.100000*%
G04 APERTURE END LIST*
D10*
X102750000Y-52750000D02*
X102000000Y-53500000D01*
X202250000Y-52750000D02*
X102750000Y-52750000D01*
X203000000Y-53500000D02*
X202250000Y-52750000D01*
X202000000Y-135500000D02*
X103000000Y-135500000D01*
X203000000Y-128500000D02*
X203000000Y-134500000D01*
X102000000Y-134500000D02*
X103000000Y-135500000D01*
X102000000Y-129500000D02*
X102000000Y-134500000D01*
X98000000Y-125500000D02*
X102000000Y-129500000D01*
X93000000Y-62500000D02*
X98000000Y-62500000D01*
X92000000Y-63500000D02*
X93000000Y-62500000D01*
X92000000Y-124500000D02*
X92000000Y-63500000D01*
X93000000Y-125500000D02*
X92000000Y-124500000D01*
X98000000Y-125500000D02*
X93000000Y-125500000D01*
X203000000Y-134500000D02*
X202000000Y-135500000D01*
X206000000Y-125500000D02*
X203000000Y-128500000D01*
X212000000Y-125500000D02*
X206000000Y-125500000D01*
X213000000Y-124500000D02*
X212000000Y-125500000D01*
X213000000Y-63500000D02*
X213000000Y-124500000D01*
X212000000Y-62500000D02*
X213000000Y-63500000D01*
X207000000Y-62500000D02*
X212000000Y-62500000D01*
X203000000Y-58500000D02*
X207000000Y-62500000D01*
X203000000Y-53500000D02*
X203000000Y-58500000D01*
X102000000Y-58500000D02*
X102000000Y-53500000D01*
X98000000Y-62500000D02*
X102000000Y-58500000D01*
M02*
