M48
;DRILL file {KiCad (2015-07-11 BZR 5925, Git c291b88)-product} date 8/5/2015 3:00:16 PM
;FORMAT={-:-/ absolute / inch / decimal}
FMAT,2
INCH,TZ
T1C0.016
T2C0.033
T3C0.039
T4C0.039
T5C0.040
T6C0.047
T7C0.063
T8C0.091
T9C0.118
T10C0.120
%
G90
G05
M72
T1
X3.6614Y-3.2283
X3.6772Y-2.6063
X3.7008Y-3.2598
X3.7087Y-4.1575
X3.7402Y-4.3071
X3.748Y-3.2598
X3.7717Y-4.2126
X3.7874Y-3.2598
X3.7874Y-4.3937
X3.8425Y-3.7874
X3.874Y-2.6063
X3.8819Y-2.7638
X3.8996Y-3.2579
X3.9016Y-3.1024
X3.9134Y-3.4646
X3.9134Y-3.5906
X3.9528Y-3.2559
X3.9528Y-3.9843
X3.9547Y-3.1024
X3.9764Y-3.4646
X3.9764Y-3.5276
X3.9764Y-3.5906
X4.0059Y-3.1024
X4.0098Y-3.2559
X4.0157Y-3.8976
X4.0236Y-4.063
X4.0472Y-4.4252
X4.0551Y-5.0551
X4.0709Y-3.7717
X4.0787Y-3.8346
X4.0945Y-4.378
X4.1181Y-3.6693
X4.126Y-4.4803
X4.1339Y-4.622
X4.1811Y-2.1811
X4.2047Y-4.3701
X4.2126Y-4.0787
X4.2205Y-3.1024
X4.2205Y-3.5984
X4.2205Y-4.8346
X4.2756Y-3.1024
X4.2835Y-3.8819
X4.2913Y-4.4803
X4.3071Y-2.7323
X4.3228Y-3.1024
X4.3307Y-3.2047
X4.3701Y-3.7008
X4.3858Y-3.2047
X4.4016Y-3.1654
X4.4173Y-3.9606
X4.4488Y-2.5591
X4.4646Y-5.2913
X4.4724Y-2.1811
X4.4724Y-3.4646
X4.5512Y-4.2205
X4.6063Y-3.252
X4.622Y-3.7559
X4.6929Y-2.5512
X4.6929Y-4.5433
X4.7008Y-4.2677
X4.7008Y-4.3543
X4.7087Y-3.2913
X4.7087Y-4.6535
X4.7165Y-2.4882
X4.7165Y-4.2126
X4.7323Y-4.1102
X4.7402Y-4.0709
X4.748Y-3.4646
X4.7559Y-2.4724
X4.7559Y-2.5906
X4.7559Y-3.1339
X4.7559Y-3.937
X4.7717Y-2.2835
X4.7795Y-3.2756
X4.7953Y-4.6457
X4.811Y-2.4724
X4.8189Y-4.2835
X4.8268Y-4.2441
X4.8346Y-3.126
X4.8346Y-4.4173
X4.8425Y-4.2126
X4.8504Y-4.0551
X4.8661Y-5.2835
X4.874Y-3.126
X4.8898Y-3.7559
X4.8898Y-4.0472
X4.8898Y-4.1496
X4.8898Y-4.6614
X4.8976Y-4.4173
X4.8976Y-4.4724
X4.8976Y-4.7559
X4.937Y-3.937
X4.9449Y-4.1496
X4.9449Y-4.5984
X4.9449Y-5.189
X4.9528Y-3.4724
X4.9606Y-3.3957
X4.9606Y-4.3701
X4.9764Y-4.4724
X4.9921Y-2.4331
X4.9921Y-3.0945
X5.Y-3.5906
X5.Y-4.4331
X5.0157Y-2.1339
X5.0157Y-4.4724
X5.0236Y-4.
X5.0236Y-4.8661
X5.0236Y-5.0866
X5.0315Y-2.252
X5.0315Y-4.0551
X5.0315Y-4.1654
X5.0315Y-4.2047
X5.0315Y-4.6299
X5.0472Y-3.7874
X5.0472Y-4.3622
X5.0551Y-3.2835
X5.0551Y-4.4724
X5.0787Y-3.8031
X5.0866Y-4.2992
X5.0866Y-4.7953
X5.0945Y-4.1811
X5.1102Y-3.9528
X5.1102Y-4.
X5.1181Y-3.4567
X5.126Y-4.1496
X5.1339Y-4.4724
X5.1496Y-3.6614
X5.1575Y-4.3465
X5.1575Y-4.3858
X5.1654Y-3.2598
X5.1654Y-4.2205
X5.1654Y-4.3071
X5.1732Y-3.4646
X5.1772Y-3.0709
X5.1811Y-4.0472
X5.189Y-3.7717
X5.189Y-3.874
X5.2126Y-2.622
X5.2126Y-4.5354
X5.2205Y-3.1811
X5.2205Y-3.2598
X5.2205Y-4.5827
X5.2205Y-4.8583
X5.2283Y-3.874
X5.2283Y-5.0866
X5.2323Y-2.3602
X5.2441Y-4.063
X5.2736Y-2.3602
X5.2835Y-4.1575
X5.3051Y-2.8937
X5.3071Y-3.937
X5.3091Y-2.3602
X5.3228Y-3.4567
X5.3228Y-4.2756
X5.3228Y-4.4567
X5.3445Y-3.0709
X5.3642Y-2.9035
X5.378Y-3.7402
X5.378Y-5.0866
X5.3937Y-2.7854
X5.4016Y-4.4488
X5.4016Y-4.811
X5.4094Y-5.0472
X5.4173Y-4.4173
X5.4409Y-3.9606
X5.4409Y-4.7874
X5.4429Y-2.9035
X5.4488Y-3.6772
X5.4528Y-3.2677
X5.4528Y-3.3957
X5.4626Y-3.3366
X5.4882Y-3.9764
X5.4961Y-3.8268
X5.502Y-2.9429
X5.5039Y-3.0945
X5.5118Y-4.5197
X5.5276Y-3.4646
X5.5354Y-2.2441
X5.5354Y-3.5512
X5.5354Y-4.9291
X5.5433Y-2.1339
X5.5433Y-3.874
X5.5591Y-4.6299
X5.5591Y-4.6929
X5.5591Y-4.7323
X5.5669Y-2.3386
X5.5669Y-4.2992
X5.5748Y-4.5197
X5.6063Y-3.2677
X5.6142Y-3.063
X5.6142Y-3.5827
X5.622Y-4.0472
X5.6299Y-3.4094
X5.6299Y-5.1181
X5.6378Y-5.2992
X5.6535Y-4.3228
X5.6614Y-4.1181
X5.6614Y-4.1575
X5.6614Y-4.6378
X5.6693Y-3.6024
X5.6693Y-4.5669
X5.685Y-3.8976
X5.685Y-3.9449
X5.7087Y-3.2835
X5.7087Y-3.6772
X5.7087Y-4.5669
X5.7165Y-3.4803
X5.7165Y-4.811
X5.7402Y-4.5512
X5.748Y-3.0413
X5.7638Y-3.4803
X5.7638Y-4.378
X5.7638Y-4.4409
X5.7717Y-3.1181
X5.7717Y-3.9843
X5.7795Y-3.7165
X5.7953Y-3.6063
X5.7953Y-3.6457
X5.8031Y-4.5512
X5.811Y-4.5984
X5.8189Y-4.748
X5.8268Y-2.3386
X5.8268Y-4.9213
X5.8268Y-5.
X5.8425Y-4.2205
X5.8425Y-4.4567
X5.8583Y-4.1811
X5.8661Y-3.1102
X5.8661Y-4.
X5.8661Y-4.1496
X5.8819Y-3.1417
X5.8957Y-2.8445
X5.8976Y-5.1339
X5.9055Y-3.7165
X5.9134Y-2.9528
X5.9134Y-4.
X5.937Y-4.1811
X5.937Y-4.378
X5.937Y-4.6614
X5.9449Y-4.9921
X5.9528Y-4.9449
X5.9685Y-2.2441
X5.9685Y-3.0945
X5.9685Y-3.1575
X5.9685Y-4.
X5.9764Y-3.315
X5.9921Y-4.622
X6.0157Y-4.5748
X6.0157Y-4.9843
X6.0315Y-2.8819
X6.0315Y-4.4961
X6.0315Y-4.5354
X6.0394Y-3.8504
X6.0472Y-3.
X6.0472Y-3.6063
X6.0472Y-4.4331
X6.0571Y-2.4626
X6.063Y-2.126
X6.0709Y-4.4567
X6.0945Y-4.9843
X6.1024Y-2.8425
X6.1024Y-4.4803
X6.1181Y-3.0079
X6.1339Y-4.6299
X6.1496Y-3.4252
X6.1496Y-4.4961
X6.1516Y-3.2283
X6.1575Y-4.
X6.1575Y-4.2205
X6.1732Y-3.7795
X6.1811Y-3.8189
X6.1811Y-5.
X6.2126Y-2.315
X6.2205Y-4.1811
X6.2362Y-3.0945
X6.2441Y-4.9685
X6.252Y-4.6063
X6.2598Y-4.2126
X6.2677Y-3.8031
X6.2677Y-4.
X6.2835Y-3.748
X6.2835Y-4.4173
X6.315Y-4.2283
X6.3386Y-3.7638
X6.3583Y-3.1791
X6.3622Y-3.4567
X6.3622Y-4.1496
X6.3622Y-4.7559
X6.378Y-2.7657
X6.378Y-5.1024
X6.3858Y-2.4961
X6.3937Y-4.685
X6.4016Y-2.1102
X6.4016Y-4.5748
X6.4173Y-3.8268
X6.4252Y-4.874
X6.4409Y-3.1102
X6.4646Y-4.5827
X6.4724Y-4.5433
X6.4803Y-4.0394
X6.4882Y-4.685
X6.5276Y-4.5748
X6.5354Y-4.2126
X6.5748Y-3.685
X6.5984Y-3.2835
X6.5984Y-3.4567
X6.6063Y-2.1102
X6.6063Y-2.3386
X6.622Y-5.0079
X6.6378Y-2.8031
X6.6378Y-2.8898
X6.6614Y-4.0709
X6.6732Y-3.75
X6.6732Y-3.8091
X6.6772Y-2.9685
X6.685Y-2.8898
X6.685Y-3.1339
X6.7087Y-5.2835
X6.7165Y-4.811
X6.7323Y-2.7087
X6.7323Y-4.5748
X6.7402Y-3.4173
X6.7559Y-3.6378
X6.7638Y-2.1102
X6.7638Y-3.8583
X6.7638Y-4.1575
X6.7953Y-2.2205
X6.7953Y-2.3071
X6.8031Y-3.6929
X6.8031Y-3.8583
X6.811Y-2.5906
X6.8268Y-2.9685
X6.8346Y-2.811
X6.8346Y-3.622
X6.8346Y-4.8189
X6.8425Y-2.4961
X6.8425Y-3.1102
X6.8819Y-2.7165
X6.8898Y-2.3228
X6.8898Y-2.4094
X6.8898Y-3.6929
X6.9134Y-4.8189
X6.9213Y-2.5591
X6.9291Y-3.6457
X6.9291Y-4.2126
X6.937Y-3.4173
X6.9528Y-2.8031
X6.9764Y-4.2441
X6.9921Y-2.7087
X6.9921Y-5.2756
X7.0079Y-4.4724
X7.0236Y-2.9685
X7.0551Y-2.4331
X7.0551Y-2.5197
X7.0551Y-2.6063
X7.063Y-4.1575
X7.0787Y-2.8031
X7.0866Y-3.8425
X7.1102Y-3.6693
X7.1181Y-2.7559
X7.1181Y-3.1654
X7.126Y-3.3937
X7.1339Y-3.8425
X7.1575Y-2.2992
X7.1654Y-2.1339
X7.1811Y-2.8268
X7.1949Y-4.8878
X7.2283Y-2.748
X7.2441Y-4.2717
X7.252Y-2.3543
X7.252Y-2.4094
X7.252Y-2.4646
X7.252Y-2.5197
X7.2598Y-3.6693
X7.2677Y-2.2205
X7.2835Y-3.8386
X7.2913Y-3.7008
X7.2992Y-4.6299
X7.313Y-3.8681
X7.3307Y-2.7953
X7.3307Y-2.9685
X7.3307Y-4.1575
X7.3386Y-3.4094
X7.3465Y-3.0866
X7.3465Y-4.3701
X7.3524Y-3.8976
X7.3524Y-3.9567
X7.3701Y-2.2992
X7.3858Y-2.1339
X7.3858Y-2.6457
X7.435Y-5.2717
X7.4409Y-3.9862
X7.4587Y-4.5374
X7.4606Y-3.8386
X7.4626Y-4.6791
X7.4665Y-4.4508
X7.4724Y-2.4094
X7.4724Y-2.4882
X7.4724Y-2.5669
X7.4803Y-2.9843
X7.4803Y-4.1496
X7.4902Y-4.2913
X7.4961Y-2.6929
X7.5039Y-2.811
X7.5118Y-3.1339
X7.5276Y-3.2992
X7.5354Y-4.126
X7.5492Y-3.878
X7.5512Y-4.4882
X7.5512Y-4.6063
X7.5591Y-3.937
X7.5886Y-3.9567
X7.5906Y-3.5039
X7.5906Y-4.4094
X7.6083Y-3.9862
X7.6142Y-4.685
X7.622Y-3.2205
X7.6299Y-2.8189
X7.6378Y-2.9291
X7.6457Y-3.0787
X7.6535Y-2.3307
X7.6772Y-2.4173
X7.6772Y-2.5118
X7.6772Y-2.6063
X7.6772Y-2.7087
X7.6969Y-4.2913
X7.7165Y-3.0236
X7.7323Y-5.252
X7.748Y-2.8268
X7.7717Y-2.2913
X7.7756Y-3.8189
X7.7795Y-3.622
X7.7874Y-3.2205
X7.7953Y-2.126
X7.7953Y-4.6457
X7.8031Y-3.1102
X7.815Y-4.2421
X7.8189Y-2.6299
X7.8346Y-3.937
X7.8445Y-3.8583
X7.9035Y-3.8681
X7.937Y-3.0315
X7.937Y-3.9764
X7.9449Y-3.4961
X7.9843Y-3.8346
X8.Y-4.1575
X8.0315Y-2.7323
X8.063Y-3.8031
X8.1732Y-3.9921
X8.1811Y-3.1181
X8.2579Y-3.8878
X8.2913Y-4.8661
X8.3071Y-2.5354
X8.3228Y-4.4252
X8.3386Y-3.8898
X8.3543Y-3.378
T2
X5.2657Y-5.2712
X5.3051Y-5.1649
X5.5019Y-5.1649
X5.5413Y-5.2712
T3
X4.5354Y-3.8213
X4.5354Y-3.9213
X4.5354Y-4.0213
X6.0917Y-4.872
X6.1917Y-4.872
T4
X3.7425Y-4.5669
X3.8425Y-4.5669
X3.9425Y-4.5669
X4.4685Y-4.8621
X4.5685Y-4.8621
X4.6485Y-4.8621
X4.7485Y-4.8621
T5
X5.7791Y-2.6976
X5.8341Y-2.5976
X5.8891Y-2.6976
X5.9441Y-2.5976
X5.9941Y-2.6976
X6.0491Y-2.5976
X6.1041Y-2.6976
X6.1591Y-2.5976
X6.2141Y-2.6976
T6
X7.9528Y-4.4488
X8.1496Y-4.4488
T7
X4.4783Y-2.7854
X4.4783Y-2.9823
X4.9508Y-2.7854
X4.9508Y-2.9823
T8
X4.3285Y-4.9671
X4.8685Y-4.9671
T9
X4.0396Y-2.4985
X4.0396Y-4.9105
X7.9516Y-2.4985
X7.9516Y-4.9105
T10
X5.4991Y-2.5976
X6.4991Y-2.5976
T0
M30
