G04 #@! TF.FileFunction,Legend,Bot*
%FSLAX46Y46*%
G04 Gerber Fmt 4.6, Leading zero omitted, Abs format (unit mm)*
G04 Created by KiCad (PCBNEW 4.0.2-stable) date 3/7/2016 10:52:06 AM*
%MOMM*%
G01*
G04 APERTURE LIST*
%ADD10C,0.100000*%
%ADD11C,0.250000*%
%ADD12C,0.300000*%
%ADD13C,0.600000*%
%ADD14C,0.500000*%
%ADD15C,0.200000*%
%ADD16C,0.150000*%
G04 APERTURE END LIST*
D10*
D11*
X119057144Y-60978571D02*
X118771430Y-60978571D01*
X118628572Y-61050000D01*
X118485715Y-61192857D01*
X118414287Y-61478571D01*
X118414287Y-61978571D01*
X118485715Y-62264286D01*
X118628572Y-62407143D01*
X118771430Y-62478571D01*
X119057144Y-62478571D01*
X119200001Y-62407143D01*
X119342858Y-62264286D01*
X119414287Y-61978571D01*
X119414287Y-61478571D01*
X119342858Y-61192857D01*
X119200001Y-61050000D01*
X119057144Y-60978571D01*
X117271429Y-61692857D02*
X117057143Y-61764286D01*
X116985715Y-61835714D01*
X116914286Y-61978571D01*
X116914286Y-62192857D01*
X116985715Y-62335714D01*
X117057143Y-62407143D01*
X117200001Y-62478571D01*
X117771429Y-62478571D01*
X117771429Y-60978571D01*
X117271429Y-60978571D01*
X117128572Y-61050000D01*
X117057143Y-61121429D01*
X116985715Y-61264286D01*
X116985715Y-61407143D01*
X117057143Y-61550000D01*
X117128572Y-61621429D01*
X117271429Y-61692857D01*
X117771429Y-61692857D01*
X116271429Y-62478571D02*
X116271429Y-60978571D01*
X115914286Y-60978571D01*
X115700001Y-61050000D01*
X115557143Y-61192857D01*
X115485715Y-61335714D01*
X115414286Y-61621429D01*
X115414286Y-61835714D01*
X115485715Y-62121429D01*
X115557143Y-62264286D01*
X115700001Y-62407143D01*
X115914286Y-62478571D01*
X116271429Y-62478571D01*
X114771429Y-62478571D02*
X114771429Y-60978571D01*
X114057143Y-62478571D02*
X114057143Y-60978571D01*
D12*
X112842857Y-32178571D02*
X112842857Y-30678571D01*
X112342857Y-31750000D01*
X111842857Y-30678571D01*
X111842857Y-32178571D01*
X110914285Y-32178571D02*
X111057143Y-32107143D01*
X111128571Y-32035714D01*
X111200000Y-31892857D01*
X111200000Y-31464286D01*
X111128571Y-31321429D01*
X111057143Y-31250000D01*
X110914285Y-31178571D01*
X110700000Y-31178571D01*
X110557143Y-31250000D01*
X110485714Y-31321429D01*
X110414285Y-31464286D01*
X110414285Y-31892857D01*
X110485714Y-32035714D01*
X110557143Y-32107143D01*
X110700000Y-32178571D01*
X110914285Y-32178571D01*
X109771428Y-32178571D02*
X109771428Y-30678571D01*
X109771428Y-31250000D02*
X109628571Y-31178571D01*
X109342857Y-31178571D01*
X109200000Y-31250000D01*
X109128571Y-31321429D01*
X109057142Y-31464286D01*
X109057142Y-31892857D01*
X109128571Y-32035714D01*
X109200000Y-32107143D01*
X109342857Y-32178571D01*
X109628571Y-32178571D01*
X109771428Y-32107143D01*
X108414285Y-32178571D02*
X108414285Y-31178571D01*
X108414285Y-30678571D02*
X108485714Y-30750000D01*
X108414285Y-30821429D01*
X108342857Y-30750000D01*
X108414285Y-30678571D01*
X108414285Y-30821429D01*
X107485713Y-32178571D02*
X107628571Y-32107143D01*
X107699999Y-31964286D01*
X107699999Y-30678571D01*
X106342857Y-32107143D02*
X106485714Y-32178571D01*
X106771428Y-32178571D01*
X106914285Y-32107143D01*
X106985714Y-31964286D01*
X106985714Y-31392857D01*
X106914285Y-31250000D01*
X106771428Y-31178571D01*
X106485714Y-31178571D01*
X106342857Y-31250000D01*
X106271428Y-31392857D01*
X106271428Y-31535714D01*
X106985714Y-31678571D01*
X103628571Y-32178571D02*
X104128571Y-31464286D01*
X104485714Y-32178571D02*
X104485714Y-30678571D01*
X103914286Y-30678571D01*
X103771428Y-30750000D01*
X103700000Y-30821429D01*
X103628571Y-30964286D01*
X103628571Y-31178571D01*
X103700000Y-31321429D01*
X103771428Y-31392857D01*
X103914286Y-31464286D01*
X104485714Y-31464286D01*
X103200000Y-30678571D02*
X102700000Y-32178571D01*
X102200000Y-30678571D01*
X101700000Y-32178571D02*
X101700000Y-30678571D01*
X99842857Y-32178571D02*
X99842857Y-30678571D01*
X98985714Y-32178571D01*
X98985714Y-30678571D01*
X98057142Y-32178571D02*
X98200000Y-32107143D01*
X98271428Y-32035714D01*
X98342857Y-31892857D01*
X98342857Y-31464286D01*
X98271428Y-31321429D01*
X98200000Y-31250000D01*
X98057142Y-31178571D01*
X97842857Y-31178571D01*
X97700000Y-31250000D01*
X97628571Y-31321429D01*
X97557142Y-31464286D01*
X97557142Y-31892857D01*
X97628571Y-32035714D01*
X97700000Y-32107143D01*
X97842857Y-32178571D01*
X98057142Y-32178571D01*
X96271428Y-32178571D02*
X96271428Y-30678571D01*
X96271428Y-32107143D02*
X96414285Y-32178571D01*
X96699999Y-32178571D01*
X96842857Y-32107143D01*
X96914285Y-32035714D01*
X96985714Y-31892857D01*
X96985714Y-31464286D01*
X96914285Y-31321429D01*
X96842857Y-31250000D01*
X96699999Y-31178571D01*
X96414285Y-31178571D01*
X96271428Y-31250000D01*
X94985714Y-32107143D02*
X95128571Y-32178571D01*
X95414285Y-32178571D01*
X95557142Y-32107143D01*
X95628571Y-31964286D01*
X95628571Y-31392857D01*
X95557142Y-31250000D01*
X95414285Y-31178571D01*
X95128571Y-31178571D01*
X94985714Y-31250000D01*
X94914285Y-31392857D01*
X94914285Y-31535714D01*
X95628571Y-31678571D01*
X48242857Y-64950000D02*
X47528571Y-64950000D01*
X48385714Y-65378571D02*
X47885714Y-63878571D01*
X47385714Y-65378571D01*
X46242857Y-65307143D02*
X46385714Y-65378571D01*
X46671428Y-65378571D01*
X46814286Y-65307143D01*
X46885714Y-65235714D01*
X46957143Y-65092857D01*
X46957143Y-64664286D01*
X46885714Y-64521429D01*
X46814286Y-64450000D01*
X46671428Y-64378571D01*
X46385714Y-64378571D01*
X46242857Y-64450000D01*
X45814286Y-64378571D02*
X45242857Y-64378571D01*
X45600000Y-63878571D02*
X45600000Y-65164286D01*
X45528572Y-65307143D01*
X45385714Y-65378571D01*
X45242857Y-65378571D01*
X44742857Y-65378571D02*
X44742857Y-64378571D01*
X44742857Y-63878571D02*
X44814286Y-63950000D01*
X44742857Y-64021429D01*
X44671429Y-63950000D01*
X44742857Y-63878571D01*
X44742857Y-64021429D01*
X43814285Y-65378571D02*
X43957143Y-65307143D01*
X44028571Y-65235714D01*
X44100000Y-65092857D01*
X44100000Y-64664286D01*
X44028571Y-64521429D01*
X43957143Y-64450000D01*
X43814285Y-64378571D01*
X43600000Y-64378571D01*
X43457143Y-64450000D01*
X43385714Y-64521429D01*
X43314285Y-64664286D01*
X43314285Y-65092857D01*
X43385714Y-65235714D01*
X43457143Y-65307143D01*
X43600000Y-65378571D01*
X43814285Y-65378571D01*
X42671428Y-64378571D02*
X42671428Y-65378571D01*
X42671428Y-64521429D02*
X42600000Y-64450000D01*
X42457142Y-64378571D01*
X42242857Y-64378571D01*
X42100000Y-64450000D01*
X42028571Y-64592857D01*
X42028571Y-65378571D01*
X45628571Y-38635714D02*
X45700000Y-38707143D01*
X45914286Y-38778571D01*
X46057143Y-38778571D01*
X46271428Y-38707143D01*
X46414286Y-38564286D01*
X46485714Y-38421429D01*
X46557143Y-38135714D01*
X46557143Y-37921429D01*
X46485714Y-37635714D01*
X46414286Y-37492857D01*
X46271428Y-37350000D01*
X46057143Y-37278571D01*
X45914286Y-37278571D01*
X45700000Y-37350000D01*
X45628571Y-37421429D01*
X44985714Y-37992857D02*
X44485714Y-37992857D01*
X44271428Y-38778571D02*
X44985714Y-38778571D01*
X44985714Y-37278571D01*
X44271428Y-37278571D01*
X42914285Y-38778571D02*
X43628571Y-38778571D01*
X43628571Y-37278571D01*
X41699999Y-38778571D02*
X42414285Y-38778571D01*
X42414285Y-37278571D01*
X45271428Y-32850000D02*
X45414285Y-32778571D01*
X45628571Y-32778571D01*
X45842856Y-32850000D01*
X45985714Y-32992857D01*
X46057142Y-33135714D01*
X46128571Y-33421429D01*
X46128571Y-33635714D01*
X46057142Y-33921429D01*
X45985714Y-34064286D01*
X45842856Y-34207143D01*
X45628571Y-34278571D01*
X45485714Y-34278571D01*
X45271428Y-34207143D01*
X45199999Y-34135714D01*
X45199999Y-33635714D01*
X45485714Y-33635714D01*
X44557142Y-34278571D02*
X44557142Y-32778571D01*
X43985714Y-32778571D01*
X43842856Y-32850000D01*
X43771428Y-32921429D01*
X43699999Y-33064286D01*
X43699999Y-33278571D01*
X43771428Y-33421429D01*
X43842856Y-33492857D01*
X43985714Y-33564286D01*
X44557142Y-33564286D01*
X43128571Y-34207143D02*
X42914285Y-34278571D01*
X42557142Y-34278571D01*
X42414285Y-34207143D01*
X42342856Y-34135714D01*
X42271428Y-33992857D01*
X42271428Y-33850000D01*
X42342856Y-33707143D01*
X42414285Y-33635714D01*
X42557142Y-33564286D01*
X42842856Y-33492857D01*
X42985714Y-33421429D01*
X43057142Y-33350000D01*
X43128571Y-33207143D01*
X43128571Y-33064286D01*
X43057142Y-32921429D01*
X42985714Y-32850000D01*
X42842856Y-32778571D01*
X42485714Y-32778571D01*
X42271428Y-32850000D01*
X46200000Y-29778571D02*
X46200000Y-28278571D01*
X45628572Y-28278571D01*
X45485714Y-28350000D01*
X45414286Y-28421429D01*
X45342857Y-28564286D01*
X45342857Y-28778571D01*
X45414286Y-28921429D01*
X45485714Y-28992857D01*
X45628572Y-29064286D01*
X46200000Y-29064286D01*
X44842857Y-28278571D02*
X44485714Y-29778571D01*
X44200000Y-28707143D01*
X43914286Y-29778571D01*
X43557143Y-28278571D01*
X42128571Y-29778571D02*
X42628571Y-29064286D01*
X42985714Y-29778571D02*
X42985714Y-28278571D01*
X42414286Y-28278571D01*
X42271428Y-28350000D01*
X42200000Y-28421429D01*
X42128571Y-28564286D01*
X42128571Y-28778571D01*
X42200000Y-28921429D01*
X42271428Y-28992857D01*
X42414286Y-29064286D01*
X42985714Y-29064286D01*
D13*
X112783333Y-33283333D02*
X111616666Y-36783333D01*
X110449999Y-33283333D01*
X109449999Y-33616667D02*
X109283333Y-33450000D01*
X108949999Y-33283333D01*
X108116666Y-33283333D01*
X107783333Y-33450000D01*
X107616666Y-33616667D01*
X107449999Y-33950000D01*
X107449999Y-34283333D01*
X107616666Y-34783333D01*
X109616666Y-36783333D01*
X107449999Y-36783333D01*
X106283333Y-33283333D02*
X103950000Y-36783333D01*
X103950000Y-33283333D02*
X106283333Y-36783333D01*
X97950000Y-36783333D02*
X99116666Y-35116667D01*
X99950000Y-36783333D02*
X99950000Y-33283333D01*
X98616666Y-33283333D01*
X98283333Y-33450000D01*
X98116666Y-33616667D01*
X97950000Y-33950000D01*
X97950000Y-34450000D01*
X98116666Y-34783333D01*
X98283333Y-34950000D01*
X98616666Y-35116667D01*
X99950000Y-35116667D01*
X95116666Y-36616667D02*
X95450000Y-36783333D01*
X96116666Y-36783333D01*
X96450000Y-36616667D01*
X96616666Y-36283333D01*
X96616666Y-34950000D01*
X96450000Y-34616667D01*
X96116666Y-34450000D01*
X95450000Y-34450000D01*
X95116666Y-34616667D01*
X94950000Y-34950000D01*
X94950000Y-35283333D01*
X96616666Y-35616667D01*
X93783333Y-34450000D02*
X92950000Y-36783333D01*
X92116666Y-34450000D01*
X90949999Y-33616667D02*
X90783333Y-33450000D01*
X90449999Y-33283333D01*
X89616666Y-33283333D01*
X89283333Y-33450000D01*
X89116666Y-33616667D01*
X88949999Y-33950000D01*
X88949999Y-34283333D01*
X89116666Y-34783333D01*
X91116666Y-36783333D01*
X88949999Y-36783333D01*
X87450000Y-36450000D02*
X87283333Y-36616667D01*
X87450000Y-36783333D01*
X87616666Y-36616667D01*
X87450000Y-36450000D01*
X87450000Y-36783333D01*
X85116666Y-33283333D02*
X84783333Y-33283333D01*
X84449999Y-33450000D01*
X84283333Y-33616667D01*
X84116666Y-33950000D01*
X83949999Y-34616667D01*
X83949999Y-35450000D01*
X84116666Y-36116667D01*
X84283333Y-36450000D01*
X84449999Y-36616667D01*
X84783333Y-36783333D01*
X85116666Y-36783333D01*
X85449999Y-36616667D01*
X85616666Y-36450000D01*
X85783333Y-36116667D01*
X85949999Y-35450000D01*
X85949999Y-34616667D01*
X85783333Y-33950000D01*
X85616666Y-33616667D01*
X85449999Y-33450000D01*
X85116666Y-33283333D01*
D12*
X69707142Y-69978571D02*
X69707142Y-71050000D01*
X69778570Y-71264286D01*
X69921427Y-71407143D01*
X70135713Y-71478571D01*
X70278570Y-71478571D01*
X68421428Y-71407143D02*
X68564285Y-71478571D01*
X68849999Y-71478571D01*
X68992856Y-71407143D01*
X69064285Y-71264286D01*
X69064285Y-70692857D01*
X68992856Y-70550000D01*
X68849999Y-70478571D01*
X68564285Y-70478571D01*
X68421428Y-70550000D01*
X68349999Y-70692857D01*
X68349999Y-70835714D01*
X69064285Y-70978571D01*
X67778571Y-71407143D02*
X67635714Y-71478571D01*
X67349999Y-71478571D01*
X67207142Y-71407143D01*
X67135714Y-71264286D01*
X67135714Y-71192857D01*
X67207142Y-71050000D01*
X67349999Y-70978571D01*
X67564285Y-70978571D01*
X67707142Y-70907143D01*
X67778571Y-70764286D01*
X67778571Y-70692857D01*
X67707142Y-70550000D01*
X67564285Y-70478571D01*
X67349999Y-70478571D01*
X67207142Y-70550000D01*
X66564285Y-71407143D02*
X66421428Y-71478571D01*
X66135713Y-71478571D01*
X65992856Y-71407143D01*
X65921428Y-71264286D01*
X65921428Y-71192857D01*
X65992856Y-71050000D01*
X66135713Y-70978571D01*
X66349999Y-70978571D01*
X66492856Y-70907143D01*
X66564285Y-70764286D01*
X66564285Y-70692857D01*
X66492856Y-70550000D01*
X66349999Y-70478571D01*
X66135713Y-70478571D01*
X65992856Y-70550000D01*
X64707142Y-71407143D02*
X64849999Y-71478571D01*
X65135713Y-71478571D01*
X65278570Y-71407143D01*
X65349999Y-71264286D01*
X65349999Y-70692857D01*
X65278570Y-70550000D01*
X65135713Y-70478571D01*
X64849999Y-70478571D01*
X64707142Y-70550000D01*
X64635713Y-70692857D01*
X64635713Y-70835714D01*
X65349999Y-70978571D01*
X62349999Y-70692857D02*
X62135713Y-70764286D01*
X62064285Y-70835714D01*
X61992856Y-70978571D01*
X61992856Y-71192857D01*
X62064285Y-71335714D01*
X62135713Y-71407143D01*
X62278571Y-71478571D01*
X62849999Y-71478571D01*
X62849999Y-69978571D01*
X62349999Y-69978571D01*
X62207142Y-70050000D01*
X62135713Y-70121429D01*
X62064285Y-70264286D01*
X62064285Y-70407143D01*
X62135713Y-70550000D01*
X62207142Y-70621429D01*
X62349999Y-70692857D01*
X62849999Y-70692857D01*
X60707142Y-71478571D02*
X60707142Y-70692857D01*
X60778571Y-70550000D01*
X60921428Y-70478571D01*
X61207142Y-70478571D01*
X61349999Y-70550000D01*
X60707142Y-71407143D02*
X60849999Y-71478571D01*
X61207142Y-71478571D01*
X61349999Y-71407143D01*
X61421428Y-71264286D01*
X61421428Y-71121429D01*
X61349999Y-70978571D01*
X61207142Y-70907143D01*
X60849999Y-70907143D01*
X60707142Y-70835714D01*
X59992856Y-70478571D02*
X59992856Y-71478571D01*
X59992856Y-70621429D02*
X59921428Y-70550000D01*
X59778570Y-70478571D01*
X59564285Y-70478571D01*
X59421428Y-70550000D01*
X59349999Y-70692857D01*
X59349999Y-71478571D01*
X58635713Y-71478571D02*
X58635713Y-69978571D01*
X58492856Y-70907143D02*
X58064285Y-71478571D01*
X58064285Y-70478571D02*
X58635713Y-71050000D01*
X57492856Y-71407143D02*
X57349999Y-71478571D01*
X57064284Y-71478571D01*
X56921427Y-71407143D01*
X56849999Y-71264286D01*
X56849999Y-71192857D01*
X56921427Y-71050000D01*
X57064284Y-70978571D01*
X57278570Y-70978571D01*
X57421427Y-70907143D01*
X57492856Y-70764286D01*
X57492856Y-70692857D01*
X57421427Y-70550000D01*
X57278570Y-70478571D01*
X57064284Y-70478571D01*
X56921427Y-70550000D01*
X55135713Y-70121429D02*
X55064284Y-70050000D01*
X54921427Y-69978571D01*
X54564284Y-69978571D01*
X54421427Y-70050000D01*
X54349998Y-70121429D01*
X54278570Y-70264286D01*
X54278570Y-70407143D01*
X54349998Y-70621429D01*
X55207141Y-71478571D01*
X54278570Y-71478571D01*
X53349999Y-69978571D02*
X53207142Y-69978571D01*
X53064285Y-70050000D01*
X52992856Y-70121429D01*
X52921427Y-70264286D01*
X52849999Y-70550000D01*
X52849999Y-70907143D01*
X52921427Y-71192857D01*
X52992856Y-71335714D01*
X53064285Y-71407143D01*
X53207142Y-71478571D01*
X53349999Y-71478571D01*
X53492856Y-71407143D01*
X53564285Y-71335714D01*
X53635713Y-71192857D01*
X53707142Y-70907143D01*
X53707142Y-70550000D01*
X53635713Y-70264286D01*
X53564285Y-70121429D01*
X53492856Y-70050000D01*
X53349999Y-69978571D01*
X51421428Y-71478571D02*
X52278571Y-71478571D01*
X51849999Y-71478571D02*
X51849999Y-69978571D01*
X51992856Y-70192857D01*
X52135714Y-70335714D01*
X52278571Y-70407143D01*
X50135714Y-69978571D02*
X50421428Y-69978571D01*
X50564285Y-70050000D01*
X50635714Y-70121429D01*
X50778571Y-70335714D01*
X50850000Y-70621429D01*
X50850000Y-71192857D01*
X50778571Y-71335714D01*
X50707143Y-71407143D01*
X50564285Y-71478571D01*
X50278571Y-71478571D01*
X50135714Y-71407143D01*
X50064285Y-71335714D01*
X49992857Y-71192857D01*
X49992857Y-70835714D01*
X50064285Y-70692857D01*
X50135714Y-70621429D01*
X50278571Y-70550000D01*
X50564285Y-70550000D01*
X50707143Y-70621429D01*
X50778571Y-70692857D01*
X50850000Y-70835714D01*
D14*
X79119048Y-45878572D02*
X81619048Y-45878572D01*
X81619048Y-45283334D01*
X81500000Y-44926191D01*
X81261905Y-44688096D01*
X81023810Y-44569048D01*
X80547619Y-44450000D01*
X80190476Y-44450000D01*
X79714286Y-44569048D01*
X79476190Y-44688096D01*
X79238095Y-44926191D01*
X79119048Y-45283334D01*
X79119048Y-45878572D01*
X79238095Y-42426191D02*
X79119048Y-42664286D01*
X79119048Y-43140477D01*
X79238095Y-43378572D01*
X79476190Y-43497620D01*
X80428571Y-43497620D01*
X80666667Y-43378572D01*
X80785714Y-43140477D01*
X80785714Y-42664286D01*
X80666667Y-42426191D01*
X80428571Y-42307143D01*
X80190476Y-42307143D01*
X79952381Y-43497620D01*
X80785714Y-41473810D02*
X79119048Y-40878572D01*
X80785714Y-40283334D01*
X79238095Y-38378572D02*
X79119048Y-38616667D01*
X79119048Y-39092858D01*
X79238095Y-39330953D01*
X79476190Y-39450001D01*
X80428571Y-39450001D01*
X80666667Y-39330953D01*
X80785714Y-39092858D01*
X80785714Y-38616667D01*
X80666667Y-38378572D01*
X80428571Y-38259524D01*
X80190476Y-38259524D01*
X79952381Y-39450001D01*
X79119048Y-36830953D02*
X79238095Y-37069048D01*
X79476190Y-37188096D01*
X81619048Y-37188096D01*
X79119048Y-35521429D02*
X79238095Y-35759524D01*
X79357143Y-35878572D01*
X79595238Y-35997620D01*
X80309524Y-35997620D01*
X80547619Y-35878572D01*
X80666667Y-35759524D01*
X80785714Y-35521429D01*
X80785714Y-35164286D01*
X80666667Y-34926191D01*
X80547619Y-34807143D01*
X80309524Y-34688096D01*
X79595238Y-34688096D01*
X79357143Y-34807143D01*
X79238095Y-34926191D01*
X79119048Y-35164286D01*
X79119048Y-35521429D01*
X80785714Y-33616667D02*
X78285714Y-33616667D01*
X80666667Y-33616667D02*
X80785714Y-33378572D01*
X80785714Y-32902381D01*
X80666667Y-32664286D01*
X80547619Y-32545238D01*
X80309524Y-32426191D01*
X79595238Y-32426191D01*
X79357143Y-32545238D01*
X79238095Y-32664286D01*
X79119048Y-32902381D01*
X79119048Y-33378572D01*
X79238095Y-33616667D01*
X79238095Y-30402381D02*
X79119048Y-30640476D01*
X79119048Y-31116667D01*
X79238095Y-31354762D01*
X79476190Y-31473810D01*
X80428571Y-31473810D01*
X80666667Y-31354762D01*
X80785714Y-31116667D01*
X80785714Y-30640476D01*
X80666667Y-30402381D01*
X80428571Y-30283333D01*
X80190476Y-30283333D01*
X79952381Y-31473810D01*
X79119048Y-28140476D02*
X81619048Y-28140476D01*
X79238095Y-28140476D02*
X79119048Y-28378572D01*
X79119048Y-28854762D01*
X79238095Y-29092857D01*
X79357143Y-29211905D01*
X79595238Y-29330953D01*
X80309524Y-29330953D01*
X80547619Y-29211905D01*
X80666667Y-29092857D01*
X80785714Y-28854762D01*
X80785714Y-28378572D01*
X80666667Y-28140476D01*
X79119048Y-23973809D02*
X80428571Y-23973809D01*
X80666667Y-24092857D01*
X80785714Y-24330952D01*
X80785714Y-24807143D01*
X80666667Y-25045238D01*
X79238095Y-23973809D02*
X79119048Y-24211905D01*
X79119048Y-24807143D01*
X79238095Y-25045238D01*
X79476190Y-25164286D01*
X79714286Y-25164286D01*
X79952381Y-25045238D01*
X80071429Y-24807143D01*
X80071429Y-24211905D01*
X80190476Y-23973809D01*
X80785714Y-23140476D02*
X80785714Y-22188095D01*
X81619048Y-22783333D02*
X79476190Y-22783333D01*
X79238095Y-22664285D01*
X79119048Y-22426190D01*
X79119048Y-22188095D01*
X77619048Y-67426193D02*
X75833333Y-67426193D01*
X75476190Y-67545241D01*
X75238095Y-67783336D01*
X75119048Y-68140479D01*
X75119048Y-68378574D01*
X75119048Y-65164288D02*
X76428571Y-65164288D01*
X76666667Y-65283336D01*
X76785714Y-65521431D01*
X76785714Y-65997622D01*
X76666667Y-66235717D01*
X75238095Y-65164288D02*
X75119048Y-65402384D01*
X75119048Y-65997622D01*
X75238095Y-66235717D01*
X75476190Y-66354765D01*
X75714286Y-66354765D01*
X75952381Y-66235717D01*
X76071429Y-65997622D01*
X76071429Y-65402384D01*
X76190476Y-65164288D01*
X76785714Y-62902383D02*
X74761905Y-62902383D01*
X74523810Y-63021431D01*
X74404762Y-63140479D01*
X74285714Y-63378574D01*
X74285714Y-63735717D01*
X74404762Y-63973812D01*
X75238095Y-62902383D02*
X75119048Y-63140479D01*
X75119048Y-63616669D01*
X75238095Y-63854764D01*
X75357143Y-63973812D01*
X75595238Y-64092860D01*
X76309524Y-64092860D01*
X76547619Y-63973812D01*
X76666667Y-63854764D01*
X76785714Y-63616669D01*
X76785714Y-63140479D01*
X76666667Y-62902383D01*
X76785714Y-60640478D02*
X75119048Y-60640478D01*
X76785714Y-61711907D02*
X75476190Y-61711907D01*
X75238095Y-61592859D01*
X75119048Y-61354764D01*
X75119048Y-60997621D01*
X75238095Y-60759526D01*
X75357143Y-60640478D01*
X75119048Y-58378573D02*
X76428571Y-58378573D01*
X76666667Y-58497621D01*
X76785714Y-58735716D01*
X76785714Y-59211907D01*
X76666667Y-59450002D01*
X75238095Y-58378573D02*
X75119048Y-58616669D01*
X75119048Y-59211907D01*
X75238095Y-59450002D01*
X75476190Y-59569050D01*
X75714286Y-59569050D01*
X75952381Y-59450002D01*
X76071429Y-59211907D01*
X76071429Y-58616669D01*
X76190476Y-58378573D01*
X75119048Y-57188097D02*
X76785714Y-57188097D01*
X76309524Y-57188097D02*
X76547619Y-57069049D01*
X76666667Y-56950002D01*
X76785714Y-56711906D01*
X76785714Y-56473811D01*
X75119048Y-52545240D02*
X75119048Y-53735716D01*
X77619048Y-53735716D01*
X75119048Y-50640477D02*
X76428571Y-50640477D01*
X76666667Y-50759525D01*
X76785714Y-50997620D01*
X76785714Y-51473811D01*
X76666667Y-51711906D01*
X75238095Y-50640477D02*
X75119048Y-50878573D01*
X75119048Y-51473811D01*
X75238095Y-51711906D01*
X75476190Y-51830954D01*
X75714286Y-51830954D01*
X75952381Y-51711906D01*
X76071429Y-51473811D01*
X76071429Y-50878573D01*
X76190476Y-50640477D01*
X76785714Y-49450001D02*
X75119048Y-49450001D01*
X76547619Y-49450001D02*
X76666667Y-49330953D01*
X76785714Y-49092858D01*
X76785714Y-48735715D01*
X76666667Y-48497620D01*
X76428571Y-48378572D01*
X75119048Y-48378572D01*
X75119048Y-46116667D02*
X77619048Y-46116667D01*
X75238095Y-46116667D02*
X75119048Y-46354763D01*
X75119048Y-46830953D01*
X75238095Y-47069048D01*
X75357143Y-47188096D01*
X75595238Y-47307144D01*
X76309524Y-47307144D01*
X76547619Y-47188096D01*
X76666667Y-47069048D01*
X76785714Y-46830953D01*
X76785714Y-46354763D01*
X76666667Y-46116667D01*
X75119048Y-41592857D02*
X76309524Y-42426191D01*
X75119048Y-43021429D02*
X77619048Y-43021429D01*
X77619048Y-42069048D01*
X77500000Y-41830953D01*
X77380952Y-41711905D01*
X77142857Y-41592857D01*
X76785714Y-41592857D01*
X76547619Y-41711905D01*
X76428571Y-41830953D01*
X76309524Y-42069048D01*
X76309524Y-43021429D01*
X75119048Y-40164286D02*
X75238095Y-40402381D01*
X75357143Y-40521429D01*
X75595238Y-40640477D01*
X76309524Y-40640477D01*
X76547619Y-40521429D01*
X76666667Y-40402381D01*
X76785714Y-40164286D01*
X76785714Y-39807143D01*
X76666667Y-39569048D01*
X76547619Y-39450000D01*
X76309524Y-39330953D01*
X75595238Y-39330953D01*
X75357143Y-39450000D01*
X75238095Y-39569048D01*
X75119048Y-39807143D01*
X75119048Y-40164286D01*
X76785714Y-38497619D02*
X75119048Y-37902381D01*
X76785714Y-37307143D01*
X75238095Y-35402381D02*
X75119048Y-35640476D01*
X75119048Y-36116667D01*
X75238095Y-36354762D01*
X75476190Y-36473810D01*
X76428571Y-36473810D01*
X76666667Y-36354762D01*
X76785714Y-36116667D01*
X76785714Y-35640476D01*
X76666667Y-35402381D01*
X76428571Y-35283333D01*
X76190476Y-35283333D01*
X75952381Y-36473810D01*
X75119048Y-34211905D02*
X76785714Y-34211905D01*
X76309524Y-34211905D02*
X76547619Y-34092857D01*
X76666667Y-33973810D01*
X76785714Y-33735714D01*
X76785714Y-33497619D01*
X77619048Y-30283333D02*
X77619048Y-29807143D01*
X77500000Y-29569048D01*
X77261905Y-29330952D01*
X76785714Y-29211905D01*
X75952381Y-29211905D01*
X75476190Y-29330952D01*
X75238095Y-29569048D01*
X75119048Y-29807143D01*
X75119048Y-30283333D01*
X75238095Y-30521429D01*
X75476190Y-30759524D01*
X75952381Y-30878572D01*
X76785714Y-30878572D01*
X77261905Y-30759524D01*
X77500000Y-30521429D01*
X77619048Y-30283333D01*
X75238095Y-28259524D02*
X75119048Y-27902381D01*
X75119048Y-27307143D01*
X75238095Y-27069047D01*
X75357143Y-26950000D01*
X75595238Y-26830952D01*
X75833333Y-26830952D01*
X76071429Y-26950000D01*
X76190476Y-27069047D01*
X76309524Y-27307143D01*
X76428571Y-27783333D01*
X76547619Y-28021428D01*
X76666667Y-28140476D01*
X76904762Y-28259524D01*
X77142857Y-28259524D01*
X77380952Y-28140476D01*
X77500000Y-28021428D01*
X77619048Y-27783333D01*
X77619048Y-27188095D01*
X77500000Y-26830952D01*
X77619048Y-26116667D02*
X77619048Y-24688095D01*
X75119048Y-25402381D02*
X77619048Y-25402381D01*
X75357143Y-22426190D02*
X75238095Y-22545238D01*
X75119048Y-22902381D01*
X75119048Y-23140476D01*
X75238095Y-23497619D01*
X75476190Y-23735714D01*
X75714286Y-23854762D01*
X76190476Y-23973810D01*
X76547619Y-23973810D01*
X77023810Y-23854762D01*
X77261905Y-23735714D01*
X77500000Y-23497619D01*
X77619048Y-23140476D01*
X77619048Y-22902381D01*
X77500000Y-22545238D01*
X77380952Y-22426190D01*
D12*
X115871428Y-22950000D02*
X116014285Y-22878571D01*
X116228571Y-22878571D01*
X116442856Y-22950000D01*
X116585714Y-23092857D01*
X116657142Y-23235714D01*
X116728571Y-23521429D01*
X116728571Y-23735714D01*
X116657142Y-24021429D01*
X116585714Y-24164286D01*
X116442856Y-24307143D01*
X116228571Y-24378571D01*
X116085714Y-24378571D01*
X115871428Y-24307143D01*
X115799999Y-24235714D01*
X115799999Y-23735714D01*
X116085714Y-23735714D01*
X115157142Y-24378571D02*
X115157142Y-22878571D01*
X114585714Y-22878571D01*
X114442856Y-22950000D01*
X114371428Y-23021429D01*
X114299999Y-23164286D01*
X114299999Y-23378571D01*
X114371428Y-23521429D01*
X114442856Y-23592857D01*
X114585714Y-23664286D01*
X115157142Y-23664286D01*
X113728571Y-24307143D02*
X113514285Y-24378571D01*
X113157142Y-24378571D01*
X113014285Y-24307143D01*
X112942856Y-24235714D01*
X112871428Y-24092857D01*
X112871428Y-23950000D01*
X112942856Y-23807143D01*
X113014285Y-23735714D01*
X113157142Y-23664286D01*
X113442856Y-23592857D01*
X113585714Y-23521429D01*
X113657142Y-23450000D01*
X113728571Y-23307143D01*
X113728571Y-23164286D01*
X113657142Y-23021429D01*
X113585714Y-22950000D01*
X113442856Y-22878571D01*
X113085714Y-22878571D01*
X112871428Y-22950000D01*
X118942857Y-26350000D02*
X118228571Y-26350000D01*
X119085714Y-26778571D02*
X118585714Y-25278571D01*
X118085714Y-26778571D01*
X117585714Y-25778571D02*
X117585714Y-26778571D01*
X117585714Y-25921429D02*
X117514286Y-25850000D01*
X117371428Y-25778571D01*
X117157143Y-25778571D01*
X117014286Y-25850000D01*
X116942857Y-25992857D01*
X116942857Y-26778571D01*
X116442857Y-25778571D02*
X115871428Y-25778571D01*
X116228571Y-25278571D02*
X116228571Y-26564286D01*
X116157143Y-26707143D01*
X116014285Y-26778571D01*
X115871428Y-26778571D01*
X114800000Y-26707143D02*
X114942857Y-26778571D01*
X115228571Y-26778571D01*
X115371428Y-26707143D01*
X115442857Y-26564286D01*
X115442857Y-25992857D01*
X115371428Y-25850000D01*
X115228571Y-25778571D01*
X114942857Y-25778571D01*
X114800000Y-25850000D01*
X114728571Y-25992857D01*
X114728571Y-26135714D01*
X115442857Y-26278571D01*
X114085714Y-25778571D02*
X114085714Y-26778571D01*
X114085714Y-25921429D02*
X114014286Y-25850000D01*
X113871428Y-25778571D01*
X113657143Y-25778571D01*
X113514286Y-25850000D01*
X113442857Y-25992857D01*
X113442857Y-26778571D01*
X112728571Y-25778571D02*
X112728571Y-26778571D01*
X112728571Y-25921429D02*
X112657143Y-25850000D01*
X112514285Y-25778571D01*
X112300000Y-25778571D01*
X112157143Y-25850000D01*
X112085714Y-25992857D01*
X112085714Y-26778571D01*
X110728571Y-26778571D02*
X110728571Y-25992857D01*
X110800000Y-25850000D01*
X110942857Y-25778571D01*
X111228571Y-25778571D01*
X111371428Y-25850000D01*
X110728571Y-26707143D02*
X110871428Y-26778571D01*
X111228571Y-26778571D01*
X111371428Y-26707143D01*
X111442857Y-26564286D01*
X111442857Y-26421429D01*
X111371428Y-26278571D01*
X111228571Y-26207143D01*
X110871428Y-26207143D01*
X110728571Y-26135714D01*
D15*
X48000000Y-20500000D02*
G75*
G03X48000000Y-20500000I-3500000J0D01*
G01*
X106000000Y-20500000D02*
G75*
G03X106000000Y-20500000I-3500000J0D01*
G01*
X106000000Y-69500000D02*
G75*
G03X106000000Y-69500000I-3500000J0D01*
G01*
X48000000Y-69500000D02*
G75*
G03X48000000Y-69500000I-3500000J0D01*
G01*
D12*
X119614284Y-64178571D02*
X118685713Y-64178571D01*
X119185713Y-64750000D01*
X118971427Y-64750000D01*
X118828570Y-64821429D01*
X118757141Y-64892857D01*
X118685713Y-65035714D01*
X118685713Y-65392857D01*
X118757141Y-65535714D01*
X118828570Y-65607143D01*
X118971427Y-65678571D01*
X119399999Y-65678571D01*
X119542856Y-65607143D01*
X119614284Y-65535714D01*
X117257142Y-64250000D02*
X117399999Y-64178571D01*
X117614285Y-64178571D01*
X117828570Y-64250000D01*
X117971428Y-64392857D01*
X118042856Y-64535714D01*
X118114285Y-64821429D01*
X118114285Y-65035714D01*
X118042856Y-65321429D01*
X117971428Y-65464286D01*
X117828570Y-65607143D01*
X117614285Y-65678571D01*
X117471428Y-65678571D01*
X117257142Y-65607143D01*
X117185713Y-65535714D01*
X117185713Y-65035714D01*
X117471428Y-65035714D01*
X114542856Y-65535714D02*
X114614285Y-65607143D01*
X114828571Y-65678571D01*
X114971428Y-65678571D01*
X115185713Y-65607143D01*
X115328571Y-65464286D01*
X115399999Y-65321429D01*
X115471428Y-65035714D01*
X115471428Y-64821429D01*
X115399999Y-64535714D01*
X115328571Y-64392857D01*
X115185713Y-64250000D01*
X114971428Y-64178571D01*
X114828571Y-64178571D01*
X114614285Y-64250000D01*
X114542856Y-64321429D01*
X113328571Y-65607143D02*
X113471428Y-65678571D01*
X113757142Y-65678571D01*
X113899999Y-65607143D01*
X113971428Y-65464286D01*
X113971428Y-64892857D01*
X113899999Y-64750000D01*
X113757142Y-64678571D01*
X113471428Y-64678571D01*
X113328571Y-64750000D01*
X113257142Y-64892857D01*
X113257142Y-65035714D01*
X113971428Y-65178571D01*
X112399999Y-65678571D02*
X112542857Y-65607143D01*
X112614285Y-65464286D01*
X112614285Y-64178571D01*
X111614285Y-65678571D02*
X111757143Y-65607143D01*
X111828571Y-65464286D01*
X111828571Y-64178571D01*
X110400000Y-64678571D02*
X110400000Y-65678571D01*
X111042857Y-64678571D02*
X111042857Y-65464286D01*
X110971429Y-65607143D01*
X110828571Y-65678571D01*
X110614286Y-65678571D01*
X110471429Y-65607143D01*
X110400000Y-65535714D01*
X109471428Y-65678571D02*
X109614286Y-65607143D01*
X109685714Y-65464286D01*
X109685714Y-64178571D01*
X108257143Y-65678571D02*
X108257143Y-64892857D01*
X108328572Y-64750000D01*
X108471429Y-64678571D01*
X108757143Y-64678571D01*
X108900000Y-64750000D01*
X108257143Y-65607143D02*
X108400000Y-65678571D01*
X108757143Y-65678571D01*
X108900000Y-65607143D01*
X108971429Y-65464286D01*
X108971429Y-65321429D01*
X108900000Y-65178571D01*
X108757143Y-65107143D01*
X108400000Y-65107143D01*
X108257143Y-65035714D01*
X107542857Y-65678571D02*
X107542857Y-64678571D01*
X107542857Y-64964286D02*
X107471429Y-64821429D01*
X107400000Y-64750000D01*
X107257143Y-64678571D01*
X107114286Y-64678571D01*
X117435714Y-68078571D02*
X117435714Y-66578571D01*
X116578571Y-68078571D01*
X116578571Y-66578571D01*
X115292857Y-68007143D02*
X115435714Y-68078571D01*
X115721428Y-68078571D01*
X115864285Y-68007143D01*
X115935714Y-67864286D01*
X115935714Y-67292857D01*
X115864285Y-67150000D01*
X115721428Y-67078571D01*
X115435714Y-67078571D01*
X115292857Y-67150000D01*
X115221428Y-67292857D01*
X115221428Y-67435714D01*
X115935714Y-67578571D01*
X114792857Y-67078571D02*
X114221428Y-67078571D01*
X114578571Y-66578571D02*
X114578571Y-67864286D01*
X114507143Y-68007143D01*
X114364285Y-68078571D01*
X114221428Y-68078571D01*
X113864285Y-67078571D02*
X113578571Y-68078571D01*
X113292857Y-67364286D01*
X113007142Y-68078571D01*
X112721428Y-67078571D01*
X111935713Y-68078571D02*
X112078571Y-68007143D01*
X112149999Y-67935714D01*
X112221428Y-67792857D01*
X112221428Y-67364286D01*
X112149999Y-67221429D01*
X112078571Y-67150000D01*
X111935713Y-67078571D01*
X111721428Y-67078571D01*
X111578571Y-67150000D01*
X111507142Y-67221429D01*
X111435713Y-67364286D01*
X111435713Y-67792857D01*
X111507142Y-67935714D01*
X111578571Y-68007143D01*
X111721428Y-68078571D01*
X111935713Y-68078571D01*
X110792856Y-68078571D02*
X110792856Y-67078571D01*
X110792856Y-67364286D02*
X110721428Y-67221429D01*
X110649999Y-67150000D01*
X110507142Y-67078571D01*
X110364285Y-67078571D01*
X109864285Y-68078571D02*
X109864285Y-66578571D01*
X109721428Y-67507143D02*
X109292857Y-68078571D01*
X109292857Y-67078571D02*
X109864285Y-67650000D01*
X117542857Y-70050000D02*
X116828571Y-70050000D01*
X117685714Y-70478571D02*
X117185714Y-68978571D01*
X116685714Y-70478571D01*
X116185714Y-69478571D02*
X116185714Y-70478571D01*
X116185714Y-69621429D02*
X116114286Y-69550000D01*
X115971428Y-69478571D01*
X115757143Y-69478571D01*
X115614286Y-69550000D01*
X115542857Y-69692857D01*
X115542857Y-70478571D01*
X115042857Y-69478571D02*
X114471428Y-69478571D01*
X114828571Y-68978571D02*
X114828571Y-70264286D01*
X114757143Y-70407143D01*
X114614285Y-70478571D01*
X114471428Y-70478571D01*
X113400000Y-70407143D02*
X113542857Y-70478571D01*
X113828571Y-70478571D01*
X113971428Y-70407143D01*
X114042857Y-70264286D01*
X114042857Y-69692857D01*
X113971428Y-69550000D01*
X113828571Y-69478571D01*
X113542857Y-69478571D01*
X113400000Y-69550000D01*
X113328571Y-69692857D01*
X113328571Y-69835714D01*
X114042857Y-69978571D01*
X112685714Y-69478571D02*
X112685714Y-70478571D01*
X112685714Y-69621429D02*
X112614286Y-69550000D01*
X112471428Y-69478571D01*
X112257143Y-69478571D01*
X112114286Y-69550000D01*
X112042857Y-69692857D01*
X112042857Y-70478571D01*
X111328571Y-69478571D02*
X111328571Y-70478571D01*
X111328571Y-69621429D02*
X111257143Y-69550000D01*
X111114285Y-69478571D01*
X110900000Y-69478571D01*
X110757143Y-69550000D01*
X110685714Y-69692857D01*
X110685714Y-70478571D01*
X109328571Y-70478571D02*
X109328571Y-69692857D01*
X109400000Y-69550000D01*
X109542857Y-69478571D01*
X109828571Y-69478571D01*
X109971428Y-69550000D01*
X109328571Y-70407143D02*
X109471428Y-70478571D01*
X109828571Y-70478571D01*
X109971428Y-70407143D01*
X110042857Y-70264286D01*
X110042857Y-70121429D01*
X109971428Y-69978571D01*
X109828571Y-69907143D01*
X109471428Y-69907143D01*
X109328571Y-69835714D01*
D16*
X94750000Y-24550000D02*
X94750000Y-24025000D01*
X90450000Y-20250000D02*
X90450000Y-20775000D01*
X94750000Y-20250000D02*
X94750000Y-20775000D01*
X90450000Y-24550000D02*
X90975000Y-24550000D01*
X90450000Y-20250000D02*
X90975000Y-20250000D01*
X94750000Y-20250000D02*
X94225000Y-20250000D01*
X94750000Y-24550000D02*
X94225000Y-24550000D01*
X56600000Y-32675000D02*
X57600000Y-32675000D01*
X57600000Y-31325000D02*
X56600000Y-31325000D01*
X94821000Y-47988000D02*
X94821000Y-49512000D01*
X94694000Y-49893000D02*
X94694000Y-47607000D01*
X94567000Y-47353000D02*
X94567000Y-50147000D01*
X94440000Y-50401000D02*
X94440000Y-47099000D01*
X94313000Y-46972000D02*
X94313000Y-50528000D01*
X95202000Y-45448000D02*
X95202000Y-52052000D01*
X95202000Y-52052000D02*
X89360000Y-52052000D01*
X89360000Y-52052000D02*
X88598000Y-51290000D01*
X88598000Y-51290000D02*
X88598000Y-46210000D01*
X88598000Y-46210000D02*
X89360000Y-45448000D01*
X89360000Y-45448000D02*
X95202000Y-45448000D01*
X89741000Y-48750000D02*
X90503000Y-48750000D01*
X90122000Y-48369000D02*
X90122000Y-49131000D01*
X94948000Y-48750000D02*
G75*
G03X94948000Y-48750000I-3048000J0D01*
G01*
X103556320Y-50800000D02*
X103556320Y-50600200D01*
X103099280Y-50750000D02*
X103099280Y-50601000D01*
X98953840Y-50800000D02*
X98953840Y-50651000D01*
X103551240Y-47200000D02*
X103551240Y-47349000D01*
X103099280Y-47200000D02*
X103099280Y-47349000D01*
X98948760Y-47200000D02*
X98948760Y-47349000D01*
X103099280Y-50948980D02*
X103099280Y-50750860D01*
X103099280Y-47001020D02*
X103099280Y-47199140D01*
X98953840Y-50996440D02*
X98953840Y-50798320D01*
X103556320Y-50996440D02*
X98953840Y-50996440D01*
X103556320Y-50996440D02*
X103556320Y-50798320D01*
X103551240Y-47001020D02*
X103551240Y-47199140D01*
X103551240Y-47001020D02*
X98948760Y-47001020D01*
X98948760Y-47001020D02*
X98948760Y-47199140D01*
X98700860Y-51449940D02*
X98700860Y-51800460D01*
X98700860Y-54950060D02*
X98700860Y-54599540D01*
X102750440Y-51449940D02*
X102750440Y-51800460D01*
X98249560Y-51449940D02*
X98249560Y-51800460D01*
X98249560Y-54950060D02*
X98249560Y-54599540D01*
X102750440Y-54950060D02*
X102750440Y-54599540D01*
X98249560Y-51449940D02*
X102750440Y-51449940D01*
X98249560Y-54950060D02*
X102750440Y-54950060D01*
X112300000Y-42400000D02*
G75*
G03X112300000Y-42400000I-100000J0D01*
G01*
X111950000Y-41750000D02*
X111950000Y-42250000D01*
X109050000Y-41750000D02*
X111950000Y-41750000D01*
X109050000Y-42250000D02*
X109050000Y-41750000D01*
X111950000Y-42250000D02*
X109050000Y-42250000D01*
X112300000Y-48300000D02*
G75*
G03X112300000Y-48300000I-100000J0D01*
G01*
X111950000Y-47650000D02*
X111950000Y-48150000D01*
X109050000Y-47650000D02*
X111950000Y-47650000D01*
X109050000Y-48150000D02*
X109050000Y-47650000D01*
X111950000Y-48150000D02*
X109050000Y-48150000D01*
X87425000Y-43375000D02*
X87425000Y-43230000D01*
X91575000Y-43375000D02*
X91575000Y-43230000D01*
X91575000Y-38225000D02*
X91575000Y-38370000D01*
X87425000Y-38225000D02*
X87425000Y-38370000D01*
X87425000Y-43375000D02*
X91575000Y-43375000D01*
X87425000Y-38225000D02*
X91575000Y-38225000D01*
X87425000Y-43230000D02*
X86025000Y-43230000D01*
X54250000Y-50775000D02*
X54595000Y-50775000D01*
X54250000Y-58525000D02*
X54595000Y-58525000D01*
X72500000Y-58525000D02*
X72155000Y-58525000D01*
X72500000Y-50775000D02*
X72155000Y-50775000D01*
X54250000Y-50775000D02*
X54250000Y-58525000D01*
X72500000Y-50775000D02*
X72500000Y-58525000D01*
X54595000Y-50775000D02*
X54595000Y-48950000D01*
X94700000Y-69550000D02*
G75*
G03X94700000Y-69550000I-100000J0D01*
G01*
X94350000Y-69000000D02*
X94350000Y-69500000D01*
X91450000Y-69000000D02*
X94350000Y-69000000D01*
X91450000Y-69500000D02*
X91450000Y-69000000D01*
X94350000Y-69500000D02*
X91450000Y-69500000D01*
X90950000Y-69550000D02*
G75*
G03X90950000Y-69550000I-100000J0D01*
G01*
X90600000Y-69000000D02*
X90600000Y-69500000D01*
X87700000Y-69000000D02*
X90600000Y-69000000D01*
X87700000Y-69500000D02*
X87700000Y-69000000D01*
X90600000Y-69500000D02*
X87700000Y-69500000D01*
X110300000Y-21200000D02*
G75*
G03X110300000Y-21200000I-100000J0D01*
G01*
X110750000Y-20950000D02*
X110250000Y-20950000D01*
X110750000Y-18050000D02*
X110750000Y-20950000D01*
X110250000Y-18050000D02*
X110750000Y-18050000D01*
X110250000Y-20950000D02*
X110250000Y-18050000D01*
X58300000Y-39800000D02*
G75*
G03X58300000Y-39800000I-100000J0D01*
G01*
X57950000Y-39250000D02*
X57950000Y-39750000D01*
X55050000Y-39250000D02*
X57950000Y-39250000D01*
X55050000Y-39750000D02*
X55050000Y-39250000D01*
X57950000Y-39750000D02*
X55050000Y-39750000D01*
X60825000Y-35175000D02*
X60825000Y-34500000D01*
X71175000Y-35175000D02*
X71175000Y-34500000D01*
X71175000Y-24825000D02*
X71175000Y-25500000D01*
X60825000Y-24825000D02*
X60825000Y-25500000D01*
X60825000Y-35175000D02*
X61500000Y-35175000D01*
X60825000Y-24825000D02*
X61500000Y-24825000D01*
X71175000Y-24825000D02*
X70500000Y-24825000D01*
X71175000Y-35175000D02*
X70500000Y-35175000D01*
X60825000Y-34500000D02*
X59550000Y-34500000D01*
X43400000Y-30300000D02*
X43000000Y-30300000D01*
X43000000Y-30300000D02*
X43000000Y-31900000D01*
X43000000Y-31900000D02*
X43400000Y-31900000D01*
X45800000Y-30400000D02*
X45800000Y-30300000D01*
X45800000Y-30300000D02*
X43600000Y-30300000D01*
X43600000Y-30300000D02*
X43600000Y-30400000D01*
X43600000Y-30400000D02*
X43600000Y-31900000D01*
X43600000Y-31900000D02*
X45800000Y-31900000D01*
X45800000Y-31900000D02*
X45800000Y-30400000D01*
X43400000Y-34800000D02*
X43000000Y-34800000D01*
X43000000Y-34800000D02*
X43000000Y-36400000D01*
X43000000Y-36400000D02*
X43400000Y-36400000D01*
X45800000Y-34900000D02*
X45800000Y-34800000D01*
X45800000Y-34800000D02*
X43600000Y-34800000D01*
X43600000Y-34800000D02*
X43600000Y-34900000D01*
X43600000Y-34900000D02*
X43600000Y-36400000D01*
X43600000Y-36400000D02*
X45800000Y-36400000D01*
X45800000Y-36400000D02*
X45800000Y-34900000D01*
X43400000Y-39300000D02*
X43000000Y-39300000D01*
X43000000Y-39300000D02*
X43000000Y-40900000D01*
X43000000Y-40900000D02*
X43400000Y-40900000D01*
X45800000Y-39400000D02*
X45800000Y-39300000D01*
X45800000Y-39300000D02*
X43600000Y-39300000D01*
X43600000Y-39300000D02*
X43600000Y-39400000D01*
X43600000Y-39400000D02*
X43600000Y-40900000D01*
X43600000Y-40900000D02*
X45800000Y-40900000D01*
X45800000Y-40900000D02*
X45800000Y-39400000D01*
X63600000Y-63850000D02*
X63600000Y-62850000D01*
X65300000Y-62850000D02*
X65300000Y-63850000D01*
X95875000Y-58200000D02*
X95875000Y-56200000D01*
X97925000Y-56200000D02*
X97925000Y-58200000D01*
X98125000Y-63000000D02*
X98125000Y-65000000D01*
X96075000Y-65000000D02*
X96075000Y-63000000D01*
X114650000Y-18900000D02*
X114650000Y-19900000D01*
X112950000Y-19900000D02*
X112950000Y-18900000D01*
X79375000Y-58500000D02*
X79375000Y-56500000D01*
X81425000Y-56500000D02*
X81425000Y-58500000D01*
X82675000Y-62250000D02*
X82675000Y-64250000D01*
X80625000Y-64250000D02*
X80625000Y-62250000D01*
X79125000Y-70000000D02*
X79125000Y-68000000D01*
X81175000Y-68000000D02*
X81175000Y-70000000D01*
X49250000Y-26300000D02*
X49250000Y-25300000D01*
X50950000Y-25300000D02*
X50950000Y-26300000D01*
X90950000Y-65950000D02*
X95350000Y-65950000D01*
X95350000Y-65950000D02*
X95350000Y-61550000D01*
X95350000Y-61550000D02*
X90950000Y-61550000D01*
X90950000Y-61550000D02*
X90950000Y-65950000D01*
X83450000Y-65950000D02*
X87850000Y-65950000D01*
X87850000Y-65950000D02*
X87850000Y-61550000D01*
X87850000Y-61550000D02*
X83450000Y-61550000D01*
X83450000Y-61550000D02*
X83450000Y-65950000D01*
X52299760Y-67899160D02*
X52299760Y-67850900D01*
X53000800Y-65100180D02*
X52299760Y-65100180D01*
X52299760Y-65100180D02*
X52299760Y-65349100D01*
X52299760Y-67899160D02*
X52299760Y-68099820D01*
X52299760Y-68099820D02*
X53000800Y-68099820D01*
X56049760Y-67649160D02*
X56049760Y-67600900D01*
X56750800Y-64850180D02*
X56049760Y-64850180D01*
X56049760Y-64850180D02*
X56049760Y-65099100D01*
X56049760Y-67649160D02*
X56049760Y-67849820D01*
X56049760Y-67849820D02*
X56750800Y-67849820D01*
X83400840Y-48849760D02*
X83449100Y-48849760D01*
X86199820Y-49550800D02*
X86199820Y-48849760D01*
X86199820Y-48849760D02*
X85950900Y-48849760D01*
X83400840Y-48849760D02*
X83200180Y-48849760D01*
X83200180Y-48849760D02*
X83200180Y-49550800D01*
X103000240Y-41050840D02*
X103000240Y-41099100D01*
X102299200Y-43849820D02*
X103000240Y-43849820D01*
X103000240Y-43849820D02*
X103000240Y-43600900D01*
X103000240Y-41050840D02*
X103000240Y-40850180D01*
X103000240Y-40850180D02*
X102299200Y-40850180D01*
X67700840Y-45749760D02*
X67749100Y-45749760D01*
X70499820Y-46450800D02*
X70499820Y-45749760D01*
X70499820Y-45749760D02*
X70250900Y-45749760D01*
X67700840Y-45749760D02*
X67500180Y-45749760D01*
X67500180Y-45749760D02*
X67500180Y-46450800D01*
X90125000Y-54125000D02*
X90270000Y-54125000D01*
X90125000Y-58275000D02*
X90270000Y-58275000D01*
X95275000Y-58275000D02*
X95130000Y-58275000D01*
X95275000Y-54125000D02*
X95130000Y-54125000D01*
X90125000Y-54125000D02*
X90125000Y-58275000D01*
X95275000Y-54125000D02*
X95275000Y-58275000D01*
X90270000Y-54125000D02*
X90270000Y-52725000D01*
X84525000Y-54125000D02*
X84670000Y-54125000D01*
X84525000Y-58275000D02*
X84670000Y-58275000D01*
X89675000Y-58275000D02*
X89530000Y-58275000D01*
X89675000Y-54125000D02*
X89530000Y-54125000D01*
X84525000Y-54125000D02*
X84525000Y-58275000D01*
X89675000Y-54125000D02*
X89675000Y-58275000D01*
X84670000Y-54125000D02*
X84670000Y-52725000D01*
X41000000Y-60600000D02*
X41000000Y-57400000D01*
X37700000Y-59000000D02*
X37700000Y-60500000D01*
X37700000Y-60500000D02*
X41000000Y-60600000D01*
X41000000Y-60600000D02*
X41000000Y-62400000D01*
X41000000Y-62400000D02*
X47700000Y-62400000D01*
X47700000Y-62400000D02*
X47700000Y-62000000D01*
X47700000Y-62000000D02*
X44300000Y-62000000D01*
X44300000Y-62000000D02*
X44300000Y-56000000D01*
X44300000Y-56000000D02*
X47700000Y-56000000D01*
X47700000Y-56000000D02*
X47700000Y-55600000D01*
X37700000Y-59000000D02*
X37700000Y-57500000D01*
X37700000Y-57500000D02*
X41000000Y-57400000D01*
X41000000Y-57400000D02*
X41000000Y-55600000D01*
X41000000Y-55600000D02*
X43500000Y-55600000D01*
X47700000Y-55600000D02*
X43500000Y-55600000D01*
X51650000Y-28250000D02*
X51900000Y-28250000D01*
X51900000Y-28250000D02*
X51900000Y-28500000D01*
X51900000Y-28500000D02*
X51650000Y-28500000D01*
X51650000Y-28500000D02*
X51650000Y-28750000D01*
X51650000Y-28750000D02*
X51900000Y-28750000D01*
X51900000Y-28750000D02*
X51900000Y-29000000D01*
X51900000Y-29000000D02*
X51650000Y-29000000D01*
X51650000Y-29000000D02*
X51650000Y-29250000D01*
X51650000Y-29250000D02*
X51900000Y-29250000D01*
X51900000Y-29250000D02*
X51900000Y-29000000D01*
X51900000Y-29000000D02*
X52150000Y-29000000D01*
X52150000Y-29000000D02*
X52150000Y-29250000D01*
X52150000Y-29250000D02*
X52400000Y-29250000D01*
X52400000Y-29250000D02*
X52400000Y-29000000D01*
X52400000Y-29000000D02*
X52650000Y-29000000D01*
X52650000Y-29000000D02*
X52650000Y-29250000D01*
X51650000Y-28000000D02*
X51900000Y-28000000D01*
X51650000Y-28000000D02*
X51650000Y-29250000D01*
X51650000Y-29250000D02*
X52900000Y-29250000D01*
X52900000Y-29250000D02*
X52900000Y-29000000D01*
X51900000Y-24000000D02*
X51900000Y-29000000D01*
X51900000Y-29000000D02*
X54900000Y-29000000D01*
X54900000Y-29000000D02*
X54900000Y-24000000D01*
X54900000Y-24000000D02*
X51900000Y-24000000D01*
X65150000Y-45850000D02*
X66650000Y-45850000D01*
X66650000Y-45850000D02*
X66650000Y-46100000D01*
X66650000Y-46100000D02*
X65150000Y-46100000D01*
X65150000Y-46100000D02*
X65150000Y-45850000D01*
X66775000Y-46950000D02*
X66775000Y-45750000D01*
X65025000Y-45750000D02*
X65025000Y-46950000D01*
X62700000Y-46850000D02*
X61200000Y-46850000D01*
X61200000Y-46850000D02*
X61200000Y-46600000D01*
X61200000Y-46600000D02*
X62700000Y-46600000D01*
X62700000Y-46600000D02*
X62700000Y-46850000D01*
X61075000Y-45750000D02*
X61075000Y-46950000D01*
X62825000Y-46950000D02*
X62825000Y-45750000D01*
X45500000Y-41750000D02*
X45500000Y-43250000D01*
X45500000Y-43250000D02*
X45250000Y-43250000D01*
X45250000Y-43250000D02*
X45250000Y-41750000D01*
X45250000Y-41750000D02*
X45500000Y-41750000D01*
X44400000Y-43375000D02*
X45600000Y-43375000D01*
X45600000Y-41625000D02*
X44400000Y-41625000D01*
X94000000Y-27200000D02*
X94000000Y-30400000D01*
X94000000Y-30400000D02*
X90400000Y-30400000D01*
X90400000Y-30400000D02*
X90400000Y-27200000D01*
X90400000Y-27200000D02*
X94000000Y-27200000D01*
X106772800Y-56620400D02*
X110227200Y-56620400D01*
X106772800Y-60379600D02*
X110227200Y-60379600D01*
X110227200Y-55879600D02*
X106772800Y-55879600D01*
X110227200Y-52120400D02*
X106772800Y-52120400D01*
X89400000Y-63817500D02*
X89400000Y-64198500D01*
X89400000Y-62801500D02*
X89400000Y-63182500D01*
X89400000Y-63182500D02*
X89019000Y-63817500D01*
X89019000Y-63817500D02*
X89781000Y-63817500D01*
X89781000Y-63817500D02*
X89400000Y-63182500D01*
X88892000Y-63182500D02*
X89908000Y-63182500D01*
X90300000Y-61500000D02*
X90300000Y-65040000D01*
X88500000Y-61500000D02*
X88500000Y-65040000D01*
X82900000Y-57817500D02*
X82900000Y-58198500D01*
X82900000Y-56801500D02*
X82900000Y-57182500D01*
X82900000Y-57182500D02*
X82519000Y-57817500D01*
X82519000Y-57817500D02*
X83281000Y-57817500D01*
X83281000Y-57817500D02*
X82900000Y-57182500D01*
X82392000Y-57182500D02*
X83408000Y-57182500D01*
X83800000Y-55500000D02*
X83800000Y-59040000D01*
X82000000Y-55500000D02*
X82000000Y-59040000D01*
X49750000Y-35575000D02*
X48750000Y-35575000D01*
X48750000Y-36925000D02*
X49750000Y-36925000D01*
X49750000Y-37575000D02*
X48750000Y-37575000D01*
X48750000Y-38925000D02*
X49750000Y-38925000D01*
X49750000Y-39575000D02*
X48750000Y-39575000D01*
X48750000Y-40925000D02*
X49750000Y-40925000D01*
X96500000Y-19075000D02*
X97500000Y-19075000D01*
X97500000Y-17725000D02*
X96500000Y-17725000D01*
X96900000Y-24175000D02*
X97900000Y-24175000D01*
X97900000Y-22825000D02*
X96900000Y-22825000D01*
X87200000Y-20275000D02*
X88200000Y-20275000D01*
X88200000Y-18925000D02*
X87200000Y-18925000D01*
X97500000Y-19525000D02*
X96500000Y-19525000D01*
X96500000Y-20875000D02*
X97500000Y-20875000D01*
X87950000Y-25425000D02*
X86950000Y-25425000D01*
X86950000Y-26775000D02*
X87950000Y-26775000D01*
X106600000Y-48275000D02*
X107600000Y-48275000D01*
X107600000Y-46925000D02*
X106600000Y-46925000D01*
X107600000Y-48775000D02*
X106600000Y-48775000D01*
X106600000Y-50125000D02*
X107600000Y-50125000D01*
X85075000Y-69750000D02*
X85075000Y-68750000D01*
X83725000Y-68750000D02*
X83725000Y-69750000D01*
X99125000Y-56600000D02*
X99125000Y-57600000D01*
X100475000Y-57600000D02*
X100475000Y-56600000D01*
X87075000Y-69750000D02*
X87075000Y-68750000D01*
X85725000Y-68750000D02*
X85725000Y-69750000D01*
X48750000Y-42925000D02*
X49750000Y-42925000D01*
X49750000Y-41575000D02*
X48750000Y-41575000D01*
X44500000Y-51175000D02*
X45500000Y-51175000D01*
X45500000Y-49825000D02*
X44500000Y-49825000D01*
X49750000Y-43825000D02*
X48750000Y-43825000D01*
X48750000Y-45175000D02*
X49750000Y-45175000D01*
X43325000Y-46900000D02*
X43325000Y-47900000D01*
X44675000Y-47900000D02*
X44675000Y-46900000D01*
X96825000Y-68100000D02*
X96825000Y-69100000D01*
X98175000Y-69100000D02*
X98175000Y-68100000D01*
X97100000Y-70725000D02*
X96100000Y-70725000D01*
X96100000Y-72075000D02*
X97100000Y-72075000D01*
X50175000Y-48000000D02*
X50175000Y-47000000D01*
X48825000Y-47000000D02*
X48825000Y-48000000D01*
X49000000Y-49825000D02*
X48000000Y-49825000D01*
X48000000Y-51175000D02*
X49000000Y-51175000D01*
X68025000Y-62850000D02*
X68025000Y-63850000D01*
X69375000Y-63850000D02*
X69375000Y-62850000D01*
X59775000Y-62350000D02*
X59775000Y-63350000D01*
X61125000Y-63350000D02*
X61125000Y-62350000D01*
X66025000Y-62850000D02*
X66025000Y-63850000D01*
X67375000Y-63850000D02*
X67375000Y-62850000D01*
X99400000Y-42625000D02*
X98400000Y-42625000D01*
X98400000Y-43975000D02*
X99400000Y-43975000D01*
X95900000Y-42625000D02*
X94900000Y-42625000D01*
X94900000Y-43975000D02*
X95900000Y-43975000D01*
X52125000Y-53850000D02*
X52125000Y-52850000D01*
X50775000Y-52850000D02*
X50775000Y-53850000D01*
X95900000Y-39025000D02*
X94900000Y-39025000D01*
X94900000Y-40375000D02*
X95900000Y-40375000D01*
X63275000Y-46100000D02*
X63275000Y-47100000D01*
X64625000Y-47100000D02*
X64625000Y-46100000D01*
X58375000Y-47100000D02*
X58375000Y-46100000D01*
X57025000Y-46100000D02*
X57025000Y-47100000D01*
X50775000Y-49350000D02*
X50775000Y-50350000D01*
X52125000Y-50350000D02*
X52125000Y-49350000D01*
X95900000Y-40825000D02*
X94900000Y-40825000D01*
X94900000Y-42175000D02*
X95900000Y-42175000D01*
X52725000Y-49400000D02*
X52725000Y-50400000D01*
X54075000Y-50400000D02*
X54075000Y-49400000D01*
X58375000Y-63350000D02*
X58375000Y-62350000D01*
X57025000Y-62350000D02*
X57025000Y-63350000D01*
X56375000Y-63350000D02*
X56375000Y-62350000D01*
X55025000Y-62350000D02*
X55025000Y-63350000D01*
X63125000Y-63350000D02*
X63125000Y-62350000D01*
X61775000Y-62350000D02*
X61775000Y-63350000D01*
X60525000Y-39100000D02*
X60525000Y-40100000D01*
X61875000Y-40100000D02*
X61875000Y-39100000D01*
X49425000Y-29300000D02*
X49425000Y-30300000D01*
X50775000Y-30300000D02*
X50775000Y-29300000D01*
X51025000Y-62350000D02*
X51025000Y-63350000D01*
X52375000Y-63350000D02*
X52375000Y-62350000D01*
X59025000Y-46100000D02*
X59025000Y-47100000D01*
X60375000Y-47100000D02*
X60375000Y-46100000D01*
X99400000Y-40825000D02*
X98400000Y-40825000D01*
X98400000Y-42175000D02*
X99400000Y-42175000D01*
X99400000Y-39025000D02*
X98400000Y-39025000D01*
X98400000Y-40375000D02*
X99400000Y-40375000D01*
X51075000Y-58750000D02*
X51075000Y-59750000D01*
X52425000Y-59750000D02*
X52425000Y-58750000D01*
X85275000Y-41300000D02*
X85275000Y-40300000D01*
X83925000Y-40300000D02*
X83925000Y-41300000D01*
X53025000Y-62350000D02*
X53025000Y-63350000D01*
X54375000Y-63350000D02*
X54375000Y-62350000D01*
X72475000Y-46900000D02*
X72475000Y-45900000D01*
X71125000Y-45900000D02*
X71125000Y-46900000D01*
X110000000Y-51675000D02*
X111000000Y-51675000D01*
X111000000Y-50325000D02*
X110000000Y-50325000D01*
X96375000Y-69100000D02*
X96375000Y-68100000D01*
X95025000Y-68100000D02*
X95025000Y-69100000D01*
X44500000Y-45175000D02*
X45500000Y-45175000D01*
X45500000Y-43825000D02*
X44500000Y-43825000D01*
X106625000Y-19100000D02*
X106625000Y-20100000D01*
X107975000Y-20100000D02*
X107975000Y-19100000D01*
X83075000Y-69750000D02*
X83075000Y-68750000D01*
X81725000Y-68750000D02*
X81725000Y-69750000D01*
X53500000Y-35575000D02*
X52500000Y-35575000D01*
X52500000Y-36925000D02*
X53500000Y-36925000D01*
X52500000Y-38925000D02*
X53500000Y-38925000D01*
X53500000Y-37575000D02*
X52500000Y-37575000D01*
X86950000Y-24775000D02*
X87950000Y-24775000D01*
X87950000Y-23425000D02*
X86950000Y-23425000D01*
X53500000Y-30425000D02*
X52500000Y-30425000D01*
X52500000Y-31775000D02*
X53500000Y-31775000D01*
X86950000Y-28775000D02*
X87950000Y-28775000D01*
X87950000Y-27425000D02*
X86950000Y-27425000D01*
X73225000Y-31500000D02*
X73225000Y-32500000D01*
X74575000Y-32500000D02*
X74575000Y-31500000D01*
X59075000Y-29500000D02*
X59075000Y-28500000D01*
X57725000Y-28500000D02*
X57725000Y-29500000D01*
X66200000Y-21775000D02*
X67200000Y-21775000D01*
X67200000Y-20425000D02*
X66200000Y-20425000D01*
X90950000Y-19275000D02*
X91950000Y-19275000D01*
X91950000Y-17925000D02*
X90950000Y-17925000D01*
X63875000Y-40100000D02*
X63875000Y-39100000D01*
X62525000Y-39100000D02*
X62525000Y-40100000D01*
X55230000Y-22970000D02*
X50150000Y-22970000D01*
X58050000Y-23250000D02*
X58050000Y-21700000D01*
X57770000Y-20430000D02*
X55230000Y-20430000D01*
X55230000Y-20430000D02*
X55230000Y-22970000D01*
X50150000Y-22970000D02*
X50150000Y-17890000D01*
X50150000Y-17890000D02*
X55230000Y-17890000D01*
X58050000Y-23250000D02*
X56500000Y-23250000D01*
X57770000Y-17890000D02*
X57770000Y-20430000D01*
X55230000Y-17890000D02*
X57770000Y-17890000D01*
X52500000Y-45175000D02*
X53500000Y-45175000D01*
X53500000Y-43825000D02*
X52500000Y-43825000D01*
X56000000Y-36925000D02*
X57000000Y-36925000D01*
X57000000Y-35575000D02*
X56000000Y-35575000D01*
X54800000Y-41550000D02*
G75*
G03X54800000Y-41550000I-100000J0D01*
G01*
X54450000Y-41000000D02*
X54450000Y-41500000D01*
X51550000Y-41000000D02*
X54450000Y-41000000D01*
X51550000Y-41500000D02*
X51550000Y-41000000D01*
X54450000Y-41500000D02*
X51550000Y-41500000D01*
X125700000Y-36700000D02*
X131700000Y-36700000D01*
X131700000Y-36700000D02*
X131700000Y-53300000D01*
X131700000Y-53300000D02*
X125700000Y-53300000D01*
X125700000Y-29500000D02*
X113900000Y-29500000D01*
X113900000Y-29500000D02*
X113900000Y-60500000D01*
X113900000Y-60500000D02*
X125700000Y-60500000D01*
X125700000Y-60500000D02*
X125700000Y-29500000D01*
X45400000Y-47100000D02*
G75*
G03X45400000Y-47100000I-100000J0D01*
G01*
X45550000Y-47750000D02*
X45550000Y-47250000D01*
X48450000Y-47750000D02*
X45550000Y-47750000D01*
X48450000Y-47250000D02*
X48450000Y-47750000D01*
X45550000Y-47250000D02*
X48450000Y-47250000D01*
X103300000Y-55300000D02*
G75*
G03X103300000Y-55300000I-100000J0D01*
G01*
X102550000Y-55550000D02*
X103050000Y-55550000D01*
X102550000Y-58450000D02*
X102550000Y-55550000D01*
X103050000Y-58450000D02*
X102550000Y-58450000D01*
X103050000Y-55550000D02*
X103050000Y-58450000D01*
X66000000Y-42175000D02*
X67000000Y-42175000D01*
X67000000Y-40825000D02*
X66000000Y-40825000D01*
X68825000Y-41750000D02*
X68825000Y-42750000D01*
X70175000Y-42750000D02*
X70175000Y-41750000D01*
X68750000Y-40275000D02*
X66750000Y-40275000D01*
X66750000Y-38225000D02*
X68750000Y-38225000D01*
X91638095Y-25152381D02*
X91638095Y-25961905D01*
X91590476Y-26057143D01*
X91542857Y-26104762D01*
X91447619Y-26152381D01*
X91257142Y-26152381D01*
X91161904Y-26104762D01*
X91114285Y-26057143D01*
X91066666Y-25961905D01*
X91066666Y-25152381D01*
X90066666Y-26152381D02*
X90638095Y-26152381D01*
X90352381Y-26152381D02*
X90352381Y-25152381D01*
X90447619Y-25295238D01*
X90542857Y-25390476D01*
X90638095Y-25438095D01*
X89209523Y-25152381D02*
X89400000Y-25152381D01*
X89495238Y-25200000D01*
X89542857Y-25247619D01*
X89638095Y-25390476D01*
X89685714Y-25580952D01*
X89685714Y-25961905D01*
X89638095Y-26057143D01*
X89590476Y-26104762D01*
X89495238Y-26152381D01*
X89304761Y-26152381D01*
X89209523Y-26104762D01*
X89161904Y-26057143D01*
X89114285Y-25961905D01*
X89114285Y-25723810D01*
X89161904Y-25628571D01*
X89209523Y-25580952D01*
X89304761Y-25533333D01*
X89495238Y-25533333D01*
X89590476Y-25580952D01*
X89638095Y-25628571D01*
X89685714Y-25723810D01*
X55614286Y-31514285D02*
X55642857Y-31485714D01*
X55671429Y-31400000D01*
X55671429Y-31342857D01*
X55642857Y-31257142D01*
X55585714Y-31200000D01*
X55528571Y-31171428D01*
X55414286Y-31142857D01*
X55328571Y-31142857D01*
X55214286Y-31171428D01*
X55157143Y-31200000D01*
X55100000Y-31257142D01*
X55071429Y-31342857D01*
X55071429Y-31400000D01*
X55100000Y-31485714D01*
X55128571Y-31514285D01*
X55071429Y-32057142D02*
X55071429Y-31771428D01*
X55357143Y-31742857D01*
X55328571Y-31771428D01*
X55300000Y-31828571D01*
X55300000Y-31971428D01*
X55328571Y-32028571D01*
X55357143Y-32057142D01*
X55414286Y-32085714D01*
X55557143Y-32085714D01*
X55614286Y-32057142D01*
X55642857Y-32028571D01*
X55671429Y-31971428D01*
X55671429Y-31828571D01*
X55642857Y-31771428D01*
X55614286Y-31742857D01*
X55128571Y-32314286D02*
X55100000Y-32342857D01*
X55071429Y-32400000D01*
X55071429Y-32542857D01*
X55100000Y-32600000D01*
X55128571Y-32628571D01*
X55185714Y-32657143D01*
X55242857Y-32657143D01*
X55328571Y-32628571D01*
X55671429Y-32285714D01*
X55671429Y-32657143D01*
X92350000Y-44555000D02*
X92383334Y-44588333D01*
X92483334Y-44621667D01*
X92550000Y-44621667D01*
X92650000Y-44588333D01*
X92716667Y-44521667D01*
X92750000Y-44455000D01*
X92783334Y-44321667D01*
X92783334Y-44221667D01*
X92750000Y-44088333D01*
X92716667Y-44021667D01*
X92650000Y-43955000D01*
X92550000Y-43921667D01*
X92483334Y-43921667D01*
X92383334Y-43955000D01*
X92350000Y-43988333D01*
X91683334Y-44621667D02*
X92083334Y-44621667D01*
X91883334Y-44621667D02*
X91883334Y-43921667D01*
X91950000Y-44021667D01*
X92016667Y-44088333D01*
X92083334Y-44121667D01*
X91350000Y-44621667D02*
X91216667Y-44621667D01*
X91150000Y-44588333D01*
X91116667Y-44555000D01*
X91050000Y-44455000D01*
X91016667Y-44321667D01*
X91016667Y-44055000D01*
X91050000Y-43988333D01*
X91083333Y-43955000D01*
X91150000Y-43921667D01*
X91283333Y-43921667D01*
X91350000Y-43955000D01*
X91383333Y-43988333D01*
X91416667Y-44055000D01*
X91416667Y-44221667D01*
X91383333Y-44288333D01*
X91350000Y-44321667D01*
X91283333Y-44355000D01*
X91150000Y-44355000D01*
X91083333Y-44321667D01*
X91050000Y-44288333D01*
X91016667Y-44221667D01*
X98416666Y-47316667D02*
X98416666Y-46616667D01*
X98250000Y-46616667D01*
X98150000Y-46650000D01*
X98083333Y-46716667D01*
X98050000Y-46783333D01*
X98016666Y-46916667D01*
X98016666Y-47016667D01*
X98050000Y-47150000D01*
X98083333Y-47216667D01*
X98150000Y-47283333D01*
X98250000Y-47316667D01*
X98416666Y-47316667D01*
X97416666Y-46616667D02*
X97550000Y-46616667D01*
X97616666Y-46650000D01*
X97650000Y-46683333D01*
X97716666Y-46783333D01*
X97750000Y-46916667D01*
X97750000Y-47183333D01*
X97716666Y-47250000D01*
X97683333Y-47283333D01*
X97616666Y-47316667D01*
X97483333Y-47316667D01*
X97416666Y-47283333D01*
X97383333Y-47250000D01*
X97350000Y-47183333D01*
X97350000Y-47016667D01*
X97383333Y-46950000D01*
X97416666Y-46916667D01*
X97483333Y-46883333D01*
X97616666Y-46883333D01*
X97683333Y-46916667D01*
X97716666Y-46950000D01*
X97750000Y-47016667D01*
X97616666Y-52016667D02*
X97616666Y-51316667D01*
X97450000Y-51316667D01*
X97350000Y-51350000D01*
X97283333Y-51416667D01*
X97250000Y-51483333D01*
X97216666Y-51616667D01*
X97216666Y-51716667D01*
X97250000Y-51850000D01*
X97283333Y-51916667D01*
X97350000Y-51983333D01*
X97450000Y-52016667D01*
X97616666Y-52016667D01*
X96983333Y-51316667D02*
X96516666Y-51316667D01*
X96816666Y-52016667D01*
X112552381Y-41238095D02*
X113361905Y-41238095D01*
X113457143Y-41285714D01*
X113504762Y-41333333D01*
X113552381Y-41428571D01*
X113552381Y-41619048D01*
X113504762Y-41714286D01*
X113457143Y-41761905D01*
X113361905Y-41809524D01*
X112552381Y-41809524D01*
X112647619Y-42238095D02*
X112600000Y-42285714D01*
X112552381Y-42380952D01*
X112552381Y-42619048D01*
X112600000Y-42714286D01*
X112647619Y-42761905D01*
X112742857Y-42809524D01*
X112838095Y-42809524D01*
X112980952Y-42761905D01*
X113552381Y-42190476D01*
X113552381Y-42809524D01*
X112552381Y-47138095D02*
X113361905Y-47138095D01*
X113457143Y-47185714D01*
X113504762Y-47233333D01*
X113552381Y-47328571D01*
X113552381Y-47519048D01*
X113504762Y-47614286D01*
X113457143Y-47661905D01*
X113361905Y-47709524D01*
X112552381Y-47709524D01*
X112552381Y-48090476D02*
X112552381Y-48709524D01*
X112933333Y-48376190D01*
X112933333Y-48519048D01*
X112980952Y-48614286D01*
X113028571Y-48661905D01*
X113123810Y-48709524D01*
X113361905Y-48709524D01*
X113457143Y-48661905D01*
X113504762Y-48614286D01*
X113552381Y-48519048D01*
X113552381Y-48233333D01*
X113504762Y-48138095D01*
X113457143Y-48090476D01*
X86833333Y-43716667D02*
X86833333Y-44283333D01*
X86800000Y-44350000D01*
X86766667Y-44383333D01*
X86700000Y-44416667D01*
X86566667Y-44416667D01*
X86500000Y-44383333D01*
X86466667Y-44350000D01*
X86433333Y-44283333D01*
X86433333Y-43716667D01*
X85766667Y-43716667D02*
X86100000Y-43716667D01*
X86133334Y-44050000D01*
X86100000Y-44016667D01*
X86033334Y-43983333D01*
X85866667Y-43983333D01*
X85800000Y-44016667D01*
X85766667Y-44050000D01*
X85733334Y-44116667D01*
X85733334Y-44283333D01*
X85766667Y-44350000D01*
X85800000Y-44383333D01*
X85866667Y-44416667D01*
X86033334Y-44416667D01*
X86100000Y-44383333D01*
X86133334Y-44350000D01*
X53366667Y-52266667D02*
X53933333Y-52266667D01*
X54000000Y-52300000D01*
X54033333Y-52333333D01*
X54066667Y-52400000D01*
X54066667Y-52533333D01*
X54033333Y-52600000D01*
X54000000Y-52633333D01*
X53933333Y-52666667D01*
X53366667Y-52666667D01*
X53366667Y-53300000D02*
X53366667Y-53166666D01*
X53400000Y-53100000D01*
X53433333Y-53066666D01*
X53533333Y-53000000D01*
X53666667Y-52966666D01*
X53933333Y-52966666D01*
X54000000Y-53000000D01*
X54033333Y-53033333D01*
X54066667Y-53100000D01*
X54066667Y-53233333D01*
X54033333Y-53300000D01*
X54000000Y-53333333D01*
X53933333Y-53366666D01*
X53766667Y-53366666D01*
X53700000Y-53333333D01*
X53666667Y-53300000D01*
X53633333Y-53233333D01*
X53633333Y-53100000D01*
X53666667Y-53033333D01*
X53700000Y-53000000D01*
X53766667Y-52966666D01*
X93352381Y-71238095D02*
X94161905Y-71238095D01*
X94257143Y-71285714D01*
X94304762Y-71333333D01*
X94352381Y-71428571D01*
X94352381Y-71619048D01*
X94304762Y-71714286D01*
X94257143Y-71761905D01*
X94161905Y-71809524D01*
X93352381Y-71809524D01*
X93780952Y-72428571D02*
X93733333Y-72333333D01*
X93685714Y-72285714D01*
X93590476Y-72238095D01*
X93542857Y-72238095D01*
X93447619Y-72285714D01*
X93400000Y-72333333D01*
X93352381Y-72428571D01*
X93352381Y-72619048D01*
X93400000Y-72714286D01*
X93447619Y-72761905D01*
X93542857Y-72809524D01*
X93590476Y-72809524D01*
X93685714Y-72761905D01*
X93733333Y-72714286D01*
X93780952Y-72619048D01*
X93780952Y-72428571D01*
X93828571Y-72333333D01*
X93876190Y-72285714D01*
X93971429Y-72238095D01*
X94161905Y-72238095D01*
X94257143Y-72285714D01*
X94304762Y-72333333D01*
X94352381Y-72428571D01*
X94352381Y-72619048D01*
X94304762Y-72714286D01*
X94257143Y-72761905D01*
X94161905Y-72809524D01*
X93971429Y-72809524D01*
X93876190Y-72761905D01*
X93828571Y-72714286D01*
X93780952Y-72619048D01*
X89652381Y-71138095D02*
X90461905Y-71138095D01*
X90557143Y-71185714D01*
X90604762Y-71233333D01*
X90652381Y-71328571D01*
X90652381Y-71519048D01*
X90604762Y-71614286D01*
X90557143Y-71661905D01*
X90461905Y-71709524D01*
X89652381Y-71709524D01*
X90652381Y-72233333D02*
X90652381Y-72423809D01*
X90604762Y-72519048D01*
X90557143Y-72566667D01*
X90414286Y-72661905D01*
X90223810Y-72709524D01*
X89842857Y-72709524D01*
X89747619Y-72661905D01*
X89700000Y-72614286D01*
X89652381Y-72519048D01*
X89652381Y-72328571D01*
X89700000Y-72233333D01*
X89747619Y-72185714D01*
X89842857Y-72138095D01*
X90080952Y-72138095D01*
X90176190Y-72185714D01*
X90223810Y-72233333D01*
X90271429Y-72328571D01*
X90271429Y-72519048D01*
X90223810Y-72614286D01*
X90176190Y-72661905D01*
X90080952Y-72709524D01*
X111688095Y-21502381D02*
X111688095Y-22311905D01*
X111640476Y-22407143D01*
X111592857Y-22454762D01*
X111497619Y-22502381D01*
X111307142Y-22502381D01*
X111211904Y-22454762D01*
X111164285Y-22407143D01*
X111116666Y-22311905D01*
X111116666Y-21502381D01*
X110116666Y-22502381D02*
X110688095Y-22502381D01*
X110402381Y-22502381D02*
X110402381Y-21502381D01*
X110497619Y-21645238D01*
X110592857Y-21740476D01*
X110688095Y-21788095D01*
X109164285Y-22502381D02*
X109735714Y-22502381D01*
X109450000Y-22502381D02*
X109450000Y-21502381D01*
X109545238Y-21645238D01*
X109640476Y-21740476D01*
X109735714Y-21788095D01*
X59866666Y-40216667D02*
X59866666Y-40783333D01*
X59833333Y-40850000D01*
X59800000Y-40883333D01*
X59733333Y-40916667D01*
X59600000Y-40916667D01*
X59533333Y-40883333D01*
X59500000Y-40850000D01*
X59466666Y-40783333D01*
X59466666Y-40216667D01*
X58766667Y-40916667D02*
X59166667Y-40916667D01*
X58966667Y-40916667D02*
X58966667Y-40216667D01*
X59033333Y-40316667D01*
X59100000Y-40383333D01*
X59166667Y-40416667D01*
X58500000Y-40283333D02*
X58466666Y-40250000D01*
X58400000Y-40216667D01*
X58233333Y-40216667D01*
X58166666Y-40250000D01*
X58133333Y-40283333D01*
X58100000Y-40350000D01*
X58100000Y-40416667D01*
X58133333Y-40516667D01*
X58533333Y-40916667D01*
X58100000Y-40916667D01*
X60566666Y-34816667D02*
X60566666Y-35383333D01*
X60533333Y-35450000D01*
X60500000Y-35483333D01*
X60433333Y-35516667D01*
X60300000Y-35516667D01*
X60233333Y-35483333D01*
X60200000Y-35450000D01*
X60166666Y-35383333D01*
X60166666Y-34816667D01*
X59866667Y-34883333D02*
X59833333Y-34850000D01*
X59766667Y-34816667D01*
X59600000Y-34816667D01*
X59533333Y-34850000D01*
X59500000Y-34883333D01*
X59466667Y-34950000D01*
X59466667Y-35016667D01*
X59500000Y-35116667D01*
X59900000Y-35516667D01*
X59466667Y-35516667D01*
X59033333Y-34816667D02*
X58966666Y-34816667D01*
X58900000Y-34850000D01*
X58866666Y-34883333D01*
X58833333Y-34950000D01*
X58800000Y-35083333D01*
X58800000Y-35250000D01*
X58833333Y-35383333D01*
X58866666Y-35450000D01*
X58900000Y-35483333D01*
X58966666Y-35516667D01*
X59033333Y-35516667D01*
X59100000Y-35483333D01*
X59133333Y-35450000D01*
X59166666Y-35383333D01*
X59200000Y-35250000D01*
X59200000Y-35083333D01*
X59166666Y-34950000D01*
X59133333Y-34883333D01*
X59100000Y-34850000D01*
X59033333Y-34816667D01*
X42716667Y-30250000D02*
X42016667Y-30250000D01*
X42016667Y-30416666D01*
X42050000Y-30516666D01*
X42116667Y-30583333D01*
X42183333Y-30616666D01*
X42316667Y-30650000D01*
X42416667Y-30650000D01*
X42550000Y-30616666D01*
X42616667Y-30583333D01*
X42683333Y-30516666D01*
X42716667Y-30416666D01*
X42716667Y-30250000D01*
X42716667Y-31316666D02*
X42716667Y-30916666D01*
X42716667Y-31116666D02*
X42016667Y-31116666D01*
X42116667Y-31050000D01*
X42183333Y-30983333D01*
X42216667Y-30916666D01*
X42016667Y-31550000D02*
X42016667Y-31983333D01*
X42283333Y-31750000D01*
X42283333Y-31850000D01*
X42316667Y-31916667D01*
X42350000Y-31950000D01*
X42416667Y-31983333D01*
X42583333Y-31983333D01*
X42650000Y-31950000D01*
X42683333Y-31916667D01*
X42716667Y-31850000D01*
X42716667Y-31650000D01*
X42683333Y-31583333D01*
X42650000Y-31550000D01*
X42716667Y-34750000D02*
X42016667Y-34750000D01*
X42016667Y-34916666D01*
X42050000Y-35016666D01*
X42116667Y-35083333D01*
X42183333Y-35116666D01*
X42316667Y-35150000D01*
X42416667Y-35150000D01*
X42550000Y-35116666D01*
X42616667Y-35083333D01*
X42683333Y-35016666D01*
X42716667Y-34916666D01*
X42716667Y-34750000D01*
X42716667Y-35816666D02*
X42716667Y-35416666D01*
X42716667Y-35616666D02*
X42016667Y-35616666D01*
X42116667Y-35550000D01*
X42183333Y-35483333D01*
X42216667Y-35416666D01*
X42083333Y-36083333D02*
X42050000Y-36116667D01*
X42016667Y-36183333D01*
X42016667Y-36350000D01*
X42050000Y-36416667D01*
X42083333Y-36450000D01*
X42150000Y-36483333D01*
X42216667Y-36483333D01*
X42316667Y-36450000D01*
X42716667Y-36050000D01*
X42716667Y-36483333D01*
X42716667Y-39250000D02*
X42016667Y-39250000D01*
X42016667Y-39416666D01*
X42050000Y-39516666D01*
X42116667Y-39583333D01*
X42183333Y-39616666D01*
X42316667Y-39650000D01*
X42416667Y-39650000D01*
X42550000Y-39616666D01*
X42616667Y-39583333D01*
X42683333Y-39516666D01*
X42716667Y-39416666D01*
X42716667Y-39250000D01*
X42716667Y-40316666D02*
X42716667Y-39916666D01*
X42716667Y-40116666D02*
X42016667Y-40116666D01*
X42116667Y-40050000D01*
X42183333Y-39983333D01*
X42216667Y-39916666D01*
X42716667Y-40983333D02*
X42716667Y-40583333D01*
X42716667Y-40783333D02*
X42016667Y-40783333D01*
X42116667Y-40716667D01*
X42183333Y-40650000D01*
X42216667Y-40583333D01*
X64466666Y-61400000D02*
X64500000Y-61433333D01*
X64600000Y-61466667D01*
X64666666Y-61466667D01*
X64766666Y-61433333D01*
X64833333Y-61366667D01*
X64866666Y-61300000D01*
X64900000Y-61166667D01*
X64900000Y-61066667D01*
X64866666Y-60933333D01*
X64833333Y-60866667D01*
X64766666Y-60800000D01*
X64666666Y-60766667D01*
X64600000Y-60766667D01*
X64500000Y-60800000D01*
X64466666Y-60833333D01*
X64066666Y-61066667D02*
X64133333Y-61033333D01*
X64166666Y-61000000D01*
X64200000Y-60933333D01*
X64200000Y-60900000D01*
X64166666Y-60833333D01*
X64133333Y-60800000D01*
X64066666Y-60766667D01*
X63933333Y-60766667D01*
X63866666Y-60800000D01*
X63833333Y-60833333D01*
X63800000Y-60900000D01*
X63800000Y-60933333D01*
X63833333Y-61000000D01*
X63866666Y-61033333D01*
X63933333Y-61066667D01*
X64066666Y-61066667D01*
X64133333Y-61100000D01*
X64166666Y-61133333D01*
X64200000Y-61200000D01*
X64200000Y-61333333D01*
X64166666Y-61400000D01*
X64133333Y-61433333D01*
X64066666Y-61466667D01*
X63933333Y-61466667D01*
X63866666Y-61433333D01*
X63833333Y-61400000D01*
X63800000Y-61333333D01*
X63800000Y-61200000D01*
X63833333Y-61133333D01*
X63866666Y-61100000D01*
X63933333Y-61066667D01*
X97250000Y-54750000D02*
X97283334Y-54783333D01*
X97383334Y-54816667D01*
X97450000Y-54816667D01*
X97550000Y-54783333D01*
X97616667Y-54716667D01*
X97650000Y-54650000D01*
X97683334Y-54516667D01*
X97683334Y-54416667D01*
X97650000Y-54283333D01*
X97616667Y-54216667D01*
X97550000Y-54150000D01*
X97450000Y-54116667D01*
X97383334Y-54116667D01*
X97283334Y-54150000D01*
X97250000Y-54183333D01*
X96983334Y-54183333D02*
X96950000Y-54150000D01*
X96883334Y-54116667D01*
X96716667Y-54116667D01*
X96650000Y-54150000D01*
X96616667Y-54183333D01*
X96583334Y-54250000D01*
X96583334Y-54316667D01*
X96616667Y-54416667D01*
X97016667Y-54816667D01*
X96583334Y-54816667D01*
X96150000Y-54116667D02*
X96083333Y-54116667D01*
X96016667Y-54150000D01*
X95983333Y-54183333D01*
X95950000Y-54250000D01*
X95916667Y-54383333D01*
X95916667Y-54550000D01*
X95950000Y-54683333D01*
X95983333Y-54750000D01*
X96016667Y-54783333D01*
X96083333Y-54816667D01*
X96150000Y-54816667D01*
X96216667Y-54783333D01*
X96250000Y-54750000D01*
X96283333Y-54683333D01*
X96316667Y-54550000D01*
X96316667Y-54383333D01*
X96283333Y-54250000D01*
X96250000Y-54183333D01*
X96216667Y-54150000D01*
X96150000Y-54116667D01*
X97550000Y-61550000D02*
X97583334Y-61583333D01*
X97683334Y-61616667D01*
X97750000Y-61616667D01*
X97850000Y-61583333D01*
X97916667Y-61516667D01*
X97950000Y-61450000D01*
X97983334Y-61316667D01*
X97983334Y-61216667D01*
X97950000Y-61083333D01*
X97916667Y-61016667D01*
X97850000Y-60950000D01*
X97750000Y-60916667D01*
X97683334Y-60916667D01*
X97583334Y-60950000D01*
X97550000Y-60983333D01*
X97283334Y-60983333D02*
X97250000Y-60950000D01*
X97183334Y-60916667D01*
X97016667Y-60916667D01*
X96950000Y-60950000D01*
X96916667Y-60983333D01*
X96883334Y-61050000D01*
X96883334Y-61116667D01*
X96916667Y-61216667D01*
X97316667Y-61616667D01*
X96883334Y-61616667D01*
X96283333Y-61150000D02*
X96283333Y-61616667D01*
X96450000Y-60883333D02*
X96616667Y-61383333D01*
X96183333Y-61383333D01*
X114250000Y-22050000D02*
X114283334Y-22083333D01*
X114383334Y-22116667D01*
X114450000Y-22116667D01*
X114550000Y-22083333D01*
X114616667Y-22016667D01*
X114650000Y-21950000D01*
X114683334Y-21816667D01*
X114683334Y-21716667D01*
X114650000Y-21583333D01*
X114616667Y-21516667D01*
X114550000Y-21450000D01*
X114450000Y-21416667D01*
X114383334Y-21416667D01*
X114283334Y-21450000D01*
X114250000Y-21483333D01*
X113983334Y-21483333D02*
X113950000Y-21450000D01*
X113883334Y-21416667D01*
X113716667Y-21416667D01*
X113650000Y-21450000D01*
X113616667Y-21483333D01*
X113583334Y-21550000D01*
X113583334Y-21616667D01*
X113616667Y-21716667D01*
X114016667Y-22116667D01*
X113583334Y-22116667D01*
X113350000Y-21416667D02*
X112883333Y-21416667D01*
X113183333Y-22116667D01*
X80750000Y-55050000D02*
X80783334Y-55083333D01*
X80883334Y-55116667D01*
X80950000Y-55116667D01*
X81050000Y-55083333D01*
X81116667Y-55016667D01*
X81150000Y-54950000D01*
X81183334Y-54816667D01*
X81183334Y-54716667D01*
X81150000Y-54583333D01*
X81116667Y-54516667D01*
X81050000Y-54450000D01*
X80950000Y-54416667D01*
X80883334Y-54416667D01*
X80783334Y-54450000D01*
X80750000Y-54483333D01*
X80483334Y-54483333D02*
X80450000Y-54450000D01*
X80383334Y-54416667D01*
X80216667Y-54416667D01*
X80150000Y-54450000D01*
X80116667Y-54483333D01*
X80083334Y-54550000D01*
X80083334Y-54616667D01*
X80116667Y-54716667D01*
X80516667Y-55116667D01*
X80083334Y-55116667D01*
X79683333Y-54716667D02*
X79750000Y-54683333D01*
X79783333Y-54650000D01*
X79816667Y-54583333D01*
X79816667Y-54550000D01*
X79783333Y-54483333D01*
X79750000Y-54450000D01*
X79683333Y-54416667D01*
X79550000Y-54416667D01*
X79483333Y-54450000D01*
X79450000Y-54483333D01*
X79416667Y-54550000D01*
X79416667Y-54583333D01*
X79450000Y-54650000D01*
X79483333Y-54683333D01*
X79550000Y-54716667D01*
X79683333Y-54716667D01*
X79750000Y-54750000D01*
X79783333Y-54783333D01*
X79816667Y-54850000D01*
X79816667Y-54983333D01*
X79783333Y-55050000D01*
X79750000Y-55083333D01*
X79683333Y-55116667D01*
X79550000Y-55116667D01*
X79483333Y-55083333D01*
X79450000Y-55050000D01*
X79416667Y-54983333D01*
X79416667Y-54850000D01*
X79450000Y-54783333D01*
X79483333Y-54750000D01*
X79550000Y-54716667D01*
X82100000Y-60850000D02*
X82133334Y-60883333D01*
X82233334Y-60916667D01*
X82300000Y-60916667D01*
X82400000Y-60883333D01*
X82466667Y-60816667D01*
X82500000Y-60750000D01*
X82533334Y-60616667D01*
X82533334Y-60516667D01*
X82500000Y-60383333D01*
X82466667Y-60316667D01*
X82400000Y-60250000D01*
X82300000Y-60216667D01*
X82233334Y-60216667D01*
X82133334Y-60250000D01*
X82100000Y-60283333D01*
X81866667Y-60216667D02*
X81433334Y-60216667D01*
X81666667Y-60483333D01*
X81566667Y-60483333D01*
X81500000Y-60516667D01*
X81466667Y-60550000D01*
X81433334Y-60616667D01*
X81433334Y-60783333D01*
X81466667Y-60850000D01*
X81500000Y-60883333D01*
X81566667Y-60916667D01*
X81766667Y-60916667D01*
X81833334Y-60883333D01*
X81866667Y-60850000D01*
X81000000Y-60216667D02*
X80933333Y-60216667D01*
X80866667Y-60250000D01*
X80833333Y-60283333D01*
X80800000Y-60350000D01*
X80766667Y-60483333D01*
X80766667Y-60650000D01*
X80800000Y-60783333D01*
X80833333Y-60850000D01*
X80866667Y-60883333D01*
X80933333Y-60916667D01*
X81000000Y-60916667D01*
X81066667Y-60883333D01*
X81100000Y-60850000D01*
X81133333Y-60783333D01*
X81166667Y-60650000D01*
X81166667Y-60483333D01*
X81133333Y-60350000D01*
X81100000Y-60283333D01*
X81066667Y-60250000D01*
X81000000Y-60216667D01*
X80500000Y-66550000D02*
X80533334Y-66583333D01*
X80633334Y-66616667D01*
X80700000Y-66616667D01*
X80800000Y-66583333D01*
X80866667Y-66516667D01*
X80900000Y-66450000D01*
X80933334Y-66316667D01*
X80933334Y-66216667D01*
X80900000Y-66083333D01*
X80866667Y-66016667D01*
X80800000Y-65950000D01*
X80700000Y-65916667D01*
X80633334Y-65916667D01*
X80533334Y-65950000D01*
X80500000Y-65983333D01*
X80266667Y-65916667D02*
X79833334Y-65916667D01*
X80066667Y-66183333D01*
X79966667Y-66183333D01*
X79900000Y-66216667D01*
X79866667Y-66250000D01*
X79833334Y-66316667D01*
X79833334Y-66483333D01*
X79866667Y-66550000D01*
X79900000Y-66583333D01*
X79966667Y-66616667D01*
X80166667Y-66616667D01*
X80233334Y-66583333D01*
X80266667Y-66550000D01*
X79166667Y-66616667D02*
X79566667Y-66616667D01*
X79366667Y-66616667D02*
X79366667Y-65916667D01*
X79433333Y-66016667D01*
X79500000Y-66083333D01*
X79566667Y-66116667D01*
X50450000Y-23850000D02*
X50483334Y-23883333D01*
X50583334Y-23916667D01*
X50650000Y-23916667D01*
X50750000Y-23883333D01*
X50816667Y-23816667D01*
X50850000Y-23750000D01*
X50883334Y-23616667D01*
X50883334Y-23516667D01*
X50850000Y-23383333D01*
X50816667Y-23316667D01*
X50750000Y-23250000D01*
X50650000Y-23216667D01*
X50583334Y-23216667D01*
X50483334Y-23250000D01*
X50450000Y-23283333D01*
X50216667Y-23216667D02*
X49783334Y-23216667D01*
X50016667Y-23483333D01*
X49916667Y-23483333D01*
X49850000Y-23516667D01*
X49816667Y-23550000D01*
X49783334Y-23616667D01*
X49783334Y-23783333D01*
X49816667Y-23850000D01*
X49850000Y-23883333D01*
X49916667Y-23916667D01*
X50116667Y-23916667D01*
X50183334Y-23883333D01*
X50216667Y-23850000D01*
X49550000Y-23216667D02*
X49083333Y-23216667D01*
X49383333Y-23916667D01*
X95366666Y-61252381D02*
X95842857Y-61252381D01*
X95842857Y-60252381D01*
X94509523Y-61252381D02*
X95080952Y-61252381D01*
X94795238Y-61252381D02*
X94795238Y-60252381D01*
X94890476Y-60395238D01*
X94985714Y-60490476D01*
X95080952Y-60538095D01*
X83666666Y-61302381D02*
X84142857Y-61302381D01*
X84142857Y-60302381D01*
X83380952Y-60397619D02*
X83333333Y-60350000D01*
X83238095Y-60302381D01*
X82999999Y-60302381D01*
X82904761Y-60350000D01*
X82857142Y-60397619D01*
X82809523Y-60492857D01*
X82809523Y-60588095D01*
X82857142Y-60730952D01*
X83428571Y-61302381D01*
X82809523Y-61302381D01*
X52078571Y-67742857D02*
X52050000Y-67685714D01*
X51992857Y-67628571D01*
X51907143Y-67542857D01*
X51878571Y-67485714D01*
X51878571Y-67428571D01*
X52021429Y-67457143D02*
X51992857Y-67400000D01*
X51935714Y-67342857D01*
X51821429Y-67314286D01*
X51621429Y-67314286D01*
X51507143Y-67342857D01*
X51450000Y-67400000D01*
X51421429Y-67457143D01*
X51421429Y-67571429D01*
X51450000Y-67628571D01*
X51507143Y-67685714D01*
X51621429Y-67714286D01*
X51821429Y-67714286D01*
X51935714Y-67685714D01*
X51992857Y-67628571D01*
X52021429Y-67571429D01*
X52021429Y-67457143D01*
X52021429Y-68285714D02*
X52021429Y-67942857D01*
X52021429Y-68114285D02*
X51421429Y-68114285D01*
X51507143Y-68057142D01*
X51564286Y-68000000D01*
X51592857Y-67942857D01*
X55828571Y-67542857D02*
X55800000Y-67485714D01*
X55742857Y-67428571D01*
X55657143Y-67342857D01*
X55628571Y-67285714D01*
X55628571Y-67228571D01*
X55771429Y-67257143D02*
X55742857Y-67200000D01*
X55685714Y-67142857D01*
X55571429Y-67114286D01*
X55371429Y-67114286D01*
X55257143Y-67142857D01*
X55200000Y-67200000D01*
X55171429Y-67257143D01*
X55171429Y-67371429D01*
X55200000Y-67428571D01*
X55257143Y-67485714D01*
X55371429Y-67514286D01*
X55571429Y-67514286D01*
X55685714Y-67485714D01*
X55742857Y-67428571D01*
X55771429Y-67371429D01*
X55771429Y-67257143D01*
X55228571Y-67742857D02*
X55200000Y-67771428D01*
X55171429Y-67828571D01*
X55171429Y-67971428D01*
X55200000Y-68028571D01*
X55228571Y-68057142D01*
X55285714Y-68085714D01*
X55342857Y-68085714D01*
X55428571Y-68057142D01*
X55771429Y-67714285D01*
X55771429Y-68085714D01*
X83557143Y-48628571D02*
X83614286Y-48600000D01*
X83671429Y-48542857D01*
X83757143Y-48457143D01*
X83814286Y-48428571D01*
X83871429Y-48428571D01*
X83842857Y-48571429D02*
X83900000Y-48542857D01*
X83957143Y-48485714D01*
X83985714Y-48371429D01*
X83985714Y-48171429D01*
X83957143Y-48057143D01*
X83900000Y-48000000D01*
X83842857Y-47971429D01*
X83728571Y-47971429D01*
X83671429Y-48000000D01*
X83614286Y-48057143D01*
X83585714Y-48171429D01*
X83585714Y-48371429D01*
X83614286Y-48485714D01*
X83671429Y-48542857D01*
X83728571Y-48571429D01*
X83842857Y-48571429D01*
X83385715Y-47971429D02*
X82985715Y-47971429D01*
X83242858Y-48571429D01*
X103878571Y-41092857D02*
X103850000Y-41035714D01*
X103792857Y-40978571D01*
X103707143Y-40892857D01*
X103678571Y-40835714D01*
X103678571Y-40778571D01*
X103821429Y-40807143D02*
X103792857Y-40750000D01*
X103735714Y-40692857D01*
X103621429Y-40664286D01*
X103421429Y-40664286D01*
X103307143Y-40692857D01*
X103250000Y-40750000D01*
X103221429Y-40807143D01*
X103221429Y-40921429D01*
X103250000Y-40978571D01*
X103307143Y-41035714D01*
X103421429Y-41064286D01*
X103621429Y-41064286D01*
X103735714Y-41035714D01*
X103792857Y-40978571D01*
X103821429Y-40921429D01*
X103821429Y-40807143D01*
X103478571Y-41407142D02*
X103450000Y-41350000D01*
X103421429Y-41321428D01*
X103364286Y-41292857D01*
X103335714Y-41292857D01*
X103278571Y-41321428D01*
X103250000Y-41350000D01*
X103221429Y-41407142D01*
X103221429Y-41521428D01*
X103250000Y-41578571D01*
X103278571Y-41607142D01*
X103335714Y-41635714D01*
X103364286Y-41635714D01*
X103421429Y-41607142D01*
X103450000Y-41578571D01*
X103478571Y-41521428D01*
X103478571Y-41407142D01*
X103507143Y-41350000D01*
X103535714Y-41321428D01*
X103592857Y-41292857D01*
X103707143Y-41292857D01*
X103764286Y-41321428D01*
X103792857Y-41350000D01*
X103821429Y-41407142D01*
X103821429Y-41521428D01*
X103792857Y-41578571D01*
X103764286Y-41607142D01*
X103707143Y-41635714D01*
X103592857Y-41635714D01*
X103535714Y-41607142D01*
X103507143Y-41578571D01*
X103478571Y-41521428D01*
X69342857Y-44878571D02*
X69400000Y-44850000D01*
X69457143Y-44792857D01*
X69542857Y-44707143D01*
X69600000Y-44678571D01*
X69657143Y-44678571D01*
X69628571Y-44821429D02*
X69685714Y-44792857D01*
X69742857Y-44735714D01*
X69771428Y-44621429D01*
X69771428Y-44421429D01*
X69742857Y-44307143D01*
X69685714Y-44250000D01*
X69628571Y-44221429D01*
X69514285Y-44221429D01*
X69457143Y-44250000D01*
X69400000Y-44307143D01*
X69371428Y-44421429D01*
X69371428Y-44621429D01*
X69400000Y-44735714D01*
X69457143Y-44792857D01*
X69514285Y-44821429D01*
X69628571Y-44821429D01*
X68800000Y-44821429D02*
X69142857Y-44821429D01*
X68971429Y-44821429D02*
X68971429Y-44221429D01*
X69028572Y-44307143D01*
X69085714Y-44364286D01*
X69142857Y-44392857D01*
X68428571Y-44221429D02*
X68371428Y-44221429D01*
X68314285Y-44250000D01*
X68285714Y-44278571D01*
X68257143Y-44335714D01*
X68228571Y-44450000D01*
X68228571Y-44592857D01*
X68257143Y-44707143D01*
X68285714Y-44764286D01*
X68314285Y-44792857D01*
X68371428Y-44821429D01*
X68428571Y-44821429D01*
X68485714Y-44792857D01*
X68514285Y-44764286D01*
X68542857Y-44707143D01*
X68571428Y-44592857D01*
X68571428Y-44450000D01*
X68542857Y-44335714D01*
X68514285Y-44278571D01*
X68485714Y-44250000D01*
X68428571Y-44221429D01*
X96283333Y-52300000D02*
X96250000Y-52233334D01*
X96183333Y-52166667D01*
X96083333Y-52066667D01*
X96050000Y-52000000D01*
X96050000Y-51933334D01*
X96216667Y-51966667D02*
X96183333Y-51900000D01*
X96116667Y-51833334D01*
X95983333Y-51800000D01*
X95750000Y-51800000D01*
X95616667Y-51833334D01*
X95550000Y-51900000D01*
X95516667Y-51966667D01*
X95516667Y-52100000D01*
X95550000Y-52166667D01*
X95616667Y-52233334D01*
X95750000Y-52266667D01*
X95983333Y-52266667D01*
X96116667Y-52233334D01*
X96183333Y-52166667D01*
X96216667Y-52100000D01*
X96216667Y-51966667D01*
X96216667Y-52933333D02*
X96216667Y-52533333D01*
X96216667Y-52733333D02*
X95516667Y-52733333D01*
X95616667Y-52666667D01*
X95683333Y-52600000D01*
X95716667Y-52533333D01*
X96216667Y-53600000D02*
X96216667Y-53200000D01*
X96216667Y-53400000D02*
X95516667Y-53400000D01*
X95616667Y-53333334D01*
X95683333Y-53266667D01*
X95716667Y-53200000D01*
X83500000Y-53733333D02*
X83566666Y-53700000D01*
X83633333Y-53633333D01*
X83733333Y-53533333D01*
X83800000Y-53500000D01*
X83866666Y-53500000D01*
X83833333Y-53666667D02*
X83900000Y-53633333D01*
X83966666Y-53566667D01*
X84000000Y-53433333D01*
X84000000Y-53200000D01*
X83966666Y-53066667D01*
X83900000Y-53000000D01*
X83833333Y-52966667D01*
X83700000Y-52966667D01*
X83633333Y-53000000D01*
X83566666Y-53066667D01*
X83533333Y-53200000D01*
X83533333Y-53433333D01*
X83566666Y-53566667D01*
X83633333Y-53633333D01*
X83700000Y-53666667D01*
X83833333Y-53666667D01*
X82866667Y-53666667D02*
X83266667Y-53666667D01*
X83066667Y-53666667D02*
X83066667Y-52966667D01*
X83133333Y-53066667D01*
X83200000Y-53133333D01*
X83266667Y-53166667D01*
X82600000Y-53033333D02*
X82566666Y-53000000D01*
X82500000Y-52966667D01*
X82333333Y-52966667D01*
X82266666Y-53000000D01*
X82233333Y-53033333D01*
X82200000Y-53100000D01*
X82200000Y-53166667D01*
X82233333Y-53266667D01*
X82633333Y-53666667D01*
X82200000Y-53666667D01*
X46742857Y-58200000D02*
X46771429Y-58285714D01*
X46771429Y-58428571D01*
X46742857Y-58485714D01*
X46714286Y-58514285D01*
X46657143Y-58542857D01*
X46600000Y-58542857D01*
X46542857Y-58514285D01*
X46514286Y-58485714D01*
X46485714Y-58428571D01*
X46457143Y-58314285D01*
X46428571Y-58257143D01*
X46400000Y-58228571D01*
X46342857Y-58200000D01*
X46285714Y-58200000D01*
X46228571Y-58228571D01*
X46200000Y-58257143D01*
X46171429Y-58314285D01*
X46171429Y-58457143D01*
X46200000Y-58542857D01*
X46171429Y-58742857D02*
X46771429Y-58885714D01*
X46342857Y-59000000D01*
X46771429Y-59114286D01*
X46171429Y-59257143D01*
X46228571Y-59457143D02*
X46200000Y-59485714D01*
X46171429Y-59542857D01*
X46171429Y-59685714D01*
X46200000Y-59742857D01*
X46228571Y-59771428D01*
X46285714Y-59800000D01*
X46342857Y-59800000D01*
X46428571Y-59771428D01*
X46771429Y-59428571D01*
X46771429Y-59800000D01*
X53466666Y-29516667D02*
X53466666Y-30083333D01*
X53433333Y-30150000D01*
X53400000Y-30183333D01*
X53333333Y-30216667D01*
X53200000Y-30216667D01*
X53133333Y-30183333D01*
X53100000Y-30150000D01*
X53066666Y-30083333D01*
X53066666Y-29516667D01*
X52366667Y-30216667D02*
X52766667Y-30216667D01*
X52566667Y-30216667D02*
X52566667Y-29516667D01*
X52633333Y-29616667D01*
X52700000Y-29683333D01*
X52766667Y-29716667D01*
X52133333Y-29516667D02*
X51666666Y-29516667D01*
X51966666Y-30216667D01*
X66242857Y-44621429D02*
X66242857Y-44021429D01*
X66100000Y-44021429D01*
X66014285Y-44050000D01*
X65957143Y-44107143D01*
X65928571Y-44164286D01*
X65900000Y-44278571D01*
X65900000Y-44364286D01*
X65928571Y-44478571D01*
X65957143Y-44535714D01*
X66014285Y-44592857D01*
X66100000Y-44621429D01*
X66242857Y-44621429D01*
X65671428Y-44078571D02*
X65642857Y-44050000D01*
X65585714Y-44021429D01*
X65442857Y-44021429D01*
X65385714Y-44050000D01*
X65357143Y-44078571D01*
X65328571Y-44135714D01*
X65328571Y-44192857D01*
X65357143Y-44278571D01*
X65700000Y-44621429D01*
X65328571Y-44621429D01*
X62392857Y-44621429D02*
X62392857Y-44021429D01*
X62250000Y-44021429D01*
X62164285Y-44050000D01*
X62107143Y-44107143D01*
X62078571Y-44164286D01*
X62050000Y-44278571D01*
X62050000Y-44364286D01*
X62078571Y-44478571D01*
X62107143Y-44535714D01*
X62164285Y-44592857D01*
X62250000Y-44621429D01*
X62392857Y-44621429D01*
X61850000Y-44021429D02*
X61478571Y-44021429D01*
X61678571Y-44250000D01*
X61592857Y-44250000D01*
X61535714Y-44278571D01*
X61507143Y-44307143D01*
X61478571Y-44364286D01*
X61478571Y-44507143D01*
X61507143Y-44564286D01*
X61535714Y-44592857D01*
X61592857Y-44621429D01*
X61764285Y-44621429D01*
X61821428Y-44592857D01*
X61850000Y-44564286D01*
X43321429Y-41207143D02*
X42721429Y-41207143D01*
X42721429Y-41350000D01*
X42750000Y-41435715D01*
X42807143Y-41492857D01*
X42864286Y-41521429D01*
X42978571Y-41550000D01*
X43064286Y-41550000D01*
X43178571Y-41521429D01*
X43235714Y-41492857D01*
X43292857Y-41435715D01*
X43321429Y-41350000D01*
X43321429Y-41207143D01*
X43321429Y-41835715D02*
X43321429Y-41950000D01*
X43292857Y-42007143D01*
X43264286Y-42035715D01*
X43178571Y-42092857D01*
X43064286Y-42121429D01*
X42835714Y-42121429D01*
X42778571Y-42092857D01*
X42750000Y-42064286D01*
X42721429Y-42007143D01*
X42721429Y-41892857D01*
X42750000Y-41835715D01*
X42778571Y-41807143D01*
X42835714Y-41778572D01*
X42978571Y-41778572D01*
X43035714Y-41807143D01*
X43064286Y-41835715D01*
X43092857Y-41892857D01*
X43092857Y-42007143D01*
X43064286Y-42064286D01*
X43035714Y-42092857D01*
X42978571Y-42121429D01*
X94709524Y-25352381D02*
X94042857Y-26352381D01*
X94042857Y-25352381D02*
X94709524Y-26352381D01*
X93709524Y-25447619D02*
X93661905Y-25400000D01*
X93566667Y-25352381D01*
X93328571Y-25352381D01*
X93233333Y-25400000D01*
X93185714Y-25447619D01*
X93138095Y-25542857D01*
X93138095Y-25638095D01*
X93185714Y-25780952D01*
X93757143Y-26352381D01*
X93138095Y-26352381D01*
X113133333Y-58428571D02*
X113466667Y-58428571D01*
X113466667Y-58952381D02*
X113466667Y-57952381D01*
X112990476Y-57952381D01*
X112657143Y-58047619D02*
X112609524Y-58000000D01*
X112514286Y-57952381D01*
X112276190Y-57952381D01*
X112180952Y-58000000D01*
X112133333Y-58047619D01*
X112085714Y-58142857D01*
X112085714Y-58238095D01*
X112133333Y-58380952D01*
X112704762Y-58952381D01*
X112085714Y-58952381D01*
X113133333Y-53828571D02*
X113466667Y-53828571D01*
X113466667Y-54352381D02*
X113466667Y-53352381D01*
X112990476Y-53352381D01*
X112085714Y-54352381D02*
X112657143Y-54352381D01*
X112371429Y-54352381D02*
X112371429Y-53352381D01*
X112466667Y-53495238D01*
X112561905Y-53590476D01*
X112657143Y-53638095D01*
X89816666Y-60966667D02*
X89816666Y-60266667D01*
X89650000Y-60266667D01*
X89550000Y-60300000D01*
X89483333Y-60366667D01*
X89450000Y-60433333D01*
X89416666Y-60566667D01*
X89416666Y-60666667D01*
X89450000Y-60800000D01*
X89483333Y-60866667D01*
X89550000Y-60933333D01*
X89650000Y-60966667D01*
X89816666Y-60966667D01*
X89016666Y-60566667D02*
X89083333Y-60533333D01*
X89116666Y-60500000D01*
X89150000Y-60433333D01*
X89150000Y-60400000D01*
X89116666Y-60333333D01*
X89083333Y-60300000D01*
X89016666Y-60266667D01*
X88883333Y-60266667D01*
X88816666Y-60300000D01*
X88783333Y-60333333D01*
X88750000Y-60400000D01*
X88750000Y-60433333D01*
X88783333Y-60500000D01*
X88816666Y-60533333D01*
X88883333Y-60566667D01*
X89016666Y-60566667D01*
X89083333Y-60600000D01*
X89116666Y-60633333D01*
X89150000Y-60700000D01*
X89150000Y-60833333D01*
X89116666Y-60900000D01*
X89083333Y-60933333D01*
X89016666Y-60966667D01*
X88883333Y-60966667D01*
X88816666Y-60933333D01*
X88783333Y-60900000D01*
X88750000Y-60833333D01*
X88750000Y-60700000D01*
X88783333Y-60633333D01*
X88816666Y-60600000D01*
X88883333Y-60566667D01*
X83750000Y-54916667D02*
X83750000Y-54216667D01*
X83583334Y-54216667D01*
X83483334Y-54250000D01*
X83416667Y-54316667D01*
X83383334Y-54383333D01*
X83350000Y-54516667D01*
X83350000Y-54616667D01*
X83383334Y-54750000D01*
X83416667Y-54816667D01*
X83483334Y-54883333D01*
X83583334Y-54916667D01*
X83750000Y-54916667D01*
X82683334Y-54916667D02*
X83083334Y-54916667D01*
X82883334Y-54916667D02*
X82883334Y-54216667D01*
X82950000Y-54316667D01*
X83016667Y-54383333D01*
X83083334Y-54416667D01*
X82250000Y-54216667D02*
X82183333Y-54216667D01*
X82116667Y-54250000D01*
X82083333Y-54283333D01*
X82050000Y-54350000D01*
X82016667Y-54483333D01*
X82016667Y-54650000D01*
X82050000Y-54783333D01*
X82083333Y-54850000D01*
X82116667Y-54883333D01*
X82183333Y-54916667D01*
X82250000Y-54916667D01*
X82316667Y-54883333D01*
X82350000Y-54850000D01*
X82383333Y-54783333D01*
X82416667Y-54650000D01*
X82416667Y-54483333D01*
X82383333Y-54350000D01*
X82350000Y-54283333D01*
X82316667Y-54250000D01*
X82250000Y-54216667D01*
X47821429Y-35864285D02*
X47535714Y-35664285D01*
X47821429Y-35521428D02*
X47221429Y-35521428D01*
X47221429Y-35750000D01*
X47250000Y-35807142D01*
X47278571Y-35835714D01*
X47335714Y-35864285D01*
X47421429Y-35864285D01*
X47478571Y-35835714D01*
X47507143Y-35807142D01*
X47535714Y-35750000D01*
X47535714Y-35521428D01*
X47221429Y-36378571D02*
X47221429Y-36264285D01*
X47250000Y-36207142D01*
X47278571Y-36178571D01*
X47364286Y-36121428D01*
X47478571Y-36092857D01*
X47707143Y-36092857D01*
X47764286Y-36121428D01*
X47792857Y-36150000D01*
X47821429Y-36207142D01*
X47821429Y-36321428D01*
X47792857Y-36378571D01*
X47764286Y-36407142D01*
X47707143Y-36435714D01*
X47564286Y-36435714D01*
X47507143Y-36407142D01*
X47478571Y-36378571D01*
X47450000Y-36321428D01*
X47450000Y-36207142D01*
X47478571Y-36150000D01*
X47507143Y-36121428D01*
X47564286Y-36092857D01*
X47221429Y-36950000D02*
X47221429Y-36835714D01*
X47250000Y-36778571D01*
X47278571Y-36750000D01*
X47364286Y-36692857D01*
X47478571Y-36664286D01*
X47707143Y-36664286D01*
X47764286Y-36692857D01*
X47792857Y-36721429D01*
X47821429Y-36778571D01*
X47821429Y-36892857D01*
X47792857Y-36950000D01*
X47764286Y-36978571D01*
X47707143Y-37007143D01*
X47564286Y-37007143D01*
X47507143Y-36978571D01*
X47478571Y-36950000D01*
X47450000Y-36892857D01*
X47450000Y-36778571D01*
X47478571Y-36721429D01*
X47507143Y-36692857D01*
X47564286Y-36664286D01*
X47821429Y-37864285D02*
X47535714Y-37664285D01*
X47821429Y-37521428D02*
X47221429Y-37521428D01*
X47221429Y-37750000D01*
X47250000Y-37807142D01*
X47278571Y-37835714D01*
X47335714Y-37864285D01*
X47421429Y-37864285D01*
X47478571Y-37835714D01*
X47507143Y-37807142D01*
X47535714Y-37750000D01*
X47535714Y-37521428D01*
X47221429Y-38378571D02*
X47221429Y-38264285D01*
X47250000Y-38207142D01*
X47278571Y-38178571D01*
X47364286Y-38121428D01*
X47478571Y-38092857D01*
X47707143Y-38092857D01*
X47764286Y-38121428D01*
X47792857Y-38150000D01*
X47821429Y-38207142D01*
X47821429Y-38321428D01*
X47792857Y-38378571D01*
X47764286Y-38407142D01*
X47707143Y-38435714D01*
X47564286Y-38435714D01*
X47507143Y-38407142D01*
X47478571Y-38378571D01*
X47450000Y-38321428D01*
X47450000Y-38207142D01*
X47478571Y-38150000D01*
X47507143Y-38121428D01*
X47564286Y-38092857D01*
X47221429Y-38635714D02*
X47221429Y-39007143D01*
X47450000Y-38807143D01*
X47450000Y-38892857D01*
X47478571Y-38950000D01*
X47507143Y-38978571D01*
X47564286Y-39007143D01*
X47707143Y-39007143D01*
X47764286Y-38978571D01*
X47792857Y-38950000D01*
X47821429Y-38892857D01*
X47821429Y-38721429D01*
X47792857Y-38664286D01*
X47764286Y-38635714D01*
X47821429Y-39864285D02*
X47535714Y-39664285D01*
X47821429Y-39521428D02*
X47221429Y-39521428D01*
X47221429Y-39750000D01*
X47250000Y-39807142D01*
X47278571Y-39835714D01*
X47335714Y-39864285D01*
X47421429Y-39864285D01*
X47478571Y-39835714D01*
X47507143Y-39807142D01*
X47535714Y-39750000D01*
X47535714Y-39521428D01*
X47221429Y-40378571D02*
X47221429Y-40264285D01*
X47250000Y-40207142D01*
X47278571Y-40178571D01*
X47364286Y-40121428D01*
X47478571Y-40092857D01*
X47707143Y-40092857D01*
X47764286Y-40121428D01*
X47792857Y-40150000D01*
X47821429Y-40207142D01*
X47821429Y-40321428D01*
X47792857Y-40378571D01*
X47764286Y-40407142D01*
X47707143Y-40435714D01*
X47564286Y-40435714D01*
X47507143Y-40407142D01*
X47478571Y-40378571D01*
X47450000Y-40321428D01*
X47450000Y-40207142D01*
X47478571Y-40150000D01*
X47507143Y-40121428D01*
X47564286Y-40092857D01*
X47821429Y-41007143D02*
X47821429Y-40664286D01*
X47821429Y-40835714D02*
X47221429Y-40835714D01*
X47307143Y-40778571D01*
X47364286Y-40721429D01*
X47392857Y-40664286D01*
X95571429Y-18014285D02*
X95285714Y-17814285D01*
X95571429Y-17671428D02*
X94971429Y-17671428D01*
X94971429Y-17900000D01*
X95000000Y-17957142D01*
X95028571Y-17985714D01*
X95085714Y-18014285D01*
X95171429Y-18014285D01*
X95228571Y-17985714D01*
X95257143Y-17957142D01*
X95285714Y-17900000D01*
X95285714Y-17671428D01*
X94971429Y-18557142D02*
X94971429Y-18271428D01*
X95257143Y-18242857D01*
X95228571Y-18271428D01*
X95200000Y-18328571D01*
X95200000Y-18471428D01*
X95228571Y-18528571D01*
X95257143Y-18557142D01*
X95314286Y-18585714D01*
X95457143Y-18585714D01*
X95514286Y-18557142D01*
X95542857Y-18528571D01*
X95571429Y-18471428D01*
X95571429Y-18328571D01*
X95542857Y-18271428D01*
X95514286Y-18242857D01*
X95571429Y-18871429D02*
X95571429Y-18985714D01*
X95542857Y-19042857D01*
X95514286Y-19071429D01*
X95428571Y-19128571D01*
X95314286Y-19157143D01*
X95085714Y-19157143D01*
X95028571Y-19128571D01*
X95000000Y-19100000D01*
X94971429Y-19042857D01*
X94971429Y-18928571D01*
X95000000Y-18871429D01*
X95028571Y-18842857D01*
X95085714Y-18814286D01*
X95228571Y-18814286D01*
X95285714Y-18842857D01*
X95314286Y-18871429D01*
X95342857Y-18928571D01*
X95342857Y-19042857D01*
X95314286Y-19100000D01*
X95285714Y-19128571D01*
X95228571Y-19157143D01*
X95971429Y-23114285D02*
X95685714Y-22914285D01*
X95971429Y-22771428D02*
X95371429Y-22771428D01*
X95371429Y-23000000D01*
X95400000Y-23057142D01*
X95428571Y-23085714D01*
X95485714Y-23114285D01*
X95571429Y-23114285D01*
X95628571Y-23085714D01*
X95657143Y-23057142D01*
X95685714Y-23000000D01*
X95685714Y-22771428D01*
X95371429Y-23657142D02*
X95371429Y-23371428D01*
X95657143Y-23342857D01*
X95628571Y-23371428D01*
X95600000Y-23428571D01*
X95600000Y-23571428D01*
X95628571Y-23628571D01*
X95657143Y-23657142D01*
X95714286Y-23685714D01*
X95857143Y-23685714D01*
X95914286Y-23657142D01*
X95942857Y-23628571D01*
X95971429Y-23571428D01*
X95971429Y-23428571D01*
X95942857Y-23371428D01*
X95914286Y-23342857D01*
X95628571Y-24028571D02*
X95600000Y-23971429D01*
X95571429Y-23942857D01*
X95514286Y-23914286D01*
X95485714Y-23914286D01*
X95428571Y-23942857D01*
X95400000Y-23971429D01*
X95371429Y-24028571D01*
X95371429Y-24142857D01*
X95400000Y-24200000D01*
X95428571Y-24228571D01*
X95485714Y-24257143D01*
X95514286Y-24257143D01*
X95571429Y-24228571D01*
X95600000Y-24200000D01*
X95628571Y-24142857D01*
X95628571Y-24028571D01*
X95657143Y-23971429D01*
X95685714Y-23942857D01*
X95742857Y-23914286D01*
X95857143Y-23914286D01*
X95914286Y-23942857D01*
X95942857Y-23971429D01*
X95971429Y-24028571D01*
X95971429Y-24142857D01*
X95942857Y-24200000D01*
X95914286Y-24228571D01*
X95857143Y-24257143D01*
X95742857Y-24257143D01*
X95685714Y-24228571D01*
X95657143Y-24200000D01*
X95628571Y-24142857D01*
X86271429Y-19214285D02*
X85985714Y-19014285D01*
X86271429Y-18871428D02*
X85671429Y-18871428D01*
X85671429Y-19100000D01*
X85700000Y-19157142D01*
X85728571Y-19185714D01*
X85785714Y-19214285D01*
X85871429Y-19214285D01*
X85928571Y-19185714D01*
X85957143Y-19157142D01*
X85985714Y-19100000D01*
X85985714Y-18871428D01*
X85671429Y-19757142D02*
X85671429Y-19471428D01*
X85957143Y-19442857D01*
X85928571Y-19471428D01*
X85900000Y-19528571D01*
X85900000Y-19671428D01*
X85928571Y-19728571D01*
X85957143Y-19757142D01*
X86014286Y-19785714D01*
X86157143Y-19785714D01*
X86214286Y-19757142D01*
X86242857Y-19728571D01*
X86271429Y-19671428D01*
X86271429Y-19528571D01*
X86242857Y-19471428D01*
X86214286Y-19442857D01*
X85671429Y-19985714D02*
X85671429Y-20385714D01*
X86271429Y-20128571D01*
X95571429Y-19814285D02*
X95285714Y-19614285D01*
X95571429Y-19471428D02*
X94971429Y-19471428D01*
X94971429Y-19700000D01*
X95000000Y-19757142D01*
X95028571Y-19785714D01*
X95085714Y-19814285D01*
X95171429Y-19814285D01*
X95228571Y-19785714D01*
X95257143Y-19757142D01*
X95285714Y-19700000D01*
X95285714Y-19471428D01*
X94971429Y-20357142D02*
X94971429Y-20071428D01*
X95257143Y-20042857D01*
X95228571Y-20071428D01*
X95200000Y-20128571D01*
X95200000Y-20271428D01*
X95228571Y-20328571D01*
X95257143Y-20357142D01*
X95314286Y-20385714D01*
X95457143Y-20385714D01*
X95514286Y-20357142D01*
X95542857Y-20328571D01*
X95571429Y-20271428D01*
X95571429Y-20128571D01*
X95542857Y-20071428D01*
X95514286Y-20042857D01*
X94971429Y-20900000D02*
X94971429Y-20785714D01*
X95000000Y-20728571D01*
X95028571Y-20700000D01*
X95114286Y-20642857D01*
X95228571Y-20614286D01*
X95457143Y-20614286D01*
X95514286Y-20642857D01*
X95542857Y-20671429D01*
X95571429Y-20728571D01*
X95571429Y-20842857D01*
X95542857Y-20900000D01*
X95514286Y-20928571D01*
X95457143Y-20957143D01*
X95314286Y-20957143D01*
X95257143Y-20928571D01*
X95228571Y-20900000D01*
X95200000Y-20842857D01*
X95200000Y-20728571D01*
X95228571Y-20671429D01*
X95257143Y-20642857D01*
X95314286Y-20614286D01*
X86021429Y-25714285D02*
X85735714Y-25514285D01*
X86021429Y-25371428D02*
X85421429Y-25371428D01*
X85421429Y-25600000D01*
X85450000Y-25657142D01*
X85478571Y-25685714D01*
X85535714Y-25714285D01*
X85621429Y-25714285D01*
X85678571Y-25685714D01*
X85707143Y-25657142D01*
X85735714Y-25600000D01*
X85735714Y-25371428D01*
X85421429Y-26257142D02*
X85421429Y-25971428D01*
X85707143Y-25942857D01*
X85678571Y-25971428D01*
X85650000Y-26028571D01*
X85650000Y-26171428D01*
X85678571Y-26228571D01*
X85707143Y-26257142D01*
X85764286Y-26285714D01*
X85907143Y-26285714D01*
X85964286Y-26257142D01*
X85992857Y-26228571D01*
X86021429Y-26171428D01*
X86021429Y-26028571D01*
X85992857Y-25971428D01*
X85964286Y-25942857D01*
X85421429Y-26828571D02*
X85421429Y-26542857D01*
X85707143Y-26514286D01*
X85678571Y-26542857D01*
X85650000Y-26600000D01*
X85650000Y-26742857D01*
X85678571Y-26800000D01*
X85707143Y-26828571D01*
X85764286Y-26857143D01*
X85907143Y-26857143D01*
X85964286Y-26828571D01*
X85992857Y-26800000D01*
X86021429Y-26742857D01*
X86021429Y-26600000D01*
X85992857Y-26542857D01*
X85964286Y-26514286D01*
X105671429Y-47214285D02*
X105385714Y-47014285D01*
X105671429Y-46871428D02*
X105071429Y-46871428D01*
X105071429Y-47100000D01*
X105100000Y-47157142D01*
X105128571Y-47185714D01*
X105185714Y-47214285D01*
X105271429Y-47214285D01*
X105328571Y-47185714D01*
X105357143Y-47157142D01*
X105385714Y-47100000D01*
X105385714Y-46871428D01*
X105071429Y-47757142D02*
X105071429Y-47471428D01*
X105357143Y-47442857D01*
X105328571Y-47471428D01*
X105300000Y-47528571D01*
X105300000Y-47671428D01*
X105328571Y-47728571D01*
X105357143Y-47757142D01*
X105414286Y-47785714D01*
X105557143Y-47785714D01*
X105614286Y-47757142D01*
X105642857Y-47728571D01*
X105671429Y-47671428D01*
X105671429Y-47528571D01*
X105642857Y-47471428D01*
X105614286Y-47442857D01*
X105128571Y-48014286D02*
X105100000Y-48042857D01*
X105071429Y-48100000D01*
X105071429Y-48242857D01*
X105100000Y-48300000D01*
X105128571Y-48328571D01*
X105185714Y-48357143D01*
X105242857Y-48357143D01*
X105328571Y-48328571D01*
X105671429Y-47985714D01*
X105671429Y-48357143D01*
X105671429Y-49064285D02*
X105385714Y-48864285D01*
X105671429Y-48721428D02*
X105071429Y-48721428D01*
X105071429Y-48950000D01*
X105100000Y-49007142D01*
X105128571Y-49035714D01*
X105185714Y-49064285D01*
X105271429Y-49064285D01*
X105328571Y-49035714D01*
X105357143Y-49007142D01*
X105385714Y-48950000D01*
X105385714Y-48721428D01*
X105071429Y-49607142D02*
X105071429Y-49321428D01*
X105357143Y-49292857D01*
X105328571Y-49321428D01*
X105300000Y-49378571D01*
X105300000Y-49521428D01*
X105328571Y-49578571D01*
X105357143Y-49607142D01*
X105414286Y-49635714D01*
X105557143Y-49635714D01*
X105614286Y-49607142D01*
X105642857Y-49578571D01*
X105671429Y-49521428D01*
X105671429Y-49378571D01*
X105642857Y-49321428D01*
X105614286Y-49292857D01*
X105671429Y-50207143D02*
X105671429Y-49864286D01*
X105671429Y-50035714D02*
X105071429Y-50035714D01*
X105157143Y-49978571D01*
X105214286Y-49921429D01*
X105242857Y-49864286D01*
X84785715Y-67821429D02*
X84985715Y-67535714D01*
X85128572Y-67821429D02*
X85128572Y-67221429D01*
X84900000Y-67221429D01*
X84842858Y-67250000D01*
X84814286Y-67278571D01*
X84785715Y-67335714D01*
X84785715Y-67421429D01*
X84814286Y-67478571D01*
X84842858Y-67507143D01*
X84900000Y-67535714D01*
X85128572Y-67535714D01*
X84271429Y-67421429D02*
X84271429Y-67821429D01*
X84414286Y-67192857D02*
X84557143Y-67621429D01*
X84185715Y-67621429D01*
X84014286Y-67221429D02*
X83614286Y-67221429D01*
X83871429Y-67821429D01*
X100185715Y-59071429D02*
X100385715Y-58785714D01*
X100528572Y-59071429D02*
X100528572Y-58471429D01*
X100300000Y-58471429D01*
X100242858Y-58500000D01*
X100214286Y-58528571D01*
X100185715Y-58585714D01*
X100185715Y-58671429D01*
X100214286Y-58728571D01*
X100242858Y-58757143D01*
X100300000Y-58785714D01*
X100528572Y-58785714D01*
X99671429Y-58671429D02*
X99671429Y-59071429D01*
X99814286Y-58442857D02*
X99957143Y-58871429D01*
X99585715Y-58871429D01*
X99100000Y-58471429D02*
X99214286Y-58471429D01*
X99271429Y-58500000D01*
X99300000Y-58528571D01*
X99357143Y-58614286D01*
X99385714Y-58728571D01*
X99385714Y-58957143D01*
X99357143Y-59014286D01*
X99328571Y-59042857D01*
X99271429Y-59071429D01*
X99157143Y-59071429D01*
X99100000Y-59042857D01*
X99071429Y-59014286D01*
X99042857Y-58957143D01*
X99042857Y-58814286D01*
X99071429Y-58757143D01*
X99100000Y-58728571D01*
X99157143Y-58700000D01*
X99271429Y-58700000D01*
X99328571Y-58728571D01*
X99357143Y-58757143D01*
X99385714Y-58814286D01*
X86785715Y-67821429D02*
X86985715Y-67535714D01*
X87128572Y-67821429D02*
X87128572Y-67221429D01*
X86900000Y-67221429D01*
X86842858Y-67250000D01*
X86814286Y-67278571D01*
X86785715Y-67335714D01*
X86785715Y-67421429D01*
X86814286Y-67478571D01*
X86842858Y-67507143D01*
X86900000Y-67535714D01*
X87128572Y-67535714D01*
X86271429Y-67421429D02*
X86271429Y-67821429D01*
X86414286Y-67192857D02*
X86557143Y-67621429D01*
X86185715Y-67621429D01*
X85671429Y-67221429D02*
X85957143Y-67221429D01*
X85985714Y-67507143D01*
X85957143Y-67478571D01*
X85900000Y-67450000D01*
X85757143Y-67450000D01*
X85700000Y-67478571D01*
X85671429Y-67507143D01*
X85642857Y-67564286D01*
X85642857Y-67707143D01*
X85671429Y-67764286D01*
X85700000Y-67792857D01*
X85757143Y-67821429D01*
X85900000Y-67821429D01*
X85957143Y-67792857D01*
X85985714Y-67764286D01*
X47821429Y-41864285D02*
X47535714Y-41664285D01*
X47821429Y-41521428D02*
X47221429Y-41521428D01*
X47221429Y-41750000D01*
X47250000Y-41807142D01*
X47278571Y-41835714D01*
X47335714Y-41864285D01*
X47421429Y-41864285D01*
X47478571Y-41835714D01*
X47507143Y-41807142D01*
X47535714Y-41750000D01*
X47535714Y-41521428D01*
X47421429Y-42378571D02*
X47821429Y-42378571D01*
X47192857Y-42235714D02*
X47621429Y-42092857D01*
X47621429Y-42464285D01*
X47421429Y-42950000D02*
X47821429Y-42950000D01*
X47192857Y-42807143D02*
X47621429Y-42664286D01*
X47621429Y-43035714D01*
X43521429Y-50164285D02*
X43235714Y-49964285D01*
X43521429Y-49821428D02*
X42921429Y-49821428D01*
X42921429Y-50050000D01*
X42950000Y-50107142D01*
X42978571Y-50135714D01*
X43035714Y-50164285D01*
X43121429Y-50164285D01*
X43178571Y-50135714D01*
X43207143Y-50107142D01*
X43235714Y-50050000D01*
X43235714Y-49821428D01*
X43121429Y-50678571D02*
X43521429Y-50678571D01*
X42892857Y-50535714D02*
X43321429Y-50392857D01*
X43321429Y-50764285D01*
X42921429Y-50935714D02*
X42921429Y-51307143D01*
X43150000Y-51107143D01*
X43150000Y-51192857D01*
X43178571Y-51250000D01*
X43207143Y-51278571D01*
X43264286Y-51307143D01*
X43407143Y-51307143D01*
X43464286Y-51278571D01*
X43492857Y-51250000D01*
X43521429Y-51192857D01*
X43521429Y-51021429D01*
X43492857Y-50964286D01*
X43464286Y-50935714D01*
X47821429Y-44114285D02*
X47535714Y-43914285D01*
X47821429Y-43771428D02*
X47221429Y-43771428D01*
X47221429Y-44000000D01*
X47250000Y-44057142D01*
X47278571Y-44085714D01*
X47335714Y-44114285D01*
X47421429Y-44114285D01*
X47478571Y-44085714D01*
X47507143Y-44057142D01*
X47535714Y-44000000D01*
X47535714Y-43771428D01*
X47421429Y-44628571D02*
X47821429Y-44628571D01*
X47192857Y-44485714D02*
X47621429Y-44342857D01*
X47621429Y-44714285D01*
X47278571Y-44914286D02*
X47250000Y-44942857D01*
X47221429Y-45000000D01*
X47221429Y-45142857D01*
X47250000Y-45200000D01*
X47278571Y-45228571D01*
X47335714Y-45257143D01*
X47392857Y-45257143D01*
X47478571Y-45228571D01*
X47821429Y-44885714D01*
X47821429Y-45257143D01*
X44385715Y-45921429D02*
X44585715Y-45635714D01*
X44728572Y-45921429D02*
X44728572Y-45321429D01*
X44500000Y-45321429D01*
X44442858Y-45350000D01*
X44414286Y-45378571D01*
X44385715Y-45435714D01*
X44385715Y-45521429D01*
X44414286Y-45578571D01*
X44442858Y-45607143D01*
X44500000Y-45635714D01*
X44728572Y-45635714D01*
X43871429Y-45521429D02*
X43871429Y-45921429D01*
X44014286Y-45292857D02*
X44157143Y-45721429D01*
X43785715Y-45721429D01*
X43242857Y-45921429D02*
X43585714Y-45921429D01*
X43414286Y-45921429D02*
X43414286Y-45321429D01*
X43471429Y-45407143D01*
X43528571Y-45464286D01*
X43585714Y-45492857D01*
X97835715Y-67171429D02*
X98035715Y-66885714D01*
X98178572Y-67171429D02*
X98178572Y-66571429D01*
X97950000Y-66571429D01*
X97892858Y-66600000D01*
X97864286Y-66628571D01*
X97835715Y-66685714D01*
X97835715Y-66771429D01*
X97864286Y-66828571D01*
X97892858Y-66857143D01*
X97950000Y-66885714D01*
X98178572Y-66885714D01*
X97321429Y-66771429D02*
X97321429Y-67171429D01*
X97464286Y-66542857D02*
X97607143Y-66971429D01*
X97235715Y-66971429D01*
X96892857Y-66571429D02*
X96835714Y-66571429D01*
X96778571Y-66600000D01*
X96750000Y-66628571D01*
X96721429Y-66685714D01*
X96692857Y-66800000D01*
X96692857Y-66942857D01*
X96721429Y-67057143D01*
X96750000Y-67114286D01*
X96778571Y-67142857D01*
X96835714Y-67171429D01*
X96892857Y-67171429D01*
X96950000Y-67142857D01*
X96978571Y-67114286D01*
X97007143Y-67057143D01*
X97035714Y-66942857D01*
X97035714Y-66800000D01*
X97007143Y-66685714D01*
X96978571Y-66628571D01*
X96950000Y-66600000D01*
X96892857Y-66571429D01*
X95171429Y-71014285D02*
X94885714Y-70814285D01*
X95171429Y-70671428D02*
X94571429Y-70671428D01*
X94571429Y-70900000D01*
X94600000Y-70957142D01*
X94628571Y-70985714D01*
X94685714Y-71014285D01*
X94771429Y-71014285D01*
X94828571Y-70985714D01*
X94857143Y-70957142D01*
X94885714Y-70900000D01*
X94885714Y-70671428D01*
X94571429Y-71214285D02*
X94571429Y-71585714D01*
X94800000Y-71385714D01*
X94800000Y-71471428D01*
X94828571Y-71528571D01*
X94857143Y-71557142D01*
X94914286Y-71585714D01*
X95057143Y-71585714D01*
X95114286Y-71557142D01*
X95142857Y-71528571D01*
X95171429Y-71471428D01*
X95171429Y-71300000D01*
X95142857Y-71242857D01*
X95114286Y-71214285D01*
X95171429Y-71871429D02*
X95171429Y-71985714D01*
X95142857Y-72042857D01*
X95114286Y-72071429D01*
X95028571Y-72128571D01*
X94914286Y-72157143D01*
X94685714Y-72157143D01*
X94628571Y-72128571D01*
X94600000Y-72100000D01*
X94571429Y-72042857D01*
X94571429Y-71928571D01*
X94600000Y-71871429D01*
X94628571Y-71842857D01*
X94685714Y-71814286D01*
X94828571Y-71814286D01*
X94885714Y-71842857D01*
X94914286Y-71871429D01*
X94942857Y-71928571D01*
X94942857Y-72042857D01*
X94914286Y-72100000D01*
X94885714Y-72128571D01*
X94828571Y-72157143D01*
X49885715Y-46071429D02*
X50085715Y-45785714D01*
X50228572Y-46071429D02*
X50228572Y-45471429D01*
X50000000Y-45471429D01*
X49942858Y-45500000D01*
X49914286Y-45528571D01*
X49885715Y-45585714D01*
X49885715Y-45671429D01*
X49914286Y-45728571D01*
X49942858Y-45757143D01*
X50000000Y-45785714D01*
X50228572Y-45785714D01*
X49685715Y-45471429D02*
X49314286Y-45471429D01*
X49514286Y-45700000D01*
X49428572Y-45700000D01*
X49371429Y-45728571D01*
X49342858Y-45757143D01*
X49314286Y-45814286D01*
X49314286Y-45957143D01*
X49342858Y-46014286D01*
X49371429Y-46042857D01*
X49428572Y-46071429D01*
X49600000Y-46071429D01*
X49657143Y-46042857D01*
X49685715Y-46014286D01*
X48971429Y-45728571D02*
X49028571Y-45700000D01*
X49057143Y-45671429D01*
X49085714Y-45614286D01*
X49085714Y-45585714D01*
X49057143Y-45528571D01*
X49028571Y-45500000D01*
X48971429Y-45471429D01*
X48857143Y-45471429D01*
X48800000Y-45500000D01*
X48771429Y-45528571D01*
X48742857Y-45585714D01*
X48742857Y-45614286D01*
X48771429Y-45671429D01*
X48800000Y-45700000D01*
X48857143Y-45728571D01*
X48971429Y-45728571D01*
X49028571Y-45757143D01*
X49057143Y-45785714D01*
X49085714Y-45842857D01*
X49085714Y-45957143D01*
X49057143Y-46014286D01*
X49028571Y-46042857D01*
X48971429Y-46071429D01*
X48857143Y-46071429D01*
X48800000Y-46042857D01*
X48771429Y-46014286D01*
X48742857Y-45957143D01*
X48742857Y-45842857D01*
X48771429Y-45785714D01*
X48800000Y-45757143D01*
X48857143Y-45728571D01*
X47071429Y-50114285D02*
X46785714Y-49914285D01*
X47071429Y-49771428D02*
X46471429Y-49771428D01*
X46471429Y-50000000D01*
X46500000Y-50057142D01*
X46528571Y-50085714D01*
X46585714Y-50114285D01*
X46671429Y-50114285D01*
X46728571Y-50085714D01*
X46757143Y-50057142D01*
X46785714Y-50000000D01*
X46785714Y-49771428D01*
X46471429Y-50314285D02*
X46471429Y-50685714D01*
X46700000Y-50485714D01*
X46700000Y-50571428D01*
X46728571Y-50628571D01*
X46757143Y-50657142D01*
X46814286Y-50685714D01*
X46957143Y-50685714D01*
X47014286Y-50657142D01*
X47042857Y-50628571D01*
X47071429Y-50571428D01*
X47071429Y-50400000D01*
X47042857Y-50342857D01*
X47014286Y-50314285D01*
X46471429Y-50885714D02*
X46471429Y-51285714D01*
X47071429Y-51028571D01*
X69085715Y-61921429D02*
X69285715Y-61635714D01*
X69428572Y-61921429D02*
X69428572Y-61321429D01*
X69200000Y-61321429D01*
X69142858Y-61350000D01*
X69114286Y-61378571D01*
X69085715Y-61435714D01*
X69085715Y-61521429D01*
X69114286Y-61578571D01*
X69142858Y-61607143D01*
X69200000Y-61635714D01*
X69428572Y-61635714D01*
X68885715Y-61321429D02*
X68514286Y-61321429D01*
X68714286Y-61550000D01*
X68628572Y-61550000D01*
X68571429Y-61578571D01*
X68542858Y-61607143D01*
X68514286Y-61664286D01*
X68514286Y-61807143D01*
X68542858Y-61864286D01*
X68571429Y-61892857D01*
X68628572Y-61921429D01*
X68800000Y-61921429D01*
X68857143Y-61892857D01*
X68885715Y-61864286D01*
X68000000Y-61521429D02*
X68000000Y-61921429D01*
X68142857Y-61292857D02*
X68285714Y-61721429D01*
X67914286Y-61721429D01*
X60835715Y-61421429D02*
X61035715Y-61135714D01*
X61178572Y-61421429D02*
X61178572Y-60821429D01*
X60950000Y-60821429D01*
X60892858Y-60850000D01*
X60864286Y-60878571D01*
X60835715Y-60935714D01*
X60835715Y-61021429D01*
X60864286Y-61078571D01*
X60892858Y-61107143D01*
X60950000Y-61135714D01*
X61178572Y-61135714D01*
X60635715Y-60821429D02*
X60264286Y-60821429D01*
X60464286Y-61050000D01*
X60378572Y-61050000D01*
X60321429Y-61078571D01*
X60292858Y-61107143D01*
X60264286Y-61164286D01*
X60264286Y-61307143D01*
X60292858Y-61364286D01*
X60321429Y-61392857D01*
X60378572Y-61421429D01*
X60550000Y-61421429D01*
X60607143Y-61392857D01*
X60635715Y-61364286D01*
X60064286Y-60821429D02*
X59692857Y-60821429D01*
X59892857Y-61050000D01*
X59807143Y-61050000D01*
X59750000Y-61078571D01*
X59721429Y-61107143D01*
X59692857Y-61164286D01*
X59692857Y-61307143D01*
X59721429Y-61364286D01*
X59750000Y-61392857D01*
X59807143Y-61421429D01*
X59978571Y-61421429D01*
X60035714Y-61392857D01*
X60064286Y-61364286D01*
X67085715Y-61871429D02*
X67285715Y-61585714D01*
X67428572Y-61871429D02*
X67428572Y-61271429D01*
X67200000Y-61271429D01*
X67142858Y-61300000D01*
X67114286Y-61328571D01*
X67085715Y-61385714D01*
X67085715Y-61471429D01*
X67114286Y-61528571D01*
X67142858Y-61557143D01*
X67200000Y-61585714D01*
X67428572Y-61585714D01*
X66885715Y-61271429D02*
X66514286Y-61271429D01*
X66714286Y-61500000D01*
X66628572Y-61500000D01*
X66571429Y-61528571D01*
X66542858Y-61557143D01*
X66514286Y-61614286D01*
X66514286Y-61757143D01*
X66542858Y-61814286D01*
X66571429Y-61842857D01*
X66628572Y-61871429D01*
X66800000Y-61871429D01*
X66857143Y-61842857D01*
X66885715Y-61814286D01*
X65942857Y-61871429D02*
X66285714Y-61871429D01*
X66114286Y-61871429D02*
X66114286Y-61271429D01*
X66171429Y-61357143D01*
X66228571Y-61414286D01*
X66285714Y-61442857D01*
X97471429Y-42914285D02*
X97185714Y-42714285D01*
X97471429Y-42571428D02*
X96871429Y-42571428D01*
X96871429Y-42800000D01*
X96900000Y-42857142D01*
X96928571Y-42885714D01*
X96985714Y-42914285D01*
X97071429Y-42914285D01*
X97128571Y-42885714D01*
X97157143Y-42857142D01*
X97185714Y-42800000D01*
X97185714Y-42571428D01*
X96871429Y-43114285D02*
X96871429Y-43485714D01*
X97100000Y-43285714D01*
X97100000Y-43371428D01*
X97128571Y-43428571D01*
X97157143Y-43457142D01*
X97214286Y-43485714D01*
X97357143Y-43485714D01*
X97414286Y-43457142D01*
X97442857Y-43428571D01*
X97471429Y-43371428D01*
X97471429Y-43200000D01*
X97442857Y-43142857D01*
X97414286Y-43114285D01*
X96871429Y-43857143D02*
X96871429Y-43914286D01*
X96900000Y-43971429D01*
X96928571Y-44000000D01*
X96985714Y-44028571D01*
X97100000Y-44057143D01*
X97242857Y-44057143D01*
X97357143Y-44028571D01*
X97414286Y-44000000D01*
X97442857Y-43971429D01*
X97471429Y-43914286D01*
X97471429Y-43857143D01*
X97442857Y-43800000D01*
X97414286Y-43771429D01*
X97357143Y-43742857D01*
X97242857Y-43714286D01*
X97100000Y-43714286D01*
X96985714Y-43742857D01*
X96928571Y-43771429D01*
X96900000Y-43800000D01*
X96871429Y-43857143D01*
X93971429Y-42914285D02*
X93685714Y-42714285D01*
X93971429Y-42571428D02*
X93371429Y-42571428D01*
X93371429Y-42800000D01*
X93400000Y-42857142D01*
X93428571Y-42885714D01*
X93485714Y-42914285D01*
X93571429Y-42914285D01*
X93628571Y-42885714D01*
X93657143Y-42857142D01*
X93685714Y-42800000D01*
X93685714Y-42571428D01*
X93428571Y-43142857D02*
X93400000Y-43171428D01*
X93371429Y-43228571D01*
X93371429Y-43371428D01*
X93400000Y-43428571D01*
X93428571Y-43457142D01*
X93485714Y-43485714D01*
X93542857Y-43485714D01*
X93628571Y-43457142D01*
X93971429Y-43114285D01*
X93971429Y-43485714D01*
X93971429Y-43771429D02*
X93971429Y-43885714D01*
X93942857Y-43942857D01*
X93914286Y-43971429D01*
X93828571Y-44028571D01*
X93714286Y-44057143D01*
X93485714Y-44057143D01*
X93428571Y-44028571D01*
X93400000Y-44000000D01*
X93371429Y-43942857D01*
X93371429Y-43828571D01*
X93400000Y-43771429D01*
X93428571Y-43742857D01*
X93485714Y-43714286D01*
X93628571Y-43714286D01*
X93685714Y-43742857D01*
X93714286Y-43771429D01*
X93742857Y-43828571D01*
X93742857Y-43942857D01*
X93714286Y-44000000D01*
X93685714Y-44028571D01*
X93628571Y-44057143D01*
X51835715Y-51921429D02*
X52035715Y-51635714D01*
X52178572Y-51921429D02*
X52178572Y-51321429D01*
X51950000Y-51321429D01*
X51892858Y-51350000D01*
X51864286Y-51378571D01*
X51835715Y-51435714D01*
X51835715Y-51521429D01*
X51864286Y-51578571D01*
X51892858Y-51607143D01*
X51950000Y-51635714D01*
X52178572Y-51635714D01*
X51607143Y-51378571D02*
X51578572Y-51350000D01*
X51521429Y-51321429D01*
X51378572Y-51321429D01*
X51321429Y-51350000D01*
X51292858Y-51378571D01*
X51264286Y-51435714D01*
X51264286Y-51492857D01*
X51292858Y-51578571D01*
X51635715Y-51921429D01*
X51264286Y-51921429D01*
X51064286Y-51321429D02*
X50664286Y-51321429D01*
X50921429Y-51921429D01*
X93971429Y-39314285D02*
X93685714Y-39114285D01*
X93971429Y-38971428D02*
X93371429Y-38971428D01*
X93371429Y-39200000D01*
X93400000Y-39257142D01*
X93428571Y-39285714D01*
X93485714Y-39314285D01*
X93571429Y-39314285D01*
X93628571Y-39285714D01*
X93657143Y-39257142D01*
X93685714Y-39200000D01*
X93685714Y-38971428D01*
X93428571Y-39542857D02*
X93400000Y-39571428D01*
X93371429Y-39628571D01*
X93371429Y-39771428D01*
X93400000Y-39828571D01*
X93428571Y-39857142D01*
X93485714Y-39885714D01*
X93542857Y-39885714D01*
X93628571Y-39857142D01*
X93971429Y-39514285D01*
X93971429Y-39885714D01*
X93371429Y-40400000D02*
X93371429Y-40285714D01*
X93400000Y-40228571D01*
X93428571Y-40200000D01*
X93514286Y-40142857D01*
X93628571Y-40114286D01*
X93857143Y-40114286D01*
X93914286Y-40142857D01*
X93942857Y-40171429D01*
X93971429Y-40228571D01*
X93971429Y-40342857D01*
X93942857Y-40400000D01*
X93914286Y-40428571D01*
X93857143Y-40457143D01*
X93714286Y-40457143D01*
X93657143Y-40428571D01*
X93628571Y-40400000D01*
X93600000Y-40342857D01*
X93600000Y-40228571D01*
X93628571Y-40171429D01*
X93657143Y-40142857D01*
X93714286Y-40114286D01*
X64235715Y-45171429D02*
X64435715Y-44885714D01*
X64578572Y-45171429D02*
X64578572Y-44571429D01*
X64350000Y-44571429D01*
X64292858Y-44600000D01*
X64264286Y-44628571D01*
X64235715Y-44685714D01*
X64235715Y-44771429D01*
X64264286Y-44828571D01*
X64292858Y-44857143D01*
X64350000Y-44885714D01*
X64578572Y-44885714D01*
X64007143Y-44628571D02*
X63978572Y-44600000D01*
X63921429Y-44571429D01*
X63778572Y-44571429D01*
X63721429Y-44600000D01*
X63692858Y-44628571D01*
X63664286Y-44685714D01*
X63664286Y-44742857D01*
X63692858Y-44828571D01*
X64035715Y-45171429D01*
X63664286Y-45171429D01*
X63121429Y-44571429D02*
X63407143Y-44571429D01*
X63435714Y-44857143D01*
X63407143Y-44828571D01*
X63350000Y-44800000D01*
X63207143Y-44800000D01*
X63150000Y-44828571D01*
X63121429Y-44857143D01*
X63092857Y-44914286D01*
X63092857Y-45057143D01*
X63121429Y-45114286D01*
X63150000Y-45142857D01*
X63207143Y-45171429D01*
X63350000Y-45171429D01*
X63407143Y-45142857D01*
X63435714Y-45114286D01*
X58085715Y-45171429D02*
X58285715Y-44885714D01*
X58428572Y-45171429D02*
X58428572Y-44571429D01*
X58200000Y-44571429D01*
X58142858Y-44600000D01*
X58114286Y-44628571D01*
X58085715Y-44685714D01*
X58085715Y-44771429D01*
X58114286Y-44828571D01*
X58142858Y-44857143D01*
X58200000Y-44885714D01*
X58428572Y-44885714D01*
X57857143Y-44628571D02*
X57828572Y-44600000D01*
X57771429Y-44571429D01*
X57628572Y-44571429D01*
X57571429Y-44600000D01*
X57542858Y-44628571D01*
X57514286Y-44685714D01*
X57514286Y-44742857D01*
X57542858Y-44828571D01*
X57885715Y-45171429D01*
X57514286Y-45171429D01*
X57000000Y-44771429D02*
X57000000Y-45171429D01*
X57142857Y-44542857D02*
X57285714Y-44971429D01*
X56914286Y-44971429D01*
X51735715Y-48421429D02*
X51935715Y-48135714D01*
X52078572Y-48421429D02*
X52078572Y-47821429D01*
X51850000Y-47821429D01*
X51792858Y-47850000D01*
X51764286Y-47878571D01*
X51735715Y-47935714D01*
X51735715Y-48021429D01*
X51764286Y-48078571D01*
X51792858Y-48107143D01*
X51850000Y-48135714D01*
X52078572Y-48135714D01*
X51507143Y-47878571D02*
X51478572Y-47850000D01*
X51421429Y-47821429D01*
X51278572Y-47821429D01*
X51221429Y-47850000D01*
X51192858Y-47878571D01*
X51164286Y-47935714D01*
X51164286Y-47992857D01*
X51192858Y-48078571D01*
X51535715Y-48421429D01*
X51164286Y-48421429D01*
X50964286Y-47821429D02*
X50592857Y-47821429D01*
X50792857Y-48050000D01*
X50707143Y-48050000D01*
X50650000Y-48078571D01*
X50621429Y-48107143D01*
X50592857Y-48164286D01*
X50592857Y-48307143D01*
X50621429Y-48364286D01*
X50650000Y-48392857D01*
X50707143Y-48421429D01*
X50878571Y-48421429D01*
X50935714Y-48392857D01*
X50964286Y-48364286D01*
X93971429Y-41114285D02*
X93685714Y-40914285D01*
X93971429Y-40771428D02*
X93371429Y-40771428D01*
X93371429Y-41000000D01*
X93400000Y-41057142D01*
X93428571Y-41085714D01*
X93485714Y-41114285D01*
X93571429Y-41114285D01*
X93628571Y-41085714D01*
X93657143Y-41057142D01*
X93685714Y-41000000D01*
X93685714Y-40771428D01*
X93428571Y-41342857D02*
X93400000Y-41371428D01*
X93371429Y-41428571D01*
X93371429Y-41571428D01*
X93400000Y-41628571D01*
X93428571Y-41657142D01*
X93485714Y-41685714D01*
X93542857Y-41685714D01*
X93628571Y-41657142D01*
X93971429Y-41314285D01*
X93971429Y-41685714D01*
X93428571Y-41914286D02*
X93400000Y-41942857D01*
X93371429Y-42000000D01*
X93371429Y-42142857D01*
X93400000Y-42200000D01*
X93428571Y-42228571D01*
X93485714Y-42257143D01*
X93542857Y-42257143D01*
X93628571Y-42228571D01*
X93971429Y-41885714D01*
X93971429Y-42257143D01*
X53785715Y-48321429D02*
X53985715Y-48035714D01*
X54128572Y-48321429D02*
X54128572Y-47721429D01*
X53900000Y-47721429D01*
X53842858Y-47750000D01*
X53814286Y-47778571D01*
X53785715Y-47835714D01*
X53785715Y-47921429D01*
X53814286Y-47978571D01*
X53842858Y-48007143D01*
X53900000Y-48035714D01*
X54128572Y-48035714D01*
X53557143Y-47778571D02*
X53528572Y-47750000D01*
X53471429Y-47721429D01*
X53328572Y-47721429D01*
X53271429Y-47750000D01*
X53242858Y-47778571D01*
X53214286Y-47835714D01*
X53214286Y-47892857D01*
X53242858Y-47978571D01*
X53585715Y-48321429D01*
X53214286Y-48321429D01*
X52642857Y-48321429D02*
X52985714Y-48321429D01*
X52814286Y-48321429D02*
X52814286Y-47721429D01*
X52871429Y-47807143D01*
X52928571Y-47864286D01*
X52985714Y-47892857D01*
X57800000Y-61421429D02*
X58000000Y-61135714D01*
X58142857Y-61421429D02*
X58142857Y-60821429D01*
X57914285Y-60821429D01*
X57857143Y-60850000D01*
X57828571Y-60878571D01*
X57800000Y-60935714D01*
X57800000Y-61021429D01*
X57828571Y-61078571D01*
X57857143Y-61107143D01*
X57914285Y-61135714D01*
X58142857Y-61135714D01*
X57285714Y-60821429D02*
X57400000Y-60821429D01*
X57457143Y-60850000D01*
X57485714Y-60878571D01*
X57542857Y-60964286D01*
X57571428Y-61078571D01*
X57571428Y-61307143D01*
X57542857Y-61364286D01*
X57514285Y-61392857D01*
X57457143Y-61421429D01*
X57342857Y-61421429D01*
X57285714Y-61392857D01*
X57257143Y-61364286D01*
X57228571Y-61307143D01*
X57228571Y-61164286D01*
X57257143Y-61107143D01*
X57285714Y-61078571D01*
X57342857Y-61050000D01*
X57457143Y-61050000D01*
X57514285Y-61078571D01*
X57542857Y-61107143D01*
X57571428Y-61164286D01*
X55800000Y-61421429D02*
X56000000Y-61135714D01*
X56142857Y-61421429D02*
X56142857Y-60821429D01*
X55914285Y-60821429D01*
X55857143Y-60850000D01*
X55828571Y-60878571D01*
X55800000Y-60935714D01*
X55800000Y-61021429D01*
X55828571Y-61078571D01*
X55857143Y-61107143D01*
X55914285Y-61135714D01*
X56142857Y-61135714D01*
X55257143Y-60821429D02*
X55542857Y-60821429D01*
X55571428Y-61107143D01*
X55542857Y-61078571D01*
X55485714Y-61050000D01*
X55342857Y-61050000D01*
X55285714Y-61078571D01*
X55257143Y-61107143D01*
X55228571Y-61164286D01*
X55228571Y-61307143D01*
X55257143Y-61364286D01*
X55285714Y-61392857D01*
X55342857Y-61421429D01*
X55485714Y-61421429D01*
X55542857Y-61392857D01*
X55571428Y-61364286D01*
X62892857Y-61421429D02*
X62892857Y-60821429D01*
X62664285Y-60821429D01*
X62607143Y-60850000D01*
X62578571Y-60878571D01*
X62550000Y-60935714D01*
X62550000Y-61021429D01*
X62578571Y-61078571D01*
X62607143Y-61107143D01*
X62664285Y-61135714D01*
X62892857Y-61135714D01*
X61978571Y-61421429D02*
X62321428Y-61421429D01*
X62150000Y-61421429D02*
X62150000Y-60821429D01*
X62207143Y-60907143D01*
X62264285Y-60964286D01*
X62321428Y-60992857D01*
X61700000Y-37807143D02*
X61900000Y-37807143D01*
X61900000Y-38121429D02*
X61900000Y-37521429D01*
X61614286Y-37521429D01*
X61185714Y-37807143D02*
X61100000Y-37835714D01*
X61071428Y-37864286D01*
X61042857Y-37921429D01*
X61042857Y-38007143D01*
X61071428Y-38064286D01*
X61100000Y-38092857D01*
X61157142Y-38121429D01*
X61385714Y-38121429D01*
X61385714Y-37521429D01*
X61185714Y-37521429D01*
X61128571Y-37550000D01*
X61100000Y-37578571D01*
X61071428Y-37635714D01*
X61071428Y-37692857D01*
X61100000Y-37750000D01*
X61128571Y-37778571D01*
X61185714Y-37807143D01*
X61385714Y-37807143D01*
X60528571Y-37721429D02*
X60528571Y-38121429D01*
X60671428Y-37492857D02*
X60814285Y-37921429D01*
X60442857Y-37921429D01*
X50600000Y-28007143D02*
X50800000Y-28007143D01*
X50800000Y-28321429D02*
X50800000Y-27721429D01*
X50514286Y-27721429D01*
X50085714Y-28007143D02*
X50000000Y-28035714D01*
X49971428Y-28064286D01*
X49942857Y-28121429D01*
X49942857Y-28207143D01*
X49971428Y-28264286D01*
X50000000Y-28292857D01*
X50057142Y-28321429D01*
X50285714Y-28321429D01*
X50285714Y-27721429D01*
X50085714Y-27721429D01*
X50028571Y-27750000D01*
X50000000Y-27778571D01*
X49971428Y-27835714D01*
X49971428Y-27892857D01*
X50000000Y-27950000D01*
X50028571Y-27978571D01*
X50085714Y-28007143D01*
X50285714Y-28007143D01*
X49742857Y-27721429D02*
X49371428Y-27721429D01*
X49571428Y-27950000D01*
X49485714Y-27950000D01*
X49428571Y-27978571D01*
X49400000Y-28007143D01*
X49371428Y-28064286D01*
X49371428Y-28207143D01*
X49400000Y-28264286D01*
X49428571Y-28292857D01*
X49485714Y-28321429D01*
X49657142Y-28321429D01*
X49714285Y-28292857D01*
X49742857Y-28264286D01*
X52200000Y-61057143D02*
X52400000Y-61057143D01*
X52400000Y-61371429D02*
X52400000Y-60771429D01*
X52114286Y-60771429D01*
X51685714Y-61057143D02*
X51600000Y-61085714D01*
X51571428Y-61114286D01*
X51542857Y-61171429D01*
X51542857Y-61257143D01*
X51571428Y-61314286D01*
X51600000Y-61342857D01*
X51657142Y-61371429D01*
X51885714Y-61371429D01*
X51885714Y-60771429D01*
X51685714Y-60771429D01*
X51628571Y-60800000D01*
X51600000Y-60828571D01*
X51571428Y-60885714D01*
X51571428Y-60942857D01*
X51600000Y-61000000D01*
X51628571Y-61028571D01*
X51685714Y-61057143D01*
X51885714Y-61057143D01*
X50971428Y-61371429D02*
X51314285Y-61371429D01*
X51142857Y-61371429D02*
X51142857Y-60771429D01*
X51200000Y-60857143D01*
X51257142Y-60914286D01*
X51314285Y-60942857D01*
X59850000Y-45114286D02*
X59878571Y-45142857D01*
X59964285Y-45171429D01*
X60021428Y-45171429D01*
X60107143Y-45142857D01*
X60164285Y-45085714D01*
X60192857Y-45028571D01*
X60221428Y-44914286D01*
X60221428Y-44828571D01*
X60192857Y-44714286D01*
X60164285Y-44657143D01*
X60107143Y-44600000D01*
X60021428Y-44571429D01*
X59964285Y-44571429D01*
X59878571Y-44600000D01*
X59850000Y-44628571D01*
X59621428Y-44628571D02*
X59592857Y-44600000D01*
X59535714Y-44571429D01*
X59392857Y-44571429D01*
X59335714Y-44600000D01*
X59307143Y-44628571D01*
X59278571Y-44685714D01*
X59278571Y-44742857D01*
X59307143Y-44828571D01*
X59650000Y-45171429D01*
X59278571Y-45171429D01*
X97414286Y-41400000D02*
X97442857Y-41371429D01*
X97471429Y-41285715D01*
X97471429Y-41228572D01*
X97442857Y-41142857D01*
X97385714Y-41085715D01*
X97328571Y-41057143D01*
X97214286Y-41028572D01*
X97128571Y-41028572D01*
X97014286Y-41057143D01*
X96957143Y-41085715D01*
X96900000Y-41142857D01*
X96871429Y-41228572D01*
X96871429Y-41285715D01*
X96900000Y-41371429D01*
X96928571Y-41400000D01*
X96871429Y-41600000D02*
X96871429Y-41971429D01*
X97100000Y-41771429D01*
X97100000Y-41857143D01*
X97128571Y-41914286D01*
X97157143Y-41942857D01*
X97214286Y-41971429D01*
X97357143Y-41971429D01*
X97414286Y-41942857D01*
X97442857Y-41914286D01*
X97471429Y-41857143D01*
X97471429Y-41685715D01*
X97442857Y-41628572D01*
X97414286Y-41600000D01*
X97414286Y-39600000D02*
X97442857Y-39571429D01*
X97471429Y-39485715D01*
X97471429Y-39428572D01*
X97442857Y-39342857D01*
X97385714Y-39285715D01*
X97328571Y-39257143D01*
X97214286Y-39228572D01*
X97128571Y-39228572D01*
X97014286Y-39257143D01*
X96957143Y-39285715D01*
X96900000Y-39342857D01*
X96871429Y-39428572D01*
X96871429Y-39485715D01*
X96900000Y-39571429D01*
X96928571Y-39600000D01*
X97071429Y-40114286D02*
X97471429Y-40114286D01*
X96842857Y-39971429D02*
X97271429Y-39828572D01*
X97271429Y-40200000D01*
X51900000Y-57614286D02*
X51928571Y-57642857D01*
X52014285Y-57671429D01*
X52071428Y-57671429D01*
X52157143Y-57642857D01*
X52214285Y-57585714D01*
X52242857Y-57528571D01*
X52271428Y-57414286D01*
X52271428Y-57328571D01*
X52242857Y-57214286D01*
X52214285Y-57157143D01*
X52157143Y-57100000D01*
X52071428Y-57071429D01*
X52014285Y-57071429D01*
X51928571Y-57100000D01*
X51900000Y-57128571D01*
X51357143Y-57071429D02*
X51642857Y-57071429D01*
X51671428Y-57357143D01*
X51642857Y-57328571D01*
X51585714Y-57300000D01*
X51442857Y-57300000D01*
X51385714Y-57328571D01*
X51357143Y-57357143D01*
X51328571Y-57414286D01*
X51328571Y-57557143D01*
X51357143Y-57614286D01*
X51385714Y-57642857D01*
X51442857Y-57671429D01*
X51585714Y-57671429D01*
X51642857Y-57642857D01*
X51671428Y-57614286D01*
X84700000Y-39314286D02*
X84728571Y-39342857D01*
X84814285Y-39371429D01*
X84871428Y-39371429D01*
X84957143Y-39342857D01*
X85014285Y-39285714D01*
X85042857Y-39228571D01*
X85071428Y-39114286D01*
X85071428Y-39028571D01*
X85042857Y-38914286D01*
X85014285Y-38857143D01*
X84957143Y-38800000D01*
X84871428Y-38771429D01*
X84814285Y-38771429D01*
X84728571Y-38800000D01*
X84700000Y-38828571D01*
X84414285Y-39371429D02*
X84300000Y-39371429D01*
X84242857Y-39342857D01*
X84214285Y-39314286D01*
X84157143Y-39228571D01*
X84128571Y-39114286D01*
X84128571Y-38885714D01*
X84157143Y-38828571D01*
X84185714Y-38800000D01*
X84242857Y-38771429D01*
X84357143Y-38771429D01*
X84414285Y-38800000D01*
X84442857Y-38828571D01*
X84471428Y-38885714D01*
X84471428Y-39028571D01*
X84442857Y-39085714D01*
X84414285Y-39114286D01*
X84357143Y-39142857D01*
X84242857Y-39142857D01*
X84185714Y-39114286D01*
X84157143Y-39085714D01*
X84128571Y-39028571D01*
X54085715Y-61214286D02*
X54114286Y-61242857D01*
X54200000Y-61271429D01*
X54257143Y-61271429D01*
X54342858Y-61242857D01*
X54400000Y-61185714D01*
X54428572Y-61128571D01*
X54457143Y-61014286D01*
X54457143Y-60928571D01*
X54428572Y-60814286D01*
X54400000Y-60757143D01*
X54342858Y-60700000D01*
X54257143Y-60671429D01*
X54200000Y-60671429D01*
X54114286Y-60700000D01*
X54085715Y-60728571D01*
X53514286Y-61271429D02*
X53857143Y-61271429D01*
X53685715Y-61271429D02*
X53685715Y-60671429D01*
X53742858Y-60757143D01*
X53800000Y-60814286D01*
X53857143Y-60842857D01*
X53142857Y-60671429D02*
X53085714Y-60671429D01*
X53028571Y-60700000D01*
X53000000Y-60728571D01*
X52971429Y-60785714D01*
X52942857Y-60900000D01*
X52942857Y-61042857D01*
X52971429Y-61157143D01*
X53000000Y-61214286D01*
X53028571Y-61242857D01*
X53085714Y-61271429D01*
X53142857Y-61271429D01*
X53200000Y-61242857D01*
X53228571Y-61214286D01*
X53257143Y-61157143D01*
X53285714Y-61042857D01*
X53285714Y-60900000D01*
X53257143Y-60785714D01*
X53228571Y-60728571D01*
X53200000Y-60700000D01*
X53142857Y-60671429D01*
X72185715Y-44914286D02*
X72214286Y-44942857D01*
X72300000Y-44971429D01*
X72357143Y-44971429D01*
X72442858Y-44942857D01*
X72500000Y-44885714D01*
X72528572Y-44828571D01*
X72557143Y-44714286D01*
X72557143Y-44628571D01*
X72528572Y-44514286D01*
X72500000Y-44457143D01*
X72442858Y-44400000D01*
X72357143Y-44371429D01*
X72300000Y-44371429D01*
X72214286Y-44400000D01*
X72185715Y-44428571D01*
X71614286Y-44971429D02*
X71957143Y-44971429D01*
X71785715Y-44971429D02*
X71785715Y-44371429D01*
X71842858Y-44457143D01*
X71900000Y-44514286D01*
X71957143Y-44542857D01*
X71385714Y-44428571D02*
X71357143Y-44400000D01*
X71300000Y-44371429D01*
X71157143Y-44371429D01*
X71100000Y-44400000D01*
X71071429Y-44428571D01*
X71042857Y-44485714D01*
X71042857Y-44542857D01*
X71071429Y-44628571D01*
X71414286Y-44971429D01*
X71042857Y-44971429D01*
X109014286Y-50614285D02*
X109042857Y-50585714D01*
X109071429Y-50500000D01*
X109071429Y-50442857D01*
X109042857Y-50357142D01*
X108985714Y-50300000D01*
X108928571Y-50271428D01*
X108814286Y-50242857D01*
X108728571Y-50242857D01*
X108614286Y-50271428D01*
X108557143Y-50300000D01*
X108500000Y-50357142D01*
X108471429Y-50442857D01*
X108471429Y-50500000D01*
X108500000Y-50585714D01*
X108528571Y-50614285D01*
X109071429Y-51185714D02*
X109071429Y-50842857D01*
X109071429Y-51014285D02*
X108471429Y-51014285D01*
X108557143Y-50957142D01*
X108614286Y-50900000D01*
X108642857Y-50842857D01*
X108471429Y-51385714D02*
X108471429Y-51757143D01*
X108700000Y-51557143D01*
X108700000Y-51642857D01*
X108728571Y-51700000D01*
X108757143Y-51728571D01*
X108814286Y-51757143D01*
X108957143Y-51757143D01*
X109014286Y-51728571D01*
X109042857Y-51700000D01*
X109071429Y-51642857D01*
X109071429Y-51471429D01*
X109042857Y-51414286D01*
X109014286Y-51385714D01*
X96085715Y-67114286D02*
X96114286Y-67142857D01*
X96200000Y-67171429D01*
X96257143Y-67171429D01*
X96342858Y-67142857D01*
X96400000Y-67085714D01*
X96428572Y-67028571D01*
X96457143Y-66914286D01*
X96457143Y-66828571D01*
X96428572Y-66714286D01*
X96400000Y-66657143D01*
X96342858Y-66600000D01*
X96257143Y-66571429D01*
X96200000Y-66571429D01*
X96114286Y-66600000D01*
X96085715Y-66628571D01*
X95514286Y-67171429D02*
X95857143Y-67171429D01*
X95685715Y-67171429D02*
X95685715Y-66571429D01*
X95742858Y-66657143D01*
X95800000Y-66714286D01*
X95857143Y-66742857D01*
X94971429Y-66571429D02*
X95257143Y-66571429D01*
X95285714Y-66857143D01*
X95257143Y-66828571D01*
X95200000Y-66800000D01*
X95057143Y-66800000D01*
X95000000Y-66828571D01*
X94971429Y-66857143D01*
X94942857Y-66914286D01*
X94942857Y-67057143D01*
X94971429Y-67114286D01*
X95000000Y-67142857D01*
X95057143Y-67171429D01*
X95200000Y-67171429D01*
X95257143Y-67142857D01*
X95285714Y-67114286D01*
X43514286Y-44064285D02*
X43542857Y-44035714D01*
X43571429Y-43950000D01*
X43571429Y-43892857D01*
X43542857Y-43807142D01*
X43485714Y-43750000D01*
X43428571Y-43721428D01*
X43314286Y-43692857D01*
X43228571Y-43692857D01*
X43114286Y-43721428D01*
X43057143Y-43750000D01*
X43000000Y-43807142D01*
X42971429Y-43892857D01*
X42971429Y-43950000D01*
X43000000Y-44035714D01*
X43028571Y-44064285D01*
X43571429Y-44635714D02*
X43571429Y-44292857D01*
X43571429Y-44464285D02*
X42971429Y-44464285D01*
X43057143Y-44407142D01*
X43114286Y-44350000D01*
X43142857Y-44292857D01*
X42971429Y-44835714D02*
X42971429Y-45235714D01*
X43571429Y-44978571D01*
X107685715Y-18114286D02*
X107714286Y-18142857D01*
X107800000Y-18171429D01*
X107857143Y-18171429D01*
X107942858Y-18142857D01*
X108000000Y-18085714D01*
X108028572Y-18028571D01*
X108057143Y-17914286D01*
X108057143Y-17828571D01*
X108028572Y-17714286D01*
X108000000Y-17657143D01*
X107942858Y-17600000D01*
X107857143Y-17571429D01*
X107800000Y-17571429D01*
X107714286Y-17600000D01*
X107685715Y-17628571D01*
X107457143Y-17628571D02*
X107428572Y-17600000D01*
X107371429Y-17571429D01*
X107228572Y-17571429D01*
X107171429Y-17600000D01*
X107142858Y-17628571D01*
X107114286Y-17685714D01*
X107114286Y-17742857D01*
X107142858Y-17828571D01*
X107485715Y-18171429D01*
X107114286Y-18171429D01*
X106571429Y-17571429D02*
X106857143Y-17571429D01*
X106885714Y-17857143D01*
X106857143Y-17828571D01*
X106800000Y-17800000D01*
X106657143Y-17800000D01*
X106600000Y-17828571D01*
X106571429Y-17857143D01*
X106542857Y-17914286D01*
X106542857Y-18057143D01*
X106571429Y-18114286D01*
X106600000Y-18142857D01*
X106657143Y-18171429D01*
X106800000Y-18171429D01*
X106857143Y-18142857D01*
X106885714Y-18114286D01*
X82785715Y-67764286D02*
X82814286Y-67792857D01*
X82900000Y-67821429D01*
X82957143Y-67821429D01*
X83042858Y-67792857D01*
X83100000Y-67735714D01*
X83128572Y-67678571D01*
X83157143Y-67564286D01*
X83157143Y-67478571D01*
X83128572Y-67364286D01*
X83100000Y-67307143D01*
X83042858Y-67250000D01*
X82957143Y-67221429D01*
X82900000Y-67221429D01*
X82814286Y-67250000D01*
X82785715Y-67278571D01*
X82557143Y-67278571D02*
X82528572Y-67250000D01*
X82471429Y-67221429D01*
X82328572Y-67221429D01*
X82271429Y-67250000D01*
X82242858Y-67278571D01*
X82214286Y-67335714D01*
X82214286Y-67392857D01*
X82242858Y-67478571D01*
X82585715Y-67821429D01*
X82214286Y-67821429D01*
X81700000Y-67221429D02*
X81814286Y-67221429D01*
X81871429Y-67250000D01*
X81900000Y-67278571D01*
X81957143Y-67364286D01*
X81985714Y-67478571D01*
X81985714Y-67707143D01*
X81957143Y-67764286D01*
X81928571Y-67792857D01*
X81871429Y-67821429D01*
X81757143Y-67821429D01*
X81700000Y-67792857D01*
X81671429Y-67764286D01*
X81642857Y-67707143D01*
X81642857Y-67564286D01*
X81671429Y-67507143D01*
X81700000Y-67478571D01*
X81757143Y-67450000D01*
X81871429Y-67450000D01*
X81928571Y-67478571D01*
X81957143Y-67507143D01*
X81985714Y-67564286D01*
X51464286Y-35814285D02*
X51492857Y-35785714D01*
X51521429Y-35700000D01*
X51521429Y-35642857D01*
X51492857Y-35557142D01*
X51435714Y-35500000D01*
X51378571Y-35471428D01*
X51264286Y-35442857D01*
X51178571Y-35442857D01*
X51064286Y-35471428D01*
X51007143Y-35500000D01*
X50950000Y-35557142D01*
X50921429Y-35642857D01*
X50921429Y-35700000D01*
X50950000Y-35785714D01*
X50978571Y-35814285D01*
X50978571Y-36042857D02*
X50950000Y-36071428D01*
X50921429Y-36128571D01*
X50921429Y-36271428D01*
X50950000Y-36328571D01*
X50978571Y-36357142D01*
X51035714Y-36385714D01*
X51092857Y-36385714D01*
X51178571Y-36357142D01*
X51521429Y-36014285D01*
X51521429Y-36385714D01*
X51521429Y-36671429D02*
X51521429Y-36785714D01*
X51492857Y-36842857D01*
X51464286Y-36871429D01*
X51378571Y-36928571D01*
X51264286Y-36957143D01*
X51035714Y-36957143D01*
X50978571Y-36928571D01*
X50950000Y-36900000D01*
X50921429Y-36842857D01*
X50921429Y-36728571D01*
X50950000Y-36671429D01*
X50978571Y-36642857D01*
X51035714Y-36614286D01*
X51178571Y-36614286D01*
X51235714Y-36642857D01*
X51264286Y-36671429D01*
X51292857Y-36728571D01*
X51292857Y-36842857D01*
X51264286Y-36900000D01*
X51235714Y-36928571D01*
X51178571Y-36957143D01*
X51464286Y-37864285D02*
X51492857Y-37835714D01*
X51521429Y-37750000D01*
X51521429Y-37692857D01*
X51492857Y-37607142D01*
X51435714Y-37550000D01*
X51378571Y-37521428D01*
X51264286Y-37492857D01*
X51178571Y-37492857D01*
X51064286Y-37521428D01*
X51007143Y-37550000D01*
X50950000Y-37607142D01*
X50921429Y-37692857D01*
X50921429Y-37750000D01*
X50950000Y-37835714D01*
X50978571Y-37864285D01*
X50921429Y-38064285D02*
X50921429Y-38435714D01*
X51150000Y-38235714D01*
X51150000Y-38321428D01*
X51178571Y-38378571D01*
X51207143Y-38407142D01*
X51264286Y-38435714D01*
X51407143Y-38435714D01*
X51464286Y-38407142D01*
X51492857Y-38378571D01*
X51521429Y-38321428D01*
X51521429Y-38150000D01*
X51492857Y-38092857D01*
X51464286Y-38064285D01*
X50978571Y-38664286D02*
X50950000Y-38692857D01*
X50921429Y-38750000D01*
X50921429Y-38892857D01*
X50950000Y-38950000D01*
X50978571Y-38978571D01*
X51035714Y-39007143D01*
X51092857Y-39007143D01*
X51178571Y-38978571D01*
X51521429Y-38635714D01*
X51521429Y-39007143D01*
X86014286Y-23714285D02*
X86042857Y-23685714D01*
X86071429Y-23600000D01*
X86071429Y-23542857D01*
X86042857Y-23457142D01*
X85985714Y-23400000D01*
X85928571Y-23371428D01*
X85814286Y-23342857D01*
X85728571Y-23342857D01*
X85614286Y-23371428D01*
X85557143Y-23400000D01*
X85500000Y-23457142D01*
X85471429Y-23542857D01*
X85471429Y-23600000D01*
X85500000Y-23685714D01*
X85528571Y-23714285D01*
X85471429Y-23914285D02*
X85471429Y-24285714D01*
X85700000Y-24085714D01*
X85700000Y-24171428D01*
X85728571Y-24228571D01*
X85757143Y-24257142D01*
X85814286Y-24285714D01*
X85957143Y-24285714D01*
X86014286Y-24257142D01*
X86042857Y-24228571D01*
X86071429Y-24171428D01*
X86071429Y-24000000D01*
X86042857Y-23942857D01*
X86014286Y-23914285D01*
X85471429Y-24485714D02*
X85471429Y-24857143D01*
X85700000Y-24657143D01*
X85700000Y-24742857D01*
X85728571Y-24800000D01*
X85757143Y-24828571D01*
X85814286Y-24857143D01*
X85957143Y-24857143D01*
X86014286Y-24828571D01*
X86042857Y-24800000D01*
X86071429Y-24742857D01*
X86071429Y-24571429D01*
X86042857Y-24514286D01*
X86014286Y-24485714D01*
X51514286Y-30714285D02*
X51542857Y-30685714D01*
X51571429Y-30600000D01*
X51571429Y-30542857D01*
X51542857Y-30457142D01*
X51485714Y-30400000D01*
X51428571Y-30371428D01*
X51314286Y-30342857D01*
X51228571Y-30342857D01*
X51114286Y-30371428D01*
X51057143Y-30400000D01*
X51000000Y-30457142D01*
X50971429Y-30542857D01*
X50971429Y-30600000D01*
X51000000Y-30685714D01*
X51028571Y-30714285D01*
X50971429Y-30914285D02*
X50971429Y-31285714D01*
X51200000Y-31085714D01*
X51200000Y-31171428D01*
X51228571Y-31228571D01*
X51257143Y-31257142D01*
X51314286Y-31285714D01*
X51457143Y-31285714D01*
X51514286Y-31257142D01*
X51542857Y-31228571D01*
X51571429Y-31171428D01*
X51571429Y-31000000D01*
X51542857Y-30942857D01*
X51514286Y-30914285D01*
X50971429Y-31800000D02*
X50971429Y-31685714D01*
X51000000Y-31628571D01*
X51028571Y-31600000D01*
X51114286Y-31542857D01*
X51228571Y-31514286D01*
X51457143Y-31514286D01*
X51514286Y-31542857D01*
X51542857Y-31571429D01*
X51571429Y-31628571D01*
X51571429Y-31742857D01*
X51542857Y-31800000D01*
X51514286Y-31828571D01*
X51457143Y-31857143D01*
X51314286Y-31857143D01*
X51257143Y-31828571D01*
X51228571Y-31800000D01*
X51200000Y-31742857D01*
X51200000Y-31628571D01*
X51228571Y-31571429D01*
X51257143Y-31542857D01*
X51314286Y-31514286D01*
X86014286Y-27714285D02*
X86042857Y-27685714D01*
X86071429Y-27600000D01*
X86071429Y-27542857D01*
X86042857Y-27457142D01*
X85985714Y-27400000D01*
X85928571Y-27371428D01*
X85814286Y-27342857D01*
X85728571Y-27342857D01*
X85614286Y-27371428D01*
X85557143Y-27400000D01*
X85500000Y-27457142D01*
X85471429Y-27542857D01*
X85471429Y-27600000D01*
X85500000Y-27685714D01*
X85528571Y-27714285D01*
X85471429Y-27914285D02*
X85471429Y-28285714D01*
X85700000Y-28085714D01*
X85700000Y-28171428D01*
X85728571Y-28228571D01*
X85757143Y-28257142D01*
X85814286Y-28285714D01*
X85957143Y-28285714D01*
X86014286Y-28257142D01*
X86042857Y-28228571D01*
X86071429Y-28171428D01*
X86071429Y-28000000D01*
X86042857Y-27942857D01*
X86014286Y-27914285D01*
X85728571Y-28628571D02*
X85700000Y-28571429D01*
X85671429Y-28542857D01*
X85614286Y-28514286D01*
X85585714Y-28514286D01*
X85528571Y-28542857D01*
X85500000Y-28571429D01*
X85471429Y-28628571D01*
X85471429Y-28742857D01*
X85500000Y-28800000D01*
X85528571Y-28828571D01*
X85585714Y-28857143D01*
X85614286Y-28857143D01*
X85671429Y-28828571D01*
X85700000Y-28800000D01*
X85728571Y-28742857D01*
X85728571Y-28628571D01*
X85757143Y-28571429D01*
X85785714Y-28542857D01*
X85842857Y-28514286D01*
X85957143Y-28514286D01*
X86014286Y-28542857D01*
X86042857Y-28571429D01*
X86071429Y-28628571D01*
X86071429Y-28742857D01*
X86042857Y-28800000D01*
X86014286Y-28828571D01*
X85957143Y-28857143D01*
X85842857Y-28857143D01*
X85785714Y-28828571D01*
X85757143Y-28800000D01*
X85728571Y-28742857D01*
X74335715Y-30464286D02*
X74364286Y-30492857D01*
X74450000Y-30521429D01*
X74507143Y-30521429D01*
X74592858Y-30492857D01*
X74650000Y-30435714D01*
X74678572Y-30378571D01*
X74707143Y-30264286D01*
X74707143Y-30178571D01*
X74678572Y-30064286D01*
X74650000Y-30007143D01*
X74592858Y-29950000D01*
X74507143Y-29921429D01*
X74450000Y-29921429D01*
X74364286Y-29950000D01*
X74335715Y-29978571D01*
X73821429Y-30121429D02*
X73821429Y-30521429D01*
X73964286Y-29892857D02*
X74107143Y-30321429D01*
X73735715Y-30321429D01*
X73192857Y-30521429D02*
X73535714Y-30521429D01*
X73364286Y-30521429D02*
X73364286Y-29921429D01*
X73421429Y-30007143D01*
X73478571Y-30064286D01*
X73535714Y-30092857D01*
X58785715Y-27514286D02*
X58814286Y-27542857D01*
X58900000Y-27571429D01*
X58957143Y-27571429D01*
X59042858Y-27542857D01*
X59100000Y-27485714D01*
X59128572Y-27428571D01*
X59157143Y-27314286D01*
X59157143Y-27228571D01*
X59128572Y-27114286D01*
X59100000Y-27057143D01*
X59042858Y-27000000D01*
X58957143Y-26971429D01*
X58900000Y-26971429D01*
X58814286Y-27000000D01*
X58785715Y-27028571D01*
X58271429Y-27171429D02*
X58271429Y-27571429D01*
X58414286Y-26942857D02*
X58557143Y-27371429D01*
X58185715Y-27371429D01*
X57985714Y-27028571D02*
X57957143Y-27000000D01*
X57900000Y-26971429D01*
X57757143Y-26971429D01*
X57700000Y-27000000D01*
X57671429Y-27028571D01*
X57642857Y-27085714D01*
X57642857Y-27142857D01*
X57671429Y-27228571D01*
X58014286Y-27571429D01*
X57642857Y-27571429D01*
X65214286Y-20714285D02*
X65242857Y-20685714D01*
X65271429Y-20600000D01*
X65271429Y-20542857D01*
X65242857Y-20457142D01*
X65185714Y-20400000D01*
X65128571Y-20371428D01*
X65014286Y-20342857D01*
X64928571Y-20342857D01*
X64814286Y-20371428D01*
X64757143Y-20400000D01*
X64700000Y-20457142D01*
X64671429Y-20542857D01*
X64671429Y-20600000D01*
X64700000Y-20685714D01*
X64728571Y-20714285D01*
X64871429Y-21228571D02*
X65271429Y-21228571D01*
X64642857Y-21085714D02*
X65071429Y-20942857D01*
X65071429Y-21314285D01*
X64671429Y-21485714D02*
X64671429Y-21857143D01*
X64900000Y-21657143D01*
X64900000Y-21742857D01*
X64928571Y-21800000D01*
X64957143Y-21828571D01*
X65014286Y-21857143D01*
X65157143Y-21857143D01*
X65214286Y-21828571D01*
X65242857Y-21800000D01*
X65271429Y-21742857D01*
X65271429Y-21571429D01*
X65242857Y-21514286D01*
X65214286Y-21485714D01*
X90014286Y-18214285D02*
X90042857Y-18185714D01*
X90071429Y-18100000D01*
X90071429Y-18042857D01*
X90042857Y-17957142D01*
X89985714Y-17900000D01*
X89928571Y-17871428D01*
X89814286Y-17842857D01*
X89728571Y-17842857D01*
X89614286Y-17871428D01*
X89557143Y-17900000D01*
X89500000Y-17957142D01*
X89471429Y-18042857D01*
X89471429Y-18100000D01*
X89500000Y-18185714D01*
X89528571Y-18214285D01*
X89671429Y-18728571D02*
X90071429Y-18728571D01*
X89442857Y-18585714D02*
X89871429Y-18442857D01*
X89871429Y-18814285D01*
X89471429Y-19328571D02*
X89471429Y-19042857D01*
X89757143Y-19014286D01*
X89728571Y-19042857D01*
X89700000Y-19100000D01*
X89700000Y-19242857D01*
X89728571Y-19300000D01*
X89757143Y-19328571D01*
X89814286Y-19357143D01*
X89957143Y-19357143D01*
X90014286Y-19328571D01*
X90042857Y-19300000D01*
X90071429Y-19242857D01*
X90071429Y-19100000D01*
X90042857Y-19042857D01*
X90014286Y-19014286D01*
X63585715Y-38114286D02*
X63614286Y-38142857D01*
X63700000Y-38171429D01*
X63757143Y-38171429D01*
X63842858Y-38142857D01*
X63900000Y-38085714D01*
X63928572Y-38028571D01*
X63957143Y-37914286D01*
X63957143Y-37828571D01*
X63928572Y-37714286D01*
X63900000Y-37657143D01*
X63842858Y-37600000D01*
X63757143Y-37571429D01*
X63700000Y-37571429D01*
X63614286Y-37600000D01*
X63585715Y-37628571D01*
X63071429Y-37771429D02*
X63071429Y-38171429D01*
X63214286Y-37542857D02*
X63357143Y-37971429D01*
X62985715Y-37971429D01*
X62500000Y-37571429D02*
X62614286Y-37571429D01*
X62671429Y-37600000D01*
X62700000Y-37628571D01*
X62757143Y-37714286D01*
X62785714Y-37828571D01*
X62785714Y-38057143D01*
X62757143Y-38114286D01*
X62728571Y-38142857D01*
X62671429Y-38171429D01*
X62557143Y-38171429D01*
X62500000Y-38142857D01*
X62471429Y-38114286D01*
X62442857Y-38057143D01*
X62442857Y-37914286D01*
X62471429Y-37857143D01*
X62500000Y-37828571D01*
X62557143Y-37800000D01*
X62671429Y-37800000D01*
X62728571Y-37828571D01*
X62757143Y-37857143D01*
X62785714Y-37914286D01*
X59202381Y-17623810D02*
X58202381Y-17623810D01*
X58202381Y-18004763D01*
X58250000Y-18100001D01*
X58297619Y-18147620D01*
X58392857Y-18195239D01*
X58535714Y-18195239D01*
X58630952Y-18147620D01*
X58678571Y-18100001D01*
X58726190Y-18004763D01*
X58726190Y-17623810D01*
X59202381Y-18623810D02*
X58202381Y-18623810D01*
X58202381Y-18861905D01*
X58250000Y-19004763D01*
X58345238Y-19100001D01*
X58440476Y-19147620D01*
X58630952Y-19195239D01*
X58773810Y-19195239D01*
X58964286Y-19147620D01*
X59059524Y-19100001D01*
X59154762Y-19004763D01*
X59202381Y-18861905D01*
X59202381Y-18623810D01*
X59202381Y-19623810D02*
X58202381Y-19623810D01*
X59202381Y-20623810D02*
X59202381Y-20052381D01*
X59202381Y-20338095D02*
X58202381Y-20338095D01*
X58345238Y-20242857D01*
X58440476Y-20147619D01*
X58488095Y-20052381D01*
X51564286Y-44114285D02*
X51592857Y-44085714D01*
X51621429Y-44000000D01*
X51621429Y-43942857D01*
X51592857Y-43857142D01*
X51535714Y-43800000D01*
X51478571Y-43771428D01*
X51364286Y-43742857D01*
X51278571Y-43742857D01*
X51164286Y-43771428D01*
X51107143Y-43800000D01*
X51050000Y-43857142D01*
X51021429Y-43942857D01*
X51021429Y-44000000D01*
X51050000Y-44085714D01*
X51078571Y-44114285D01*
X51021429Y-44314285D02*
X51021429Y-44685714D01*
X51250000Y-44485714D01*
X51250000Y-44571428D01*
X51278571Y-44628571D01*
X51307143Y-44657142D01*
X51364286Y-44685714D01*
X51507143Y-44685714D01*
X51564286Y-44657142D01*
X51592857Y-44628571D01*
X51621429Y-44571428D01*
X51621429Y-44400000D01*
X51592857Y-44342857D01*
X51564286Y-44314285D01*
X51621429Y-44971429D02*
X51621429Y-45085714D01*
X51592857Y-45142857D01*
X51564286Y-45171429D01*
X51478571Y-45228571D01*
X51364286Y-45257143D01*
X51135714Y-45257143D01*
X51078571Y-45228571D01*
X51050000Y-45200000D01*
X51021429Y-45142857D01*
X51021429Y-45028571D01*
X51050000Y-44971429D01*
X51078571Y-44942857D01*
X51135714Y-44914286D01*
X51278571Y-44914286D01*
X51335714Y-44942857D01*
X51364286Y-44971429D01*
X51392857Y-45028571D01*
X51392857Y-45142857D01*
X51364286Y-45200000D01*
X51335714Y-45228571D01*
X51278571Y-45257143D01*
X55064286Y-35814285D02*
X55092857Y-35785714D01*
X55121429Y-35700000D01*
X55121429Y-35642857D01*
X55092857Y-35557142D01*
X55035714Y-35500000D01*
X54978571Y-35471428D01*
X54864286Y-35442857D01*
X54778571Y-35442857D01*
X54664286Y-35471428D01*
X54607143Y-35500000D01*
X54550000Y-35557142D01*
X54521429Y-35642857D01*
X54521429Y-35700000D01*
X54550000Y-35785714D01*
X54578571Y-35814285D01*
X54721429Y-36328571D02*
X55121429Y-36328571D01*
X54492857Y-36185714D02*
X54921429Y-36042857D01*
X54921429Y-36414285D01*
X54521429Y-36757143D02*
X54521429Y-36814286D01*
X54550000Y-36871429D01*
X54578571Y-36900000D01*
X54635714Y-36928571D01*
X54750000Y-36957143D01*
X54892857Y-36957143D01*
X55007143Y-36928571D01*
X55064286Y-36900000D01*
X55092857Y-36871429D01*
X55121429Y-36814286D01*
X55121429Y-36757143D01*
X55092857Y-36700000D01*
X55064286Y-36671429D01*
X55007143Y-36642857D01*
X54892857Y-36614286D01*
X54750000Y-36614286D01*
X54635714Y-36642857D01*
X54578571Y-36671429D01*
X54550000Y-36700000D01*
X54521429Y-36757143D01*
X56366666Y-41816667D02*
X56366666Y-42383333D01*
X56333333Y-42450000D01*
X56300000Y-42483333D01*
X56233333Y-42516667D01*
X56100000Y-42516667D01*
X56033333Y-42483333D01*
X56000000Y-42450000D01*
X55966666Y-42383333D01*
X55966666Y-41816667D01*
X55266667Y-42516667D02*
X55666667Y-42516667D01*
X55466667Y-42516667D02*
X55466667Y-41816667D01*
X55533333Y-41916667D01*
X55600000Y-41983333D01*
X55666667Y-42016667D01*
X55033333Y-41816667D02*
X54600000Y-41816667D01*
X54833333Y-42083333D01*
X54733333Y-42083333D01*
X54666666Y-42116667D01*
X54633333Y-42150000D01*
X54600000Y-42216667D01*
X54600000Y-42383333D01*
X54633333Y-42450000D01*
X54666666Y-42483333D01*
X54733333Y-42516667D01*
X54933333Y-42516667D01*
X55000000Y-42483333D01*
X55033333Y-42450000D01*
X118933333Y-28052381D02*
X118933333Y-28766667D01*
X118980953Y-28909524D01*
X119076191Y-29004762D01*
X119219048Y-29052381D01*
X119314286Y-29052381D01*
X117933333Y-29052381D02*
X118504762Y-29052381D01*
X118219048Y-29052381D02*
X118219048Y-28052381D01*
X118314286Y-28195238D01*
X118409524Y-28290476D01*
X118504762Y-28338095D01*
X44916667Y-48066667D02*
X45483333Y-48066667D01*
X45550000Y-48100000D01*
X45583333Y-48133333D01*
X45616667Y-48200000D01*
X45616667Y-48333333D01*
X45583333Y-48400000D01*
X45550000Y-48433333D01*
X45483333Y-48466667D01*
X44916667Y-48466667D01*
X44916667Y-48733333D02*
X44916667Y-49200000D01*
X45616667Y-48900000D01*
X106366666Y-55916667D02*
X106366666Y-56483333D01*
X106333333Y-56550000D01*
X106300000Y-56583333D01*
X106233333Y-56616667D01*
X106100000Y-56616667D01*
X106033333Y-56583333D01*
X106000000Y-56550000D01*
X105966666Y-56483333D01*
X105966666Y-55916667D01*
X105266667Y-56616667D02*
X105666667Y-56616667D01*
X105466667Y-56616667D02*
X105466667Y-55916667D01*
X105533333Y-56016667D01*
X105600000Y-56083333D01*
X105666667Y-56116667D01*
X104833333Y-55916667D02*
X104766666Y-55916667D01*
X104700000Y-55950000D01*
X104666666Y-55983333D01*
X104633333Y-56050000D01*
X104600000Y-56183333D01*
X104600000Y-56350000D01*
X104633333Y-56483333D01*
X104666666Y-56550000D01*
X104700000Y-56583333D01*
X104766666Y-56616667D01*
X104833333Y-56616667D01*
X104900000Y-56583333D01*
X104933333Y-56550000D01*
X104966666Y-56483333D01*
X105000000Y-56350000D01*
X105000000Y-56183333D01*
X104966666Y-56050000D01*
X104933333Y-55983333D01*
X104900000Y-55950000D01*
X104833333Y-55916667D01*
X64964286Y-41114285D02*
X64992857Y-41085714D01*
X65021429Y-41000000D01*
X65021429Y-40942857D01*
X64992857Y-40857142D01*
X64935714Y-40800000D01*
X64878571Y-40771428D01*
X64764286Y-40742857D01*
X64678571Y-40742857D01*
X64564286Y-40771428D01*
X64507143Y-40800000D01*
X64450000Y-40857142D01*
X64421429Y-40942857D01*
X64421429Y-41000000D01*
X64450000Y-41085714D01*
X64478571Y-41114285D01*
X64421429Y-41657142D02*
X64421429Y-41371428D01*
X64707143Y-41342857D01*
X64678571Y-41371428D01*
X64650000Y-41428571D01*
X64650000Y-41571428D01*
X64678571Y-41628571D01*
X64707143Y-41657142D01*
X64764286Y-41685714D01*
X64907143Y-41685714D01*
X64964286Y-41657142D01*
X64992857Y-41628571D01*
X65021429Y-41571428D01*
X65021429Y-41428571D01*
X64992857Y-41371428D01*
X64964286Y-41342857D01*
X64421429Y-41885714D02*
X64421429Y-42257143D01*
X64650000Y-42057143D01*
X64650000Y-42142857D01*
X64678571Y-42200000D01*
X64707143Y-42228571D01*
X64764286Y-42257143D01*
X64907143Y-42257143D01*
X64964286Y-42228571D01*
X64992857Y-42200000D01*
X65021429Y-42142857D01*
X65021429Y-41971429D01*
X64992857Y-41914286D01*
X64964286Y-41885714D01*
X69885715Y-40864286D02*
X69914286Y-40892857D01*
X70000000Y-40921429D01*
X70057143Y-40921429D01*
X70142858Y-40892857D01*
X70200000Y-40835714D01*
X70228572Y-40778571D01*
X70257143Y-40664286D01*
X70257143Y-40578571D01*
X70228572Y-40464286D01*
X70200000Y-40407143D01*
X70142858Y-40350000D01*
X70057143Y-40321429D01*
X70000000Y-40321429D01*
X69914286Y-40350000D01*
X69885715Y-40378571D01*
X69342858Y-40321429D02*
X69628572Y-40321429D01*
X69657143Y-40607143D01*
X69628572Y-40578571D01*
X69571429Y-40550000D01*
X69428572Y-40550000D01*
X69371429Y-40578571D01*
X69342858Y-40607143D01*
X69314286Y-40664286D01*
X69314286Y-40807143D01*
X69342858Y-40864286D01*
X69371429Y-40892857D01*
X69428572Y-40921429D01*
X69571429Y-40921429D01*
X69628572Y-40892857D01*
X69657143Y-40864286D01*
X68800000Y-40521429D02*
X68800000Y-40921429D01*
X68942857Y-40292857D02*
X69085714Y-40721429D01*
X68714286Y-40721429D01*
X64666667Y-38783333D02*
X65366667Y-39250000D01*
X64666667Y-39250000D02*
X65366667Y-38783333D01*
X64666667Y-39450000D02*
X64666667Y-39883333D01*
X64933333Y-39650000D01*
X64933333Y-39750000D01*
X64966667Y-39816667D01*
X65000000Y-39850000D01*
X65066667Y-39883333D01*
X65233333Y-39883333D01*
X65300000Y-39850000D01*
X65333333Y-39816667D01*
X65366667Y-39750000D01*
X65366667Y-39550000D01*
X65333333Y-39483333D01*
X65300000Y-39450000D01*
M02*
