G04 #@! TF.FileFunction,Paste,Top*
%FSLAX46Y46*%
G04 Gerber Fmt 4.6, Leading zero omitted, Abs format (unit mm)*
G04 Created by KiCad (PCBNEW 4.0.2-stable) date 4/24/2017 9:06:07 AM*
%MOMM*%
G01*
G04 APERTURE LIST*
%ADD10C,0.100000*%
%ADD11R,0.900000X0.700000*%
%ADD12R,0.800100X0.800100*%
%ADD13R,3.599180X1.600200*%
%ADD14R,0.600000X1.500000*%
%ADD15R,2.032000X3.657600*%
%ADD16R,2.032000X1.016000*%
%ADD17R,0.650000X1.060000*%
%ADD18R,1.250000X1.200000*%
%ADD19R,0.700000X0.900000*%
%ADD20R,1.350000X0.400000*%
%ADD21R,2.100000X1.100000*%
%ADD22R,2.300000X1.000000*%
%ADD23R,4.000000X2.000000*%
%ADD24R,1.600000X2.180000*%
%ADD25R,0.600000X1.800000*%
%ADD26R,1.500000X0.600000*%
%ADD27R,1.300000X0.900000*%
%ADD28R,0.900000X0.800000*%
%ADD29R,0.800000X0.900000*%
%ADD30R,0.900000X2.500000*%
%ADD31R,1.200000X1.250000*%
%ADD32R,2.000000X1.000000*%
%ADD33R,5.000000X2.000000*%
G04 APERTURE END LIST*
D10*
D11*
X115700000Y-20250000D03*
X115700000Y-18450000D03*
D12*
X51699240Y-48150000D03*
X51699240Y-50050000D03*
X53698220Y-49100000D03*
D13*
X86050820Y-67700000D03*
X80549180Y-67700000D03*
X91049180Y-67700000D03*
X96550820Y-67700000D03*
D14*
X63985000Y-58875000D03*
X62715000Y-58875000D03*
X61445000Y-58875000D03*
X60175000Y-58875000D03*
X58905000Y-58875000D03*
X57635000Y-58875000D03*
X56365000Y-58875000D03*
X56365000Y-64275000D03*
X57635000Y-64275000D03*
X58905000Y-64275000D03*
X60175000Y-64275000D03*
X61445000Y-64275000D03*
X62715000Y-64275000D03*
X63985000Y-64275000D03*
D15*
X42898000Y-50850000D03*
D16*
X49502000Y-50850000D03*
X49502000Y-48564000D03*
X49502000Y-53136000D03*
D14*
X75980000Y-24825000D03*
X77250000Y-24825000D03*
X78520000Y-24825000D03*
X79790000Y-24825000D03*
X81060000Y-24825000D03*
X82330000Y-24825000D03*
X83600000Y-24825000D03*
X84870000Y-24825000D03*
X84870000Y-19425000D03*
X83600000Y-19425000D03*
X82330000Y-19425000D03*
X81060000Y-19425000D03*
X79790000Y-19425000D03*
X78520000Y-19425000D03*
X77250000Y-19425000D03*
X75980000Y-19425000D03*
D17*
X71550000Y-32500000D03*
X70600000Y-32500000D03*
X69650000Y-32500000D03*
X69650000Y-34700000D03*
X71550000Y-34700000D03*
X70600000Y-34700000D03*
D18*
X74600000Y-53900000D03*
X74600000Y-51700000D03*
X110300000Y-55700000D03*
X110300000Y-57900000D03*
D11*
X116650000Y-23500000D03*
X116650000Y-21700000D03*
D19*
X110300000Y-20250000D03*
X112100000Y-20250000D03*
D20*
X121837460Y-39200900D03*
X121837460Y-38550900D03*
X121837460Y-37900900D03*
X121837460Y-37250900D03*
X121837460Y-36600900D03*
D21*
X124550000Y-39550000D03*
X124550000Y-36250000D03*
D22*
X66995000Y-38670000D03*
X66995000Y-36130000D03*
X66995000Y-33590000D03*
X66995000Y-29780000D03*
X66995000Y-37400000D03*
X66995000Y-34860000D03*
X66995000Y-32320000D03*
X66995000Y-31050000D03*
D23*
X46300000Y-45950000D03*
X46300000Y-25400000D03*
D12*
X63750000Y-46399240D03*
X61850000Y-46399240D03*
X62800000Y-48398220D03*
X51200760Y-61550000D03*
X51200760Y-59650000D03*
X49201780Y-60600000D03*
X57800760Y-49350000D03*
X57800760Y-47450000D03*
X55801780Y-48400000D03*
X70350000Y-52900760D03*
X72250000Y-52900760D03*
X71300000Y-50901780D03*
X100800760Y-27300000D03*
X100800760Y-25400000D03*
X98801780Y-26350000D03*
D24*
X117997680Y-41102430D03*
X118002320Y-31897570D03*
D25*
X102000000Y-31250000D03*
X101000000Y-31250000D03*
X100000000Y-31250000D03*
X99000000Y-31250000D03*
X98000000Y-31250000D03*
X97000000Y-31250000D03*
X96000000Y-31250000D03*
X95000000Y-31250000D03*
X94000000Y-31250000D03*
X93000000Y-31250000D03*
X92000000Y-31250000D03*
X91000000Y-31250000D03*
X90000000Y-31250000D03*
X89000000Y-31250000D03*
X88000000Y-31250000D03*
X87000000Y-31250000D03*
X86000000Y-31250000D03*
X85000000Y-31250000D03*
X84000000Y-31250000D03*
X83000000Y-31250000D03*
D26*
X77250000Y-37000000D03*
X77250000Y-38000000D03*
X77250000Y-39000000D03*
X77250000Y-40000000D03*
X77250000Y-41000000D03*
X77250000Y-42000000D03*
X77250000Y-43000000D03*
X77250000Y-44000000D03*
X77250000Y-45000000D03*
X77250000Y-46000000D03*
X77250000Y-47000000D03*
X77250000Y-48000000D03*
X77250000Y-49000000D03*
X77250000Y-50000000D03*
X77250000Y-51000000D03*
X77250000Y-52000000D03*
X77250000Y-53000000D03*
X77250000Y-54000000D03*
X77250000Y-55000000D03*
X77250000Y-56000000D03*
D14*
X83000000Y-61750000D03*
X84000000Y-61750000D03*
X85000000Y-61750000D03*
X86000000Y-61750000D03*
X87000000Y-61750000D03*
X88000000Y-61750000D03*
X89000000Y-61750000D03*
X90000000Y-61750000D03*
X91000000Y-61750000D03*
X92000000Y-61750000D03*
X93000000Y-61750000D03*
X94000000Y-61750000D03*
X95000000Y-61750000D03*
X96000000Y-61750000D03*
X97000000Y-61750000D03*
X98000000Y-61750000D03*
X99000000Y-61750000D03*
X100000000Y-61750000D03*
X101000000Y-61750000D03*
X102000000Y-61750000D03*
D26*
X107750000Y-56000000D03*
X107750000Y-55000000D03*
X107750000Y-54000000D03*
X107750000Y-53000000D03*
X107750000Y-52000000D03*
X107750000Y-51000000D03*
X107750000Y-50000000D03*
X107750000Y-49000000D03*
X107750000Y-48000000D03*
X107750000Y-47000000D03*
X107750000Y-46000000D03*
X107750000Y-45000000D03*
X107750000Y-44000000D03*
X107750000Y-43000000D03*
X107750000Y-42000000D03*
X107750000Y-41000000D03*
X107750000Y-40000000D03*
X107750000Y-39000000D03*
X107750000Y-38000000D03*
X107750000Y-37000000D03*
D27*
X61700000Y-54550000D03*
X61700000Y-56650000D03*
X54200000Y-52900000D03*
X54200000Y-50800000D03*
X59800000Y-46850000D03*
X59800000Y-48950000D03*
D28*
X73400000Y-28500000D03*
X73400000Y-30300000D03*
X71600000Y-28500000D03*
X71600000Y-30300000D03*
X75200000Y-28500000D03*
X75200000Y-30300000D03*
D29*
X96550000Y-26350000D03*
X94750000Y-26350000D03*
D28*
X72800000Y-22900000D03*
X72800000Y-24700000D03*
D29*
X113100000Y-40500000D03*
X114900000Y-40500000D03*
X114900000Y-38500000D03*
X113100000Y-38500000D03*
X120200000Y-43800000D03*
X122000000Y-43800000D03*
D28*
X69900000Y-56600000D03*
X69900000Y-54800000D03*
D29*
X73100000Y-59200000D03*
X71300000Y-59200000D03*
D28*
X56200000Y-53000000D03*
X56200000Y-51200000D03*
D29*
X51100000Y-55600000D03*
X49300000Y-55600000D03*
X51100000Y-57600000D03*
X49300000Y-57600000D03*
D28*
X57950000Y-51200000D03*
X57950000Y-53000000D03*
D29*
X67800000Y-60600000D03*
X66000000Y-60600000D03*
X61850000Y-68850000D03*
X60050000Y-68850000D03*
X58350000Y-66850000D03*
X56550000Y-66850000D03*
D28*
X65450000Y-54700000D03*
X65450000Y-56500000D03*
D29*
X60050000Y-66850000D03*
X61850000Y-66850000D03*
D28*
X63700000Y-54700000D03*
X63700000Y-56500000D03*
X61450000Y-53000000D03*
X61450000Y-51200000D03*
X59700000Y-51200000D03*
X59700000Y-53000000D03*
X56200000Y-56500000D03*
X56200000Y-54700000D03*
X59700000Y-56500000D03*
X59700000Y-54700000D03*
X57950000Y-56500000D03*
X57950000Y-54700000D03*
X54450000Y-60250000D03*
X54450000Y-58450000D03*
X54450000Y-54700000D03*
X54450000Y-56500000D03*
X88100000Y-69900000D03*
X88100000Y-71700000D03*
D19*
X58300000Y-68900000D03*
X56500000Y-68900000D03*
D11*
X63950000Y-68850000D03*
X63950000Y-67050000D03*
D19*
X69100000Y-58600000D03*
X67300000Y-58600000D03*
D11*
X67200000Y-54700000D03*
X67200000Y-56500000D03*
X74600000Y-55900000D03*
X74600000Y-57700000D03*
X110300000Y-53700000D03*
X110300000Y-51900000D03*
D19*
X95900000Y-18800000D03*
X97700000Y-18800000D03*
D11*
X94700000Y-23700000D03*
X94700000Y-21900000D03*
D19*
X74150000Y-19400000D03*
X72350000Y-19400000D03*
D11*
X69800000Y-28500000D03*
X69800000Y-30300000D03*
X113800000Y-20250000D03*
X113800000Y-18450000D03*
D30*
X54550000Y-64700000D03*
X51650000Y-64700000D03*
X54550000Y-68100000D03*
X51650000Y-68100000D03*
D31*
X114600000Y-23500000D03*
X112400000Y-23500000D03*
D10*
G36*
X63450000Y-53850000D02*
X63450000Y-48750000D01*
X64250000Y-48750000D01*
X64250000Y-53850000D01*
X63450000Y-53850000D01*
X63450000Y-53850000D01*
G37*
G36*
X65150000Y-53850000D02*
X65150000Y-48750000D01*
X66450000Y-48750000D01*
X66450000Y-53850000D01*
X65150000Y-53850000D01*
X65150000Y-53850000D01*
G37*
G36*
X67350000Y-53850000D02*
X67350000Y-48750000D01*
X68150000Y-48750000D01*
X68150000Y-53850000D01*
X67350000Y-53850000D01*
X67350000Y-53850000D01*
G37*
D32*
X112600000Y-55200000D03*
X112600000Y-52700000D03*
X112600000Y-50700000D03*
X112600000Y-48200000D03*
D33*
X114800000Y-58900000D03*
X114800000Y-44500000D03*
M02*
