G04 #@! TF.FileFunction,Soldermask,Bot*
%FSLAX46Y46*%
G04 Gerber Fmt 4.6, Leading zero omitted, Abs format (unit mm)*
G04 Created by KiCad (PCBNEW 4.0.0-rc1-stable) date 11/3/2015 9:27:50 AM*
%MOMM*%
G01*
G04 APERTURE LIST*
%ADD10C,0.100000*%
%ADD11R,0.650000X1.060000*%
%ADD12R,1.500000X0.600000*%
%ADD13R,1.727200X1.727200*%
%ADD14O,1.727200X1.727200*%
%ADD15R,1.220000X0.910000*%
%ADD16R,3.500000X1.600000*%
%ADD17C,3.810000*%
%ADD18R,1.524000X1.524000*%
%ADD19C,1.524000*%
%ADD20C,1.800000*%
%ADD21C,1.250000*%
%ADD22C,2.540000*%
%ADD23O,1.506220X3.014980*%
%ADD24R,1.060000X0.650000*%
%ADD25R,1.800860X2.499360*%
%ADD26R,0.900000X0.800000*%
%ADD27R,1.250000X1.200000*%
%ADD28R,0.800000X0.900000*%
%ADD29R,2.500000X0.900000*%
%ADD30R,1.300000X0.900000*%
%ADD31C,1.900000*%
%ADD32C,1.500000*%
%ADD33C,2.180000*%
%ADD34R,0.900000X0.700000*%
%ADD35R,0.700000X0.900000*%
%ADD36R,0.800100X0.800100*%
%ADD37C,1.501140*%
%ADD38C,2.999740*%
%ADD39R,2.301240X2.499360*%
G04 APERTURE END LIST*
D10*
D11*
X71950000Y-164100000D03*
X71000000Y-164100000D03*
X70050000Y-164100000D03*
X70050000Y-161900000D03*
X71950000Y-161900000D03*
D12*
X85450000Y-153510000D03*
X85450000Y-152240000D03*
X85450000Y-150970000D03*
X85450000Y-149700000D03*
X85450000Y-148430000D03*
X85450000Y-147160000D03*
X85450000Y-145890000D03*
X90850000Y-145890000D03*
X90850000Y-147160000D03*
X90850000Y-148430000D03*
X90850000Y-149700000D03*
X90850000Y-150970000D03*
X90850000Y-152240000D03*
X90850000Y-153510000D03*
D13*
X41250000Y-138000000D03*
D14*
X38710000Y-138000000D03*
X41250000Y-135460000D03*
X38710000Y-135460000D03*
X41250000Y-132920000D03*
X38710000Y-132920000D03*
D15*
X44750000Y-125865000D03*
X44750000Y-129135000D03*
D16*
X116000000Y-137561600D03*
X116000000Y-142438400D03*
X104300000Y-170161600D03*
X104300000Y-175038400D03*
D17*
X110050000Y-163500000D03*
X110050000Y-138500000D03*
D18*
X108780000Y-156588000D03*
D19*
X108780000Y-153794000D03*
X108780000Y-151000000D03*
X108780000Y-148333000D03*
X108780000Y-145539000D03*
X111320000Y-146936000D03*
X111320000Y-149730000D03*
X111320000Y-152397000D03*
X111320000Y-155191000D03*
D20*
X118987460Y-132500900D03*
D21*
X116087460Y-131500900D03*
X116087460Y-126500900D03*
D20*
X118987460Y-125500900D03*
D22*
X114750000Y-124500000D03*
D23*
X71770000Y-175500000D03*
X69230000Y-175500000D03*
X66270000Y-175500000D03*
X63730000Y-175500000D03*
D22*
X114750000Y-177500000D03*
D13*
X90750000Y-126000000D03*
D14*
X90750000Y-128540000D03*
X88210000Y-126000000D03*
X88210000Y-128540000D03*
X85670000Y-126000000D03*
X85670000Y-128540000D03*
X83130000Y-126000000D03*
X83130000Y-128540000D03*
D22*
X42750000Y-124500000D03*
X42750000Y-177500000D03*
D24*
X116350000Y-153050000D03*
X116350000Y-154000000D03*
X116350000Y-154950000D03*
X114150000Y-154950000D03*
X114150000Y-153050000D03*
X114150000Y-154000000D03*
X116350000Y-146050000D03*
X116350000Y-147000000D03*
X116350000Y-147950000D03*
X114150000Y-147950000D03*
X114150000Y-146050000D03*
X114150000Y-147000000D03*
D11*
X66950000Y-164100000D03*
X66000000Y-164100000D03*
X65050000Y-164100000D03*
X65050000Y-161900000D03*
X66950000Y-161900000D03*
D25*
X115500000Y-170498980D03*
X115500000Y-166501020D03*
D26*
X42250000Y-142100000D03*
X42250000Y-143900000D03*
X41750000Y-147600000D03*
X41750000Y-149400000D03*
D27*
X81250000Y-136400000D03*
X81250000Y-138600000D03*
X91250000Y-141100000D03*
X91250000Y-138900000D03*
X73750000Y-149900000D03*
X73750000Y-152100000D03*
X46750000Y-158900000D03*
X46750000Y-161100000D03*
D26*
X78750000Y-138400000D03*
X78750000Y-136600000D03*
X88750000Y-142900000D03*
X88750000Y-141100000D03*
X65750000Y-151900000D03*
X65750000Y-150100000D03*
X44750000Y-160900000D03*
X44750000Y-159100000D03*
X46250000Y-147600000D03*
X46250000Y-149400000D03*
X83750000Y-138400000D03*
X83750000Y-136600000D03*
X95750000Y-139100000D03*
X95750000Y-140900000D03*
X99750000Y-140900000D03*
X99750000Y-139100000D03*
X97750000Y-140900000D03*
X97750000Y-139100000D03*
X93750000Y-139100000D03*
X93750000Y-140900000D03*
X105250000Y-166900000D03*
X105250000Y-165100000D03*
X100250000Y-165100000D03*
X100250000Y-166900000D03*
X81750000Y-150100000D03*
X81750000Y-151900000D03*
X102700000Y-146600000D03*
X102700000Y-144800000D03*
X99250000Y-161100000D03*
X99250000Y-162900000D03*
X94250000Y-161100000D03*
X94250000Y-162900000D03*
X100250000Y-148400000D03*
X100250000Y-146600000D03*
X96750000Y-162900000D03*
X96750000Y-161100000D03*
X88250000Y-162900000D03*
X88250000Y-161100000D03*
X93250000Y-148400000D03*
X93250000Y-146600000D03*
X89750000Y-156600000D03*
X89750000Y-158400000D03*
X76750000Y-150100000D03*
X76750000Y-151900000D03*
X79250000Y-151900000D03*
X79250000Y-150100000D03*
D28*
X111850000Y-175000000D03*
X113650000Y-175000000D03*
D26*
X97250000Y-156600000D03*
X97250000Y-158400000D03*
D29*
X104750000Y-155550000D03*
X104750000Y-158450000D03*
D26*
X94750000Y-158400000D03*
X94750000Y-156600000D03*
X92250000Y-158400000D03*
X92250000Y-156600000D03*
D29*
X104750000Y-149550000D03*
X104750000Y-152450000D03*
D26*
X94750000Y-153900000D03*
X94750000Y-152100000D03*
X97250000Y-152100000D03*
X97250000Y-153900000D03*
D28*
X71900000Y-167000000D03*
X70100000Y-167000000D03*
X71900000Y-169500000D03*
X70100000Y-169500000D03*
X65100000Y-169500000D03*
X66900000Y-169500000D03*
X65100000Y-167000000D03*
X66900000Y-167000000D03*
D26*
X111500000Y-127400000D03*
X111500000Y-125600000D03*
X105500000Y-125600000D03*
X105500000Y-127400000D03*
X103500000Y-125600000D03*
X103500000Y-127400000D03*
X107500000Y-127400000D03*
X107500000Y-125600000D03*
X60000000Y-165100000D03*
X60000000Y-166900000D03*
X57500000Y-166900000D03*
X57500000Y-165100000D03*
X41750000Y-153100000D03*
X41750000Y-154900000D03*
X41750000Y-160400000D03*
X41750000Y-158600000D03*
D13*
X71250000Y-126000000D03*
D14*
X71250000Y-128540000D03*
X68710000Y-126000000D03*
X68710000Y-128540000D03*
X66170000Y-126000000D03*
X66170000Y-128540000D03*
X63630000Y-126000000D03*
X63630000Y-128540000D03*
X61090000Y-126000000D03*
X61090000Y-128540000D03*
X58550000Y-126000000D03*
X58550000Y-128540000D03*
X56010000Y-126000000D03*
X56010000Y-128540000D03*
X53470000Y-126000000D03*
X53470000Y-128540000D03*
X50930000Y-126000000D03*
X50930000Y-128540000D03*
X48390000Y-126000000D03*
X48390000Y-128540000D03*
D26*
X70750000Y-150100000D03*
X70750000Y-151900000D03*
D30*
X97750000Y-164950000D03*
X97750000Y-167050000D03*
X94750000Y-164950000D03*
X94750000Y-167050000D03*
X38250000Y-144050000D03*
X38250000Y-141950000D03*
D10*
G36*
X74050000Y-160050000D02*
X74050000Y-155950000D01*
X74950000Y-155950000D01*
X74950000Y-160050000D01*
X74050000Y-160050000D01*
X74050000Y-160050000D01*
G37*
G36*
X75600000Y-160050000D02*
X75600000Y-155950000D01*
X76600000Y-155950000D01*
X76600000Y-160050000D01*
X75600000Y-160050000D01*
X75600000Y-160050000D01*
G37*
G36*
X77250000Y-160050000D02*
X77250000Y-155950000D01*
X78150000Y-155950000D01*
X78150000Y-160050000D01*
X77250000Y-160050000D01*
X77250000Y-160050000D01*
G37*
D31*
X40350000Y-169500000D03*
X40350000Y-162500000D03*
D32*
X37800000Y-168250000D03*
X37800000Y-163750000D03*
D33*
X108940000Y-175000000D03*
X116560000Y-175000000D03*
D34*
X44250000Y-149400000D03*
X44250000Y-147600000D03*
X50250000Y-153900000D03*
X50250000Y-152100000D03*
X50250000Y-147600000D03*
X50250000Y-149400000D03*
X109500000Y-125600000D03*
X109500000Y-127400000D03*
X111500000Y-130600000D03*
X111500000Y-132400000D03*
D35*
X65100000Y-172000000D03*
X66900000Y-172000000D03*
X70100000Y-172000000D03*
X71900000Y-172000000D03*
X116450000Y-150300000D03*
X114650000Y-150300000D03*
D34*
X82750000Y-157600000D03*
X82750000Y-159400000D03*
X105250000Y-162900000D03*
X105250000Y-161100000D03*
X102750000Y-165100000D03*
X102750000Y-166900000D03*
X68250000Y-151900000D03*
X68250000Y-150100000D03*
X86250000Y-138400000D03*
X86250000Y-136600000D03*
X78750000Y-142900000D03*
X78750000Y-141100000D03*
X73750000Y-136600000D03*
X73750000Y-138400000D03*
X86250000Y-142900000D03*
X86250000Y-141100000D03*
X76250000Y-142900000D03*
X76250000Y-141100000D03*
X83750000Y-142900000D03*
X83750000Y-141100000D03*
X102000000Y-140900000D03*
X102000000Y-139100000D03*
X81250000Y-142900000D03*
X81250000Y-141100000D03*
X88750000Y-138400000D03*
X88750000Y-136600000D03*
X76250000Y-136600000D03*
X76250000Y-138400000D03*
X40250000Y-143900000D03*
X40250000Y-142100000D03*
D36*
X67700000Y-148000760D03*
X65800000Y-148000760D03*
X66750000Y-146001780D03*
X101249240Y-162950000D03*
X101249240Y-161050000D03*
X103248220Y-162000000D03*
X92200000Y-163000760D03*
X90300000Y-163000760D03*
X91250000Y-161001780D03*
X97750760Y-146550000D03*
X97750760Y-148450000D03*
X95751780Y-147500000D03*
X84749240Y-159450000D03*
X84749240Y-157550000D03*
X86748220Y-158500000D03*
X99749240Y-157950000D03*
X99749240Y-156050000D03*
X101748220Y-157000000D03*
X99749240Y-153450000D03*
X99749240Y-151550000D03*
X101748220Y-152500000D03*
X37800000Y-152999240D03*
X39700000Y-152999240D03*
X38750000Y-154998220D03*
X37800000Y-158499240D03*
X39700000Y-158499240D03*
X38750000Y-160498220D03*
X37800000Y-147499240D03*
X39700000Y-147499240D03*
X38750000Y-149498220D03*
D37*
X85812860Y-177102120D03*
X83272860Y-177102120D03*
X81240860Y-177102120D03*
X78700860Y-177102120D03*
D38*
X88860860Y-174435120D03*
X75144860Y-174435120D03*
D26*
X68500000Y-143900000D03*
X68500000Y-142100000D03*
X104000000Y-139100000D03*
X104000000Y-140900000D03*
X106000000Y-139100000D03*
X106000000Y-140900000D03*
X46500000Y-165600000D03*
X46500000Y-167400000D03*
D39*
X115500000Y-158351160D03*
X115500000Y-162648840D03*
M02*
