G04 #@! TF.FileFunction,Soldermask,Top*
%FSLAX46Y46*%
G04 Gerber Fmt 4.6, Leading zero omitted, Abs format (unit mm)*
G04 Created by KiCad (PCBNEW 4.0.0-rc1-stable) date 11/3/2015 9:27:50 AM*
%MOMM*%
G01*
G04 APERTURE LIST*
%ADD10C,0.100000*%
%ADD11R,2.370000X2.430000*%
%ADD12R,1.727200X1.727200*%
%ADD13O,1.727200X1.727200*%
%ADD14R,1.220000X0.910000*%
%ADD15R,0.910000X1.220000*%
%ADD16R,0.550000X1.500000*%
%ADD17R,1.500000X0.550000*%
%ADD18C,3.810000*%
%ADD19R,1.524000X1.524000*%
%ADD20C,1.524000*%
%ADD21R,1.500000X2.400000*%
%ADD22R,2.400000X1.500000*%
%ADD23C,2.540000*%
%ADD24C,1.800000*%
%ADD25R,1.350000X0.400000*%
%ADD26C,1.250000*%
%ADD27R,2.100000X1.100000*%
%ADD28O,1.506220X3.014980*%
%ADD29R,1.000000X0.250000*%
%ADD30R,0.250000X1.000000*%
%ADD31R,0.600000X1.550000*%
%ADD32R,0.600000X2.000000*%
%ADD33R,1.550000X0.600000*%
%ADD34R,0.820000X0.500000*%
%ADD35R,0.820000X0.400000*%
%ADD36R,0.500000X0.820000*%
%ADD37R,0.300000X0.850000*%
%ADD38R,0.850000X0.300000*%
%ADD39R,1.300000X1.300000*%
%ADD40R,0.600000X1.500000*%
%ADD41R,1.500000X0.600000*%
%ADD42R,3.657600X2.032000*%
%ADD43R,1.016000X2.032000*%
%ADD44R,0.900000X0.800000*%
%ADD45R,1.250000X1.200000*%
%ADD46R,1.200000X1.600000*%
%ADD47R,0.800000X0.800000*%
%ADD48R,1.300000X0.900000*%
%ADD49C,1.900000*%
%ADD50C,1.500000*%
%ADD51C,2.180000*%
%ADD52R,0.900000X0.700000*%
%ADD53R,1.198880X1.198880*%
%ADD54R,0.800100X0.800100*%
%ADD55C,1.501140*%
%ADD56C,2.999740*%
G04 APERTURE END LIST*
D10*
D11*
X115870000Y-169900000D03*
X109630000Y-169900000D03*
D12*
X41250000Y-138000000D03*
D13*
X38710000Y-138000000D03*
X41250000Y-135460000D03*
X38710000Y-135460000D03*
X41250000Y-132920000D03*
X38710000Y-132920000D03*
D14*
X79000000Y-167265000D03*
X79000000Y-170535000D03*
D15*
X68865000Y-167500000D03*
X72135000Y-167500000D03*
D16*
X47050000Y-156700000D03*
X47850000Y-156700000D03*
X48650000Y-156700000D03*
X49450000Y-156700000D03*
X50250000Y-156700000D03*
X51050000Y-156700000D03*
X51850000Y-156700000D03*
X52650000Y-156700000D03*
X53450000Y-156700000D03*
X54250000Y-156700000D03*
X55050000Y-156700000D03*
D17*
X56750000Y-155000000D03*
X56750000Y-154200000D03*
X56750000Y-153400000D03*
X56750000Y-152600000D03*
X56750000Y-151800000D03*
X56750000Y-151000000D03*
X56750000Y-150200000D03*
X56750000Y-149400000D03*
X56750000Y-148600000D03*
X56750000Y-147800000D03*
X56750000Y-147000000D03*
D16*
X55050000Y-145300000D03*
X54250000Y-145300000D03*
X53450000Y-145300000D03*
X52650000Y-145300000D03*
X51850000Y-145300000D03*
X51050000Y-145300000D03*
X50250000Y-145300000D03*
X49450000Y-145300000D03*
X48650000Y-145300000D03*
X47850000Y-145300000D03*
X47050000Y-145300000D03*
D17*
X45350000Y-147000000D03*
X45350000Y-147800000D03*
X45350000Y-148600000D03*
X45350000Y-149400000D03*
X45350000Y-150200000D03*
X45350000Y-151000000D03*
X45350000Y-151800000D03*
X45350000Y-152600000D03*
X45350000Y-153400000D03*
X45350000Y-154200000D03*
X45350000Y-155000000D03*
D18*
X110050000Y-163500000D03*
X110050000Y-138500000D03*
D19*
X108780000Y-156588000D03*
D20*
X108780000Y-153794000D03*
X108780000Y-151000000D03*
X108780000Y-148333000D03*
X108780000Y-145539000D03*
X111320000Y-146936000D03*
X111320000Y-149730000D03*
X111320000Y-152397000D03*
X111320000Y-155191000D03*
D21*
X82800000Y-163500000D03*
X87200000Y-163500000D03*
D22*
X64500000Y-166800000D03*
X64500000Y-171200000D03*
D23*
X42750000Y-124500000D03*
D24*
X118987460Y-132500900D03*
D25*
X116087460Y-130300900D03*
X116087460Y-129650900D03*
X116087460Y-129000900D03*
X116087460Y-128350900D03*
X116087460Y-127700900D03*
D26*
X116087460Y-131500900D03*
X116087460Y-126500900D03*
D24*
X118987460Y-125500900D03*
D27*
X118800000Y-130650000D03*
X118800000Y-127350000D03*
D23*
X114750000Y-124500000D03*
X42750000Y-177500000D03*
D28*
X71770000Y-175500000D03*
X69230000Y-175500000D03*
X66270000Y-175500000D03*
X63730000Y-175500000D03*
D23*
X114750000Y-177500000D03*
D12*
X90750000Y-126000000D03*
D13*
X90750000Y-128540000D03*
X88210000Y-126000000D03*
X88210000Y-128540000D03*
X85670000Y-126000000D03*
X85670000Y-128540000D03*
X83130000Y-126000000D03*
X83130000Y-128540000D03*
D29*
X86950000Y-141250000D03*
X86950000Y-140750000D03*
X86950000Y-140250000D03*
X86950000Y-139750000D03*
X86950000Y-139250000D03*
X86950000Y-138750000D03*
X86950000Y-138250000D03*
X86950000Y-137750000D03*
X86950000Y-137250000D03*
X86950000Y-136750000D03*
X86950000Y-136250000D03*
X86950000Y-135750000D03*
X86950000Y-135250000D03*
X86950000Y-134750000D03*
X86950000Y-134250000D03*
X86950000Y-133750000D03*
D30*
X85000000Y-131800000D03*
X84500000Y-131800000D03*
X84000000Y-131800000D03*
X83500000Y-131800000D03*
X83000000Y-131800000D03*
X82500000Y-131800000D03*
X82000000Y-131800000D03*
X81500000Y-131800000D03*
X81000000Y-131800000D03*
X80500000Y-131800000D03*
X80000000Y-131800000D03*
X79500000Y-131800000D03*
X79000000Y-131800000D03*
X78500000Y-131800000D03*
X78000000Y-131800000D03*
X77500000Y-131800000D03*
D29*
X75550000Y-133750000D03*
X75550000Y-134250000D03*
X75550000Y-134750000D03*
X75550000Y-135250000D03*
X75550000Y-135750000D03*
X75550000Y-136250000D03*
X75550000Y-136750000D03*
X75550000Y-137250000D03*
X75550000Y-137750000D03*
X75550000Y-138250000D03*
X75550000Y-138750000D03*
X75550000Y-139250000D03*
X75550000Y-139750000D03*
X75550000Y-140250000D03*
X75550000Y-140750000D03*
X75550000Y-141250000D03*
D30*
X77500000Y-143200000D03*
X78000000Y-143200000D03*
X78500000Y-143200000D03*
X79000000Y-143200000D03*
X79500000Y-143200000D03*
X80000000Y-143200000D03*
X80500000Y-143200000D03*
X81000000Y-143200000D03*
X81500000Y-143200000D03*
X82000000Y-143200000D03*
X82500000Y-143200000D03*
X83000000Y-143200000D03*
X83500000Y-143200000D03*
X84000000Y-143200000D03*
X84500000Y-143200000D03*
X85000000Y-143200000D03*
D31*
X99655000Y-137300000D03*
X98385000Y-137300000D03*
X97115000Y-137300000D03*
X95845000Y-137300000D03*
X95845000Y-142700000D03*
X97115000Y-142700000D03*
X98385000Y-142700000D03*
X99655000Y-142700000D03*
D32*
X65495000Y-157200000D03*
X66765000Y-157200000D03*
X68035000Y-157200000D03*
X69305000Y-157200000D03*
X70575000Y-157200000D03*
X71845000Y-157200000D03*
X73115000Y-157200000D03*
X74385000Y-157200000D03*
X75655000Y-157200000D03*
X76925000Y-157200000D03*
X78195000Y-157200000D03*
X79465000Y-157200000D03*
X80735000Y-157200000D03*
X82005000Y-157200000D03*
X82005000Y-147800000D03*
X80735000Y-147800000D03*
X79465000Y-147800000D03*
X78195000Y-147800000D03*
X76925000Y-147800000D03*
X75655000Y-147800000D03*
X74385000Y-147800000D03*
X73115000Y-147800000D03*
X71845000Y-147800000D03*
X70575000Y-147800000D03*
X69305000Y-147800000D03*
X68035000Y-147800000D03*
X66765000Y-147800000D03*
X65495000Y-147800000D03*
D33*
X99050000Y-164095000D03*
X99050000Y-165365000D03*
X99050000Y-166635000D03*
X99050000Y-167905000D03*
X104450000Y-167905000D03*
X104450000Y-166635000D03*
X104450000Y-165365000D03*
X104450000Y-164095000D03*
D34*
X46750000Y-163100000D03*
X46750000Y-162300000D03*
X46750000Y-161500000D03*
D35*
X46750000Y-160700000D03*
D34*
X46750000Y-159900000D03*
X46750000Y-159100000D03*
D36*
X45750000Y-159100000D03*
D34*
X44750000Y-159100000D03*
X44750000Y-159900000D03*
X44750000Y-160700000D03*
X44750000Y-161500000D03*
X44750000Y-162300000D03*
X44750000Y-163100000D03*
D36*
X45750000Y-163100000D03*
D37*
X107100000Y-126550000D03*
X106600000Y-126550000D03*
X106100000Y-126550000D03*
X105600000Y-126550000D03*
X105100000Y-126550000D03*
X104600000Y-126550000D03*
D38*
X103900000Y-127250000D03*
X103900000Y-127750000D03*
X103900000Y-128250000D03*
X103900000Y-128750000D03*
X103900000Y-129250000D03*
X103900000Y-129750000D03*
D37*
X104600000Y-130450000D03*
X105100000Y-130450000D03*
X105600000Y-130450000D03*
X106100000Y-130450000D03*
X106600000Y-130450000D03*
X107100000Y-130450000D03*
D38*
X107800000Y-129750000D03*
X107800000Y-129250000D03*
X107800000Y-128750000D03*
X107800000Y-128250000D03*
X107800000Y-127750000D03*
X107800000Y-127250000D03*
D39*
X105200000Y-129150000D03*
X106500000Y-129150000D03*
X105200000Y-127850000D03*
X106500000Y-127850000D03*
D40*
X64440000Y-143700000D03*
X65710000Y-143700000D03*
X66980000Y-143700000D03*
X68250000Y-143700000D03*
X69520000Y-143700000D03*
X70790000Y-143700000D03*
X72060000Y-143700000D03*
X72060000Y-138300000D03*
X70790000Y-138300000D03*
X69520000Y-138300000D03*
X68250000Y-138300000D03*
X66980000Y-138300000D03*
X65710000Y-138300000D03*
X64440000Y-138300000D03*
D41*
X59950000Y-170945000D03*
X59950000Y-169675000D03*
X59950000Y-168405000D03*
X59950000Y-167135000D03*
X59950000Y-165865000D03*
X59950000Y-164595000D03*
X59950000Y-163325000D03*
X59950000Y-162055000D03*
X54550000Y-162055000D03*
X54550000Y-163325000D03*
X54550000Y-164595000D03*
X54550000Y-165865000D03*
X54550000Y-167135000D03*
X54550000Y-168405000D03*
X54550000Y-169675000D03*
X54550000Y-170945000D03*
D40*
X56795000Y-132600000D03*
X55525000Y-132600000D03*
X54255000Y-132600000D03*
X52985000Y-132600000D03*
X51715000Y-132600000D03*
X50445000Y-132600000D03*
X49175000Y-132600000D03*
X47905000Y-132600000D03*
X47905000Y-138000000D03*
X49175000Y-138000000D03*
X50445000Y-138000000D03*
X51715000Y-138000000D03*
X52985000Y-138000000D03*
X54255000Y-138000000D03*
X55525000Y-138000000D03*
X56795000Y-138000000D03*
D42*
X99750000Y-153302000D03*
D43*
X99750000Y-146698000D03*
X97464000Y-146698000D03*
X102036000Y-146698000D03*
D33*
X74500000Y-161295000D03*
X74500000Y-162565000D03*
X74500000Y-163835000D03*
X74500000Y-165105000D03*
X79900000Y-165105000D03*
X79900000Y-163835000D03*
X79900000Y-162565000D03*
X79900000Y-161295000D03*
X68700000Y-164405000D03*
X68700000Y-163135000D03*
X68700000Y-161865000D03*
X68700000Y-160595000D03*
X63300000Y-160595000D03*
X63300000Y-161865000D03*
X63300000Y-163135000D03*
X63300000Y-164405000D03*
D44*
X41750000Y-146600000D03*
X41750000Y-148400000D03*
D45*
X71500000Y-163000000D03*
X71500000Y-165200000D03*
D46*
X85600000Y-167500000D03*
X82400000Y-167500000D03*
D45*
X76000000Y-167900000D03*
X76000000Y-170100000D03*
D46*
X68900000Y-170500000D03*
X72100000Y-170500000D03*
D44*
X96150000Y-134400000D03*
X96150000Y-132600000D03*
X98250000Y-132600000D03*
X98250000Y-134400000D03*
X102750000Y-134400000D03*
X102750000Y-132600000D03*
X104750000Y-134400000D03*
X104750000Y-132600000D03*
X91750000Y-157900000D03*
X91750000Y-156100000D03*
X99250000Y-156100000D03*
X99250000Y-157900000D03*
X105000000Y-148400000D03*
X105000000Y-146600000D03*
X94250000Y-157900000D03*
X94250000Y-156100000D03*
X89250000Y-157900000D03*
X89250000Y-156100000D03*
X92250000Y-160100000D03*
X92250000Y-161900000D03*
X94750000Y-151600000D03*
X94750000Y-153400000D03*
X96750000Y-157900000D03*
X96750000Y-156100000D03*
X84250000Y-148400000D03*
X84250000Y-146600000D03*
X89750000Y-161900000D03*
X89750000Y-160100000D03*
X94750000Y-160100000D03*
X94750000Y-161900000D03*
X97250000Y-160100000D03*
X97250000Y-161900000D03*
X91250000Y-148400000D03*
X91250000Y-146600000D03*
X104750000Y-161900000D03*
X104750000Y-160100000D03*
X101750000Y-156100000D03*
X101750000Y-157900000D03*
X104750000Y-176900000D03*
X104750000Y-175100000D03*
X102250000Y-176900000D03*
X102250000Y-175100000D03*
X106250000Y-170600000D03*
X106250000Y-172400000D03*
X89250000Y-148400000D03*
X89250000Y-146600000D03*
X92250000Y-170400000D03*
X92250000Y-168600000D03*
X56750000Y-176400000D03*
X56750000Y-174600000D03*
X59250000Y-174600000D03*
X59250000Y-176400000D03*
X59250000Y-149400000D03*
X59250000Y-147600000D03*
X59250000Y-154400000D03*
X59250000Y-152600000D03*
X47250000Y-176400000D03*
X47250000Y-174600000D03*
X61750000Y-176400000D03*
X61750000Y-174600000D03*
X49250000Y-171900000D03*
X49250000Y-170100000D03*
X54250000Y-176400000D03*
X54250000Y-174600000D03*
X44750000Y-176400000D03*
X44750000Y-174600000D03*
X59250000Y-158900000D03*
X59250000Y-157100000D03*
X108750000Y-132600000D03*
X108750000Y-134400000D03*
X110750000Y-132600000D03*
X110750000Y-134400000D03*
X112750000Y-132600000D03*
X112750000Y-134400000D03*
X63750000Y-133400000D03*
X63750000Y-131600000D03*
X41750000Y-152100000D03*
X41750000Y-153900000D03*
X41750000Y-157600000D03*
X41750000Y-159400000D03*
D12*
X71250000Y-126000000D03*
D13*
X71250000Y-128540000D03*
X68710000Y-126000000D03*
X68710000Y-128540000D03*
X66170000Y-126000000D03*
X66170000Y-128540000D03*
X63630000Y-126000000D03*
X63630000Y-128540000D03*
X61090000Y-126000000D03*
X61090000Y-128540000D03*
X58550000Y-126000000D03*
X58550000Y-128540000D03*
X56010000Y-126000000D03*
X56010000Y-128540000D03*
X53470000Y-126000000D03*
X53470000Y-128540000D03*
X50930000Y-126000000D03*
X50930000Y-128540000D03*
X48390000Y-126000000D03*
X48390000Y-128540000D03*
D47*
X61650000Y-157400000D03*
X61650000Y-158600000D03*
X62850000Y-158600000D03*
X62850000Y-157400000D03*
X61650000Y-152900000D03*
X61650000Y-154100000D03*
X62850000Y-154100000D03*
X62850000Y-152900000D03*
X61650000Y-147900000D03*
X61650000Y-149100000D03*
X62850000Y-149100000D03*
X62850000Y-147900000D03*
X95850000Y-168900000D03*
X94650000Y-168900000D03*
X94650000Y-170100000D03*
X95850000Y-170100000D03*
D48*
X93750000Y-146450000D03*
X93750000Y-148550000D03*
X102250000Y-162050000D03*
X102250000Y-159950000D03*
X86750000Y-146450000D03*
X86750000Y-148550000D03*
X38250000Y-144050000D03*
X38250000Y-141950000D03*
D10*
G36*
X113700000Y-130150000D02*
X109600000Y-130150000D01*
X109600000Y-129250000D01*
X113700000Y-129250000D01*
X113700000Y-130150000D01*
X113700000Y-130150000D01*
G37*
G36*
X113700000Y-128600000D02*
X109600000Y-128600000D01*
X109600000Y-127600000D01*
X113700000Y-127600000D01*
X113700000Y-128600000D01*
X113700000Y-128600000D01*
G37*
G36*
X113700000Y-126950000D02*
X109600000Y-126950000D01*
X109600000Y-126050000D01*
X113700000Y-126050000D01*
X113700000Y-126950000D01*
X113700000Y-126950000D01*
G37*
G36*
X94600000Y-134650000D02*
X94600000Y-138750000D01*
X93700000Y-138750000D01*
X93700000Y-134650000D01*
X94600000Y-134650000D01*
X94600000Y-134650000D01*
G37*
G36*
X93050000Y-134650000D02*
X93050000Y-138750000D01*
X92050000Y-138750000D01*
X92050000Y-134650000D01*
X93050000Y-134650000D01*
X93050000Y-134650000D01*
G37*
G36*
X91400000Y-134650000D02*
X91400000Y-138750000D01*
X90500000Y-138750000D01*
X90500000Y-134650000D01*
X91400000Y-134650000D01*
X91400000Y-134650000D01*
G37*
D49*
X40350000Y-169500000D03*
X40350000Y-162500000D03*
D50*
X37800000Y-168250000D03*
X37800000Y-163750000D03*
D51*
X108940000Y-175000000D03*
X116560000Y-175000000D03*
D52*
X61750000Y-142100000D03*
X61750000Y-143900000D03*
X51750000Y-171900000D03*
X51750000Y-170100000D03*
X59250000Y-138400000D03*
X59250000Y-136600000D03*
X100750000Y-132600000D03*
X100750000Y-134400000D03*
X106750000Y-132600000D03*
X106750000Y-134400000D03*
X49250000Y-161700000D03*
X49250000Y-159900000D03*
X101250000Y-172400000D03*
X101250000Y-170600000D03*
X103750000Y-172400000D03*
X103750000Y-170600000D03*
X84750000Y-156100000D03*
X84750000Y-157900000D03*
X86750000Y-156100000D03*
X86750000Y-157900000D03*
X88250000Y-151900000D03*
X88250000Y-150100000D03*
X99750000Y-160100000D03*
X99750000Y-161900000D03*
X105250000Y-152100000D03*
X105250000Y-153900000D03*
X80050000Y-127600000D03*
X80050000Y-129400000D03*
X40250000Y-143900000D03*
X40250000Y-142100000D03*
D53*
X38750000Y-151950980D03*
X38750000Y-154049020D03*
X38750000Y-157450980D03*
X38750000Y-159549020D03*
X38750000Y-146450980D03*
X38750000Y-148549020D03*
D54*
X92249240Y-164050000D03*
X92249240Y-165950000D03*
X94248220Y-165000000D03*
X92250760Y-153450000D03*
X92250760Y-151550000D03*
X90251780Y-152500000D03*
X103749240Y-156050000D03*
X103749240Y-157950000D03*
X105748220Y-157000000D03*
X45249240Y-170050000D03*
X45249240Y-171950000D03*
X47248220Y-171000000D03*
X51750760Y-176450000D03*
X51750760Y-174550000D03*
X49751780Y-175500000D03*
X59749240Y-131550000D03*
X59749240Y-133450000D03*
X61748220Y-132500000D03*
D55*
X85812860Y-177102120D03*
X83272860Y-177102120D03*
X81240860Y-177102120D03*
X78700860Y-177102120D03*
D56*
X88860860Y-174435120D03*
X75144860Y-174435120D03*
D44*
X70500000Y-135400000D03*
X70500000Y-133600000D03*
X105000000Y-138900000D03*
X105000000Y-137100000D03*
X102500000Y-137100000D03*
X102500000Y-138900000D03*
M02*
