G04 #@! TF.FileFunction,Legend,Top*
%FSLAX46Y46*%
G04 Gerber Fmt 4.6, Leading zero omitted, Abs format (unit mm)*
G04 Created by KiCad (PCBNEW 4.0.2-stable) date 4/24/2017 9:06:07 AM*
%MOMM*%
G01*
G04 APERTURE LIST*
%ADD10C,0.100000*%
%ADD11C,0.300000*%
%ADD12C,0.250000*%
%ADD13C,0.200000*%
%ADD14C,0.150000*%
G04 APERTURE END LIST*
D10*
D11*
X119407143Y-27264286D02*
X119478571Y-27050000D01*
X119478571Y-26692857D01*
X119407143Y-26550000D01*
X119335714Y-26478571D01*
X119192857Y-26407143D01*
X119050000Y-26407143D01*
X118907143Y-26478571D01*
X118835714Y-26550000D01*
X118764286Y-26692857D01*
X118692857Y-26978571D01*
X118621429Y-27121429D01*
X118550000Y-27192857D01*
X118407143Y-27264286D01*
X118264286Y-27264286D01*
X118121429Y-27192857D01*
X118050000Y-27121429D01*
X117978571Y-26978571D01*
X117978571Y-26621429D01*
X118050000Y-26407143D01*
X119478571Y-25764286D02*
X117978571Y-25764286D01*
X119478571Y-24335714D02*
X119478571Y-25050000D01*
X117978571Y-25050000D01*
X117978571Y-24050000D02*
X119478571Y-23550000D01*
X117978571Y-23050000D01*
X118692857Y-22550000D02*
X118692857Y-22050000D01*
X119478571Y-21835714D02*
X119478571Y-22550000D01*
X117978571Y-22550000D01*
X117978571Y-21835714D01*
X119478571Y-20335714D02*
X118764286Y-20835714D01*
X119478571Y-21192857D02*
X117978571Y-21192857D01*
X117978571Y-20621429D01*
X118050000Y-20478571D01*
X118121429Y-20407143D01*
X118264286Y-20335714D01*
X118478571Y-20335714D01*
X118621429Y-20407143D01*
X118692857Y-20478571D01*
X118764286Y-20621429D01*
X118764286Y-21192857D01*
X118850000Y-68050000D02*
X118778571Y-68192857D01*
X118778571Y-68407143D01*
X118850000Y-68621428D01*
X118992857Y-68764286D01*
X119135714Y-68835714D01*
X119421429Y-68907143D01*
X119635714Y-68907143D01*
X119921429Y-68835714D01*
X120064286Y-68764286D01*
X120207143Y-68621428D01*
X120278571Y-68407143D01*
X120278571Y-68264286D01*
X120207143Y-68050000D01*
X120135714Y-67978571D01*
X119635714Y-67978571D01*
X119635714Y-68264286D01*
X118778571Y-67050000D02*
X118778571Y-66764286D01*
X118850000Y-66621428D01*
X118992857Y-66478571D01*
X119278571Y-66407143D01*
X119778571Y-66407143D01*
X120064286Y-66478571D01*
X120207143Y-66621428D01*
X120278571Y-66764286D01*
X120278571Y-67050000D01*
X120207143Y-67192857D01*
X120064286Y-67335714D01*
X119778571Y-67407143D01*
X119278571Y-67407143D01*
X118992857Y-67335714D01*
X118850000Y-67192857D01*
X118778571Y-67050000D01*
X120278571Y-65049999D02*
X120278571Y-65764285D01*
X118778571Y-65764285D01*
X120278571Y-64549999D02*
X118778571Y-64549999D01*
X118778571Y-64192856D01*
X118850000Y-63978571D01*
X118992857Y-63835713D01*
X119135714Y-63764285D01*
X119421429Y-63692856D01*
X119635714Y-63692856D01*
X119921429Y-63764285D01*
X120064286Y-63835713D01*
X120207143Y-63978571D01*
X120278571Y-64192856D01*
X120278571Y-64549999D01*
D12*
X118519047Y-59752381D02*
X118519047Y-58752381D01*
X118519047Y-59228571D02*
X119090476Y-59228571D01*
X119090476Y-59752381D02*
X119090476Y-58752381D01*
X119709523Y-59752381D02*
X119614285Y-59704762D01*
X119566666Y-59657143D01*
X119519047Y-59561905D01*
X119519047Y-59276190D01*
X119566666Y-59180952D01*
X119614285Y-59133333D01*
X119709523Y-59085714D01*
X119852381Y-59085714D01*
X119947619Y-59133333D01*
X119995238Y-59180952D01*
X120042857Y-59276190D01*
X120042857Y-59561905D01*
X119995238Y-59657143D01*
X119947619Y-59704762D01*
X119852381Y-59752381D01*
X119709523Y-59752381D01*
X120423809Y-59704762D02*
X120519047Y-59752381D01*
X120709523Y-59752381D01*
X120804762Y-59704762D01*
X120852381Y-59609524D01*
X120852381Y-59561905D01*
X120804762Y-59466667D01*
X120709523Y-59419048D01*
X120566666Y-59419048D01*
X120471428Y-59371429D01*
X120423809Y-59276190D01*
X120423809Y-59228571D01*
X120471428Y-59133333D01*
X120566666Y-59085714D01*
X120709523Y-59085714D01*
X120804762Y-59133333D01*
X121138095Y-59085714D02*
X121519047Y-59085714D01*
X121280952Y-58752381D02*
X121280952Y-59609524D01*
X121328571Y-59704762D01*
X121423809Y-59752381D01*
X121519047Y-59752381D01*
X122614286Y-59752381D02*
X122614286Y-58752381D01*
X122995239Y-58752381D01*
X123090477Y-58800000D01*
X123138096Y-58847619D01*
X123185715Y-58942857D01*
X123185715Y-59085714D01*
X123138096Y-59180952D01*
X123090477Y-59228571D01*
X122995239Y-59276190D01*
X122614286Y-59276190D01*
X123519048Y-58752381D02*
X123757143Y-59752381D01*
X123947620Y-59038095D01*
X124138096Y-59752381D01*
X124376191Y-58752381D01*
X125328572Y-59752381D02*
X124995238Y-59276190D01*
X124757143Y-59752381D02*
X124757143Y-58752381D01*
X125138096Y-58752381D01*
X125233334Y-58800000D01*
X125280953Y-58847619D01*
X125328572Y-58942857D01*
X125328572Y-59085714D01*
X125280953Y-59180952D01*
X125233334Y-59228571D01*
X125138096Y-59276190D01*
X124757143Y-59276190D01*
X122304761Y-31027381D02*
X122304761Y-30027381D01*
X122304761Y-30503571D02*
X122876190Y-30503571D01*
X122876190Y-31027381D02*
X122876190Y-30027381D01*
X123495237Y-31027381D02*
X123399999Y-30979762D01*
X123352380Y-30932143D01*
X123304761Y-30836905D01*
X123304761Y-30551190D01*
X123352380Y-30455952D01*
X123399999Y-30408333D01*
X123495237Y-30360714D01*
X123638095Y-30360714D01*
X123733333Y-30408333D01*
X123780952Y-30455952D01*
X123828571Y-30551190D01*
X123828571Y-30836905D01*
X123780952Y-30932143D01*
X123733333Y-30979762D01*
X123638095Y-31027381D01*
X123495237Y-31027381D01*
X124209523Y-30979762D02*
X124304761Y-31027381D01*
X124495237Y-31027381D01*
X124590476Y-30979762D01*
X124638095Y-30884524D01*
X124638095Y-30836905D01*
X124590476Y-30741667D01*
X124495237Y-30694048D01*
X124352380Y-30694048D01*
X124257142Y-30646429D01*
X124209523Y-30551190D01*
X124209523Y-30503571D01*
X124257142Y-30408333D01*
X124352380Y-30360714D01*
X124495237Y-30360714D01*
X124590476Y-30408333D01*
X124923809Y-30360714D02*
X125304761Y-30360714D01*
X125066666Y-30027381D02*
X125066666Y-30884524D01*
X125114285Y-30979762D01*
X125209523Y-31027381D01*
X125304761Y-31027381D01*
X122161904Y-32677381D02*
X122161904Y-31677381D01*
X122399999Y-31677381D01*
X122542857Y-31725000D01*
X122638095Y-31820238D01*
X122685714Y-31915476D01*
X122733333Y-32105952D01*
X122733333Y-32248810D01*
X122685714Y-32439286D01*
X122638095Y-32534524D01*
X122542857Y-32629762D01*
X122399999Y-32677381D01*
X122161904Y-32677381D01*
X123114285Y-32391667D02*
X123590476Y-32391667D01*
X123019047Y-32677381D02*
X123352380Y-31677381D01*
X123685714Y-32677381D01*
X123876190Y-31677381D02*
X124447619Y-31677381D01*
X124161904Y-32677381D02*
X124161904Y-31677381D01*
X124733333Y-32391667D02*
X125209524Y-32391667D01*
X124638095Y-32677381D02*
X124971428Y-31677381D01*
X125304762Y-32677381D01*
D11*
X41957143Y-64950000D02*
X42671429Y-64950000D01*
X41814286Y-65378571D02*
X42314286Y-63878571D01*
X42814286Y-65378571D01*
X43957143Y-65307143D02*
X43814286Y-65378571D01*
X43528572Y-65378571D01*
X43385714Y-65307143D01*
X43314286Y-65235714D01*
X43242857Y-65092857D01*
X43242857Y-64664286D01*
X43314286Y-64521429D01*
X43385714Y-64450000D01*
X43528572Y-64378571D01*
X43814286Y-64378571D01*
X43957143Y-64450000D01*
X44385714Y-64378571D02*
X44957143Y-64378571D01*
X44600000Y-63878571D02*
X44600000Y-65164286D01*
X44671428Y-65307143D01*
X44814286Y-65378571D01*
X44957143Y-65378571D01*
X45457143Y-65378571D02*
X45457143Y-64378571D01*
X45457143Y-63878571D02*
X45385714Y-63950000D01*
X45457143Y-64021429D01*
X45528571Y-63950000D01*
X45457143Y-63878571D01*
X45457143Y-64021429D01*
X46385715Y-65378571D02*
X46242857Y-65307143D01*
X46171429Y-65235714D01*
X46100000Y-65092857D01*
X46100000Y-64664286D01*
X46171429Y-64521429D01*
X46242857Y-64450000D01*
X46385715Y-64378571D01*
X46600000Y-64378571D01*
X46742857Y-64450000D01*
X46814286Y-64521429D01*
X46885715Y-64664286D01*
X46885715Y-65092857D01*
X46814286Y-65235714D01*
X46742857Y-65307143D01*
X46600000Y-65378571D01*
X46385715Y-65378571D01*
X47528572Y-64378571D02*
X47528572Y-65378571D01*
X47528572Y-64521429D02*
X47600000Y-64450000D01*
X47742858Y-64378571D01*
X47957143Y-64378571D01*
X48100000Y-64450000D01*
X48171429Y-64592857D01*
X48171429Y-65378571D01*
X50000001Y-25435714D02*
X49928572Y-25507143D01*
X49714286Y-25578571D01*
X49571429Y-25578571D01*
X49357144Y-25507143D01*
X49214286Y-25364286D01*
X49142858Y-25221429D01*
X49071429Y-24935714D01*
X49071429Y-24721429D01*
X49142858Y-24435714D01*
X49214286Y-24292857D01*
X49357144Y-24150000D01*
X49571429Y-24078571D01*
X49714286Y-24078571D01*
X49928572Y-24150000D01*
X50000001Y-24221429D01*
X51214286Y-25507143D02*
X51071429Y-25578571D01*
X50785715Y-25578571D01*
X50642858Y-25507143D01*
X50571429Y-25364286D01*
X50571429Y-24792857D01*
X50642858Y-24650000D01*
X50785715Y-24578571D01*
X51071429Y-24578571D01*
X51214286Y-24650000D01*
X51285715Y-24792857D01*
X51285715Y-24935714D01*
X50571429Y-25078571D01*
X52142858Y-25578571D02*
X52000000Y-25507143D01*
X51928572Y-25364286D01*
X51928572Y-24078571D01*
X52928572Y-25578571D02*
X52785714Y-25507143D01*
X52714286Y-25364286D01*
X52714286Y-24078571D01*
X54571428Y-25507143D02*
X54785714Y-25578571D01*
X55142857Y-25578571D01*
X55285714Y-25507143D01*
X55357143Y-25435714D01*
X55428571Y-25292857D01*
X55428571Y-25150000D01*
X55357143Y-25007143D01*
X55285714Y-24935714D01*
X55142857Y-24864286D01*
X54857143Y-24792857D01*
X54714285Y-24721429D01*
X54642857Y-24650000D01*
X54571428Y-24507143D01*
X54571428Y-24364286D01*
X54642857Y-24221429D01*
X54714285Y-24150000D01*
X54857143Y-24078571D01*
X55214285Y-24078571D01*
X55428571Y-24150000D01*
X56071428Y-25578571D02*
X56071428Y-24078571D01*
X56785714Y-25578571D02*
X56785714Y-24078571D01*
X57285714Y-25150000D01*
X57785714Y-24078571D01*
X57785714Y-25578571D01*
X60285714Y-25507143D02*
X60142857Y-25578571D01*
X59857143Y-25578571D01*
X59714285Y-25507143D01*
X59642857Y-25435714D01*
X59571428Y-25292857D01*
X59571428Y-24864286D01*
X59642857Y-24721429D01*
X59714285Y-24650000D01*
X59857143Y-24578571D01*
X60142857Y-24578571D01*
X60285714Y-24650000D01*
X61571428Y-25578571D02*
X61571428Y-24792857D01*
X61499999Y-24650000D01*
X61357142Y-24578571D01*
X61071428Y-24578571D01*
X60928571Y-24650000D01*
X61571428Y-25507143D02*
X61428571Y-25578571D01*
X61071428Y-25578571D01*
X60928571Y-25507143D01*
X60857142Y-25364286D01*
X60857142Y-25221429D01*
X60928571Y-25078571D01*
X61071428Y-25007143D01*
X61428571Y-25007143D01*
X61571428Y-24935714D01*
X62285714Y-25578571D02*
X62285714Y-24578571D01*
X62285714Y-24864286D02*
X62357142Y-24721429D01*
X62428571Y-24650000D01*
X62571428Y-24578571D01*
X62714285Y-24578571D01*
X63857142Y-25578571D02*
X63857142Y-24078571D01*
X63857142Y-25507143D02*
X63714285Y-25578571D01*
X63428571Y-25578571D01*
X63285713Y-25507143D01*
X63214285Y-25435714D01*
X63142856Y-25292857D01*
X63142856Y-24864286D01*
X63214285Y-24721429D01*
X63285713Y-24650000D01*
X63428571Y-24578571D01*
X63714285Y-24578571D01*
X63857142Y-24650000D01*
X105450001Y-64178571D02*
X106378572Y-64178571D01*
X105878572Y-64750000D01*
X106092858Y-64750000D01*
X106235715Y-64821429D01*
X106307144Y-64892857D01*
X106378572Y-65035714D01*
X106378572Y-65392857D01*
X106307144Y-65535714D01*
X106235715Y-65607143D01*
X106092858Y-65678571D01*
X105664286Y-65678571D01*
X105521429Y-65607143D01*
X105450001Y-65535714D01*
X108092857Y-64107143D02*
X106807143Y-66035714D01*
X109235715Y-64678571D02*
X109235715Y-65678571D01*
X108878572Y-64107143D02*
X108521429Y-65178571D01*
X109450001Y-65178571D01*
X110807143Y-64250000D02*
X110664286Y-64178571D01*
X110450000Y-64178571D01*
X110235715Y-64250000D01*
X110092857Y-64392857D01*
X110021429Y-64535714D01*
X109950000Y-64821429D01*
X109950000Y-65035714D01*
X110021429Y-65321429D01*
X110092857Y-65464286D01*
X110235715Y-65607143D01*
X110450000Y-65678571D01*
X110592857Y-65678571D01*
X110807143Y-65607143D01*
X110878572Y-65535714D01*
X110878572Y-65035714D01*
X110592857Y-65035714D01*
X113521429Y-65535714D02*
X113450000Y-65607143D01*
X113235714Y-65678571D01*
X113092857Y-65678571D01*
X112878572Y-65607143D01*
X112735714Y-65464286D01*
X112664286Y-65321429D01*
X112592857Y-65035714D01*
X112592857Y-64821429D01*
X112664286Y-64535714D01*
X112735714Y-64392857D01*
X112878572Y-64250000D01*
X113092857Y-64178571D01*
X113235714Y-64178571D01*
X113450000Y-64250000D01*
X113521429Y-64321429D01*
X114735714Y-65607143D02*
X114592857Y-65678571D01*
X114307143Y-65678571D01*
X114164286Y-65607143D01*
X114092857Y-65464286D01*
X114092857Y-64892857D01*
X114164286Y-64750000D01*
X114307143Y-64678571D01*
X114592857Y-64678571D01*
X114735714Y-64750000D01*
X114807143Y-64892857D01*
X114807143Y-65035714D01*
X114092857Y-65178571D01*
X115664286Y-65678571D02*
X115521428Y-65607143D01*
X115450000Y-65464286D01*
X115450000Y-64178571D01*
X116450000Y-65678571D02*
X116307142Y-65607143D01*
X116235714Y-65464286D01*
X116235714Y-64178571D01*
X106914286Y-68078571D02*
X106914286Y-66578571D01*
X107771429Y-68078571D01*
X107771429Y-66578571D01*
X109057143Y-68007143D02*
X108914286Y-68078571D01*
X108628572Y-68078571D01*
X108485715Y-68007143D01*
X108414286Y-67864286D01*
X108414286Y-67292857D01*
X108485715Y-67150000D01*
X108628572Y-67078571D01*
X108914286Y-67078571D01*
X109057143Y-67150000D01*
X109128572Y-67292857D01*
X109128572Y-67435714D01*
X108414286Y-67578571D01*
X109557143Y-67078571D02*
X110128572Y-67078571D01*
X109771429Y-66578571D02*
X109771429Y-67864286D01*
X109842857Y-68007143D01*
X109985715Y-68078571D01*
X110128572Y-68078571D01*
X110485715Y-67078571D02*
X110771429Y-68078571D01*
X111057143Y-67364286D01*
X111342858Y-68078571D01*
X111628572Y-67078571D01*
X112414287Y-68078571D02*
X112271429Y-68007143D01*
X112200001Y-67935714D01*
X112128572Y-67792857D01*
X112128572Y-67364286D01*
X112200001Y-67221429D01*
X112271429Y-67150000D01*
X112414287Y-67078571D01*
X112628572Y-67078571D01*
X112771429Y-67150000D01*
X112842858Y-67221429D01*
X112914287Y-67364286D01*
X112914287Y-67792857D01*
X112842858Y-67935714D01*
X112771429Y-68007143D01*
X112628572Y-68078571D01*
X112414287Y-68078571D01*
X113557144Y-68078571D02*
X113557144Y-67078571D01*
X113557144Y-67364286D02*
X113628572Y-67221429D01*
X113700001Y-67150000D01*
X113842858Y-67078571D01*
X113985715Y-67078571D01*
X114485715Y-68078571D02*
X114485715Y-66578571D01*
X114628572Y-67507143D02*
X115057143Y-68078571D01*
X115057143Y-67078571D02*
X114485715Y-67650000D01*
X106807143Y-70050000D02*
X107521429Y-70050000D01*
X106664286Y-70478571D02*
X107164286Y-68978571D01*
X107664286Y-70478571D01*
X108164286Y-69478571D02*
X108164286Y-70478571D01*
X108164286Y-69621429D02*
X108235714Y-69550000D01*
X108378572Y-69478571D01*
X108592857Y-69478571D01*
X108735714Y-69550000D01*
X108807143Y-69692857D01*
X108807143Y-70478571D01*
X109307143Y-69478571D02*
X109878572Y-69478571D01*
X109521429Y-68978571D02*
X109521429Y-70264286D01*
X109592857Y-70407143D01*
X109735715Y-70478571D01*
X109878572Y-70478571D01*
X110950000Y-70407143D02*
X110807143Y-70478571D01*
X110521429Y-70478571D01*
X110378572Y-70407143D01*
X110307143Y-70264286D01*
X110307143Y-69692857D01*
X110378572Y-69550000D01*
X110521429Y-69478571D01*
X110807143Y-69478571D01*
X110950000Y-69550000D01*
X111021429Y-69692857D01*
X111021429Y-69835714D01*
X110307143Y-69978571D01*
X111664286Y-69478571D02*
X111664286Y-70478571D01*
X111664286Y-69621429D02*
X111735714Y-69550000D01*
X111878572Y-69478571D01*
X112092857Y-69478571D01*
X112235714Y-69550000D01*
X112307143Y-69692857D01*
X112307143Y-70478571D01*
X113021429Y-69478571D02*
X113021429Y-70478571D01*
X113021429Y-69621429D02*
X113092857Y-69550000D01*
X113235715Y-69478571D01*
X113450000Y-69478571D01*
X113592857Y-69550000D01*
X113664286Y-69692857D01*
X113664286Y-70478571D01*
X115021429Y-70478571D02*
X115021429Y-69692857D01*
X114950000Y-69550000D01*
X114807143Y-69478571D01*
X114521429Y-69478571D01*
X114378572Y-69550000D01*
X115021429Y-70407143D02*
X114878572Y-70478571D01*
X114521429Y-70478571D01*
X114378572Y-70407143D01*
X114307143Y-70264286D01*
X114307143Y-70121429D01*
X114378572Y-69978571D01*
X114521429Y-69907143D01*
X114878572Y-69907143D01*
X115021429Y-69835714D01*
X109828572Y-25000000D02*
X109685715Y-24928571D01*
X109471429Y-24928571D01*
X109257144Y-25000000D01*
X109114286Y-25142857D01*
X109042858Y-25285714D01*
X108971429Y-25571429D01*
X108971429Y-25785714D01*
X109042858Y-26071429D01*
X109114286Y-26214286D01*
X109257144Y-26357143D01*
X109471429Y-26428571D01*
X109614286Y-26428571D01*
X109828572Y-26357143D01*
X109900001Y-26285714D01*
X109900001Y-25785714D01*
X109614286Y-25785714D01*
X110542858Y-26428571D02*
X110542858Y-24928571D01*
X111114286Y-24928571D01*
X111257144Y-25000000D01*
X111328572Y-25071429D01*
X111400001Y-25214286D01*
X111400001Y-25428571D01*
X111328572Y-25571429D01*
X111257144Y-25642857D01*
X111114286Y-25714286D01*
X110542858Y-25714286D01*
X111971429Y-26357143D02*
X112185715Y-26428571D01*
X112542858Y-26428571D01*
X112685715Y-26357143D01*
X112757144Y-26285714D01*
X112828572Y-26142857D01*
X112828572Y-26000000D01*
X112757144Y-25857143D01*
X112685715Y-25785714D01*
X112542858Y-25714286D01*
X112257144Y-25642857D01*
X112114286Y-25571429D01*
X112042858Y-25500000D01*
X111971429Y-25357143D01*
X111971429Y-25214286D01*
X112042858Y-25071429D01*
X112114286Y-25000000D01*
X112257144Y-24928571D01*
X112614286Y-24928571D01*
X112828572Y-25000000D01*
X106757143Y-28400000D02*
X107471429Y-28400000D01*
X106614286Y-28828571D02*
X107114286Y-27328571D01*
X107614286Y-28828571D01*
X108114286Y-27828571D02*
X108114286Y-28828571D01*
X108114286Y-27971429D02*
X108185714Y-27900000D01*
X108328572Y-27828571D01*
X108542857Y-27828571D01*
X108685714Y-27900000D01*
X108757143Y-28042857D01*
X108757143Y-28828571D01*
X109257143Y-27828571D02*
X109828572Y-27828571D01*
X109471429Y-27328571D02*
X109471429Y-28614286D01*
X109542857Y-28757143D01*
X109685715Y-28828571D01*
X109828572Y-28828571D01*
X110900000Y-28757143D02*
X110757143Y-28828571D01*
X110471429Y-28828571D01*
X110328572Y-28757143D01*
X110257143Y-28614286D01*
X110257143Y-28042857D01*
X110328572Y-27900000D01*
X110471429Y-27828571D01*
X110757143Y-27828571D01*
X110900000Y-27900000D01*
X110971429Y-28042857D01*
X110971429Y-28185714D01*
X110257143Y-28328571D01*
X111614286Y-27828571D02*
X111614286Y-28828571D01*
X111614286Y-27971429D02*
X111685714Y-27900000D01*
X111828572Y-27828571D01*
X112042857Y-27828571D01*
X112185714Y-27900000D01*
X112257143Y-28042857D01*
X112257143Y-28828571D01*
X112971429Y-27828571D02*
X112971429Y-28828571D01*
X112971429Y-27971429D02*
X113042857Y-27900000D01*
X113185715Y-27828571D01*
X113400000Y-27828571D01*
X113542857Y-27900000D01*
X113614286Y-28042857D01*
X113614286Y-28828571D01*
X114971429Y-28828571D02*
X114971429Y-28042857D01*
X114900000Y-27900000D01*
X114757143Y-27828571D01*
X114471429Y-27828571D01*
X114328572Y-27900000D01*
X114971429Y-28757143D02*
X114828572Y-28828571D01*
X114471429Y-28828571D01*
X114328572Y-28757143D01*
X114257143Y-28614286D01*
X114257143Y-28471429D01*
X114328572Y-28328571D01*
X114471429Y-28257143D01*
X114828572Y-28257143D01*
X114971429Y-28185714D01*
X112835714Y-34364285D02*
X112907143Y-34435714D01*
X112978571Y-34650000D01*
X112978571Y-34792857D01*
X112907143Y-35007142D01*
X112764286Y-35150000D01*
X112621429Y-35221428D01*
X112335714Y-35292857D01*
X112121429Y-35292857D01*
X111835714Y-35221428D01*
X111692857Y-35150000D01*
X111550000Y-35007142D01*
X111478571Y-34792857D01*
X111478571Y-34650000D01*
X111550000Y-34435714D01*
X111621429Y-34364285D01*
X112550000Y-33792857D02*
X112550000Y-33078571D01*
X112978571Y-33935714D02*
X111478571Y-33435714D01*
X112978571Y-32935714D01*
X112978571Y-32435714D02*
X111478571Y-32435714D01*
X112978571Y-31578571D01*
X111478571Y-31578571D01*
X113878571Y-36114286D02*
X113878571Y-35257143D01*
X115378571Y-35685714D02*
X113878571Y-35685714D01*
X114592857Y-34757143D02*
X114592857Y-34257143D01*
X115378571Y-34042857D02*
X115378571Y-34757143D01*
X113878571Y-34757143D01*
X113878571Y-34042857D01*
X115378571Y-32542857D02*
X114664286Y-33042857D01*
X115378571Y-33400000D02*
X113878571Y-33400000D01*
X113878571Y-32828572D01*
X113950000Y-32685714D01*
X114021429Y-32614286D01*
X114164286Y-32542857D01*
X114378571Y-32542857D01*
X114521429Y-32614286D01*
X114592857Y-32685714D01*
X114664286Y-32828572D01*
X114664286Y-33400000D01*
X115378571Y-31900000D02*
X113878571Y-31900000D01*
X114950000Y-31400000D01*
X113878571Y-30900000D01*
X115378571Y-30900000D01*
D13*
X48000000Y-69500000D02*
G75*
G03X48000000Y-69500000I-3500000J0D01*
G01*
X106000000Y-69500000D02*
G75*
G03X106000000Y-69500000I-3500000J0D01*
G01*
X106000000Y-20500000D02*
G75*
G03X106000000Y-20500000I-3500000J0D01*
G01*
X48000000Y-20500000D02*
G75*
G03X48000000Y-20500000I-3500000J0D01*
G01*
D14*
X116375000Y-18850000D02*
X116375000Y-19850000D01*
X115025000Y-19850000D02*
X115025000Y-18850000D01*
X53350240Y-50399160D02*
X53350240Y-50350900D01*
X52649200Y-47600180D02*
X53350240Y-47600180D01*
X53350240Y-47600180D02*
X53350240Y-47849100D01*
X53350240Y-50399160D02*
X53350240Y-50599820D01*
X53350240Y-50599820D02*
X52649200Y-50599820D01*
X80379000Y-66938000D02*
X80379000Y-68462000D01*
X80506000Y-68843000D02*
X80506000Y-66557000D01*
X80633000Y-66303000D02*
X80633000Y-69097000D01*
X80760000Y-69351000D02*
X80760000Y-66049000D01*
X80887000Y-65922000D02*
X80887000Y-69478000D01*
X79998000Y-64398000D02*
X79998000Y-71002000D01*
X79998000Y-71002000D02*
X85840000Y-71002000D01*
X85840000Y-71002000D02*
X86602000Y-70240000D01*
X86602000Y-70240000D02*
X86602000Y-65160000D01*
X86602000Y-65160000D02*
X85840000Y-64398000D01*
X85840000Y-64398000D02*
X79998000Y-64398000D01*
X85459000Y-67700000D02*
X84697000Y-67700000D01*
X85078000Y-67319000D02*
X85078000Y-68081000D01*
X86348000Y-67700000D02*
G75*
G03X86348000Y-67700000I-3048000J0D01*
G01*
X96721000Y-68462000D02*
X96721000Y-66938000D01*
X96594000Y-66557000D02*
X96594000Y-68843000D01*
X96467000Y-69097000D02*
X96467000Y-66303000D01*
X96340000Y-66049000D02*
X96340000Y-69351000D01*
X96213000Y-69478000D02*
X96213000Y-65922000D01*
X97102000Y-71002000D02*
X97102000Y-64398000D01*
X97102000Y-64398000D02*
X91260000Y-64398000D01*
X91260000Y-64398000D02*
X90498000Y-65160000D01*
X90498000Y-65160000D02*
X90498000Y-70240000D01*
X90498000Y-70240000D02*
X91260000Y-71002000D01*
X91260000Y-71002000D02*
X97102000Y-71002000D01*
X91641000Y-67700000D02*
X92403000Y-67700000D01*
X92022000Y-68081000D02*
X92022000Y-67319000D01*
X96848000Y-67700000D02*
G75*
G03X96848000Y-67700000I-3048000J0D01*
G01*
X78250000Y-66675000D02*
X65750000Y-66675000D01*
X78246000Y-66815000D02*
X65754000Y-66815000D01*
X78240000Y-66955000D02*
X65760000Y-66955000D01*
X78230000Y-67095000D02*
X65770000Y-67095000D01*
X78218000Y-67235000D02*
X65782000Y-67235000D01*
X78202000Y-67375000D02*
X65798000Y-67375000D01*
X78183000Y-67515000D02*
X65817000Y-67515000D01*
X78160000Y-67655000D02*
X65840000Y-67655000D01*
X78135000Y-67795000D02*
X65865000Y-67795000D01*
X78106000Y-67935000D02*
X65894000Y-67935000D01*
X78073000Y-68075000D02*
X72521000Y-68075000D01*
X71479000Y-68075000D02*
X65927000Y-68075000D01*
X78038000Y-68215000D02*
X72734000Y-68215000D01*
X71266000Y-68215000D02*
X65962000Y-68215000D01*
X77999000Y-68355000D02*
X72876000Y-68355000D01*
X71124000Y-68355000D02*
X66001000Y-68355000D01*
X77956000Y-68495000D02*
X72978000Y-68495000D01*
X71022000Y-68495000D02*
X66044000Y-68495000D01*
X77909000Y-68635000D02*
X73052000Y-68635000D01*
X70948000Y-68635000D02*
X66091000Y-68635000D01*
X77859000Y-68775000D02*
X73103000Y-68775000D01*
X70897000Y-68775000D02*
X66141000Y-68775000D01*
X77805000Y-68915000D02*
X73135000Y-68915000D01*
X70865000Y-68915000D02*
X66195000Y-68915000D01*
X77748000Y-69055000D02*
X73149000Y-69055000D01*
X70851000Y-69055000D02*
X66252000Y-69055000D01*
X77686000Y-69195000D02*
X73146000Y-69195000D01*
X70854000Y-69195000D02*
X66314000Y-69195000D01*
X77620000Y-69335000D02*
X73126000Y-69335000D01*
X70874000Y-69335000D02*
X66380000Y-69335000D01*
X77549000Y-69475000D02*
X73087000Y-69475000D01*
X70913000Y-69475000D02*
X66451000Y-69475000D01*
X77475000Y-69615000D02*
X73028000Y-69615000D01*
X70972000Y-69615000D02*
X66525000Y-69615000D01*
X77395000Y-69755000D02*
X72945000Y-69755000D01*
X71055000Y-69755000D02*
X66605000Y-69755000D01*
X77311000Y-69895000D02*
X72831000Y-69895000D01*
X71169000Y-69895000D02*
X66689000Y-69895000D01*
X77221000Y-70035000D02*
X72670000Y-70035000D01*
X71330000Y-70035000D02*
X66779000Y-70035000D01*
X77127000Y-70175000D02*
X72409000Y-70175000D01*
X71591000Y-70175000D02*
X66873000Y-70175000D01*
X77026000Y-70315000D02*
X66974000Y-70315000D01*
X76919000Y-70455000D02*
X67081000Y-70455000D01*
X76807000Y-70595000D02*
X67193000Y-70595000D01*
X76687000Y-70735000D02*
X67313000Y-70735000D01*
X76559000Y-70875000D02*
X67441000Y-70875000D01*
X76424000Y-71015000D02*
X67576000Y-71015000D01*
X76280000Y-71155000D02*
X67720000Y-71155000D01*
X76125000Y-71295000D02*
X67875000Y-71295000D01*
X75960000Y-71435000D02*
X68040000Y-71435000D01*
X75783000Y-71575000D02*
X68217000Y-71575000D01*
X75592000Y-71715000D02*
X68408000Y-71715000D01*
X75383000Y-71855000D02*
X68617000Y-71855000D01*
X75155000Y-71995000D02*
X68845000Y-71995000D01*
X74903000Y-72135000D02*
X69097000Y-72135000D01*
X74619000Y-72275000D02*
X69381000Y-72275000D01*
X74291000Y-72415000D02*
X69709000Y-72415000D01*
X73897000Y-72555000D02*
X70103000Y-72555000D01*
X73383000Y-72695000D02*
X70617000Y-72695000D01*
X72433000Y-72835000D02*
X71567000Y-72835000D01*
X73150000Y-69100000D02*
G75*
G03X73150000Y-69100000I-1150000J0D01*
G01*
X78287500Y-66600000D02*
G75*
G03X78287500Y-66600000I-6287500J0D01*
G01*
X64625000Y-59500000D02*
X64510000Y-59500000D01*
X64625000Y-63650000D02*
X64510000Y-63650000D01*
X55725000Y-63650000D02*
X55840000Y-63650000D01*
X55725000Y-59500000D02*
X55840000Y-59500000D01*
X64625000Y-59500000D02*
X64625000Y-63650000D01*
X55725000Y-59500000D02*
X55725000Y-63650000D01*
X64510000Y-59500000D02*
X64510000Y-58125000D01*
X47724000Y-54406000D02*
X50772000Y-54406000D01*
X50772000Y-54406000D02*
X50772000Y-47294000D01*
X50772000Y-47294000D02*
X47724000Y-47294000D01*
X44676000Y-54406000D02*
X43914000Y-54406000D01*
X43914000Y-54406000D02*
X41628000Y-52882000D01*
X41628000Y-52882000D02*
X41628000Y-48818000D01*
X41628000Y-48818000D02*
X43914000Y-47294000D01*
X43914000Y-47294000D02*
X44676000Y-47294000D01*
X75350000Y-24200000D02*
X75455000Y-24200000D01*
X75350000Y-20050000D02*
X75455000Y-20050000D01*
X85500000Y-20050000D02*
X85395000Y-20050000D01*
X85500000Y-24200000D02*
X85395000Y-24200000D01*
X75350000Y-24200000D02*
X75350000Y-20050000D01*
X85500000Y-24200000D02*
X85500000Y-20050000D01*
X75455000Y-24200000D02*
X75455000Y-25575000D01*
X72400000Y-33200000D02*
G75*
G03X72400000Y-33200000I-100000J0D01*
G01*
X72050000Y-33850000D02*
X72050000Y-33350000D01*
X69150000Y-33850000D02*
X72050000Y-33850000D01*
X69150000Y-33350000D02*
X69150000Y-33850000D01*
X72050000Y-33350000D02*
X69150000Y-33350000D01*
X73750000Y-52300000D02*
X73750000Y-53300000D01*
X75450000Y-53300000D02*
X75450000Y-52300000D01*
X111150000Y-57300000D02*
X111150000Y-56300000D01*
X109450000Y-56300000D02*
X109450000Y-57300000D01*
X117325000Y-22100000D02*
X117325000Y-23100000D01*
X115975000Y-23100000D02*
X115975000Y-22100000D01*
X111700000Y-20925000D02*
X110700000Y-20925000D01*
X110700000Y-19575000D02*
X111700000Y-19575000D01*
X127217460Y-42250900D02*
X127217460Y-33550900D01*
X120812460Y-42250900D02*
X120812460Y-33550900D01*
X120812460Y-33550900D02*
X127217460Y-33550900D01*
X125987460Y-33550900D02*
X125987460Y-42250900D01*
X127217460Y-42250900D02*
X120812460Y-42250900D01*
X126000000Y-20500000D02*
X127000000Y-20500000D01*
X127000000Y-20500000D02*
X127000000Y-22000000D01*
X127000000Y-22000000D02*
X129000000Y-22000000D01*
X129000000Y-22000000D02*
X129500000Y-21500000D01*
X129500000Y-21500000D02*
X130000000Y-22000000D01*
X130000000Y-22000000D02*
X130500000Y-21500000D01*
X130500000Y-21500000D02*
X131000000Y-22000000D01*
X131000000Y-22000000D02*
X131500000Y-21500000D01*
X131500000Y-21500000D02*
X132000000Y-22000000D01*
X132000000Y-22000000D02*
X132000000Y-25000000D01*
X132000000Y-25000000D02*
X131500000Y-25500000D01*
X131500000Y-25500000D02*
X131000000Y-25000000D01*
X131000000Y-25000000D02*
X130500000Y-25500000D01*
X130500000Y-25500000D02*
X130000000Y-25000000D01*
X130000000Y-25000000D02*
X129500000Y-25500000D01*
X129500000Y-25500000D02*
X129000000Y-25000000D01*
X129000000Y-25000000D02*
X127000000Y-25000000D01*
X127000000Y-25000000D02*
X127000000Y-26500000D01*
X127000000Y-26500000D02*
X126000000Y-26500000D01*
X126000000Y-63500000D02*
X127000000Y-63500000D01*
X127000000Y-63500000D02*
X127000000Y-65000000D01*
X127000000Y-65000000D02*
X129000000Y-65000000D01*
X129000000Y-65000000D02*
X129500000Y-64500000D01*
X129500000Y-64500000D02*
X130000000Y-65000000D01*
X130000000Y-65000000D02*
X130500000Y-64500000D01*
X130500000Y-64500000D02*
X131000000Y-65000000D01*
X131000000Y-65000000D02*
X131500000Y-64500000D01*
X131500000Y-64500000D02*
X132000000Y-65000000D01*
X132000000Y-65000000D02*
X132000000Y-68000000D01*
X132000000Y-68000000D02*
X131500000Y-68500000D01*
X131500000Y-68500000D02*
X131000000Y-68000000D01*
X131000000Y-68000000D02*
X130500000Y-68500000D01*
X130500000Y-68500000D02*
X130000000Y-68000000D01*
X130000000Y-68000000D02*
X129500000Y-68500000D01*
X129500000Y-68500000D02*
X129000000Y-68000000D01*
X129000000Y-68000000D02*
X127000000Y-68000000D01*
X127000000Y-68000000D02*
X127000000Y-69500000D01*
X127000000Y-69500000D02*
X126000000Y-69500000D01*
X40000000Y-41700000D02*
G75*
G03X40300000Y-42000000I300000J0D01*
G01*
X39000000Y-41700000D02*
G75*
G03X39300000Y-42000000I300000J0D01*
G01*
X40300000Y-27000000D02*
G75*
G03X40000000Y-27300000I0J-300000D01*
G01*
X39300000Y-27000000D02*
G75*
G03X39000000Y-27300000I0J-300000D01*
G01*
X39000000Y-41700000D02*
X39000000Y-27300000D01*
X40000000Y-27300000D02*
X40000000Y-41700000D01*
X35200000Y-42000000D02*
X41000000Y-42000000D01*
X34900000Y-41700000D02*
G75*
G03X35200000Y-42000000I300000J0D01*
G01*
X34900000Y-27300000D02*
X34900000Y-41700000D01*
X35200000Y-27000000D02*
X41000000Y-27000000D01*
X35200000Y-27000000D02*
G75*
G03X34900000Y-27300000I0J-300000D01*
G01*
X41000000Y-44800000D02*
X41000000Y-26000000D01*
X67300000Y-28200000D02*
X67300000Y-29000000D01*
X67300000Y-29000000D02*
X65800000Y-29000000D01*
X65800000Y-29000000D02*
X65800000Y-39500000D01*
X65800000Y-39500000D02*
X67500000Y-39500000D01*
X67300000Y-26000000D02*
X67300000Y-28200000D01*
X67300000Y-26000000D02*
X41000000Y-26000000D01*
X67500000Y-44800000D02*
X41000000Y-44800000D01*
X67500000Y-39500000D02*
X67500000Y-44800000D01*
X61500840Y-48050240D02*
X61549100Y-48050240D01*
X64299820Y-47349200D02*
X64299820Y-48050240D01*
X64299820Y-48050240D02*
X64050900Y-48050240D01*
X61500840Y-48050240D02*
X61300180Y-48050240D01*
X61300180Y-48050240D02*
X61300180Y-47349200D01*
X49549760Y-59300840D02*
X49549760Y-59349100D01*
X50250800Y-62099820D02*
X49549760Y-62099820D01*
X49549760Y-62099820D02*
X49549760Y-61850900D01*
X49549760Y-59300840D02*
X49549760Y-59100180D01*
X49549760Y-59100180D02*
X50250800Y-59100180D01*
X56149760Y-47100840D02*
X56149760Y-47149100D01*
X56850800Y-49899820D02*
X56149760Y-49899820D01*
X56149760Y-49899820D02*
X56149760Y-49650900D01*
X56149760Y-47100840D02*
X56149760Y-46900180D01*
X56149760Y-46900180D02*
X56850800Y-46900180D01*
X72599160Y-51249760D02*
X72550900Y-51249760D01*
X69800180Y-51950800D02*
X69800180Y-51249760D01*
X69800180Y-51249760D02*
X70049100Y-51249760D01*
X72599160Y-51249760D02*
X72799820Y-51249760D01*
X72799820Y-51249760D02*
X72799820Y-51950800D01*
X99149760Y-25050840D02*
X99149760Y-25099100D01*
X99850800Y-27849820D02*
X99149760Y-27849820D01*
X99149760Y-27849820D02*
X99149760Y-27600900D01*
X99149760Y-25050840D02*
X99149760Y-24850180D01*
X99149760Y-24850180D02*
X99850800Y-24850180D01*
X117449780Y-37739890D02*
X117449780Y-35239890D01*
X117449780Y-35239890D02*
X118549780Y-35239890D01*
X118549780Y-35239890D02*
X118549780Y-37739890D01*
X118549780Y-37739890D02*
X117449780Y-37739890D01*
X118799780Y-37989890D02*
X118799780Y-34989890D01*
X117199780Y-37989890D02*
X117199780Y-34989890D01*
X117199780Y-34989890D02*
X118799780Y-34989890D01*
X117199780Y-37989890D02*
X118799780Y-37989890D01*
X119749780Y-39489890D02*
X119749780Y-33489890D01*
X116249780Y-39489890D02*
X116249780Y-33489890D01*
X116249780Y-39489890D02*
X119749780Y-39489890D01*
X116249780Y-33489890D02*
X119749780Y-33489890D01*
X102000000Y-32500000D02*
X101000000Y-33500000D01*
X101000000Y-33500000D02*
X103000000Y-33500000D01*
X102000000Y-32500000D02*
X103000000Y-33500000D01*
X106500000Y-31500000D02*
X107500000Y-32500000D01*
X107500000Y-32500000D02*
X107500000Y-33250000D01*
X107500000Y-33250000D02*
X105750000Y-31500000D01*
X105750000Y-31500000D02*
X105000000Y-31500000D01*
X105000000Y-31500000D02*
X107500000Y-34000000D01*
X107500000Y-34000000D02*
X107500000Y-34750000D01*
X107500000Y-34750000D02*
X104250000Y-31500000D01*
X77500000Y-31500000D02*
X77500000Y-61500000D01*
X77500000Y-61500000D02*
X107500000Y-61500000D01*
X107500000Y-61500000D02*
X107500000Y-31500000D01*
X107500000Y-31500000D02*
X77500000Y-31500000D01*
X62450000Y-55100000D02*
X60950000Y-55100000D01*
X60950000Y-55100000D02*
X60950000Y-55350000D01*
X60950000Y-55350000D02*
X62450000Y-55350000D01*
X62450000Y-55350000D02*
X62450000Y-55100000D01*
X60825000Y-56200000D02*
X60825000Y-55000000D01*
X62575000Y-55000000D02*
X62575000Y-56200000D01*
X53450000Y-52350000D02*
X54950000Y-52350000D01*
X54950000Y-52350000D02*
X54950000Y-52100000D01*
X54950000Y-52100000D02*
X53450000Y-52100000D01*
X53450000Y-52100000D02*
X53450000Y-52350000D01*
X55075000Y-51250000D02*
X55075000Y-52450000D01*
X53325000Y-52450000D02*
X53325000Y-51250000D01*
X60550000Y-47400000D02*
X59050000Y-47400000D01*
X59050000Y-47400000D02*
X59050000Y-47650000D01*
X59050000Y-47650000D02*
X60550000Y-47650000D01*
X60550000Y-47650000D02*
X60550000Y-47400000D01*
X58925000Y-48500000D02*
X58925000Y-47300000D01*
X60675000Y-47300000D02*
X60675000Y-48500000D01*
X72725000Y-29900000D02*
X72725000Y-28900000D01*
X74075000Y-28900000D02*
X74075000Y-29900000D01*
X70925000Y-29900000D02*
X70925000Y-28900000D01*
X72275000Y-28900000D02*
X72275000Y-29900000D01*
X74525000Y-29900000D02*
X74525000Y-28900000D01*
X75875000Y-28900000D02*
X75875000Y-29900000D01*
X95150000Y-25675000D02*
X96150000Y-25675000D01*
X96150000Y-27025000D02*
X95150000Y-27025000D01*
X72125000Y-24300000D02*
X72125000Y-23300000D01*
X73475000Y-23300000D02*
X73475000Y-24300000D01*
X114500000Y-41175000D02*
X113500000Y-41175000D01*
X113500000Y-39825000D02*
X114500000Y-39825000D01*
X113500000Y-37825000D02*
X114500000Y-37825000D01*
X114500000Y-39175000D02*
X113500000Y-39175000D01*
X121600000Y-44475000D02*
X120600000Y-44475000D01*
X120600000Y-43125000D02*
X121600000Y-43125000D01*
X70575000Y-55200000D02*
X70575000Y-56200000D01*
X69225000Y-56200000D02*
X69225000Y-55200000D01*
X71700000Y-58525000D02*
X72700000Y-58525000D01*
X72700000Y-59875000D02*
X71700000Y-59875000D01*
X56875000Y-51600000D02*
X56875000Y-52600000D01*
X55525000Y-52600000D02*
X55525000Y-51600000D01*
X49700000Y-54925000D02*
X50700000Y-54925000D01*
X50700000Y-56275000D02*
X49700000Y-56275000D01*
X49700000Y-56925000D02*
X50700000Y-56925000D01*
X50700000Y-58275000D02*
X49700000Y-58275000D01*
X57275000Y-52600000D02*
X57275000Y-51600000D01*
X58625000Y-51600000D02*
X58625000Y-52600000D01*
X66400000Y-59925000D02*
X67400000Y-59925000D01*
X67400000Y-61275000D02*
X66400000Y-61275000D01*
X60450000Y-68175000D02*
X61450000Y-68175000D01*
X61450000Y-69525000D02*
X60450000Y-69525000D01*
X56950000Y-66175000D02*
X57950000Y-66175000D01*
X57950000Y-67525000D02*
X56950000Y-67525000D01*
X64775000Y-56100000D02*
X64775000Y-55100000D01*
X66125000Y-55100000D02*
X66125000Y-56100000D01*
X61450000Y-67525000D02*
X60450000Y-67525000D01*
X60450000Y-66175000D02*
X61450000Y-66175000D01*
X63025000Y-56100000D02*
X63025000Y-55100000D01*
X64375000Y-55100000D02*
X64375000Y-56100000D01*
X62125000Y-51600000D02*
X62125000Y-52600000D01*
X60775000Y-52600000D02*
X60775000Y-51600000D01*
X59025000Y-52600000D02*
X59025000Y-51600000D01*
X60375000Y-51600000D02*
X60375000Y-52600000D01*
X56875000Y-55100000D02*
X56875000Y-56100000D01*
X55525000Y-56100000D02*
X55525000Y-55100000D01*
X60375000Y-55100000D02*
X60375000Y-56100000D01*
X59025000Y-56100000D02*
X59025000Y-55100000D01*
X58625000Y-55100000D02*
X58625000Y-56100000D01*
X57275000Y-56100000D02*
X57275000Y-55100000D01*
X55125000Y-58850000D02*
X55125000Y-59850000D01*
X53775000Y-59850000D02*
X53775000Y-58850000D01*
X53775000Y-56100000D02*
X53775000Y-55100000D01*
X55125000Y-55100000D02*
X55125000Y-56100000D01*
X87425000Y-71300000D02*
X87425000Y-70300000D01*
X88775000Y-70300000D02*
X88775000Y-71300000D01*
X56900000Y-68225000D02*
X57900000Y-68225000D01*
X57900000Y-69575000D02*
X56900000Y-69575000D01*
X64625000Y-67450000D02*
X64625000Y-68450000D01*
X63275000Y-68450000D02*
X63275000Y-67450000D01*
X67700000Y-57925000D02*
X68700000Y-57925000D01*
X68700000Y-59275000D02*
X67700000Y-59275000D01*
X66525000Y-56100000D02*
X66525000Y-55100000D01*
X67875000Y-55100000D02*
X67875000Y-56100000D01*
X73925000Y-57300000D02*
X73925000Y-56300000D01*
X75275000Y-56300000D02*
X75275000Y-57300000D01*
X110975000Y-52300000D02*
X110975000Y-53300000D01*
X109625000Y-53300000D02*
X109625000Y-52300000D01*
X97300000Y-19475000D02*
X96300000Y-19475000D01*
X96300000Y-18125000D02*
X97300000Y-18125000D01*
X95375000Y-22300000D02*
X95375000Y-23300000D01*
X94025000Y-23300000D02*
X94025000Y-22300000D01*
X72750000Y-18725000D02*
X73750000Y-18725000D01*
X73750000Y-20075000D02*
X72750000Y-20075000D01*
X69125000Y-29900000D02*
X69125000Y-28900000D01*
X70475000Y-28900000D02*
X70475000Y-29900000D01*
X114475000Y-18850000D02*
X114475000Y-19850000D01*
X113125000Y-19850000D02*
X113125000Y-18850000D01*
X52100000Y-63225000D02*
X54100000Y-63225000D01*
X54100000Y-66175000D02*
X52100000Y-66175000D01*
X52100000Y-66625000D02*
X54100000Y-66625000D01*
X54100000Y-69575000D02*
X52100000Y-69575000D01*
X113000000Y-24350000D02*
X114000000Y-24350000D01*
X114000000Y-22650000D02*
X113000000Y-22650000D01*
X125500000Y-45200000D02*
X125500000Y-58200000D01*
X126100000Y-58200000D02*
X117100000Y-58200000D01*
X126100000Y-45200000D02*
X117100000Y-45200000D01*
X112600000Y-45200000D02*
X112600000Y-43700000D01*
X112600000Y-43700000D02*
X117100000Y-43700000D01*
X117100000Y-43700000D02*
X117100000Y-45200000D01*
X117100000Y-58200000D02*
X117100000Y-59700000D01*
X117100000Y-59700000D02*
X112600000Y-59700000D01*
X112600000Y-59700000D02*
X112600000Y-58200000D01*
X126100000Y-45200000D02*
G75*
G03X126600000Y-44700000I0J500000D01*
G01*
X126600000Y-58700000D02*
G75*
G03X126100000Y-58200000I-500000J0D01*
G01*
X112600000Y-45200000D02*
X112600000Y-58200000D01*
X126600000Y-44700000D02*
X126600000Y-58700000D01*
X115314285Y-17864286D02*
X115285714Y-17892857D01*
X115200000Y-17921429D01*
X115142857Y-17921429D01*
X115057142Y-17892857D01*
X115000000Y-17835714D01*
X114971428Y-17778571D01*
X114942857Y-17664286D01*
X114942857Y-17578571D01*
X114971428Y-17464286D01*
X115000000Y-17407143D01*
X115057142Y-17350000D01*
X115142857Y-17321429D01*
X115200000Y-17321429D01*
X115285714Y-17350000D01*
X115314285Y-17378571D01*
X115828571Y-17521429D02*
X115828571Y-17921429D01*
X115685714Y-17292857D02*
X115542857Y-17721429D01*
X115914285Y-17721429D01*
X116228571Y-17578571D02*
X116171429Y-17550000D01*
X116142857Y-17521429D01*
X116114286Y-17464286D01*
X116114286Y-17435714D01*
X116142857Y-17378571D01*
X116171429Y-17350000D01*
X116228571Y-17321429D01*
X116342857Y-17321429D01*
X116400000Y-17350000D01*
X116428571Y-17378571D01*
X116457143Y-17435714D01*
X116457143Y-17464286D01*
X116428571Y-17521429D01*
X116400000Y-17550000D01*
X116342857Y-17578571D01*
X116228571Y-17578571D01*
X116171429Y-17607143D01*
X116142857Y-17635714D01*
X116114286Y-17692857D01*
X116114286Y-17807143D01*
X116142857Y-17864286D01*
X116171429Y-17892857D01*
X116228571Y-17921429D01*
X116342857Y-17921429D01*
X116400000Y-17892857D01*
X116428571Y-17864286D01*
X116457143Y-17807143D01*
X116457143Y-17692857D01*
X116428571Y-17635714D01*
X116400000Y-17607143D01*
X116342857Y-17578571D01*
X52792857Y-47328571D02*
X52735714Y-47300000D01*
X52678571Y-47242857D01*
X52592857Y-47157143D01*
X52535714Y-47128571D01*
X52478571Y-47128571D01*
X52507143Y-47271429D02*
X52450000Y-47242857D01*
X52392857Y-47185714D01*
X52364286Y-47071429D01*
X52364286Y-46871429D01*
X52392857Y-46757143D01*
X52450000Y-46700000D01*
X52507143Y-46671429D01*
X52621429Y-46671429D01*
X52678571Y-46700000D01*
X52735714Y-46757143D01*
X52764286Y-46871429D01*
X52764286Y-47071429D01*
X52735714Y-47185714D01*
X52678571Y-47242857D01*
X52621429Y-47271429D01*
X52507143Y-47271429D01*
X53278571Y-46671429D02*
X53164285Y-46671429D01*
X53107142Y-46700000D01*
X53078571Y-46728571D01*
X53021428Y-46814286D01*
X52992857Y-46928571D01*
X52992857Y-47157143D01*
X53021428Y-47214286D01*
X53050000Y-47242857D01*
X53107142Y-47271429D01*
X53221428Y-47271429D01*
X53278571Y-47242857D01*
X53307142Y-47214286D01*
X53335714Y-47157143D01*
X53335714Y-47014286D01*
X53307142Y-46957143D01*
X53278571Y-46928571D01*
X53221428Y-46900000D01*
X53107142Y-46900000D01*
X53050000Y-46928571D01*
X53021428Y-46957143D01*
X52992857Y-47014286D01*
X82607143Y-72307143D02*
X82559524Y-72354762D01*
X82416667Y-72402381D01*
X82321429Y-72402381D01*
X82178571Y-72354762D01*
X82083333Y-72259524D01*
X82035714Y-72164286D01*
X81988095Y-71973810D01*
X81988095Y-71830952D01*
X82035714Y-71640476D01*
X82083333Y-71545238D01*
X82178571Y-71450000D01*
X82321429Y-71402381D01*
X82416667Y-71402381D01*
X82559524Y-71450000D01*
X82607143Y-71497619D01*
X83559524Y-72402381D02*
X82988095Y-72402381D01*
X83273809Y-72402381D02*
X83273809Y-71402381D01*
X83178571Y-71545238D01*
X83083333Y-71640476D01*
X82988095Y-71688095D01*
X84416667Y-71735714D02*
X84416667Y-72402381D01*
X84178571Y-71354762D02*
X83940476Y-72069048D01*
X84559524Y-72069048D01*
X93157143Y-72157143D02*
X93109524Y-72204762D01*
X92966667Y-72252381D01*
X92871429Y-72252381D01*
X92728571Y-72204762D01*
X92633333Y-72109524D01*
X92585714Y-72014286D01*
X92538095Y-71823810D01*
X92538095Y-71680952D01*
X92585714Y-71490476D01*
X92633333Y-71395238D01*
X92728571Y-71300000D01*
X92871429Y-71252381D01*
X92966667Y-71252381D01*
X93109524Y-71300000D01*
X93157143Y-71347619D01*
X93538095Y-71347619D02*
X93585714Y-71300000D01*
X93680952Y-71252381D01*
X93919048Y-71252381D01*
X94014286Y-71300000D01*
X94061905Y-71347619D01*
X94109524Y-71442857D01*
X94109524Y-71538095D01*
X94061905Y-71680952D01*
X93490476Y-72252381D01*
X94109524Y-72252381D01*
X95061905Y-72252381D02*
X94490476Y-72252381D01*
X94776190Y-72252381D02*
X94776190Y-71252381D01*
X94680952Y-71395238D01*
X94585714Y-71490476D01*
X94490476Y-71538095D01*
X71357143Y-59857143D02*
X71309524Y-59904762D01*
X71166667Y-59952381D01*
X71071429Y-59952381D01*
X70928571Y-59904762D01*
X70833333Y-59809524D01*
X70785714Y-59714286D01*
X70738095Y-59523810D01*
X70738095Y-59380952D01*
X70785714Y-59190476D01*
X70833333Y-59095238D01*
X70928571Y-59000000D01*
X71071429Y-58952381D01*
X71166667Y-58952381D01*
X71309524Y-59000000D01*
X71357143Y-59047619D01*
X72214286Y-59285714D02*
X72214286Y-59952381D01*
X71976190Y-58904762D02*
X71738095Y-59619048D01*
X72357143Y-59619048D01*
X72642857Y-58952381D02*
X73309524Y-58952381D01*
X72880952Y-59952381D01*
X64852381Y-59261905D02*
X65661905Y-59261905D01*
X65757143Y-59214286D01*
X65804762Y-59166667D01*
X65852381Y-59071429D01*
X65852381Y-58880952D01*
X65804762Y-58785714D01*
X65757143Y-58738095D01*
X65661905Y-58690476D01*
X64852381Y-58690476D01*
X65852381Y-57690476D02*
X65852381Y-58261905D01*
X65852381Y-57976191D02*
X64852381Y-57976191D01*
X64995238Y-58071429D01*
X65090476Y-58166667D01*
X65138095Y-58261905D01*
X51052381Y-54361905D02*
X51861905Y-54361905D01*
X51957143Y-54314286D01*
X52004762Y-54266667D01*
X52052381Y-54171429D01*
X52052381Y-53980952D01*
X52004762Y-53885714D01*
X51957143Y-53838095D01*
X51861905Y-53790476D01*
X51052381Y-53790476D01*
X51385714Y-52885714D02*
X52052381Y-52885714D01*
X51004762Y-53123810D02*
X51719048Y-53361905D01*
X51719048Y-52742857D01*
X74052381Y-25538095D02*
X74861905Y-25538095D01*
X74957143Y-25490476D01*
X75004762Y-25442857D01*
X75052381Y-25347619D01*
X75052381Y-25157142D01*
X75004762Y-25061904D01*
X74957143Y-25014285D01*
X74861905Y-24966666D01*
X74052381Y-24966666D01*
X75052381Y-23966666D02*
X75052381Y-24538095D01*
X75052381Y-24252381D02*
X74052381Y-24252381D01*
X74195238Y-24347619D01*
X74290476Y-24442857D01*
X74338095Y-24538095D01*
X74480952Y-23395238D02*
X74433333Y-23490476D01*
X74385714Y-23538095D01*
X74290476Y-23585714D01*
X74242857Y-23585714D01*
X74147619Y-23538095D01*
X74100000Y-23490476D01*
X74052381Y-23395238D01*
X74052381Y-23204761D01*
X74100000Y-23109523D01*
X74147619Y-23061904D01*
X74242857Y-23014285D01*
X74290476Y-23014285D01*
X74385714Y-23061904D01*
X74433333Y-23109523D01*
X74480952Y-23204761D01*
X74480952Y-23395238D01*
X74528571Y-23490476D01*
X74576190Y-23538095D01*
X74671429Y-23585714D01*
X74861905Y-23585714D01*
X74957143Y-23538095D01*
X75004762Y-23490476D01*
X75052381Y-23395238D01*
X75052381Y-23204761D01*
X75004762Y-23109523D01*
X74957143Y-23061904D01*
X74861905Y-23014285D01*
X74671429Y-23014285D01*
X74576190Y-23061904D01*
X74528571Y-23109523D01*
X74480952Y-23204761D01*
X72952381Y-34838095D02*
X73761905Y-34838095D01*
X73857143Y-34790476D01*
X73904762Y-34742857D01*
X73952381Y-34647619D01*
X73952381Y-34457142D01*
X73904762Y-34361904D01*
X73857143Y-34314285D01*
X73761905Y-34266666D01*
X72952381Y-34266666D01*
X73047619Y-33838095D02*
X73000000Y-33790476D01*
X72952381Y-33695238D01*
X72952381Y-33457142D01*
X73000000Y-33361904D01*
X73047619Y-33314285D01*
X73142857Y-33266666D01*
X73238095Y-33266666D01*
X73380952Y-33314285D01*
X73952381Y-33885714D01*
X73952381Y-33266666D01*
X72952381Y-32933333D02*
X72952381Y-32314285D01*
X73333333Y-32647619D01*
X73333333Y-32504761D01*
X73380952Y-32409523D01*
X73428571Y-32361904D01*
X73523810Y-32314285D01*
X73761905Y-32314285D01*
X73857143Y-32361904D01*
X73904762Y-32409523D01*
X73952381Y-32504761D01*
X73952381Y-32790476D01*
X73904762Y-32885714D01*
X73857143Y-32933333D01*
X74150000Y-50850000D02*
X74116666Y-50883333D01*
X74016666Y-50916667D01*
X73950000Y-50916667D01*
X73850000Y-50883333D01*
X73783333Y-50816667D01*
X73750000Y-50750000D01*
X73716666Y-50616667D01*
X73716666Y-50516667D01*
X73750000Y-50383333D01*
X73783333Y-50316667D01*
X73850000Y-50250000D01*
X73950000Y-50216667D01*
X74016666Y-50216667D01*
X74116666Y-50250000D01*
X74150000Y-50283333D01*
X74816666Y-50916667D02*
X74416666Y-50916667D01*
X74616666Y-50916667D02*
X74616666Y-50216667D01*
X74550000Y-50316667D01*
X74483333Y-50383333D01*
X74416666Y-50416667D01*
X75416667Y-50216667D02*
X75283333Y-50216667D01*
X75216667Y-50250000D01*
X75183333Y-50283333D01*
X75116667Y-50383333D01*
X75083333Y-50516667D01*
X75083333Y-50783333D01*
X75116667Y-50850000D01*
X75150000Y-50883333D01*
X75216667Y-50916667D01*
X75350000Y-50916667D01*
X75416667Y-50883333D01*
X75450000Y-50850000D01*
X75483333Y-50783333D01*
X75483333Y-50616667D01*
X75450000Y-50550000D01*
X75416667Y-50516667D01*
X75350000Y-50483333D01*
X75216667Y-50483333D01*
X75150000Y-50516667D01*
X75116667Y-50550000D01*
X75083333Y-50616667D01*
X109850000Y-54850000D02*
X109816666Y-54883333D01*
X109716666Y-54916667D01*
X109650000Y-54916667D01*
X109550000Y-54883333D01*
X109483333Y-54816667D01*
X109450000Y-54750000D01*
X109416666Y-54616667D01*
X109416666Y-54516667D01*
X109450000Y-54383333D01*
X109483333Y-54316667D01*
X109550000Y-54250000D01*
X109650000Y-54216667D01*
X109716666Y-54216667D01*
X109816666Y-54250000D01*
X109850000Y-54283333D01*
X110116666Y-54283333D02*
X110150000Y-54250000D01*
X110216666Y-54216667D01*
X110383333Y-54216667D01*
X110450000Y-54250000D01*
X110483333Y-54283333D01*
X110516666Y-54350000D01*
X110516666Y-54416667D01*
X110483333Y-54516667D01*
X110083333Y-54916667D01*
X110516666Y-54916667D01*
X110750000Y-54216667D02*
X111183333Y-54216667D01*
X110950000Y-54483333D01*
X111050000Y-54483333D01*
X111116667Y-54516667D01*
X111150000Y-54550000D01*
X111183333Y-54616667D01*
X111183333Y-54783333D01*
X111150000Y-54850000D01*
X111116667Y-54883333D01*
X111050000Y-54916667D01*
X110850000Y-54916667D01*
X110783333Y-54883333D01*
X110750000Y-54850000D01*
X116533333Y-21016667D02*
X116200000Y-21016667D01*
X116200000Y-20316667D01*
X116700000Y-20316667D02*
X117133333Y-20316667D01*
X116900000Y-20583333D01*
X117000000Y-20583333D01*
X117066667Y-20616667D01*
X117100000Y-20650000D01*
X117133333Y-20716667D01*
X117133333Y-20883333D01*
X117100000Y-20950000D01*
X117066667Y-20983333D01*
X117000000Y-21016667D01*
X116800000Y-21016667D01*
X116733333Y-20983333D01*
X116700000Y-20950000D01*
X109816667Y-20366667D02*
X109816667Y-20700000D01*
X109116667Y-20700000D01*
X109350000Y-19833333D02*
X109816667Y-19833333D01*
X109083333Y-20000000D02*
X109583333Y-20166667D01*
X109583333Y-19733333D01*
X120521429Y-42278572D02*
X119921429Y-42278572D01*
X119921429Y-42050000D01*
X119950000Y-41992858D01*
X119978571Y-41964286D01*
X120035714Y-41935715D01*
X120121429Y-41935715D01*
X120178571Y-41964286D01*
X120207143Y-41992858D01*
X120235714Y-42050000D01*
X120235714Y-42278572D01*
X120521429Y-41364286D02*
X120521429Y-41707143D01*
X120521429Y-41535715D02*
X119921429Y-41535715D01*
X120007143Y-41592858D01*
X120064286Y-41650000D01*
X120092857Y-41707143D01*
X119921429Y-40850000D02*
X119921429Y-40964286D01*
X119950000Y-41021429D01*
X119978571Y-41050000D01*
X120064286Y-41107143D01*
X120178571Y-41135714D01*
X120407143Y-41135714D01*
X120464286Y-41107143D01*
X120492857Y-41078571D01*
X120521429Y-41021429D01*
X120521429Y-40907143D01*
X120492857Y-40850000D01*
X120464286Y-40821429D01*
X120407143Y-40792857D01*
X120264286Y-40792857D01*
X120207143Y-40821429D01*
X120178571Y-40850000D01*
X120150000Y-40907143D01*
X120150000Y-41021429D01*
X120178571Y-41078571D01*
X120207143Y-41107143D01*
X120264286Y-41135714D01*
X118185714Y-18602381D02*
X118185714Y-17602381D01*
X118566667Y-17602381D01*
X118661905Y-17650000D01*
X118709524Y-17697619D01*
X118757143Y-17792857D01*
X118757143Y-17935714D01*
X118709524Y-18030952D01*
X118661905Y-18078571D01*
X118566667Y-18126190D01*
X118185714Y-18126190D01*
X119138095Y-17697619D02*
X119185714Y-17650000D01*
X119280952Y-17602381D01*
X119519048Y-17602381D01*
X119614286Y-17650000D01*
X119661905Y-17697619D01*
X119709524Y-17792857D01*
X119709524Y-17888095D01*
X119661905Y-18030952D01*
X119090476Y-18602381D01*
X119709524Y-18602381D01*
X120090476Y-17697619D02*
X120138095Y-17650000D01*
X120233333Y-17602381D01*
X120471429Y-17602381D01*
X120566667Y-17650000D01*
X120614286Y-17697619D01*
X120661905Y-17792857D01*
X120661905Y-17888095D01*
X120614286Y-18030952D01*
X120042857Y-18602381D01*
X120661905Y-18602381D01*
X117985714Y-72302381D02*
X117985714Y-71302381D01*
X118366667Y-71302381D01*
X118461905Y-71350000D01*
X118509524Y-71397619D01*
X118557143Y-71492857D01*
X118557143Y-71635714D01*
X118509524Y-71730952D01*
X118461905Y-71778571D01*
X118366667Y-71826190D01*
X117985714Y-71826190D01*
X118938095Y-71397619D02*
X118985714Y-71350000D01*
X119080952Y-71302381D01*
X119319048Y-71302381D01*
X119414286Y-71350000D01*
X119461905Y-71397619D01*
X119509524Y-71492857D01*
X119509524Y-71588095D01*
X119461905Y-71730952D01*
X118890476Y-72302381D01*
X119509524Y-72302381D01*
X119842857Y-71302381D02*
X120461905Y-71302381D01*
X120128571Y-71683333D01*
X120271429Y-71683333D01*
X120366667Y-71730952D01*
X120414286Y-71778571D01*
X120461905Y-71873810D01*
X120461905Y-72111905D01*
X120414286Y-72207143D01*
X120366667Y-72254762D01*
X120271429Y-72302381D01*
X119985714Y-72302381D01*
X119890476Y-72254762D01*
X119842857Y-72207143D01*
X68071429Y-27328572D02*
X67471429Y-27328572D01*
X67471429Y-27100000D01*
X67500000Y-27042858D01*
X67528571Y-27014286D01*
X67585714Y-26985715D01*
X67671429Y-26985715D01*
X67728571Y-27014286D01*
X67757143Y-27042858D01*
X67785714Y-27100000D01*
X67785714Y-27328572D01*
X67528571Y-26757143D02*
X67500000Y-26728572D01*
X67471429Y-26671429D01*
X67471429Y-26528572D01*
X67500000Y-26471429D01*
X67528571Y-26442858D01*
X67585714Y-26414286D01*
X67642857Y-26414286D01*
X67728571Y-26442858D01*
X68071429Y-26785715D01*
X68071429Y-26414286D01*
X67671429Y-25900000D02*
X68071429Y-25900000D01*
X67442857Y-26042857D02*
X67871429Y-26185714D01*
X67871429Y-25814286D01*
X64792857Y-46778571D02*
X64735714Y-46750000D01*
X64678571Y-46692857D01*
X64592857Y-46607143D01*
X64535714Y-46578571D01*
X64478571Y-46578571D01*
X64507143Y-46721429D02*
X64450000Y-46692857D01*
X64392857Y-46635714D01*
X64364286Y-46521429D01*
X64364286Y-46321429D01*
X64392857Y-46207143D01*
X64450000Y-46150000D01*
X64507143Y-46121429D01*
X64621429Y-46121429D01*
X64678571Y-46150000D01*
X64735714Y-46207143D01*
X64764286Y-46321429D01*
X64764286Y-46521429D01*
X64735714Y-46635714D01*
X64678571Y-46692857D01*
X64621429Y-46721429D01*
X64507143Y-46721429D01*
X64964285Y-46121429D02*
X65335714Y-46121429D01*
X65135714Y-46350000D01*
X65221428Y-46350000D01*
X65278571Y-46378571D01*
X65307142Y-46407143D01*
X65335714Y-46464286D01*
X65335714Y-46607143D01*
X65307142Y-46664286D01*
X65278571Y-46692857D01*
X65221428Y-46721429D01*
X65050000Y-46721429D01*
X64992857Y-46692857D01*
X64964285Y-46664286D01*
X49328571Y-59457143D02*
X49300000Y-59514286D01*
X49242857Y-59571429D01*
X49157143Y-59657143D01*
X49128571Y-59714286D01*
X49128571Y-59771429D01*
X49271429Y-59742857D02*
X49242857Y-59800000D01*
X49185714Y-59857143D01*
X49071429Y-59885714D01*
X48871429Y-59885714D01*
X48757143Y-59857143D01*
X48700000Y-59800000D01*
X48671429Y-59742857D01*
X48671429Y-59628571D01*
X48700000Y-59571429D01*
X48757143Y-59514286D01*
X48871429Y-59485714D01*
X49071429Y-59485714D01*
X49185714Y-59514286D01*
X49242857Y-59571429D01*
X49271429Y-59628571D01*
X49271429Y-59742857D01*
X48871429Y-58971429D02*
X49271429Y-58971429D01*
X48642857Y-59114286D02*
X49071429Y-59257143D01*
X49071429Y-58885715D01*
X56242857Y-46628571D02*
X56185714Y-46600000D01*
X56128571Y-46542857D01*
X56042857Y-46457143D01*
X55985714Y-46428571D01*
X55928571Y-46428571D01*
X55957143Y-46571429D02*
X55900000Y-46542857D01*
X55842857Y-46485714D01*
X55814286Y-46371429D01*
X55814286Y-46171429D01*
X55842857Y-46057143D01*
X55900000Y-46000000D01*
X55957143Y-45971429D01*
X56071429Y-45971429D01*
X56128571Y-46000000D01*
X56185714Y-46057143D01*
X56214286Y-46171429D01*
X56214286Y-46371429D01*
X56185714Y-46485714D01*
X56128571Y-46542857D01*
X56071429Y-46571429D01*
X55957143Y-46571429D01*
X56757142Y-45971429D02*
X56471428Y-45971429D01*
X56442857Y-46257143D01*
X56471428Y-46228571D01*
X56528571Y-46200000D01*
X56671428Y-46200000D01*
X56728571Y-46228571D01*
X56757142Y-46257143D01*
X56785714Y-46314286D01*
X56785714Y-46457143D01*
X56757142Y-46514286D01*
X56728571Y-46542857D01*
X56671428Y-46571429D01*
X56528571Y-46571429D01*
X56471428Y-46542857D01*
X56442857Y-46514286D01*
X72442857Y-51028571D02*
X72385714Y-51000000D01*
X72328571Y-50942857D01*
X72242857Y-50857143D01*
X72185714Y-50828571D01*
X72128571Y-50828571D01*
X72157143Y-50971429D02*
X72100000Y-50942857D01*
X72042857Y-50885714D01*
X72014286Y-50771429D01*
X72014286Y-50571429D01*
X72042857Y-50457143D01*
X72100000Y-50400000D01*
X72157143Y-50371429D01*
X72271429Y-50371429D01*
X72328571Y-50400000D01*
X72385714Y-50457143D01*
X72414286Y-50571429D01*
X72414286Y-50771429D01*
X72385714Y-50885714D01*
X72328571Y-50942857D01*
X72271429Y-50971429D01*
X72157143Y-50971429D01*
X72700000Y-50971429D02*
X72814285Y-50971429D01*
X72871428Y-50942857D01*
X72900000Y-50914286D01*
X72957142Y-50828571D01*
X72985714Y-50714286D01*
X72985714Y-50485714D01*
X72957142Y-50428571D01*
X72928571Y-50400000D01*
X72871428Y-50371429D01*
X72757142Y-50371429D01*
X72700000Y-50400000D01*
X72671428Y-50428571D01*
X72642857Y-50485714D01*
X72642857Y-50628571D01*
X72671428Y-50685714D01*
X72700000Y-50714286D01*
X72757142Y-50742857D01*
X72871428Y-50742857D01*
X72928571Y-50714286D01*
X72957142Y-50685714D01*
X72985714Y-50628571D01*
X99457143Y-28728571D02*
X99400000Y-28700000D01*
X99342857Y-28642857D01*
X99257143Y-28557143D01*
X99200000Y-28528571D01*
X99142857Y-28528571D01*
X99171429Y-28671429D02*
X99114286Y-28642857D01*
X99057143Y-28585714D01*
X99028572Y-28471429D01*
X99028572Y-28271429D01*
X99057143Y-28157143D01*
X99114286Y-28100000D01*
X99171429Y-28071429D01*
X99285715Y-28071429D01*
X99342857Y-28100000D01*
X99400000Y-28157143D01*
X99428572Y-28271429D01*
X99428572Y-28471429D01*
X99400000Y-28585714D01*
X99342857Y-28642857D01*
X99285715Y-28671429D01*
X99171429Y-28671429D01*
X100000000Y-28671429D02*
X99657143Y-28671429D01*
X99828571Y-28671429D02*
X99828571Y-28071429D01*
X99771428Y-28157143D01*
X99714286Y-28214286D01*
X99657143Y-28242857D01*
X100542857Y-28071429D02*
X100257143Y-28071429D01*
X100228572Y-28357143D01*
X100257143Y-28328571D01*
X100314286Y-28300000D01*
X100457143Y-28300000D01*
X100514286Y-28328571D01*
X100542857Y-28357143D01*
X100571429Y-28414286D01*
X100571429Y-28557143D01*
X100542857Y-28614286D01*
X100514286Y-28642857D01*
X100457143Y-28671429D01*
X100314286Y-28671429D01*
X100257143Y-28642857D01*
X100228572Y-28614286D01*
X116742857Y-32900000D02*
X116771429Y-32814286D01*
X116771429Y-32671429D01*
X116742857Y-32614286D01*
X116714286Y-32585715D01*
X116657143Y-32557143D01*
X116600000Y-32557143D01*
X116542857Y-32585715D01*
X116514286Y-32614286D01*
X116485714Y-32671429D01*
X116457143Y-32785715D01*
X116428571Y-32842857D01*
X116400000Y-32871429D01*
X116342857Y-32900000D01*
X116285714Y-32900000D01*
X116228571Y-32871429D01*
X116200000Y-32842857D01*
X116171429Y-32785715D01*
X116171429Y-32642857D01*
X116200000Y-32557143D01*
X116171429Y-32357143D02*
X116771429Y-32214286D01*
X116342857Y-32100000D01*
X116771429Y-31985714D01*
X116171429Y-31842857D01*
X116771429Y-31300000D02*
X116771429Y-31642857D01*
X116771429Y-31471429D02*
X116171429Y-31471429D01*
X116257143Y-31528572D01*
X116314286Y-31585714D01*
X116342857Y-31642857D01*
X107952381Y-34738095D02*
X108761905Y-34738095D01*
X108857143Y-34690476D01*
X108904762Y-34642857D01*
X108952381Y-34547619D01*
X108952381Y-34357142D01*
X108904762Y-34261904D01*
X108857143Y-34214285D01*
X108761905Y-34166666D01*
X107952381Y-34166666D01*
X108047619Y-33738095D02*
X108000000Y-33690476D01*
X107952381Y-33595238D01*
X107952381Y-33357142D01*
X108000000Y-33261904D01*
X108047619Y-33214285D01*
X108142857Y-33166666D01*
X108238095Y-33166666D01*
X108380952Y-33214285D01*
X108952381Y-33785714D01*
X108952381Y-33166666D01*
X108047619Y-32785714D02*
X108000000Y-32738095D01*
X107952381Y-32642857D01*
X107952381Y-32404761D01*
X108000000Y-32309523D01*
X108047619Y-32261904D01*
X108142857Y-32214285D01*
X108238095Y-32214285D01*
X108380952Y-32261904D01*
X108952381Y-32833333D01*
X108952381Y-32214285D01*
X61357143Y-53971429D02*
X61357143Y-53371429D01*
X61500000Y-53371429D01*
X61585715Y-53400000D01*
X61642857Y-53457143D01*
X61671429Y-53514286D01*
X61700000Y-53628571D01*
X61700000Y-53714286D01*
X61671429Y-53828571D01*
X61642857Y-53885714D01*
X61585715Y-53942857D01*
X61500000Y-53971429D01*
X61357143Y-53971429D01*
X62271429Y-53971429D02*
X61928572Y-53971429D01*
X62100000Y-53971429D02*
X62100000Y-53371429D01*
X62042857Y-53457143D01*
X61985715Y-53514286D01*
X61928572Y-53542857D01*
X54257143Y-50171429D02*
X54257143Y-49571429D01*
X54400000Y-49571429D01*
X54485715Y-49600000D01*
X54542857Y-49657143D01*
X54571429Y-49714286D01*
X54600000Y-49828571D01*
X54600000Y-49914286D01*
X54571429Y-50028571D01*
X54542857Y-50085714D01*
X54485715Y-50142857D01*
X54400000Y-50171429D01*
X54257143Y-50171429D01*
X55114286Y-49771429D02*
X55114286Y-50171429D01*
X54971429Y-49542857D02*
X54828572Y-49971429D01*
X55200000Y-49971429D01*
X59457143Y-46171429D02*
X59457143Y-45571429D01*
X59600000Y-45571429D01*
X59685715Y-45600000D01*
X59742857Y-45657143D01*
X59771429Y-45714286D01*
X59800000Y-45828571D01*
X59800000Y-45914286D01*
X59771429Y-46028571D01*
X59742857Y-46085714D01*
X59685715Y-46142857D01*
X59600000Y-46171429D01*
X59457143Y-46171429D01*
X60342857Y-45571429D02*
X60057143Y-45571429D01*
X60028572Y-45857143D01*
X60057143Y-45828571D01*
X60114286Y-45800000D01*
X60257143Y-45800000D01*
X60314286Y-45828571D01*
X60342857Y-45857143D01*
X60371429Y-45914286D01*
X60371429Y-46057143D01*
X60342857Y-46114286D01*
X60314286Y-46142857D01*
X60257143Y-46171429D01*
X60114286Y-46171429D01*
X60057143Y-46142857D01*
X60028572Y-46114286D01*
X73014285Y-27971429D02*
X72814285Y-27685714D01*
X72671428Y-27971429D02*
X72671428Y-27371429D01*
X72900000Y-27371429D01*
X72957142Y-27400000D01*
X72985714Y-27428571D01*
X73014285Y-27485714D01*
X73014285Y-27571429D01*
X72985714Y-27628571D01*
X72957142Y-27657143D01*
X72900000Y-27685714D01*
X72671428Y-27685714D01*
X73214285Y-27371429D02*
X73614285Y-27371429D01*
X73357142Y-27971429D01*
X74157143Y-27971429D02*
X73814286Y-27971429D01*
X73985714Y-27971429D02*
X73985714Y-27371429D01*
X73928571Y-27457143D01*
X73871429Y-27514286D01*
X73814286Y-27542857D01*
X71214285Y-27971429D02*
X71014285Y-27685714D01*
X70871428Y-27971429D02*
X70871428Y-27371429D01*
X71100000Y-27371429D01*
X71157142Y-27400000D01*
X71185714Y-27428571D01*
X71214285Y-27485714D01*
X71214285Y-27571429D01*
X71185714Y-27628571D01*
X71157142Y-27657143D01*
X71100000Y-27685714D01*
X70871428Y-27685714D01*
X71414285Y-27371429D02*
X71814285Y-27371429D01*
X71557142Y-27971429D01*
X72157143Y-27371429D02*
X72214286Y-27371429D01*
X72271429Y-27400000D01*
X72300000Y-27428571D01*
X72328571Y-27485714D01*
X72357143Y-27600000D01*
X72357143Y-27742857D01*
X72328571Y-27857143D01*
X72300000Y-27914286D01*
X72271429Y-27942857D01*
X72214286Y-27971429D01*
X72157143Y-27971429D01*
X72100000Y-27942857D01*
X72071429Y-27914286D01*
X72042857Y-27857143D01*
X72014286Y-27742857D01*
X72014286Y-27600000D01*
X72042857Y-27485714D01*
X72071429Y-27428571D01*
X72100000Y-27400000D01*
X72157143Y-27371429D01*
X74814285Y-27971429D02*
X74614285Y-27685714D01*
X74471428Y-27971429D02*
X74471428Y-27371429D01*
X74700000Y-27371429D01*
X74757142Y-27400000D01*
X74785714Y-27428571D01*
X74814285Y-27485714D01*
X74814285Y-27571429D01*
X74785714Y-27628571D01*
X74757142Y-27657143D01*
X74700000Y-27685714D01*
X74471428Y-27685714D01*
X75328571Y-27371429D02*
X75214285Y-27371429D01*
X75157142Y-27400000D01*
X75128571Y-27428571D01*
X75071428Y-27514286D01*
X75042857Y-27628571D01*
X75042857Y-27857143D01*
X75071428Y-27914286D01*
X75100000Y-27942857D01*
X75157142Y-27971429D01*
X75271428Y-27971429D01*
X75328571Y-27942857D01*
X75357142Y-27914286D01*
X75385714Y-27857143D01*
X75385714Y-27714286D01*
X75357142Y-27657143D01*
X75328571Y-27628571D01*
X75271428Y-27600000D01*
X75157142Y-27600000D01*
X75100000Y-27628571D01*
X75071428Y-27657143D01*
X75042857Y-27714286D01*
X75671429Y-27971429D02*
X75785714Y-27971429D01*
X75842857Y-27942857D01*
X75871429Y-27914286D01*
X75928571Y-27828571D01*
X75957143Y-27714286D01*
X75957143Y-27485714D01*
X75928571Y-27428571D01*
X75900000Y-27400000D01*
X75842857Y-27371429D01*
X75728571Y-27371429D01*
X75671429Y-27400000D01*
X75642857Y-27428571D01*
X75614286Y-27485714D01*
X75614286Y-27628571D01*
X75642857Y-27685714D01*
X75671429Y-27714286D01*
X75728571Y-27742857D01*
X75842857Y-27742857D01*
X75900000Y-27714286D01*
X75928571Y-27685714D01*
X75957143Y-27628571D01*
X94171429Y-26685715D02*
X93885714Y-26885715D01*
X94171429Y-27028572D02*
X93571429Y-27028572D01*
X93571429Y-26800000D01*
X93600000Y-26742858D01*
X93628571Y-26714286D01*
X93685714Y-26685715D01*
X93771429Y-26685715D01*
X93828571Y-26714286D01*
X93857143Y-26742858D01*
X93885714Y-26800000D01*
X93885714Y-27028572D01*
X93571429Y-26171429D02*
X93571429Y-26285715D01*
X93600000Y-26342858D01*
X93628571Y-26371429D01*
X93714286Y-26428572D01*
X93828571Y-26457143D01*
X94057143Y-26457143D01*
X94114286Y-26428572D01*
X94142857Y-26400000D01*
X94171429Y-26342858D01*
X94171429Y-26228572D01*
X94142857Y-26171429D01*
X94114286Y-26142858D01*
X94057143Y-26114286D01*
X93914286Y-26114286D01*
X93857143Y-26142858D01*
X93828571Y-26171429D01*
X93800000Y-26228572D01*
X93800000Y-26342858D01*
X93828571Y-26400000D01*
X93857143Y-26428572D01*
X93914286Y-26457143D01*
X93571429Y-25914286D02*
X93571429Y-25514286D01*
X94171429Y-25771429D01*
X72414285Y-25771429D02*
X72214285Y-25485714D01*
X72071428Y-25771429D02*
X72071428Y-25171429D01*
X72300000Y-25171429D01*
X72357142Y-25200000D01*
X72385714Y-25228571D01*
X72414285Y-25285714D01*
X72414285Y-25371429D01*
X72385714Y-25428571D01*
X72357142Y-25457143D01*
X72300000Y-25485714D01*
X72071428Y-25485714D01*
X72957142Y-25171429D02*
X72671428Y-25171429D01*
X72642857Y-25457143D01*
X72671428Y-25428571D01*
X72728571Y-25400000D01*
X72871428Y-25400000D01*
X72928571Y-25428571D01*
X72957142Y-25457143D01*
X72985714Y-25514286D01*
X72985714Y-25657143D01*
X72957142Y-25714286D01*
X72928571Y-25742857D01*
X72871428Y-25771429D01*
X72728571Y-25771429D01*
X72671428Y-25742857D01*
X72642857Y-25714286D01*
X73185714Y-25171429D02*
X73585714Y-25171429D01*
X73328571Y-25771429D01*
X112571429Y-40885715D02*
X112285714Y-41085715D01*
X112571429Y-41228572D02*
X111971429Y-41228572D01*
X111971429Y-41000000D01*
X112000000Y-40942858D01*
X112028571Y-40914286D01*
X112085714Y-40885715D01*
X112171429Y-40885715D01*
X112228571Y-40914286D01*
X112257143Y-40942858D01*
X112285714Y-41000000D01*
X112285714Y-41228572D01*
X111971429Y-40342858D02*
X111971429Y-40628572D01*
X112257143Y-40657143D01*
X112228571Y-40628572D01*
X112200000Y-40571429D01*
X112200000Y-40428572D01*
X112228571Y-40371429D01*
X112257143Y-40342858D01*
X112314286Y-40314286D01*
X112457143Y-40314286D01*
X112514286Y-40342858D01*
X112542857Y-40371429D01*
X112571429Y-40428572D01*
X112571429Y-40571429D01*
X112542857Y-40628572D01*
X112514286Y-40657143D01*
X112171429Y-39800000D02*
X112571429Y-39800000D01*
X111942857Y-39942857D02*
X112371429Y-40085714D01*
X112371429Y-39714286D01*
X112571429Y-38885715D02*
X112285714Y-39085715D01*
X112571429Y-39228572D02*
X111971429Y-39228572D01*
X111971429Y-39000000D01*
X112000000Y-38942858D01*
X112028571Y-38914286D01*
X112085714Y-38885715D01*
X112171429Y-38885715D01*
X112228571Y-38914286D01*
X112257143Y-38942858D01*
X112285714Y-39000000D01*
X112285714Y-39228572D01*
X111971429Y-38342858D02*
X111971429Y-38628572D01*
X112257143Y-38657143D01*
X112228571Y-38628572D01*
X112200000Y-38571429D01*
X112200000Y-38428572D01*
X112228571Y-38371429D01*
X112257143Y-38342858D01*
X112314286Y-38314286D01*
X112457143Y-38314286D01*
X112514286Y-38342858D01*
X112542857Y-38371429D01*
X112571429Y-38428572D01*
X112571429Y-38571429D01*
X112542857Y-38628572D01*
X112514286Y-38657143D01*
X111971429Y-38114286D02*
X111971429Y-37742857D01*
X112200000Y-37942857D01*
X112200000Y-37857143D01*
X112228571Y-37800000D01*
X112257143Y-37771429D01*
X112314286Y-37742857D01*
X112457143Y-37742857D01*
X112514286Y-37771429D01*
X112542857Y-37800000D01*
X112571429Y-37857143D01*
X112571429Y-38028571D01*
X112542857Y-38085714D01*
X112514286Y-38114286D01*
X123171429Y-44185715D02*
X122885714Y-44385715D01*
X123171429Y-44528572D02*
X122571429Y-44528572D01*
X122571429Y-44300000D01*
X122600000Y-44242858D01*
X122628571Y-44214286D01*
X122685714Y-44185715D01*
X122771429Y-44185715D01*
X122828571Y-44214286D01*
X122857143Y-44242858D01*
X122885714Y-44300000D01*
X122885714Y-44528572D01*
X122571429Y-43985715D02*
X122571429Y-43614286D01*
X122800000Y-43814286D01*
X122800000Y-43728572D01*
X122828571Y-43671429D01*
X122857143Y-43642858D01*
X122914286Y-43614286D01*
X123057143Y-43614286D01*
X123114286Y-43642858D01*
X123142857Y-43671429D01*
X123171429Y-43728572D01*
X123171429Y-43900000D01*
X123142857Y-43957143D01*
X123114286Y-43985715D01*
X122571429Y-43100000D02*
X122571429Y-43214286D01*
X122600000Y-43271429D01*
X122628571Y-43300000D01*
X122714286Y-43357143D01*
X122828571Y-43385714D01*
X123057143Y-43385714D01*
X123114286Y-43357143D01*
X123142857Y-43328571D01*
X123171429Y-43271429D01*
X123171429Y-43157143D01*
X123142857Y-43100000D01*
X123114286Y-43071429D01*
X123057143Y-43042857D01*
X122914286Y-43042857D01*
X122857143Y-43071429D01*
X122828571Y-43100000D01*
X122800000Y-43157143D01*
X122800000Y-43271429D01*
X122828571Y-43328571D01*
X122857143Y-43357143D01*
X122914286Y-43385714D01*
X69414285Y-54271429D02*
X69214285Y-53985714D01*
X69071428Y-54271429D02*
X69071428Y-53671429D01*
X69300000Y-53671429D01*
X69357142Y-53700000D01*
X69385714Y-53728571D01*
X69414285Y-53785714D01*
X69414285Y-53871429D01*
X69385714Y-53928571D01*
X69357142Y-53957143D01*
X69300000Y-53985714D01*
X69071428Y-53985714D01*
X69614285Y-53671429D02*
X69985714Y-53671429D01*
X69785714Y-53900000D01*
X69871428Y-53900000D01*
X69928571Y-53928571D01*
X69957142Y-53957143D01*
X69985714Y-54014286D01*
X69985714Y-54157143D01*
X69957142Y-54214286D01*
X69928571Y-54242857D01*
X69871428Y-54271429D01*
X69700000Y-54271429D01*
X69642857Y-54242857D01*
X69614285Y-54214286D01*
X70528571Y-53671429D02*
X70242857Y-53671429D01*
X70214286Y-53957143D01*
X70242857Y-53928571D01*
X70300000Y-53900000D01*
X70442857Y-53900000D01*
X70500000Y-53928571D01*
X70528571Y-53957143D01*
X70557143Y-54014286D01*
X70557143Y-54157143D01*
X70528571Y-54214286D01*
X70500000Y-54242857D01*
X70442857Y-54271429D01*
X70300000Y-54271429D01*
X70242857Y-54242857D01*
X70214286Y-54214286D01*
X70721429Y-59185715D02*
X70435714Y-59385715D01*
X70721429Y-59528572D02*
X70121429Y-59528572D01*
X70121429Y-59300000D01*
X70150000Y-59242858D01*
X70178571Y-59214286D01*
X70235714Y-59185715D01*
X70321429Y-59185715D01*
X70378571Y-59214286D01*
X70407143Y-59242858D01*
X70435714Y-59300000D01*
X70435714Y-59528572D01*
X70121429Y-58985715D02*
X70121429Y-58614286D01*
X70350000Y-58814286D01*
X70350000Y-58728572D01*
X70378571Y-58671429D01*
X70407143Y-58642858D01*
X70464286Y-58614286D01*
X70607143Y-58614286D01*
X70664286Y-58642858D01*
X70692857Y-58671429D01*
X70721429Y-58728572D01*
X70721429Y-58900000D01*
X70692857Y-58957143D01*
X70664286Y-58985715D01*
X70178571Y-58385714D02*
X70150000Y-58357143D01*
X70121429Y-58300000D01*
X70121429Y-58157143D01*
X70150000Y-58100000D01*
X70178571Y-58071429D01*
X70235714Y-58042857D01*
X70292857Y-58042857D01*
X70378571Y-58071429D01*
X70721429Y-58414286D01*
X70721429Y-58042857D01*
X55814285Y-50671429D02*
X55614285Y-50385714D01*
X55471428Y-50671429D02*
X55471428Y-50071429D01*
X55700000Y-50071429D01*
X55757142Y-50100000D01*
X55785714Y-50128571D01*
X55814285Y-50185714D01*
X55814285Y-50271429D01*
X55785714Y-50328571D01*
X55757142Y-50357143D01*
X55700000Y-50385714D01*
X55471428Y-50385714D01*
X56042857Y-50128571D02*
X56071428Y-50100000D01*
X56128571Y-50071429D01*
X56271428Y-50071429D01*
X56328571Y-50100000D01*
X56357142Y-50128571D01*
X56385714Y-50185714D01*
X56385714Y-50242857D01*
X56357142Y-50328571D01*
X56014285Y-50671429D01*
X56385714Y-50671429D01*
X56728571Y-50328571D02*
X56671429Y-50300000D01*
X56642857Y-50271429D01*
X56614286Y-50214286D01*
X56614286Y-50185714D01*
X56642857Y-50128571D01*
X56671429Y-50100000D01*
X56728571Y-50071429D01*
X56842857Y-50071429D01*
X56900000Y-50100000D01*
X56928571Y-50128571D01*
X56957143Y-50185714D01*
X56957143Y-50214286D01*
X56928571Y-50271429D01*
X56900000Y-50300000D01*
X56842857Y-50328571D01*
X56728571Y-50328571D01*
X56671429Y-50357143D01*
X56642857Y-50385714D01*
X56614286Y-50442857D01*
X56614286Y-50557143D01*
X56642857Y-50614286D01*
X56671429Y-50642857D01*
X56728571Y-50671429D01*
X56842857Y-50671429D01*
X56900000Y-50642857D01*
X56928571Y-50614286D01*
X56957143Y-50557143D01*
X56957143Y-50442857D01*
X56928571Y-50385714D01*
X56900000Y-50357143D01*
X56842857Y-50328571D01*
X48771429Y-55985715D02*
X48485714Y-56185715D01*
X48771429Y-56328572D02*
X48171429Y-56328572D01*
X48171429Y-56100000D01*
X48200000Y-56042858D01*
X48228571Y-56014286D01*
X48285714Y-55985715D01*
X48371429Y-55985715D01*
X48428571Y-56014286D01*
X48457143Y-56042858D01*
X48485714Y-56100000D01*
X48485714Y-56328572D01*
X48228571Y-55757143D02*
X48200000Y-55728572D01*
X48171429Y-55671429D01*
X48171429Y-55528572D01*
X48200000Y-55471429D01*
X48228571Y-55442858D01*
X48285714Y-55414286D01*
X48342857Y-55414286D01*
X48428571Y-55442858D01*
X48771429Y-55785715D01*
X48771429Y-55414286D01*
X48171429Y-55042857D02*
X48171429Y-54985714D01*
X48200000Y-54928571D01*
X48228571Y-54900000D01*
X48285714Y-54871429D01*
X48400000Y-54842857D01*
X48542857Y-54842857D01*
X48657143Y-54871429D01*
X48714286Y-54900000D01*
X48742857Y-54928571D01*
X48771429Y-54985714D01*
X48771429Y-55042857D01*
X48742857Y-55100000D01*
X48714286Y-55128571D01*
X48657143Y-55157143D01*
X48542857Y-55185714D01*
X48400000Y-55185714D01*
X48285714Y-55157143D01*
X48228571Y-55128571D01*
X48200000Y-55100000D01*
X48171429Y-55042857D01*
X48771429Y-57985715D02*
X48485714Y-58185715D01*
X48771429Y-58328572D02*
X48171429Y-58328572D01*
X48171429Y-58100000D01*
X48200000Y-58042858D01*
X48228571Y-58014286D01*
X48285714Y-57985715D01*
X48371429Y-57985715D01*
X48428571Y-58014286D01*
X48457143Y-58042858D01*
X48485714Y-58100000D01*
X48485714Y-58328572D01*
X48771429Y-57414286D02*
X48771429Y-57757143D01*
X48771429Y-57585715D02*
X48171429Y-57585715D01*
X48257143Y-57642858D01*
X48314286Y-57700000D01*
X48342857Y-57757143D01*
X48771429Y-57128571D02*
X48771429Y-57014286D01*
X48742857Y-56957143D01*
X48714286Y-56928571D01*
X48628571Y-56871429D01*
X48514286Y-56842857D01*
X48285714Y-56842857D01*
X48228571Y-56871429D01*
X48200000Y-56900000D01*
X48171429Y-56957143D01*
X48171429Y-57071429D01*
X48200000Y-57128571D01*
X48228571Y-57157143D01*
X48285714Y-57185714D01*
X48428571Y-57185714D01*
X48485714Y-57157143D01*
X48514286Y-57128571D01*
X48542857Y-57071429D01*
X48542857Y-56957143D01*
X48514286Y-56900000D01*
X48485714Y-56871429D01*
X48428571Y-56842857D01*
X57564285Y-50671429D02*
X57364285Y-50385714D01*
X57221428Y-50671429D02*
X57221428Y-50071429D01*
X57450000Y-50071429D01*
X57507142Y-50100000D01*
X57535714Y-50128571D01*
X57564285Y-50185714D01*
X57564285Y-50271429D01*
X57535714Y-50328571D01*
X57507142Y-50357143D01*
X57450000Y-50385714D01*
X57221428Y-50385714D01*
X58135714Y-50671429D02*
X57792857Y-50671429D01*
X57964285Y-50671429D02*
X57964285Y-50071429D01*
X57907142Y-50157143D01*
X57850000Y-50214286D01*
X57792857Y-50242857D01*
X58478571Y-50328571D02*
X58421429Y-50300000D01*
X58392857Y-50271429D01*
X58364286Y-50214286D01*
X58364286Y-50185714D01*
X58392857Y-50128571D01*
X58421429Y-50100000D01*
X58478571Y-50071429D01*
X58592857Y-50071429D01*
X58650000Y-50100000D01*
X58678571Y-50128571D01*
X58707143Y-50185714D01*
X58707143Y-50214286D01*
X58678571Y-50271429D01*
X58650000Y-50300000D01*
X58592857Y-50328571D01*
X58478571Y-50328571D01*
X58421429Y-50357143D01*
X58392857Y-50385714D01*
X58364286Y-50442857D01*
X58364286Y-50557143D01*
X58392857Y-50614286D01*
X58421429Y-50642857D01*
X58478571Y-50671429D01*
X58592857Y-50671429D01*
X58650000Y-50642857D01*
X58678571Y-50614286D01*
X58707143Y-50557143D01*
X58707143Y-50442857D01*
X58678571Y-50385714D01*
X58650000Y-50357143D01*
X58592857Y-50328571D01*
X65471429Y-60985715D02*
X65185714Y-61185715D01*
X65471429Y-61328572D02*
X64871429Y-61328572D01*
X64871429Y-61100000D01*
X64900000Y-61042858D01*
X64928571Y-61014286D01*
X64985714Y-60985715D01*
X65071429Y-60985715D01*
X65128571Y-61014286D01*
X65157143Y-61042858D01*
X65185714Y-61100000D01*
X65185714Y-61328572D01*
X65471429Y-60414286D02*
X65471429Y-60757143D01*
X65471429Y-60585715D02*
X64871429Y-60585715D01*
X64957143Y-60642858D01*
X65014286Y-60700000D01*
X65042857Y-60757143D01*
X64871429Y-60214286D02*
X64871429Y-59814286D01*
X65471429Y-60071429D01*
X59471429Y-69185715D02*
X59185714Y-69385715D01*
X59471429Y-69528572D02*
X58871429Y-69528572D01*
X58871429Y-69300000D01*
X58900000Y-69242858D01*
X58928571Y-69214286D01*
X58985714Y-69185715D01*
X59071429Y-69185715D01*
X59128571Y-69214286D01*
X59157143Y-69242858D01*
X59185714Y-69300000D01*
X59185714Y-69528572D01*
X59471429Y-68614286D02*
X59471429Y-68957143D01*
X59471429Y-68785715D02*
X58871429Y-68785715D01*
X58957143Y-68842858D01*
X59014286Y-68900000D01*
X59042857Y-68957143D01*
X58871429Y-68100000D02*
X58871429Y-68214286D01*
X58900000Y-68271429D01*
X58928571Y-68300000D01*
X59014286Y-68357143D01*
X59128571Y-68385714D01*
X59357143Y-68385714D01*
X59414286Y-68357143D01*
X59442857Y-68328571D01*
X59471429Y-68271429D01*
X59471429Y-68157143D01*
X59442857Y-68100000D01*
X59414286Y-68071429D01*
X59357143Y-68042857D01*
X59214286Y-68042857D01*
X59157143Y-68071429D01*
X59128571Y-68100000D01*
X59100000Y-68157143D01*
X59100000Y-68271429D01*
X59128571Y-68328571D01*
X59157143Y-68357143D01*
X59214286Y-68385714D01*
X55871429Y-67185715D02*
X55585714Y-67385715D01*
X55871429Y-67528572D02*
X55271429Y-67528572D01*
X55271429Y-67300000D01*
X55300000Y-67242858D01*
X55328571Y-67214286D01*
X55385714Y-67185715D01*
X55471429Y-67185715D01*
X55528571Y-67214286D01*
X55557143Y-67242858D01*
X55585714Y-67300000D01*
X55585714Y-67528572D01*
X55871429Y-66614286D02*
X55871429Y-66957143D01*
X55871429Y-66785715D02*
X55271429Y-66785715D01*
X55357143Y-66842858D01*
X55414286Y-66900000D01*
X55442857Y-66957143D01*
X55271429Y-66071429D02*
X55271429Y-66357143D01*
X55557143Y-66385714D01*
X55528571Y-66357143D01*
X55500000Y-66300000D01*
X55500000Y-66157143D01*
X55528571Y-66100000D01*
X55557143Y-66071429D01*
X55614286Y-66042857D01*
X55757143Y-66042857D01*
X55814286Y-66071429D01*
X55842857Y-66100000D01*
X55871429Y-66157143D01*
X55871429Y-66300000D01*
X55842857Y-66357143D01*
X55814286Y-66385714D01*
X65064285Y-54171429D02*
X64864285Y-53885714D01*
X64721428Y-54171429D02*
X64721428Y-53571429D01*
X64950000Y-53571429D01*
X65007142Y-53600000D01*
X65035714Y-53628571D01*
X65064285Y-53685714D01*
X65064285Y-53771429D01*
X65035714Y-53828571D01*
X65007142Y-53857143D01*
X64950000Y-53885714D01*
X64721428Y-53885714D01*
X65635714Y-54171429D02*
X65292857Y-54171429D01*
X65464285Y-54171429D02*
X65464285Y-53571429D01*
X65407142Y-53657143D01*
X65350000Y-53714286D01*
X65292857Y-53742857D01*
X66150000Y-53771429D02*
X66150000Y-54171429D01*
X66007143Y-53542857D02*
X65864286Y-53971429D01*
X66235714Y-53971429D01*
X59521429Y-67235715D02*
X59235714Y-67435715D01*
X59521429Y-67578572D02*
X58921429Y-67578572D01*
X58921429Y-67350000D01*
X58950000Y-67292858D01*
X58978571Y-67264286D01*
X59035714Y-67235715D01*
X59121429Y-67235715D01*
X59178571Y-67264286D01*
X59207143Y-67292858D01*
X59235714Y-67350000D01*
X59235714Y-67578572D01*
X59521429Y-66664286D02*
X59521429Y-67007143D01*
X59521429Y-66835715D02*
X58921429Y-66835715D01*
X59007143Y-66892858D01*
X59064286Y-66950000D01*
X59092857Y-67007143D01*
X58921429Y-66464286D02*
X58921429Y-66092857D01*
X59150000Y-66292857D01*
X59150000Y-66207143D01*
X59178571Y-66150000D01*
X59207143Y-66121429D01*
X59264286Y-66092857D01*
X59407143Y-66092857D01*
X59464286Y-66121429D01*
X59492857Y-66150000D01*
X59521429Y-66207143D01*
X59521429Y-66378571D01*
X59492857Y-66435714D01*
X59464286Y-66464286D01*
X63314285Y-54171429D02*
X63114285Y-53885714D01*
X62971428Y-54171429D02*
X62971428Y-53571429D01*
X63200000Y-53571429D01*
X63257142Y-53600000D01*
X63285714Y-53628571D01*
X63314285Y-53685714D01*
X63314285Y-53771429D01*
X63285714Y-53828571D01*
X63257142Y-53857143D01*
X63200000Y-53885714D01*
X62971428Y-53885714D01*
X63885714Y-54171429D02*
X63542857Y-54171429D01*
X63714285Y-54171429D02*
X63714285Y-53571429D01*
X63657142Y-53657143D01*
X63600000Y-53714286D01*
X63542857Y-53742857D01*
X64114286Y-53628571D02*
X64142857Y-53600000D01*
X64200000Y-53571429D01*
X64342857Y-53571429D01*
X64400000Y-53600000D01*
X64428571Y-53628571D01*
X64457143Y-53685714D01*
X64457143Y-53742857D01*
X64428571Y-53828571D01*
X64085714Y-54171429D01*
X64457143Y-54171429D01*
X61114285Y-50671429D02*
X60914285Y-50385714D01*
X60771428Y-50671429D02*
X60771428Y-50071429D01*
X61000000Y-50071429D01*
X61057142Y-50100000D01*
X61085714Y-50128571D01*
X61114285Y-50185714D01*
X61114285Y-50271429D01*
X61085714Y-50328571D01*
X61057142Y-50357143D01*
X61000000Y-50385714D01*
X60771428Y-50385714D01*
X61685714Y-50671429D02*
X61342857Y-50671429D01*
X61514285Y-50671429D02*
X61514285Y-50071429D01*
X61457142Y-50157143D01*
X61400000Y-50214286D01*
X61342857Y-50242857D01*
X62257143Y-50671429D02*
X61914286Y-50671429D01*
X62085714Y-50671429D02*
X62085714Y-50071429D01*
X62028571Y-50157143D01*
X61971429Y-50214286D01*
X61914286Y-50242857D01*
X59314285Y-50671429D02*
X59114285Y-50385714D01*
X58971428Y-50671429D02*
X58971428Y-50071429D01*
X59200000Y-50071429D01*
X59257142Y-50100000D01*
X59285714Y-50128571D01*
X59314285Y-50185714D01*
X59314285Y-50271429D01*
X59285714Y-50328571D01*
X59257142Y-50357143D01*
X59200000Y-50385714D01*
X58971428Y-50385714D01*
X59885714Y-50671429D02*
X59542857Y-50671429D01*
X59714285Y-50671429D02*
X59714285Y-50071429D01*
X59657142Y-50157143D01*
X59600000Y-50214286D01*
X59542857Y-50242857D01*
X60257143Y-50071429D02*
X60314286Y-50071429D01*
X60371429Y-50100000D01*
X60400000Y-50128571D01*
X60428571Y-50185714D01*
X60457143Y-50300000D01*
X60457143Y-50442857D01*
X60428571Y-50557143D01*
X60400000Y-50614286D01*
X60371429Y-50642857D01*
X60314286Y-50671429D01*
X60257143Y-50671429D01*
X60200000Y-50642857D01*
X60171429Y-50614286D01*
X60142857Y-50557143D01*
X60114286Y-50442857D01*
X60114286Y-50300000D01*
X60142857Y-50185714D01*
X60171429Y-50128571D01*
X60200000Y-50100000D01*
X60257143Y-50071429D01*
X56100000Y-54171429D02*
X55900000Y-53885714D01*
X55757143Y-54171429D02*
X55757143Y-53571429D01*
X55985715Y-53571429D01*
X56042857Y-53600000D01*
X56071429Y-53628571D01*
X56100000Y-53685714D01*
X56100000Y-53771429D01*
X56071429Y-53828571D01*
X56042857Y-53857143D01*
X55985715Y-53885714D01*
X55757143Y-53885714D01*
X56385715Y-54171429D02*
X56500000Y-54171429D01*
X56557143Y-54142857D01*
X56585715Y-54114286D01*
X56642857Y-54028571D01*
X56671429Y-53914286D01*
X56671429Y-53685714D01*
X56642857Y-53628571D01*
X56614286Y-53600000D01*
X56557143Y-53571429D01*
X56442857Y-53571429D01*
X56385715Y-53600000D01*
X56357143Y-53628571D01*
X56328572Y-53685714D01*
X56328572Y-53828571D01*
X56357143Y-53885714D01*
X56385715Y-53914286D01*
X56442857Y-53942857D01*
X56557143Y-53942857D01*
X56614286Y-53914286D01*
X56642857Y-53885714D01*
X56671429Y-53828571D01*
X59600000Y-54171429D02*
X59400000Y-53885714D01*
X59257143Y-54171429D02*
X59257143Y-53571429D01*
X59485715Y-53571429D01*
X59542857Y-53600000D01*
X59571429Y-53628571D01*
X59600000Y-53685714D01*
X59600000Y-53771429D01*
X59571429Y-53828571D01*
X59542857Y-53857143D01*
X59485715Y-53885714D01*
X59257143Y-53885714D01*
X59942857Y-53828571D02*
X59885715Y-53800000D01*
X59857143Y-53771429D01*
X59828572Y-53714286D01*
X59828572Y-53685714D01*
X59857143Y-53628571D01*
X59885715Y-53600000D01*
X59942857Y-53571429D01*
X60057143Y-53571429D01*
X60114286Y-53600000D01*
X60142857Y-53628571D01*
X60171429Y-53685714D01*
X60171429Y-53714286D01*
X60142857Y-53771429D01*
X60114286Y-53800000D01*
X60057143Y-53828571D01*
X59942857Y-53828571D01*
X59885715Y-53857143D01*
X59857143Y-53885714D01*
X59828572Y-53942857D01*
X59828572Y-54057143D01*
X59857143Y-54114286D01*
X59885715Y-54142857D01*
X59942857Y-54171429D01*
X60057143Y-54171429D01*
X60114286Y-54142857D01*
X60142857Y-54114286D01*
X60171429Y-54057143D01*
X60171429Y-53942857D01*
X60142857Y-53885714D01*
X60114286Y-53857143D01*
X60057143Y-53828571D01*
X57900000Y-54171429D02*
X57700000Y-53885714D01*
X57557143Y-54171429D02*
X57557143Y-53571429D01*
X57785715Y-53571429D01*
X57842857Y-53600000D01*
X57871429Y-53628571D01*
X57900000Y-53685714D01*
X57900000Y-53771429D01*
X57871429Y-53828571D01*
X57842857Y-53857143D01*
X57785715Y-53885714D01*
X57557143Y-53885714D01*
X58100000Y-53571429D02*
X58500000Y-53571429D01*
X58242857Y-54171429D01*
X54400000Y-57871429D02*
X54200000Y-57585714D01*
X54057143Y-57871429D02*
X54057143Y-57271429D01*
X54285715Y-57271429D01*
X54342857Y-57300000D01*
X54371429Y-57328571D01*
X54400000Y-57385714D01*
X54400000Y-57471429D01*
X54371429Y-57528571D01*
X54342857Y-57557143D01*
X54285715Y-57585714D01*
X54057143Y-57585714D01*
X54914286Y-57471429D02*
X54914286Y-57871429D01*
X54771429Y-57242857D02*
X54628572Y-57671429D01*
X55000000Y-57671429D01*
X54350000Y-54171429D02*
X54150000Y-53885714D01*
X54007143Y-54171429D02*
X54007143Y-53571429D01*
X54235715Y-53571429D01*
X54292857Y-53600000D01*
X54321429Y-53628571D01*
X54350000Y-53685714D01*
X54350000Y-53771429D01*
X54321429Y-53828571D01*
X54292857Y-53857143D01*
X54235715Y-53885714D01*
X54007143Y-53885714D01*
X54550000Y-53571429D02*
X54921429Y-53571429D01*
X54721429Y-53800000D01*
X54807143Y-53800000D01*
X54864286Y-53828571D01*
X54892857Y-53857143D01*
X54921429Y-53914286D01*
X54921429Y-54057143D01*
X54892857Y-54114286D01*
X54864286Y-54142857D01*
X54807143Y-54171429D01*
X54635715Y-54171429D01*
X54578572Y-54142857D01*
X54550000Y-54114286D01*
X87600000Y-69057143D02*
X87400000Y-69057143D01*
X87400000Y-69371429D02*
X87400000Y-68771429D01*
X87685714Y-68771429D01*
X88114286Y-69057143D02*
X88200000Y-69085714D01*
X88228572Y-69114286D01*
X88257143Y-69171429D01*
X88257143Y-69257143D01*
X88228572Y-69314286D01*
X88200000Y-69342857D01*
X88142858Y-69371429D01*
X87914286Y-69371429D01*
X87914286Y-68771429D01*
X88114286Y-68771429D01*
X88171429Y-68800000D01*
X88200000Y-68828571D01*
X88228572Y-68885714D01*
X88228572Y-68942857D01*
X88200000Y-69000000D01*
X88171429Y-69028571D01*
X88114286Y-69057143D01*
X87914286Y-69057143D01*
X88485715Y-68828571D02*
X88514286Y-68800000D01*
X88571429Y-68771429D01*
X88714286Y-68771429D01*
X88771429Y-68800000D01*
X88800000Y-68828571D01*
X88828572Y-68885714D01*
X88828572Y-68942857D01*
X88800000Y-69028571D01*
X88457143Y-69371429D01*
X88828572Y-69371429D01*
X55814286Y-69000000D02*
X55842857Y-69028571D01*
X55871429Y-69114285D01*
X55871429Y-69171428D01*
X55842857Y-69257143D01*
X55785714Y-69314285D01*
X55728571Y-69342857D01*
X55614286Y-69371428D01*
X55528571Y-69371428D01*
X55414286Y-69342857D01*
X55357143Y-69314285D01*
X55300000Y-69257143D01*
X55271429Y-69171428D01*
X55271429Y-69114285D01*
X55300000Y-69028571D01*
X55328571Y-69000000D01*
X55871429Y-68428571D02*
X55871429Y-68771428D01*
X55871429Y-68600000D02*
X55271429Y-68600000D01*
X55357143Y-68657143D01*
X55414286Y-68714285D01*
X55442857Y-68771428D01*
X63800000Y-66414286D02*
X63771429Y-66442857D01*
X63685715Y-66471429D01*
X63628572Y-66471429D01*
X63542857Y-66442857D01*
X63485715Y-66385714D01*
X63457143Y-66328571D01*
X63428572Y-66214286D01*
X63428572Y-66128571D01*
X63457143Y-66014286D01*
X63485715Y-65957143D01*
X63542857Y-65900000D01*
X63628572Y-65871429D01*
X63685715Y-65871429D01*
X63771429Y-65900000D01*
X63800000Y-65928571D01*
X64314286Y-65871429D02*
X64200000Y-65871429D01*
X64142857Y-65900000D01*
X64114286Y-65928571D01*
X64057143Y-66014286D01*
X64028572Y-66128571D01*
X64028572Y-66357143D01*
X64057143Y-66414286D01*
X64085715Y-66442857D01*
X64142857Y-66471429D01*
X64257143Y-66471429D01*
X64314286Y-66442857D01*
X64342857Y-66414286D01*
X64371429Y-66357143D01*
X64371429Y-66214286D01*
X64342857Y-66157143D01*
X64314286Y-66128571D01*
X64257143Y-66100000D01*
X64142857Y-66100000D01*
X64085715Y-66128571D01*
X64057143Y-66157143D01*
X64028572Y-66214286D01*
X66714286Y-58600000D02*
X66742857Y-58628571D01*
X66771429Y-58714285D01*
X66771429Y-58771428D01*
X66742857Y-58857143D01*
X66685714Y-58914285D01*
X66628571Y-58942857D01*
X66514286Y-58971428D01*
X66428571Y-58971428D01*
X66314286Y-58942857D01*
X66257143Y-58914285D01*
X66200000Y-58857143D01*
X66171429Y-58771428D01*
X66171429Y-58714285D01*
X66200000Y-58628571D01*
X66228571Y-58600000D01*
X66171429Y-58400000D02*
X66171429Y-58000000D01*
X66771429Y-58257143D01*
X66814285Y-54114286D02*
X66785714Y-54142857D01*
X66700000Y-54171429D01*
X66642857Y-54171429D01*
X66557142Y-54142857D01*
X66500000Y-54085714D01*
X66471428Y-54028571D01*
X66442857Y-53914286D01*
X66442857Y-53828571D01*
X66471428Y-53714286D01*
X66500000Y-53657143D01*
X66557142Y-53600000D01*
X66642857Y-53571429D01*
X66700000Y-53571429D01*
X66785714Y-53600000D01*
X66814285Y-53628571D01*
X67385714Y-54171429D02*
X67042857Y-54171429D01*
X67214285Y-54171429D02*
X67214285Y-53571429D01*
X67157142Y-53657143D01*
X67100000Y-53714286D01*
X67042857Y-53742857D01*
X67957143Y-54171429D02*
X67614286Y-54171429D01*
X67785714Y-54171429D02*
X67785714Y-53571429D01*
X67728571Y-53657143D01*
X67671429Y-53714286D01*
X67614286Y-53742857D01*
X74214285Y-55314286D02*
X74185714Y-55342857D01*
X74100000Y-55371429D01*
X74042857Y-55371429D01*
X73957142Y-55342857D01*
X73900000Y-55285714D01*
X73871428Y-55228571D01*
X73842857Y-55114286D01*
X73842857Y-55028571D01*
X73871428Y-54914286D01*
X73900000Y-54857143D01*
X73957142Y-54800000D01*
X74042857Y-54771429D01*
X74100000Y-54771429D01*
X74185714Y-54800000D01*
X74214285Y-54828571D01*
X74785714Y-55371429D02*
X74442857Y-55371429D01*
X74614285Y-55371429D02*
X74614285Y-54771429D01*
X74557142Y-54857143D01*
X74500000Y-54914286D01*
X74442857Y-54942857D01*
X75128571Y-55028571D02*
X75071429Y-55000000D01*
X75042857Y-54971429D01*
X75014286Y-54914286D01*
X75014286Y-54885714D01*
X75042857Y-54828571D01*
X75071429Y-54800000D01*
X75128571Y-54771429D01*
X75242857Y-54771429D01*
X75300000Y-54800000D01*
X75328571Y-54828571D01*
X75357143Y-54885714D01*
X75357143Y-54914286D01*
X75328571Y-54971429D01*
X75300000Y-55000000D01*
X75242857Y-55028571D01*
X75128571Y-55028571D01*
X75071429Y-55057143D01*
X75042857Y-55085714D01*
X75014286Y-55142857D01*
X75014286Y-55257143D01*
X75042857Y-55314286D01*
X75071429Y-55342857D01*
X75128571Y-55371429D01*
X75242857Y-55371429D01*
X75300000Y-55342857D01*
X75328571Y-55314286D01*
X75357143Y-55257143D01*
X75357143Y-55142857D01*
X75328571Y-55085714D01*
X75300000Y-55057143D01*
X75242857Y-55028571D01*
X109914285Y-50514286D02*
X109885714Y-50542857D01*
X109800000Y-50571429D01*
X109742857Y-50571429D01*
X109657142Y-50542857D01*
X109600000Y-50485714D01*
X109571428Y-50428571D01*
X109542857Y-50314286D01*
X109542857Y-50228571D01*
X109571428Y-50114286D01*
X109600000Y-50057143D01*
X109657142Y-50000000D01*
X109742857Y-49971429D01*
X109800000Y-49971429D01*
X109885714Y-50000000D01*
X109914285Y-50028571D01*
X110142857Y-50028571D02*
X110171428Y-50000000D01*
X110228571Y-49971429D01*
X110371428Y-49971429D01*
X110428571Y-50000000D01*
X110457142Y-50028571D01*
X110485714Y-50085714D01*
X110485714Y-50142857D01*
X110457142Y-50228571D01*
X110114285Y-50571429D01*
X110485714Y-50571429D01*
X110714286Y-50028571D02*
X110742857Y-50000000D01*
X110800000Y-49971429D01*
X110942857Y-49971429D01*
X111000000Y-50000000D01*
X111028571Y-50028571D01*
X111057143Y-50085714D01*
X111057143Y-50142857D01*
X111028571Y-50228571D01*
X110685714Y-50571429D01*
X111057143Y-50571429D01*
X96364285Y-20314286D02*
X96335714Y-20342857D01*
X96250000Y-20371429D01*
X96192857Y-20371429D01*
X96107142Y-20342857D01*
X96050000Y-20285714D01*
X96021428Y-20228571D01*
X95992857Y-20114286D01*
X95992857Y-20028571D01*
X96021428Y-19914286D01*
X96050000Y-19857143D01*
X96107142Y-19800000D01*
X96192857Y-19771429D01*
X96250000Y-19771429D01*
X96335714Y-19800000D01*
X96364285Y-19828571D01*
X96564285Y-19771429D02*
X96935714Y-19771429D01*
X96735714Y-20000000D01*
X96821428Y-20000000D01*
X96878571Y-20028571D01*
X96907142Y-20057143D01*
X96935714Y-20114286D01*
X96935714Y-20257143D01*
X96907142Y-20314286D01*
X96878571Y-20342857D01*
X96821428Y-20371429D01*
X96650000Y-20371429D01*
X96592857Y-20342857D01*
X96564285Y-20314286D01*
X97450000Y-19971429D02*
X97450000Y-20371429D01*
X97307143Y-19742857D02*
X97164286Y-20171429D01*
X97535714Y-20171429D01*
X96214286Y-23285715D02*
X96242857Y-23314286D01*
X96271429Y-23400000D01*
X96271429Y-23457143D01*
X96242857Y-23542858D01*
X96185714Y-23600000D01*
X96128571Y-23628572D01*
X96014286Y-23657143D01*
X95928571Y-23657143D01*
X95814286Y-23628572D01*
X95757143Y-23600000D01*
X95700000Y-23542858D01*
X95671429Y-23457143D01*
X95671429Y-23400000D01*
X95700000Y-23314286D01*
X95728571Y-23285715D01*
X95871429Y-22771429D02*
X96271429Y-22771429D01*
X95642857Y-22914286D02*
X96071429Y-23057143D01*
X96071429Y-22685715D01*
X95671429Y-22171429D02*
X95671429Y-22457143D01*
X95957143Y-22485714D01*
X95928571Y-22457143D01*
X95900000Y-22400000D01*
X95900000Y-22257143D01*
X95928571Y-22200000D01*
X95957143Y-22171429D01*
X96014286Y-22142857D01*
X96157143Y-22142857D01*
X96214286Y-22171429D01*
X96242857Y-22200000D01*
X96271429Y-22257143D01*
X96271429Y-22400000D01*
X96242857Y-22457143D01*
X96214286Y-22485714D01*
X71814286Y-19785715D02*
X71842857Y-19814286D01*
X71871429Y-19900000D01*
X71871429Y-19957143D01*
X71842857Y-20042858D01*
X71785714Y-20100000D01*
X71728571Y-20128572D01*
X71614286Y-20157143D01*
X71528571Y-20157143D01*
X71414286Y-20128572D01*
X71357143Y-20100000D01*
X71300000Y-20042858D01*
X71271429Y-19957143D01*
X71271429Y-19900000D01*
X71300000Y-19814286D01*
X71328571Y-19785715D01*
X71471429Y-19271429D02*
X71871429Y-19271429D01*
X71242857Y-19414286D02*
X71671429Y-19557143D01*
X71671429Y-19185715D01*
X71471429Y-18700000D02*
X71871429Y-18700000D01*
X71242857Y-18842857D02*
X71671429Y-18985714D01*
X71671429Y-18614286D01*
X69414285Y-27914286D02*
X69385714Y-27942857D01*
X69300000Y-27971429D01*
X69242857Y-27971429D01*
X69157142Y-27942857D01*
X69100000Y-27885714D01*
X69071428Y-27828571D01*
X69042857Y-27714286D01*
X69042857Y-27628571D01*
X69071428Y-27514286D01*
X69100000Y-27457143D01*
X69157142Y-27400000D01*
X69242857Y-27371429D01*
X69300000Y-27371429D01*
X69385714Y-27400000D01*
X69414285Y-27428571D01*
X69928571Y-27571429D02*
X69928571Y-27971429D01*
X69785714Y-27342857D02*
X69642857Y-27771429D01*
X70014285Y-27771429D01*
X70271429Y-27971429D02*
X70385714Y-27971429D01*
X70442857Y-27942857D01*
X70471429Y-27914286D01*
X70528571Y-27828571D01*
X70557143Y-27714286D01*
X70557143Y-27485714D01*
X70528571Y-27428571D01*
X70500000Y-27400000D01*
X70442857Y-27371429D01*
X70328571Y-27371429D01*
X70271429Y-27400000D01*
X70242857Y-27428571D01*
X70214286Y-27485714D01*
X70214286Y-27628571D01*
X70242857Y-27685714D01*
X70271429Y-27714286D01*
X70328571Y-27742857D01*
X70442857Y-27742857D01*
X70500000Y-27714286D01*
X70528571Y-27685714D01*
X70557143Y-27628571D01*
X113414285Y-17864286D02*
X113385714Y-17892857D01*
X113300000Y-17921429D01*
X113242857Y-17921429D01*
X113157142Y-17892857D01*
X113100000Y-17835714D01*
X113071428Y-17778571D01*
X113042857Y-17664286D01*
X113042857Y-17578571D01*
X113071428Y-17464286D01*
X113100000Y-17407143D01*
X113157142Y-17350000D01*
X113242857Y-17321429D01*
X113300000Y-17321429D01*
X113385714Y-17350000D01*
X113414285Y-17378571D01*
X113957142Y-17321429D02*
X113671428Y-17321429D01*
X113642857Y-17607143D01*
X113671428Y-17578571D01*
X113728571Y-17550000D01*
X113871428Y-17550000D01*
X113928571Y-17578571D01*
X113957142Y-17607143D01*
X113985714Y-17664286D01*
X113985714Y-17807143D01*
X113957142Y-17864286D01*
X113928571Y-17892857D01*
X113871428Y-17921429D01*
X113728571Y-17921429D01*
X113671428Y-17892857D01*
X113642857Y-17864286D01*
X114357143Y-17321429D02*
X114414286Y-17321429D01*
X114471429Y-17350000D01*
X114500000Y-17378571D01*
X114528571Y-17435714D01*
X114557143Y-17550000D01*
X114557143Y-17692857D01*
X114528571Y-17807143D01*
X114500000Y-17864286D01*
X114471429Y-17892857D01*
X114414286Y-17921429D01*
X114357143Y-17921429D01*
X114300000Y-17892857D01*
X114271429Y-17864286D01*
X114242857Y-17807143D01*
X114214286Y-17692857D01*
X114214286Y-17550000D01*
X114242857Y-17435714D01*
X114271429Y-17378571D01*
X114300000Y-17350000D01*
X114357143Y-17321429D01*
X50971429Y-64800000D02*
X50685714Y-65000000D01*
X50971429Y-65142857D02*
X50371429Y-65142857D01*
X50371429Y-64914285D01*
X50400000Y-64857143D01*
X50428571Y-64828571D01*
X50485714Y-64800000D01*
X50571429Y-64800000D01*
X50628571Y-64828571D01*
X50657143Y-64857143D01*
X50685714Y-64914285D01*
X50685714Y-65142857D01*
X50971429Y-64228571D02*
X50971429Y-64571428D01*
X50971429Y-64400000D02*
X50371429Y-64400000D01*
X50457143Y-64457143D01*
X50514286Y-64514285D01*
X50542857Y-64571428D01*
X50971429Y-68200000D02*
X50685714Y-68400000D01*
X50971429Y-68542857D02*
X50371429Y-68542857D01*
X50371429Y-68314285D01*
X50400000Y-68257143D01*
X50428571Y-68228571D01*
X50485714Y-68200000D01*
X50571429Y-68200000D01*
X50628571Y-68228571D01*
X50657143Y-68257143D01*
X50685714Y-68314285D01*
X50685714Y-68542857D01*
X50428571Y-67971428D02*
X50400000Y-67942857D01*
X50371429Y-67885714D01*
X50371429Y-67742857D01*
X50400000Y-67685714D01*
X50428571Y-67657143D01*
X50485714Y-67628571D01*
X50542857Y-67628571D01*
X50628571Y-67657143D01*
X50971429Y-68000000D01*
X50971429Y-67628571D01*
X113350000Y-22350000D02*
X113316666Y-22383333D01*
X113216666Y-22416667D01*
X113150000Y-22416667D01*
X113050000Y-22383333D01*
X112983333Y-22316667D01*
X112950000Y-22250000D01*
X112916666Y-22116667D01*
X112916666Y-22016667D01*
X112950000Y-21883333D01*
X112983333Y-21816667D01*
X113050000Y-21750000D01*
X113150000Y-21716667D01*
X113216666Y-21716667D01*
X113316666Y-21750000D01*
X113350000Y-21783333D01*
X113983333Y-21716667D02*
X113650000Y-21716667D01*
X113616666Y-22050000D01*
X113650000Y-22016667D01*
X113716666Y-21983333D01*
X113883333Y-21983333D01*
X113950000Y-22016667D01*
X113983333Y-22050000D01*
X114016666Y-22116667D01*
X114016666Y-22283333D01*
X113983333Y-22350000D01*
X113950000Y-22383333D01*
X113883333Y-22416667D01*
X113716666Y-22416667D01*
X113650000Y-22383333D01*
X113616666Y-22350000D01*
X114683333Y-22416667D02*
X114283333Y-22416667D01*
X114483333Y-22416667D02*
X114483333Y-21716667D01*
X114416667Y-21816667D01*
X114350000Y-21883333D01*
X114283333Y-21916667D01*
X65090476Y-47552381D02*
X65757143Y-48552381D01*
X65757143Y-47552381D02*
X65090476Y-48552381D01*
X66661905Y-48552381D02*
X66090476Y-48552381D01*
X66376190Y-48552381D02*
X66376190Y-47552381D01*
X66280952Y-47695238D01*
X66185714Y-47790476D01*
X66090476Y-47838095D01*
X114161905Y-43202381D02*
X114161905Y-42202381D01*
X114542858Y-42202381D01*
X114638096Y-42250000D01*
X114685715Y-42297619D01*
X114733334Y-42392857D01*
X114733334Y-42535714D01*
X114685715Y-42630952D01*
X114638096Y-42678571D01*
X114542858Y-42726190D01*
X114161905Y-42726190D01*
X115066667Y-42202381D02*
X115685715Y-42202381D01*
X115352381Y-42583333D01*
X115495239Y-42583333D01*
X115590477Y-42630952D01*
X115638096Y-42678571D01*
X115685715Y-42773810D01*
X115685715Y-43011905D01*
X115638096Y-43107143D01*
X115590477Y-43154762D01*
X115495239Y-43202381D01*
X115209524Y-43202381D01*
X115114286Y-43154762D01*
X115066667Y-43107143D01*
M02*
