M48
;DRILL file {KiCad 4.0.2-stable} date 4/24/2017 9:06:13 AM
;FORMAT={-:-/ absolute / metric / decimal}
FMAT,2
METRIC,TZ
T1C0.400
T2C0.850
T3C1.000
T4C1.016
T5C1.200
T6C1.250
T7C1.300
T8C1.500
T9C1.600
T10C2.100
T11C3.000
%
G90
G05
M71
T1
X42.7Y-48.4
X42.9Y-64.8
X42.95Y-42.55
X43.8Y-32.4
X45.9Y-43.7
X46.Y-36.2
X46.7Y-38.4
X46.9Y-21.9
X47.4Y-27.7
X47.7Y-32.2
X48.075Y-65.075
X48.4Y-43.4
X48.5Y-18.
X48.5Y-23.3
X48.5Y-35.3
X48.65Y-21.05
X48.8Y-66.7
X49.05Y-52.
X49.1Y-71.1
X49.65Y-45.6
X49.9Y-32.1
X50.7Y-54.35
X50.8Y-50.8
X51.1Y-42.3
X51.3Y-27.7
X51.3Y-46.35
X51.4Y-25.3
X52.3Y-49.
X52.7Y-57.6
X52.7Y-69.1
X52.9Y-38.3
X53.Y-36.3
X53.Y-43.5
X53.Y-66.6
X53.5Y-60.25
X53.85Y-32.25
X54.2Y-71.2
X54.7Y-48.2
X54.8Y-66.7
X55.1Y-29.9
X55.35Y-52.1
X55.45Y-26.85
X56.1Y-24.6
X56.15Y-26.35
X56.4Y-67.9
X56.45Y-60.85
X56.5Y-23.8
X56.5Y-36.2
X56.5Y-41.65
X57.05Y-32.
X57.1Y-55.6
X57.2Y-29.8
X58.3Y-35.7
X58.5Y-25.9
X58.7Y-26.8
X58.7Y-53.7
X58.8Y-39.5
X59.1Y-35.8
X59.8Y-38.15
X60.25Y-42.55
X60.6Y-21.9
X60.6Y-53.8
X60.7Y-45.3
X60.7Y-47.75
X61.1Y-24.2
X61.4Y-61.2
X61.6Y-30.
X61.65Y-33.55
X61.7Y-19.3
X62.2Y-27.2
X62.2Y-28.3
X62.3Y-31.2
X62.3Y-42.7
X62.5Y-53.4
X62.5Y-68.1
X62.7Y-52.1
X62.8Y-34.75
X63.15Y-42.1
X63.9Y-71.
X64.Y-22.9
X64.85Y-48.2
X64.9Y-27.7
X65.Y-45.4
X65.6Y-57.6
X65.7Y-62.2
X65.75Y-53.55
X65.8Y-29.7
X65.8Y-37.6
X65.9Y-22.2
X66.Y-26.7
X66.Y-27.8
X66.7Y-21.8
X66.7Y-43.5
X66.9Y-19.4
X66.9Y-48.4
X67.1Y-47.05
X67.2Y-55.65
X67.2Y-57.5
X68.2Y-43.2
X68.2Y-57.5
X68.4Y-19.4
X68.4Y-25.5
X68.5Y-28.7
X68.7Y-29.8
X68.7Y-37.8
X68.7Y-63.5
X68.9Y-56.6
X69.Y-27.2
X69.Y-31.5
X69.Y-47.9
X69.6Y-60.8
X69.7Y-46.4
X69.8Y-29.4
X69.8Y-48.6
X70.4Y-26.15
X70.5Y-18.8
X70.8Y-47.3
X70.9Y-35.9
X71.1Y-19.4
X71.1Y-42.4
X71.1Y-56.9
X71.2Y-23.4
X71.2Y-55.
X71.35Y-24.3
X71.6Y-57.7
X71.8Y-20.9
X71.8Y-41.9
X71.8Y-48.3
X72.Y-37.8
X72.1Y-42.7
X72.1Y-43.7
X72.2Y-53.6
X72.6Y-39.9
X72.7Y-38.2
X72.7Y-49.1
X72.75Y-47.1
X72.8Y-25.7
X72.8Y-39.1
X73.Y-31.5
X73.1Y-21.4
X73.25Y-19.5
X73.6Y-66.
X73.9Y-39.2
X74.5Y-37.9
X74.7Y-59.9
X74.7Y-63.3
X74.95Y-19.45
X75.Y-24.1
X75.1Y-48.
X75.2Y-46.
X75.2Y-48.9
X75.3Y-47.1
X75.5Y-45.
X75.7Y-23.4
X75.7Y-42.9
X75.8Y-44.1
X75.9Y-70.3
X76.4Y-57.5
X76.5Y-34.6
X76.6Y-27.1
X76.9Y-23.3
X76.9Y-30.3
X77.3Y-60.4
X77.3Y-63.3
X77.6Y-27.3
X77.65Y-57.05
X77.7Y-65.8
X78.3Y-31.9
X78.5Y-53.
X78.8Y-25.9
X78.8Y-42.3
X78.8Y-62.7
X78.9Y-31.2
X79.4Y-20.4
X79.4Y-51.7
X79.5Y-41.7
X79.6Y-30.8
X79.65Y-31.65
X79.7Y-25.9
X79.7Y-40.3
X79.7Y-60.85
X79.7Y-62.1
X80.1Y-27.3
X80.4Y-57.6
X80.5Y-69.3
X81.1Y-32.3
X81.65Y-62.9
X81.7Y-59.1
X81.8Y-44.4
X81.8Y-47.7
X81.8Y-51.3
X82.Y-26.15
X82.Y-27.3
X82.Y-30.2
X82.4Y-36.9
X82.9Y-26.1
X83.4Y-71.
X83.5Y-21.15
X83.8Y-26.
X84.Y-35.4
X84.1Y-63.8
X84.15Y-23.35
X84.3Y-67.2
X84.5Y-27.05
X84.6Y-44.1
X85.3Y-35.8
X85.35Y-47.25
X85.7Y-22.
X85.7Y-23.3
X86.Y-18.5
X86.Y-36.5
X86.5Y-25.1
X86.5Y-64.1
X86.75Y-20.85
X86.85Y-32.8
X86.9Y-47.3
X86.95Y-51.1
X87.Y-36.5
X87.3Y-21.9
X87.5Y-45.1
X87.65Y-33.5
X87.7Y-18.9
X87.85Y-63.1
X88.1Y-65.2
X88.2Y-21.9
X88.3Y-29.4
X88.3Y-39.1
X88.4Y-41.8
X88.55Y-34.4
X88.8Y-63.1
X88.9Y-64.
X89.4Y-54.5
X89.5Y-57.5
X89.65Y-24.65
X89.8Y-40.6
X89.8Y-44.5
X89.9Y-32.9
X90.Y-19.7
X90.Y-47.2
X90.1Y-69.2
X90.2Y-50.4
X90.6Y-24.5
X90.8Y-51.3
X90.8Y-71.6
X91.Y-66.3
X91.3Y-18.6
X91.3Y-63.9
X91.95Y-21.75
X91.95Y-23.05
X92.2Y-33.
X92.6Y-26.35
X93.2Y-51.4
X93.25Y-21.75
X93.25Y-23.05
X93.4Y-68.6
X93.8Y-63.9
X94.3Y-71.9
X94.65Y-20.35
X94.7Y-24.5
X94.7Y-47.2
X94.75Y-63.1
X94.85Y-33.4
X95.05Y-60.45
X95.15Y-18.8
X95.4Y-40.6
X95.4Y-44.2
X95.5Y-66.25
X95.6Y-29.
X95.6Y-51.
X95.6Y-54.1
X95.6Y-63.2
X95.7Y-57.6
X95.7Y-70.4
X96.4Y-29.6
X96.55Y-33.15
X96.9Y-60.
X97.2Y-47.2
X97.2Y-49.
X97.4Y-22.9
X97.7Y-27.35
X97.9Y-57.3
X98.Y-21.4
X98.1Y-51.2
X98.7Y-19.3
X98.8Y-66.1
X98.8Y-68.7
X98.8Y-71.9
X99.Y-64.2
X99.25Y-29.2
X99.45Y-22.05
X99.5Y-24.5
X99.8Y-35.5
X99.8Y-59.9
X99.9Y-55.
X99.9Y-65.
X100.05Y-33.35
X100.55Y-40.65
X100.7Y-59.9
X100.75Y-57.15
X100.8Y-47.5
X101.Y-29.3
X101.2Y-58.9
X101.25Y-34.55
X101.25Y-44.25
X101.5Y-66.
X101.7Y-59.9
X101.9Y-47.35
X102.Y-29.3
X102.2Y-44.2
X102.8Y-60.2
X102.8Y-63.2
X103.15Y-32.85
X103.2Y-61.7
X103.25Y-43.8
X103.7Y-37.
X103.7Y-38.
X103.7Y-39.
X103.8Y-23.5
X104.Y-66.5
X104.05Y-51.25
X104.3Y-33.7
X104.3Y-47.1
X104.3Y-55.
X104.7Y-25.9
X104.7Y-29.5
X104.7Y-53.2
X105.1Y-50.5
X105.5Y-37.
X105.5Y-38.
X105.5Y-39.
X106.1Y-63.6
X106.3Y-69.3
X106.4Y-42.
X106.4Y-66.7
X106.7Y-25.1
X106.9Y-61.7
X107.3Y-21.7
X107.3Y-25.9
X107.5Y-71.9
X107.75Y-57.15
X107.75Y-58.9
X108.35Y-19.55
X108.7Y-54.5
X109.1Y-26.6
X109.1Y-28.8
X109.1Y-31.3
X109.1Y-34.
X109.1Y-36.3
X109.1Y-42.
X109.1Y-47.9
X109.1Y-63.9
X109.2Y-67.
X109.3Y-23.8
X109.5Y-58.9
X110.35Y-51.05
X110.4Y-61.3
X110.5Y-42.
X110.5Y-47.9
X110.55Y-19.2
X110.7Y-22.2
X110.8Y-69.6
X110.85Y-20.35
X111.25Y-38.4
X111.5Y-44.2
X111.8Y-67.3
X111.9Y-26.8
X111.9Y-29.5
X111.9Y-32.
X111.9Y-34.
X111.9Y-36.3
X111.9Y-64.1
X112.6Y-56.1
X112.6Y-57.
X112.6Y-71.9
X112.75Y-18.3
X112.9Y-24.9
X113.Y-60.9
X113.15Y-42.05
X113.2Y-22.1
X113.8Y-46.4
X114.4Y-36.3
X114.6Y-64.4
X114.9Y-49.1
X114.9Y-67.6
X115.1Y-52.8
X115.15Y-28.4
X115.3Y-22.1
X115.3Y-24.9
X115.6Y-69.8
X116.6Y-36.95
X116.65Y-42.65
X116.7Y-46.3
X116.75Y-18.4
X117.Y-61.5
X117.4Y-72.1
X117.5Y-24.9
X117.6Y-64.7
X117.6Y-67.8
X118.3Y-20.3
X118.3Y-22.1
X118.7Y-50.8
X119.8Y-28.4
X119.9Y-70.6
X120.1Y-20.5
X120.1Y-22.1
X120.1Y-24.9
X120.1Y-62.5
X120.1Y-64.9
X120.2Y-18.8
X120.2Y-68.2
X120.8Y-47.8
X120.9Y-41.9
X122.4Y-53.4
X123.6Y-44.7
X124.5Y-50.3
X124.7Y-59.
T2
X121.837Y-35.401
X121.837Y-40.401
T3
X43.55Y-56.75
X43.55Y-61.25
T4
X51.42Y-19.16
X51.42Y-21.7
X53.96Y-19.16
X53.96Y-21.7
X56.5Y-19.16
X56.5Y-21.7
T5
X72.Y-64.1
X72.Y-69.1
T6
X116.6Y-49.2
X116.6Y-54.2
T7
X46.1Y-55.5
X46.1Y-62.5
X124.737Y-34.401
X124.737Y-41.401
T8
X45.53Y-27.51
X55.33Y-43.56
T9
X118.7Y-36.7
T10
X118.7Y-53.3
T11
X44.5Y-20.5
X44.5Y-69.5
X102.5Y-20.5
X102.5Y-69.5
T0
M30
