M48
;DRILL file {KiCad 4.0.0-rc1-stable} date 11/3/2015 9:27:52 AM
;FORMAT={-:-/ absolute / inch / decimal}
FMAT,2
INCH,TZ
T1C0.016
T2C0.033
T3C0.035
T4C0.039
T5C0.039
T6C0.039
T7C0.040
T8C0.051
T9C0.091
T10C0.118
T11C0.120
%
G90
G05
M72
T1
X1.437Y-6.8307
X1.4705Y-5.8858
X1.4705Y-6.3189
X1.4744Y-6.1024
X1.4783Y-6.5551
X1.5079Y-5.6299
X1.5945Y-6.1535
X1.6004Y-5.7244
X1.6004Y-5.9488
X1.6496Y-5.0433
X1.7126Y-5.5807
X1.7146Y-6.311
X1.7264Y-5.9449
X1.7264Y-6.0118
X1.7303Y-6.6378
X1.7343Y-6.8504
X1.7402Y-5.2598
X1.7598Y-4.8819
X1.7697Y-6.2165
X1.7717Y-5.689
X1.7756Y-6.622
X1.8248Y-6.6929
X1.8248Y-6.7992
X1.8268Y-5.5984
X1.8406Y-6.0728
X1.8602Y-6.752
X1.8602Y-6.8071
X1.8622Y-5.9331
X1.8701Y-6.0531
X1.878Y-6.6457
X1.8878Y-6.2638
X1.8917Y-6.3031
X1.8917Y-6.3819
X1.8917Y-6.4213
X1.8996Y-6.0827
X1.9075Y-6.4882
X1.9213Y-5.9409
X1.9311Y-5.811
X1.935Y-5.4803
X1.9488Y-5.6654
X1.9587Y-6.5197
X1.9587Y-6.626
X1.9803Y-5.9331
X1.9862Y-5.3937
X2.0059Y-6.622
X2.0138Y-6.5472
X2.0335Y-5.4764
X2.0354Y-5.3583
X2.0531Y-6.0079
X2.061Y-5.8622
X2.061Y-6.0394
X2.065Y-5.1181
X2.0807Y-5.6575
X2.0807Y-5.9134
X2.0846Y-6.6457
X2.0846Y-6.6969
X2.0846Y-6.9409
X2.0886Y-6.4291
X2.0886Y-6.4685
X2.0886Y-6.5354
X2.0925Y-6.6142
X2.1004Y-5.6299
X2.1083Y-5.8937
X2.1161Y-5.6654
X2.1201Y-6.1142
X2.1201Y-6.7992
X2.128Y-6.2205
X2.1358Y-5.9213
X2.1398Y-5.7992
X2.1594Y-5.8268
X2.1811Y-6.3425
X2.1831Y-6.0118
X2.1831Y-6.0512
X2.1831Y-6.3071
X2.187Y-5.8504
X2.187Y-5.9409
X2.187Y-5.9764
X2.1988Y-6.4055
X2.1988Y-6.6811
X2.1988Y-6.7874
X2.2008Y-6.5827
X2.2087Y-6.2874
X2.2146Y-5.315
X2.2146Y-5.374
X2.2205Y-6.5039
X2.2441Y-6.2165
X2.248Y-6.252
X2.252Y-6.4567
X2.2618Y-5.5984
X2.2618Y-5.6378
X2.2697Y-6.189
X2.2776Y-6.1417
X2.2835Y-5.7224
X2.3012Y-5.752
X2.313Y-5.5709
X2.3209Y-5.6063
X2.3327Y-5.9685
X2.3327Y-6.1457
X2.3484Y-5.3386
X2.3504Y-6.7756
X2.3583Y-6.3268
X2.3839Y-5.8701
X2.3839Y-6.9449
X2.3858Y-6.8346
X2.4035Y-5.3346
X2.4035Y-5.9134
X2.4035Y-5.9685
X2.4055Y-6.4724
X2.4094Y-6.437
X2.4094Y-6.5079
X2.4154Y-5.4528
X2.4232Y-5.9409
X2.4252Y-5.3996
X2.4252Y-6.5394
X2.4272Y-5.3071
X2.4272Y-5.5551
X2.4331Y-6.5709
X2.4508Y-6.1535
X2.4567Y-6.9094
X2.4626Y-5.2913
X2.4626Y-5.6654
X2.4724Y-6.2795
X2.4744Y-5.5984
X2.4764Y-6.7992
X2.502Y-5.374
X2.502Y-5.4606
X2.5039Y-5.689
X2.5138Y-6.0197
X2.5138Y-6.1969
X2.5177Y-5.8228
X2.5197Y-6.6811
X2.5492Y-5.563
X2.5512Y-6.126
X2.563Y-6.2874
X2.5787Y-5.752
X2.5827Y-6.315
X2.5866Y-5.3071
X2.5886Y-5.9409
X2.628Y-6.0197
X2.628Y-6.1339
X2.6358Y-5.8858
X2.6378Y-6.3189
X2.6496Y-5.6142
X2.6496Y-6.8386
X2.6575Y-6.3701
X2.6654Y-6.9843
X2.6791Y-6.0748
X2.6949Y-5.2598
X2.6988Y-5.315
X2.7323Y-5.315
X2.7323Y-6.5157
X2.7343Y-6.1299
X2.7382Y-5.5236
X2.7382Y-5.563
X2.752Y-6.0827
X2.7559Y-5.7559
X2.7579Y-5.1614
X2.7638Y-6.3189
X2.7677Y-5.5945
X2.7815Y-6.1299
X2.8012Y-5.1614
X2.8031Y-6.374
X2.8307Y-6.0709
X2.8406Y-5.9016
X2.8406Y-6.0079
X2.8622Y-6.0906
X2.876Y-5.6614
X2.8839Y-5.
X2.9154Y-5.1102
X2.9154Y-5.6969
X2.9173Y-6.5472
X2.9173Y-6.5906
X2.9173Y-6.6339
X2.9173Y-6.6772
X2.9173Y-6.7205
X2.9232Y-5.5394
X2.937Y-6.2795
X2.9508Y-5.748
X2.9528Y-6.9961
X2.9587Y-5.9016
X2.9683Y-6.5002
X2.9705Y-4.9016
X2.9783Y-5.7205
X2.9921Y-5.1083
X2.9961Y-6.2756
X3.0217Y-5.6614
X3.0453Y-5.4134
X3.0453Y-5.4724
X3.0531Y-5.5866
X3.0591Y-6.2756
X3.0689Y-5.9055
X3.0807Y-5.0098
X3.0925Y-5.4764
X3.0925Y-5.6929
X3.1083Y-6.0039
X3.124Y-6.2559
X3.128Y-5.874
X3.1358Y-5.315
X3.1398Y-5.752
X3.1476Y-5.4449
X3.1516Y-5.063
X3.1634Y-6.0472
X3.1673Y-5.9016
X3.1713Y-5.5945
X3.1772Y-6.6378
X3.1791Y-5.315
X3.1791Y-6.2598
X3.187Y-6.0157
X3.2028Y-4.9882
X3.2185Y-5.315
X3.2224Y-6.0236
X3.2244Y-6.6614
X3.2323Y-5.6929
X3.2441Y-6.5394
X3.2461Y-5.5866
X3.2736Y-6.1063
X3.2776Y-5.8386
X3.2894Y-5.3386
X3.2933Y-5.8937
X3.315Y-6.3858
X3.3209Y-5.9921
X3.3209Y-6.0276
X3.3248Y-5.4134
X3.3287Y-5.4882
X3.3445Y-5.4488
X3.3445Y-5.5354
X3.3484Y-5.378
X3.378Y-6.248
X3.3917Y-6.1063
X3.4016Y-6.3425
X3.437Y-4.8819
X3.4429Y-5.6457
X3.4508Y-5.9528
X3.4587Y-5.378
X3.4665Y-5.8327
X3.4705Y-5.7441
X3.4783Y-5.3031
X3.4783Y-6.2795
X3.4823Y-6.1063
X3.5Y-6.5039
X3.5217Y-5.4528
X3.5217Y-6.1063
X3.5236Y-6.685
X3.5256Y-5.878
X3.5256Y-5.9331
X3.5374Y-5.6496
X3.5728Y-6.2244
X3.5807Y-6.3031
X3.5984Y-6.6772
X3.6437Y-5.5079
X3.6516Y-5.0906
X3.6555Y-6.126
X3.6594Y-5.126
X3.6594Y-5.1654
X3.6713Y-6.3031
X3.6713Y-6.4409
X3.6713Y-6.5354
X3.6831Y-5.5157
X3.6831Y-6.2717
X3.685Y-6.626
X3.6929Y-4.8819
X3.7146Y-5.6496
X3.7224Y-5.8858
X3.7461Y-5.8504
X3.752Y-6.8228
X3.7579Y-6.435
X3.7697Y-5.4488
X3.7815Y-6.063
X3.7854Y-5.9803
X3.8091Y-5.5472
X3.8248Y-5.9409
X3.8327Y-6.6732
X3.8484Y-6.5354
X3.8563Y-6.1378
X3.8642Y-6.2047
X3.8681Y-5.3268
X3.872Y-5.4528
X3.878Y-5.9252
X3.8819Y-6.7205
X3.8976Y-5.8465
X3.9114Y-5.3307
X3.9234Y-5.4565
X3.9331Y-6.7835
X3.9547Y-5.3386
X3.9567Y-6.9606
X3.9724Y-5.4764
X3.9724Y-5.6181
X3.9803Y-4.8819
X3.9921Y-5.8425
X3.9961Y-6.4606
X3.998Y-5.3307
X4.0098Y-5.1142
X4.0315Y-6.0512
X4.0354Y-5.0512
X4.0768Y-6.3386
X4.0768Y-6.6417
X4.0807Y-5.2205
X4.0846Y-5.2913
X4.0846Y-5.7756
X4.0866Y-5.9409
X4.0886Y-4.9764
X4.0886Y-5.1417
X4.1122Y-5.1732
X4.1358Y-5.0906
X4.1614Y-5.9567
X4.1654Y-5.2598
X4.1732Y-5.374
X4.1949Y-5.0472
X4.2028Y-5.2559
X4.2067Y-5.1811
X4.2067Y-6.3307
X4.2382Y-6.7874
X4.2441Y-5.2913
X4.2461Y-5.1457
X4.2461Y-6.6693
X4.2697Y-5.1811
X4.2736Y-4.9134
X4.3524Y-4.9173
X4.3602Y-6.8898
X4.3898Y-6.5945
X4.4055Y-4.8858
X4.439Y-4.937
X4.439Y-6.7126
X4.4409Y-5.2598
X4.4587Y-5.8858
X4.4626Y-5.7913
X4.502Y-5.063
X4.5394Y-5.7087
X4.5394Y-6.063
X4.5571Y-5.9961
X4.6161Y-5.7874
X4.6772Y-5.0787
T2
X4.5704Y-4.9804
X4.5704Y-5.1772
T3
X4.289Y-6.8898
X4.589Y-6.8898
T4
X2.5091Y-6.9094
X2.6091Y-6.9094
X2.7256Y-6.9094
X2.8256Y-6.9094
T5
X1.4882Y-6.4469
X1.4882Y-6.624
T6
X3.0985Y-6.9725
X3.1985Y-6.9725
X3.2785Y-6.9725
X3.3785Y-6.9725
T7
X1.524Y-5.2331
X1.524Y-5.3331
X1.524Y-5.4331
X1.624Y-5.2331
X1.624Y-5.3331
X1.624Y-5.4331
X1.9051Y-4.9606
X1.9051Y-5.0606
X2.0051Y-4.9606
X2.0051Y-5.0606
X2.1051Y-4.9606
X2.1051Y-5.0606
X2.2051Y-4.9606
X2.2051Y-5.0606
X2.3051Y-4.9606
X2.3051Y-5.0606
X2.4051Y-4.9606
X2.4051Y-5.0606
X2.5051Y-4.9606
X2.5051Y-5.0606
X2.6051Y-4.9606
X2.6051Y-5.0606
X2.7051Y-4.9606
X2.7051Y-5.0606
X2.8051Y-4.9606
X2.8051Y-5.0606
X3.2728Y-4.9606
X3.2728Y-5.0606
X3.3728Y-4.9606
X3.3728Y-5.0606
X3.4728Y-4.9606
X3.4728Y-5.0606
X3.5728Y-4.9606
X3.5728Y-5.0606
X4.2827Y-5.7299
X4.2827Y-5.8399
X4.2827Y-5.9449
X4.2827Y-6.0549
X4.2827Y-6.1649
X4.3827Y-5.7849
X4.3827Y-5.8949
X4.3827Y-5.9999
X4.3827Y-6.1099
T8
X1.5886Y-6.3976
X1.5886Y-6.6732
X4.6845Y-4.941
X4.6845Y-5.2166
T9
X2.9585Y-6.8675
X3.4985Y-6.8675
T10
X1.5256Y-4.9803
X1.5256Y-6.9094
X3.8091Y-4.9803
X3.8091Y-6.9094
T11
X4.3327Y-5.4528
X4.3327Y-6.437
T0
M30
