M48
;DRILL file {KiCad 4.0.0-rc1-stable} date 1/29/2016 2:37:54 PM
;FORMAT={-:-/ absolute / inch / decimal}
FMAT,2
INCH,TZ
T1C0.016
T2C0.033
T3C0.039
T4C0.040
T5C0.047
T6C0.049
T7C0.051
T8C0.059
T9C0.063
T10C0.083
T11C0.118
%
G90
G05
M72
T1
X1.6811Y-1.9055
X1.689Y-2.5512
X1.6909Y-1.6752
X1.7244Y-1.2756
X1.7441Y-1.4606
X1.8071Y-1.7205
X1.811Y-1.4252
X1.8465Y-0.8622
X1.8465Y-1.4724
X1.8661Y-1.0906
X1.878Y-1.2677
X1.878Y-1.374
X1.8917Y-1.7126
X1.8927Y-2.562
X1.9094Y-0.7087
X1.9094Y-0.9173
X1.9154Y-0.8287
X1.9213Y-2.626
X1.9311Y-2.0472
X1.9331Y-2.7992
X1.9646Y-1.2638
X1.9961Y-2.1398
X2.Y-2.
X2.002Y-1.6732
X2.0197Y-1.0906
X2.0197Y-1.3976
X2.0236Y-0.9961
X2.0512Y-1.9252
X2.0709Y-1.7165
X2.0728Y-1.5551
X2.0748Y-1.2165
X2.0748Y-2.2677
X2.0748Y-2.7047
X2.0866Y-1.815
X2.0866Y-2.622
X2.0925Y-1.6299
X2.1063Y-2.372
X2.1339Y-1.628
X2.1339Y-2.8031
X2.1555Y-1.8996
X2.1575Y-2.626
X2.1614Y-1.2087
X2.1614Y-1.8583
X2.1791Y-2.0512
X2.1831Y-1.0571
X2.2008Y-1.5354
X2.2087Y-0.9685
X2.2106Y-1.0374
X2.2205Y-2.6732
X2.2224Y-2.3957
X2.2244Y-0.937
X2.2402Y-1.3858
X2.248Y-2.189
X2.252Y-1.1732
X2.2717Y-1.628
X2.2953Y-1.374
X2.3031Y-0.8012
X2.3031Y-1.0197
X2.311Y-1.0551
X2.315Y-2.0472
X2.3346Y-1.4331
X2.3386Y-1.6417
X2.3583Y-1.4606
X2.3858Y-0.8622
X2.3858Y-2.1181
X2.3898Y-1.7835
X2.3898Y-1.8799
X2.3937Y-1.4606
X2.4055Y-0.9528
X2.4094Y-1.4213
X2.4173Y-2.4094
X2.4252Y-1.1811
X2.4291Y-0.7598
X2.4488Y-1.0709
X2.4488Y-1.1142
X2.4488Y-1.3228
X2.4528Y-1.2283
X2.4528Y-1.6811
X2.4606Y-2.1024
X2.4606Y-2.6811
X2.4685Y-2.0512
X2.4724Y-1.3465
X2.4882Y-1.6417
X2.5098Y-1.9134
X2.5157Y-2.7953
X2.5197Y-0.9016
X2.5531Y-0.8051
X2.5551Y-1.0906
X2.5551Y-1.9134
X2.5591Y-1.7874
X2.5748Y-2.1102
X2.5827Y-2.2677
X2.5866Y-2.4488
X2.5906Y-1.1693
X2.5945Y-0.874
X2.5984Y-1.0512
X2.5984Y-1.0945
X2.622Y-1.9134
X2.626Y-1.7126
X2.6299Y-0.8583
X2.6339Y-0.7638
X2.6417Y-1.8622
X2.6457Y-2.1909
X2.6457Y-2.2638
X2.685Y-1.7008
X2.685Y-2.2598
X2.6929Y-0.7638
X2.6929Y-1.0039
X2.6969Y-1.1299
X2.7047Y-1.1732
X2.7047Y-2.5
X2.7087Y-1.4724
X2.7165Y-1.0709
X2.7165Y-1.2402
X2.7165Y-1.8858
X2.7244Y-2.1929
X2.7402Y-2.3937
X2.7441Y-1.8268
X2.748Y-1.1575
X2.7717Y-1.0295
X2.7756Y-0.7402
X2.7874Y-1.8622
X2.7874Y-1.9055
X2.7913Y-1.4134
X2.7992Y-0.7638
X2.7992Y-1.6693
X2.7992Y-2.2402
X2.8031Y-0.9213
X2.8091Y-0.9567
X2.811Y-2.1654
X2.8189Y-2.2717
X2.8268Y-0.8228
X2.8268Y-1.6496
X2.8268Y-1.9016
X2.8346Y-1.4882
X2.8386Y-1.6811
X2.8386Y-1.7205
X2.8465Y-2.0945
X2.8583Y-1.5709
X2.8622Y-1.5039
X2.8622Y-1.9331
X2.8642Y-1.8543
X2.8661Y-1.0118
X2.8661Y-1.5394
X2.874Y-1.2402
X2.878Y-0.8425
X2.8839Y-0.7677
X2.8976Y-2.5984
X2.9094Y-1.5433
X2.9331Y-1.4921
X2.9409Y-2.3583
X2.9409Y-2.4921
X2.9508Y-0.7657
X2.9528Y-0.9488
X2.9567Y-1.8898
X2.9606Y-1.811
X2.9606Y-1.9252
X2.9646Y-1.8543
X2.9724Y-1.7717
X2.9803Y-0.9213
X2.9803Y-1.689
X2.9843Y-1.7362
X2.9882Y-2.7677
X3.0079Y-2.2638
X3.0118Y-1.3622
X3.0157Y-1.0669
X3.0276Y-0.9173
X3.0276Y-1.1929
X3.0433Y-2.378
X3.0433Y-2.4921
X3.0551Y-1.0748
X3.0571Y-2.2461
X3.0591Y-2.5906
X3.0827Y-1.2559
X3.0906Y-2.0866
X3.1024Y-1.0197
X3.1024Y-1.6654
X3.1024Y-2.4685
X3.1063Y-1.2283
X3.126Y-0.8031
X3.126Y-2.0354
X3.1299Y-1.6417
X3.1339Y-1.2126
X3.1358Y-1.2461
X3.1378Y-1.0197
X3.1378Y-1.5866
X3.1378Y-2.3957
X3.1378Y-2.4449
X3.1535Y-1.0748
X3.1654Y-2.2677
X3.1693Y-2.7283
X3.1929Y-1.2717
X3.2146Y-2.4764
X3.2165Y-2.3268
X3.2205Y-1.748
X3.2205Y-1.878
X3.2205Y-2.0197
X3.2283Y-1.0295
X3.2283Y-1.0748
X3.2283Y-1.189
X3.2441Y-1.4528
X3.2638Y-1.0276
X3.2835Y-2.7953
X3.2874Y-0.8327
X3.2992Y-1.0236
X3.3071Y-1.3937
X3.311Y-2.5118
X3.3189Y-2.6457
X3.3268Y-1.065
X3.3307Y-1.7362
X3.3346Y-0.9193
X3.3583Y-1.4094
X3.3602Y-1.8602
X3.374Y-0.8661
X3.374Y-0.9173
X3.3858Y-0.7283
X3.3858Y-1.437
X3.4055Y-0.9882
X3.4055Y-2.5236
X3.4154Y-0.8209
X3.4193Y-1.2913
X3.4213Y-1.8622
X3.4232Y-2.0118
X3.4252Y-1.437
X3.437Y-0.8622
X3.4449Y-1.7756
X3.4508Y-1.3189
X3.4528Y-0.7441
X3.4587Y-2.4843
X3.4685Y-2.5669
X3.4724Y-0.8622
X3.4764Y-1.1575
X3.4764Y-1.5394
X3.4803Y-1.6457
X3.4862Y-1.3543
X3.4961Y-2.4843
X3.5Y-2.5197
X3.5197Y-2.1457
X3.5236Y-2.2638
X3.5295Y-0.9705
X3.5354Y-1.5984
X3.5354Y-1.752
X3.5394Y-1.2953
X3.5433Y-0.7756
X3.5433Y-1.8583
X3.5472Y-2.7244
X3.5512Y-1.9843
X3.5669Y-0.9646
X3.5748Y-2.0197
X3.5748Y-2.8189
X3.5827Y-2.6102
X3.5945Y-0.7323
X3.5945Y-2.5157
X3.6201Y-0.8563
X3.6201Y-0.9075
X3.6299Y-1.2992
X3.6378Y-2.8189
X3.6457Y-1.0374
X3.6693Y-2.0236
X3.6713Y-0.8563
X3.6713Y-0.9075
X3.6772Y-2.7008
X3.6929Y-2.5157
X3.7126Y-2.8307
X3.7264Y-0.8012
X3.7283Y-0.9646
X3.7283Y-1.8583
X3.7303Y-2.4843
X3.7343Y-1.315
X3.7421Y-2.3799
X3.7461Y-0.7402
X3.7559Y-1.5984
X3.7559Y-1.7402
X3.7598Y-2.6083
X3.7638Y-1.1417
X3.7638Y-2.0079
X3.7638Y-2.1299
X3.7638Y-2.4882
X3.7677Y-2.2677
X3.7677Y-2.7717
X3.7953Y-1.1654
X3.7992Y-2.5079
X3.8012Y-1.3051
X3.815Y-2.3701
X3.8268Y-1.8583
X3.8268Y-1.9291
X3.8346Y-0.9016
X3.8465Y-1.0768
X3.8543Y-2.2559
X3.8583Y-0.8425
X3.8622Y-2.0157
X3.8858Y-0.7598
X3.8898Y-2.6024
X3.8898Y-2.7047
X3.8898Y-2.8307
X3.9075Y-1.1496
X3.9154Y-0.8681
X3.9173Y-0.9646
X3.9213Y-2.5118
X3.9291Y-1.3976
X3.9291Y-2.3583
X3.9331Y-2.1654
X3.9331Y-2.5591
X3.939Y-1.313
X3.9587Y-1.6004
X3.9646Y-2.3583
X3.9665Y-2.25
X3.9685Y-1.8701
X3.9764Y-1.1535
X3.9843Y-2.3189
X3.9862Y-1.3602
X3.9862Y-1.7421
X3.9961Y-2.5984
X4.0039Y-2.3583
X4.0118Y-1.8642
X4.0157Y-1.1535
X4.0236Y-1.7402
X4.0472Y-2.3701
X4.0472Y-2.4882
X4.061Y-1.2933
X4.063Y-2.4291
X4.065Y-1.7244
X4.0827Y-1.4567
X4.0827Y-1.4961
X4.0827Y-1.5354
X4.0866Y-0.9252
X4.0945Y-2.6181
X4.0965Y-2.0177
X4.1063Y-1.3268
X4.1063Y-1.8543
X4.1063Y-2.1654
X4.122Y-1.0197
X4.122Y-1.1614
X4.122Y-2.0945
X4.1378Y-1.9882
X4.1535Y-1.4567
X4.1535Y-1.4961
X4.1535Y-1.5354
X4.1772Y-2.5039
X4.185Y-2.7283
X4.189Y-1.6535
X4.189Y-2.626
X4.2008Y-0.9882
X4.2087Y-2.4291
X4.2244Y-0.8543
X4.2244Y-1.0197
X4.2323Y-2.8307
X4.2421Y-2.25
X4.2421Y-2.3189
X4.2657Y-0.7697
X4.2795Y-2.1457
X4.2913Y-1.5394
X4.2953Y-1.0472
X4.2953Y-1.1339
X4.2953Y-1.2323
X4.2953Y-1.3386
X4.2953Y-1.4291
X4.2953Y-1.6535
X4.2953Y-1.8858
X4.2953Y-2.5157
X4.2992Y-2.6378
X4.3031Y-0.937
X4.311Y-2.3189
X4.3445Y-2.0098
X4.3465Y-2.4134
X4.3504Y-1.6535
X4.3504Y-1.8858
X4.3524Y-0.7559
X4.3583Y-0.874
X4.3622Y-2.7402
X4.3642Y-0.8012
X4.3799Y-1.5118
X4.3898Y-1.7402
X4.4016Y-2.6496
X4.4055Y-1.0551
X4.4055Y-1.1614
X4.4055Y-1.2598
X4.4055Y-1.3386
X4.4055Y-1.4291
X4.4055Y-2.5236
X4.4331Y-2.2087
X4.4331Y-2.2441
X4.4331Y-2.8307
X4.439Y-0.7205
X4.4449Y-0.9803
X4.4488Y-2.3976
X4.4547Y-1.6555
X4.4567Y-0.8701
X4.4803Y-1.8268
X4.5039Y-1.4291
X4.5118Y-2.5354
X4.5236Y-1.9331
X4.5236Y-2.6614
X4.5315Y-2.0787
X4.5335Y-1.1181
X4.5394Y-0.8701
X4.5394Y-0.9803
X4.5512Y-2.748
X4.5906Y-1.4547
X4.5925Y-1.6791
X4.5945Y-1.8228
X4.5965Y-0.7244
X4.6063Y-2.4213
X4.622Y-2.8386
X4.626Y-0.9803
X4.6299Y-2.5472
X4.6299Y-2.6693
X4.6575Y-0.7992
X4.6575Y-0.8701
X4.6732Y-2.
X4.7165Y-1.1181
X4.7205Y-2.7795
X4.7283Y-0.8071
X4.7283Y-0.8701
X4.7283Y-0.9803
X4.7283Y-2.4606
X4.7283Y-2.5551
X4.7323Y-0.7402
X4.7323Y-2.685
X4.7559Y-1.8819
X4.7598Y-1.6496
X4.8189Y-2.1024
X4.8661Y-1.7598
X4.9016Y-1.9803
X4.9094Y-2.3228
T2
X4.7968Y-1.3937
X4.7968Y-1.5906
T3
X1.7146Y-2.2343
X1.7146Y-2.4114
T4
X2.0244Y-0.7543
X2.0244Y-0.8543
X2.1244Y-0.7543
X2.1244Y-0.8543
X2.2244Y-0.7543
X2.2244Y-0.8543
T5
X2.8346Y-2.5236
X2.8346Y-2.7205
T6
X4.5906Y-1.937
X4.5906Y-2.1339
T7
X1.815Y-2.185
X1.815Y-2.4606
X4.9109Y-1.3544
X4.9109Y-1.63
T8
X1.7925Y-1.0831
X2.1783Y-1.715
T9
X4.6732Y-1.4449
T10
X4.6732Y-2.0984
T11
X1.752Y-0.8071
X1.752Y-2.7362
X4.0354Y-0.8071
X4.0354Y-2.7362
T0
M30
