G04 #@! TF.FileFunction,Copper,L2,Bot,Signal*
%FSLAX46Y46*%
G04 Gerber Fmt 4.6, Leading zero omitted, Abs format (unit mm)*
G04 Created by KiCad (PCBNEW 4.0.0-rc1-stable) date 11/3/2015 9:26:12 AM*
%MOMM*%
G01*
G04 APERTURE LIST*
%ADD10C,0.100000*%
%ADD11R,1.727200X1.727200*%
%ADD12O,1.727200X1.727200*%
%ADD13O,3.014980X1.506220*%
%ADD14R,5.000000X11.500000*%
%ADD15C,1.800000*%
%ADD16C,1.700000*%
%ADD17R,1.700000X1.700000*%
%ADD18C,6.200000*%
%ADD19C,0.600000*%
%ADD20C,0.250000*%
%ADD21C,0.400000*%
%ADD22C,0.220000*%
%ADD23C,0.030000*%
G04 APERTURE END LIST*
D10*
D11*
X149500000Y-135500000D03*
D12*
X149500000Y-132960000D03*
X146960000Y-135500000D03*
X146960000Y-132960000D03*
X144420000Y-135500000D03*
X144420000Y-132960000D03*
X141880000Y-135500000D03*
X141880000Y-132960000D03*
X139340000Y-135500000D03*
X139340000Y-132960000D03*
X136800000Y-135500000D03*
X136800000Y-132960000D03*
X134260000Y-135500000D03*
X134260000Y-132960000D03*
X131720000Y-135500000D03*
X131720000Y-132960000D03*
X129180000Y-135500000D03*
X129180000Y-132960000D03*
X126640000Y-135500000D03*
X126640000Y-132960000D03*
D13*
X117000000Y-105480000D03*
X117000000Y-108020000D03*
D14*
X196000000Y-132500000D03*
X196000000Y-88500000D03*
D15*
X193970000Y-117990000D03*
X184170000Y-101940000D03*
D16*
X123500000Y-102000000D03*
D17*
X128500000Y-102000000D03*
D18*
X117000000Y-135000000D03*
X117000000Y-86000000D03*
X175000000Y-86000000D03*
X175000000Y-135000000D03*
D19*
X114600000Y-129000000D03*
X114600000Y-121300000D03*
X160000000Y-112400000D03*
X133500000Y-118000000D03*
X133500000Y-117000000D03*
X133500000Y-114000000D03*
X133500000Y-111500000D03*
X161700000Y-87200000D03*
X183500000Y-96600000D03*
X185200000Y-94900000D03*
X174400000Y-100200000D03*
X143700000Y-118700000D03*
X141100000Y-131300000D03*
X150400000Y-87400000D03*
X139500000Y-124500000D03*
X139500000Y-126000000D03*
X139500000Y-127500000D03*
X139500000Y-119100000D03*
X135500000Y-122500000D03*
X135500000Y-124500000D03*
X154500000Y-87400000D03*
X167600000Y-87200000D03*
X166000000Y-102500000D03*
X166000000Y-98500000D03*
X142000000Y-94000000D03*
X141000000Y-95000000D03*
X143000000Y-93000000D03*
X133000000Y-84000000D03*
X127000000Y-84000000D03*
X137500000Y-85000000D03*
X142500000Y-90000000D03*
X137500000Y-90000000D03*
X137500000Y-95000000D03*
X135500000Y-119500000D03*
X135500000Y-121000000D03*
X135500000Y-126000000D03*
X135500000Y-127500000D03*
X135500000Y-129000000D03*
X135500000Y-107500000D03*
X135500000Y-109000000D03*
X135500000Y-110500000D03*
X135500000Y-112000000D03*
X135500000Y-113500000D03*
X140000000Y-96000000D03*
X139000000Y-97000000D03*
X138000000Y-98000000D03*
X137000000Y-99000000D03*
X136000000Y-100000000D03*
X135500000Y-106000000D03*
X135500000Y-104500000D03*
X135500000Y-103000000D03*
X135500000Y-101500000D03*
X135500000Y-118000000D03*
X135500000Y-116500000D03*
X135500000Y-115000000D03*
X144000000Y-92000000D03*
X145000000Y-90500000D03*
X145000000Y-89000000D03*
X139500000Y-113500000D03*
X139500000Y-112000000D03*
X139500000Y-110500000D03*
X139500000Y-109000000D03*
X139500000Y-107500000D03*
X139500000Y-106000000D03*
X139500000Y-104500000D03*
X139400000Y-114900000D03*
X149000000Y-89000000D03*
X149000000Y-90500000D03*
X149000000Y-92000000D03*
X148500000Y-93500000D03*
X147500000Y-94500000D03*
X146500000Y-95500000D03*
X145500000Y-96500000D03*
X144500000Y-97500000D03*
X143500000Y-98500000D03*
X142500000Y-99500000D03*
X141500000Y-100500000D03*
X140500000Y-101500000D03*
X139500000Y-103000000D03*
X139500000Y-117600000D03*
X137500000Y-103000000D03*
X137500000Y-104500000D03*
X137500000Y-106000000D03*
X137500000Y-107500000D03*
X137500000Y-109000000D03*
X137500000Y-110500000D03*
X137500000Y-112000000D03*
X137503543Y-113495217D03*
X137500000Y-115000000D03*
X137500000Y-116500000D03*
X137500000Y-118000000D03*
X137500000Y-119500000D03*
X137500000Y-121000000D03*
X137500000Y-122500000D03*
X137500000Y-129000000D03*
X137500000Y-127500000D03*
X137500000Y-126000000D03*
X137500000Y-124500000D03*
X147000000Y-89500000D03*
X147000000Y-91000000D03*
X146500000Y-92500000D03*
X145500000Y-93500000D03*
X144500000Y-94500000D03*
X143500000Y-95500000D03*
X142500000Y-96500000D03*
X141500000Y-97500000D03*
X140500000Y-98500000D03*
X139500000Y-99500000D03*
X138500000Y-100500000D03*
X147000000Y-88400000D03*
X137500000Y-101500000D03*
X145000000Y-87300000D03*
X192100000Y-94900000D03*
X189800000Y-94900000D03*
X187400000Y-94900000D03*
X114700000Y-106800000D03*
X114600000Y-114000000D03*
X119000000Y-121500000D03*
X122200000Y-127000000D03*
X122200000Y-123900000D03*
X122200000Y-121700000D03*
X170800000Y-115700000D03*
X120000000Y-102500000D03*
X115000000Y-102500000D03*
X115000000Y-97500000D03*
X120000000Y-97500000D03*
X125000000Y-97500000D03*
X130000000Y-97500000D03*
X120000000Y-92500000D03*
X115000000Y-92500000D03*
X123180000Y-87940000D03*
X157500000Y-110000000D03*
X152500000Y-110000000D03*
X147500000Y-110000000D03*
X147500000Y-105000000D03*
X152500000Y-105000000D03*
X157500000Y-105000000D03*
X153500000Y-94750000D03*
X157750000Y-94750000D03*
X163000000Y-94500000D03*
X163000000Y-93500000D03*
X162500000Y-92500000D03*
X163000000Y-91500000D03*
X163000000Y-90500000D03*
X164000000Y-90500000D03*
X190000000Y-83500000D03*
X185000000Y-83500000D03*
X180000000Y-83500000D03*
X170000000Y-83500000D03*
X165000000Y-83500000D03*
X155500000Y-127500000D03*
X155500000Y-123500000D03*
X178500000Y-112500000D03*
X180200000Y-98600000D03*
X182850000Y-98600000D03*
X177500000Y-97500000D03*
X197600000Y-96100000D03*
X196400000Y-95100000D03*
X194800000Y-95100000D03*
X193200000Y-95100000D03*
X192600000Y-93600000D03*
X192600000Y-92000000D03*
X192600000Y-90400000D03*
X180300000Y-95100000D03*
X182000000Y-94400000D03*
X182900000Y-93100000D03*
X183300000Y-91900000D03*
X184800000Y-91700000D03*
X186400000Y-91700000D03*
X188000000Y-91700000D03*
X189600000Y-91600000D03*
X188600000Y-90400000D03*
X187000000Y-90400000D03*
X185400000Y-90400000D03*
X183800000Y-90400000D03*
X182300000Y-91000000D03*
X181200000Y-92200000D03*
X180000000Y-93300000D03*
X178600000Y-94000000D03*
X177100000Y-94400000D03*
X175500000Y-94400000D03*
X173900000Y-94400000D03*
X172300000Y-94400000D03*
X170700000Y-94400000D03*
X169100000Y-94400000D03*
X167500000Y-94400000D03*
X165900000Y-94400000D03*
X192600000Y-83900000D03*
X192600000Y-85500000D03*
X191700000Y-86600000D03*
X190100000Y-86600000D03*
X188500000Y-86600000D03*
X186900000Y-86600000D03*
X185300000Y-86600000D03*
X183700000Y-86600000D03*
X182100000Y-86900000D03*
X180600000Y-87500000D03*
X179400000Y-88500000D03*
X178300000Y-89600000D03*
X177000000Y-90500000D03*
X175400000Y-90600000D03*
X173800000Y-90600000D03*
X172200000Y-90600000D03*
X170600000Y-90600000D03*
X169000000Y-90600000D03*
X167400000Y-90600000D03*
X165800000Y-90600000D03*
X162500000Y-115000000D03*
X167500000Y-117500000D03*
X172500000Y-120000000D03*
X187500000Y-127500000D03*
X192500000Y-122500000D03*
X187500000Y-122500000D03*
X182500000Y-122500000D03*
X177500000Y-122500000D03*
X177500000Y-117500000D03*
X182500000Y-117500000D03*
X182500000Y-112500000D03*
X178500000Y-107500000D03*
X177500000Y-102500000D03*
X182500000Y-102500000D03*
X182500000Y-107500000D03*
X187500000Y-97500000D03*
X187500000Y-102500000D03*
X187500000Y-107500000D03*
X187500000Y-112500000D03*
X187500000Y-117500000D03*
X192500000Y-112500000D03*
X192500000Y-107500000D03*
X192500000Y-102500000D03*
X197500000Y-102500000D03*
X197500000Y-107500000D03*
X197500000Y-112500000D03*
X197500000Y-117500000D03*
X197500000Y-122500000D03*
X160000000Y-127500000D03*
X165000000Y-127500000D03*
X165000000Y-132500000D03*
X160000000Y-132500000D03*
X155000000Y-132500000D03*
X155000000Y-137500000D03*
X160000000Y-137500000D03*
X165000000Y-137500000D03*
X170000000Y-137500000D03*
X170000000Y-132500000D03*
X180000000Y-132500000D03*
X180000000Y-137500000D03*
X185000000Y-137500000D03*
X190000000Y-137500000D03*
X181350000Y-131100000D03*
X184350000Y-132250000D03*
X182850000Y-131650000D03*
X187350000Y-133400000D03*
X188850000Y-133950000D03*
X190450000Y-134300000D03*
X185850000Y-132800000D03*
X155500000Y-117700000D03*
X155700000Y-119050000D03*
X156350000Y-120500000D03*
X157450000Y-121700000D03*
X158850000Y-122500000D03*
X160350000Y-123100000D03*
X161850000Y-123650000D03*
X163350000Y-124200000D03*
X164850000Y-124800000D03*
X166350000Y-125350000D03*
X167850000Y-125950000D03*
X169350000Y-126550000D03*
X170850000Y-127100000D03*
X172350000Y-127700000D03*
X173850000Y-128250000D03*
X175350000Y-128800000D03*
X176850000Y-129350000D03*
X178350000Y-129950000D03*
X179850000Y-130500000D03*
X192050000Y-134350000D03*
X192700000Y-135800000D03*
X192700000Y-137400000D03*
X188900000Y-129950000D03*
X176900000Y-125400000D03*
X178400000Y-125950000D03*
X179900000Y-126550000D03*
X181400000Y-127100000D03*
X182900000Y-127700000D03*
X184400000Y-128250000D03*
X185900000Y-128850000D03*
X187400000Y-129400000D03*
X173900000Y-124250000D03*
X172400000Y-123650000D03*
X170900000Y-123100000D03*
X169400000Y-122500000D03*
X167900000Y-121950000D03*
X166400000Y-121400000D03*
X164900000Y-120800000D03*
X163400000Y-120250000D03*
X161900000Y-119650000D03*
X160400000Y-119100000D03*
X159300000Y-117900000D03*
X175400000Y-124800000D03*
X197450000Y-125900000D03*
X195850000Y-125900000D03*
X194250000Y-125900000D03*
X192650000Y-125900000D03*
X192650000Y-127500000D03*
X192650000Y-129100000D03*
X192050000Y-130600000D03*
X190450000Y-130450000D03*
X159500000Y-116800000D03*
X159500000Y-115800000D03*
X159500000Y-114800000D03*
X158500000Y-114800000D03*
X157500000Y-114250000D03*
X156500000Y-114800000D03*
X155500000Y-114800000D03*
X174300000Y-107700000D03*
X169200000Y-102600000D03*
X169200000Y-107100000D03*
X166700000Y-114100000D03*
X168000000Y-116200000D03*
X169200000Y-114100000D03*
X174600000Y-115200000D03*
X129500000Y-84900000D03*
X129500000Y-89200000D03*
X161900000Y-108200000D03*
X161900000Y-107000000D03*
X162000000Y-105700000D03*
X162800000Y-106500000D03*
X162800000Y-107500000D03*
X166600000Y-106000000D03*
X166600000Y-107000000D03*
X165700000Y-106500000D03*
X165700000Y-107500000D03*
X162800000Y-110500000D03*
X162700000Y-111500000D03*
X163700000Y-111500000D03*
X164700000Y-111500000D03*
X165700000Y-111500000D03*
X165700000Y-110500000D03*
X132200000Y-107500000D03*
X157500000Y-98000000D03*
X150500000Y-98000000D03*
X158000000Y-91000000D03*
X158000000Y-89500000D03*
X158000000Y-88000000D03*
X150200000Y-128100000D03*
X144300000Y-114500000D03*
X143700000Y-117700000D03*
X146400000Y-121000000D03*
X121200000Y-119500000D03*
X121200000Y-117700000D03*
X121200000Y-115900000D03*
X121200000Y-113900000D03*
X146000000Y-126700000D03*
X144400000Y-129300000D03*
X132500000Y-126700000D03*
X134000000Y-130000000D03*
X158900000Y-97800000D03*
X169300000Y-98100000D03*
X131500000Y-89600000D03*
X129300000Y-90100000D03*
X135100000Y-102300000D03*
X145600000Y-114600000D03*
X145700000Y-118700000D03*
X175000000Y-96550000D03*
X175000000Y-99000000D03*
X146400000Y-118000000D03*
X146400000Y-114600000D03*
X159700000Y-98200000D03*
X169300000Y-100700000D03*
X169300000Y-99800000D03*
X160500000Y-98000000D03*
X169300000Y-98900000D03*
X160900000Y-97200000D03*
X150000000Y-120250000D03*
X150000000Y-113750000D03*
X149500000Y-119500000D03*
X149000000Y-113750000D03*
X151400000Y-136800000D03*
X150100000Y-112800000D03*
X151200000Y-117800000D03*
X160800000Y-101700000D03*
X170300000Y-98300000D03*
X152400000Y-134200000D03*
X143000000Y-113600000D03*
X156500000Y-90300000D03*
X149600000Y-88100000D03*
X142800000Y-114400000D03*
X147700000Y-87500000D03*
X141800000Y-114400000D03*
X146300000Y-87500000D03*
X145900000Y-111500000D03*
X141100000Y-130300000D03*
X140700000Y-128900000D03*
X144200000Y-112100000D03*
X148800000Y-130100000D03*
X149100000Y-120300000D03*
X148500000Y-117600000D03*
D20*
X114600000Y-121300000D02*
X114600000Y-129000000D01*
X160000000Y-112800000D02*
X160300000Y-113100000D01*
X160000000Y-112400000D02*
X160000000Y-112800000D01*
X133500000Y-117000000D02*
X133500000Y-118000000D01*
X133500000Y-111500000D02*
X133500000Y-114000000D01*
X167600000Y-87200000D02*
X161700000Y-87200000D01*
X187400000Y-94900000D02*
X185200000Y-94900000D01*
X183600000Y-96700000D02*
X183600000Y-97200000D01*
X183500000Y-96600000D02*
X183600000Y-96700000D01*
X174500000Y-100300000D02*
X174900000Y-100300000D01*
X174400000Y-100200000D02*
X174500000Y-100300000D01*
X143800000Y-118800000D02*
X144400000Y-118800000D01*
X143700000Y-118700000D02*
X143800000Y-118800000D01*
X139500000Y-127500000D02*
X139500000Y-129700000D01*
X139500000Y-129700000D02*
X141100000Y-131300000D01*
X150400000Y-87400000D02*
X151000000Y-87400000D01*
X139500000Y-124500000D02*
X139500000Y-123500000D01*
X139500000Y-127500000D02*
X139500000Y-126000000D01*
X139500000Y-117600000D02*
X139500000Y-119100000D01*
X147000000Y-88400000D02*
X147000000Y-84700000D01*
X147000000Y-84700000D02*
X146200000Y-84700000D01*
X146200000Y-84700000D02*
X145700000Y-84700000D01*
X145700000Y-84700000D02*
X145500000Y-84900000D01*
X145500000Y-84900000D02*
X145000000Y-87300000D01*
X135500000Y-101500000D02*
X135900000Y-101900000D01*
X135900000Y-101900000D02*
X135900000Y-102600000D01*
X135900000Y-102600000D02*
X135500000Y-103000000D01*
X140500000Y-101500000D02*
X139500000Y-102500000D01*
X139500000Y-102500000D02*
X139500000Y-103000000D01*
X137500000Y-101500000D02*
X137500000Y-103000000D01*
X137500000Y-122500000D02*
X137500000Y-124500000D01*
X135500000Y-122500000D02*
X135500000Y-124500000D01*
X135500000Y-124500000D02*
X135500000Y-126000000D01*
X135500000Y-121000000D02*
X135500000Y-122500000D01*
X154500000Y-87400000D02*
X154500000Y-87600000D01*
X165000000Y-83500000D02*
X165000000Y-84600000D01*
X165000000Y-84600000D02*
X167600000Y-87200000D01*
X166000000Y-98500000D02*
X166000000Y-97900000D01*
X141000000Y-95000000D02*
X141000000Y-94000000D01*
X142000000Y-94000000D02*
X141000000Y-94000000D01*
X143000000Y-93000000D02*
X142000000Y-93000000D01*
X137500000Y-85000000D02*
X136500000Y-84000000D01*
X136500000Y-84000000D02*
X133000000Y-84000000D01*
X127000000Y-84000000D02*
X125000000Y-84000000D01*
X125000000Y-84000000D02*
X123000000Y-86000000D01*
X142500000Y-90000000D02*
X137500000Y-85000000D01*
X137500000Y-95000000D02*
X137500000Y-90000000D01*
X135500000Y-119000000D02*
X135500000Y-119500000D01*
X135500000Y-127500000D02*
X135500000Y-129000000D01*
X135500000Y-109000000D02*
X135500000Y-110500000D01*
X135500000Y-112000000D02*
X135500000Y-113500000D01*
X136000000Y-100000000D02*
X135500000Y-101500000D01*
X140000000Y-96000000D02*
X139000000Y-97000000D01*
X138000000Y-98000000D02*
X137000000Y-99000000D01*
X135500000Y-103000000D02*
X135500000Y-104500000D01*
X135500000Y-106000000D02*
X135500000Y-107500000D01*
X135500000Y-115000000D02*
X135500000Y-116500000D01*
X135500000Y-118000000D02*
X135500000Y-119000000D01*
X144000000Y-92000000D02*
X143000000Y-93000000D01*
X145000000Y-89000000D02*
X145000000Y-90500000D01*
X139400000Y-114900000D02*
X139500000Y-114800000D01*
X139500000Y-114800000D02*
X139500000Y-113500000D01*
X139500000Y-112000000D02*
X139500000Y-110500000D01*
X139500000Y-109000000D02*
X139500000Y-107500000D01*
X139500000Y-106000000D02*
X139500000Y-104500000D01*
X149000000Y-90500000D02*
X149000000Y-89000000D01*
X149000000Y-93000000D02*
X149000000Y-92000000D01*
X148500000Y-93500000D02*
X149000000Y-93000000D01*
X146500000Y-95500000D02*
X147500000Y-94500000D01*
X144500000Y-97500000D02*
X145500000Y-96500000D01*
X142500000Y-99500000D02*
X143500000Y-98500000D01*
X140500000Y-101500000D02*
X141500000Y-100500000D01*
X139500000Y-103000000D02*
X140000000Y-103500000D01*
X139500000Y-117600000D02*
X139500000Y-118400000D01*
X137500000Y-127500000D02*
X137600000Y-127400000D01*
X137500000Y-103000000D02*
X137500000Y-104500000D01*
X137500000Y-106000000D02*
X137500000Y-107500000D01*
X137500000Y-109000000D02*
X137500000Y-110500000D01*
X137500000Y-112000000D02*
X137503543Y-112003543D01*
X137503543Y-112003543D02*
X137503543Y-113495217D01*
X137500000Y-115000000D02*
X137500000Y-116500000D01*
X137500000Y-118000000D02*
X137500000Y-119500000D01*
X137500000Y-121000000D02*
X137500000Y-122500000D01*
X137500000Y-127500000D02*
X137500000Y-129000000D01*
X137500000Y-124500000D02*
X137500000Y-126000000D01*
X147000000Y-89500000D02*
X147000000Y-91000000D01*
X146500000Y-92500000D02*
X145500000Y-93500000D01*
X144500000Y-94500000D02*
X143500000Y-95500000D01*
X142500000Y-96500000D02*
X141500000Y-97500000D01*
X140500000Y-98500000D02*
X139500000Y-99500000D01*
X137500000Y-101500000D02*
X138500000Y-100500000D01*
X145000000Y-87300000D02*
X145000000Y-87400000D01*
X187400000Y-94900000D02*
X187100000Y-94900000D01*
X114700000Y-106800000D02*
X114700000Y-113900000D01*
X114700000Y-113900000D02*
X114600000Y-114000000D01*
X118800000Y-121500000D02*
X119000000Y-121500000D01*
X122200000Y-127000000D02*
X122200000Y-123900000D01*
X122200000Y-121700000D02*
X122200000Y-121400000D01*
X170800000Y-115700000D02*
X170800000Y-115400000D01*
X120000000Y-102500000D02*
X115000000Y-102500000D01*
X115000000Y-97500000D02*
X120000000Y-97500000D01*
X125000000Y-97500000D02*
X130000000Y-97500000D01*
X120000000Y-92500000D02*
X115000000Y-92500000D01*
X123180000Y-87940000D02*
X122500000Y-85000000D01*
X162800000Y-107500000D02*
X160300000Y-110000000D01*
X160300000Y-110000000D02*
X157500000Y-110000000D01*
X152500000Y-110000000D02*
X147500000Y-110000000D01*
X147500000Y-105000000D02*
X152500000Y-105000000D01*
X158000000Y-91000000D02*
X154250000Y-94750000D01*
X154250000Y-94750000D02*
X153500000Y-94750000D01*
X157750000Y-94750000D02*
X157750000Y-94500000D01*
X157750000Y-94500000D02*
X158000000Y-94250000D01*
X163000000Y-94500000D02*
X163000000Y-93500000D01*
X162500000Y-92500000D02*
X162500000Y-92000000D01*
X162500000Y-92000000D02*
X163000000Y-91500000D01*
X163000000Y-90500000D02*
X164000000Y-90500000D01*
X190000000Y-83500000D02*
X185000000Y-83500000D01*
X170000000Y-83500000D02*
X165000000Y-83500000D01*
X155500000Y-127500000D02*
X155500000Y-123500000D01*
X192500000Y-112500000D02*
X187500000Y-112500000D01*
X178500000Y-112500000D02*
X179500000Y-112500000D01*
X180200000Y-98600000D02*
X180200000Y-98300000D01*
X183000000Y-98450000D02*
X183000000Y-98350000D01*
X182850000Y-98600000D02*
X183000000Y-98450000D01*
X177500000Y-97500000D02*
X178150000Y-97500000D01*
X197500000Y-96200000D02*
X197000000Y-96200000D01*
X197600000Y-96100000D02*
X197500000Y-96200000D01*
X194800000Y-95100000D02*
X196400000Y-95100000D01*
X193200000Y-94200000D02*
X193200000Y-95100000D01*
X192600000Y-93600000D02*
X193200000Y-94200000D01*
X192600000Y-90400000D02*
X192600000Y-92000000D01*
X181300000Y-95100000D02*
X180300000Y-95100000D01*
X182000000Y-94400000D02*
X181300000Y-95100000D01*
X182900000Y-92300000D02*
X182900000Y-93100000D01*
X183300000Y-91900000D02*
X182900000Y-92300000D01*
X186400000Y-91700000D02*
X184800000Y-91700000D01*
X188100000Y-91600000D02*
X188000000Y-91700000D01*
X189600000Y-91600000D02*
X188100000Y-91600000D01*
X187000000Y-90400000D02*
X188600000Y-90400000D01*
X183800000Y-90400000D02*
X185400000Y-90400000D01*
X181200000Y-92100000D02*
X182300000Y-91000000D01*
X181200000Y-92200000D02*
X181200000Y-92100000D01*
X179300000Y-94000000D02*
X180000000Y-93300000D01*
X178600000Y-94000000D02*
X179300000Y-94000000D01*
X175500000Y-94400000D02*
X177100000Y-94400000D01*
X172300000Y-94400000D02*
X173900000Y-94400000D01*
X169100000Y-94400000D02*
X170700000Y-94400000D01*
X165900000Y-94400000D02*
X167500000Y-94400000D01*
X192600000Y-85500000D02*
X192600000Y-83900000D01*
X190100000Y-86600000D02*
X191700000Y-86600000D01*
X186900000Y-86600000D02*
X188500000Y-86600000D01*
X183700000Y-86600000D02*
X185300000Y-86600000D01*
X181200000Y-86900000D02*
X182100000Y-86900000D01*
X180600000Y-87500000D02*
X181200000Y-86900000D01*
X178300000Y-89600000D02*
X179400000Y-88500000D01*
X175500000Y-90500000D02*
X177000000Y-90500000D01*
X175400000Y-90600000D02*
X175500000Y-90500000D01*
X172200000Y-90600000D02*
X173800000Y-90600000D01*
X169000000Y-90600000D02*
X170600000Y-90600000D01*
X165800000Y-90600000D02*
X167400000Y-90600000D01*
X177500000Y-120000000D02*
X172500000Y-120000000D01*
X165000000Y-117500000D02*
X162500000Y-115000000D01*
X167500000Y-117500000D02*
X165000000Y-117500000D01*
X192500000Y-122500000D02*
X187500000Y-127500000D01*
X182500000Y-122500000D02*
X187500000Y-122500000D01*
X177500000Y-117500000D02*
X177500000Y-120000000D01*
X177500000Y-120000000D02*
X177500000Y-122500000D01*
X182500000Y-112500000D02*
X182500000Y-117500000D01*
X180000000Y-105000000D02*
X178500000Y-107500000D01*
X177500000Y-102500000D02*
X180000000Y-105000000D01*
X182500000Y-107500000D02*
X182500000Y-102500000D01*
X187500000Y-102500000D02*
X187500000Y-97500000D01*
X187500000Y-112500000D02*
X187500000Y-107500000D01*
X190000000Y-117500000D02*
X187500000Y-117500000D01*
X192500000Y-115000000D02*
X190000000Y-117500000D01*
X192500000Y-107500000D02*
X192500000Y-112500000D01*
X197500000Y-102500000D02*
X192500000Y-102500000D01*
X197500000Y-112500000D02*
X197500000Y-107500000D01*
X197500000Y-122500000D02*
X197500000Y-117500000D01*
X165000000Y-127500000D02*
X160000000Y-127500000D01*
X160000000Y-132500000D02*
X165000000Y-132500000D01*
X155000000Y-137500000D02*
X155000000Y-132500000D01*
X165000000Y-137500000D02*
X160000000Y-137500000D01*
X170000000Y-132500000D02*
X170000000Y-137500000D01*
X180000000Y-137500000D02*
X180000000Y-132500000D01*
X190000000Y-137500000D02*
X185000000Y-137500000D01*
X185850000Y-132800000D02*
X184900000Y-132800000D01*
X184900000Y-132800000D02*
X184350000Y-132250000D01*
X182850000Y-131650000D02*
X181900000Y-131650000D01*
X181900000Y-131650000D02*
X181350000Y-131100000D01*
X192050000Y-134350000D02*
X192000000Y-134300000D01*
X187900000Y-133950000D02*
X187350000Y-133400000D01*
X188850000Y-133950000D02*
X187900000Y-133950000D01*
X192000000Y-134300000D02*
X190450000Y-134300000D01*
X155500000Y-117700000D02*
X155500000Y-117000000D01*
X155700000Y-119850000D02*
X155700000Y-119050000D01*
X156350000Y-120500000D02*
X155700000Y-119850000D01*
X158250000Y-122500000D02*
X157450000Y-121700000D01*
X158850000Y-122500000D02*
X158250000Y-122500000D01*
X160900000Y-123650000D02*
X160350000Y-123100000D01*
X161850000Y-123650000D02*
X160900000Y-123650000D01*
X163950000Y-124800000D02*
X163350000Y-124200000D01*
X164850000Y-124800000D02*
X163950000Y-124800000D01*
X166950000Y-125950000D02*
X166350000Y-125350000D01*
X167850000Y-125950000D02*
X166950000Y-125950000D01*
X169900000Y-127100000D02*
X169350000Y-126550000D01*
X170850000Y-127100000D02*
X169900000Y-127100000D01*
X172900000Y-128250000D02*
X172350000Y-127700000D01*
X173850000Y-128250000D02*
X172900000Y-128250000D01*
X175900000Y-129350000D02*
X175350000Y-128800000D01*
X176850000Y-129350000D02*
X175900000Y-129350000D01*
X178900000Y-130500000D02*
X178350000Y-129950000D01*
X179850000Y-130500000D02*
X178900000Y-130500000D01*
X192700000Y-135000000D02*
X192700000Y-135800000D01*
X192050000Y-134350000D02*
X192700000Y-135000000D01*
X192700000Y-137400000D02*
X192400000Y-137400000D01*
X176900000Y-125400000D02*
X177850000Y-125400000D01*
X177850000Y-125400000D02*
X178400000Y-125950000D01*
X179900000Y-126550000D02*
X180850000Y-126550000D01*
X180850000Y-126550000D02*
X181400000Y-127100000D01*
X182900000Y-127700000D02*
X183850000Y-127700000D01*
X183850000Y-127700000D02*
X184400000Y-128250000D01*
X185900000Y-128850000D02*
X186850000Y-128850000D01*
X186850000Y-128850000D02*
X187400000Y-129400000D01*
X174850000Y-124250000D02*
X175400000Y-124800000D01*
X173900000Y-124250000D02*
X174850000Y-124250000D01*
X171850000Y-123100000D02*
X172400000Y-123650000D01*
X170900000Y-123100000D02*
X171850000Y-123100000D01*
X168850000Y-121950000D02*
X169400000Y-122500000D01*
X167900000Y-121950000D02*
X168850000Y-121950000D01*
X165800000Y-120800000D02*
X166400000Y-121400000D01*
X164900000Y-120800000D02*
X165800000Y-120800000D01*
X162800000Y-119650000D02*
X163400000Y-120250000D01*
X161900000Y-119650000D02*
X162800000Y-119650000D01*
X159300000Y-118000000D02*
X160400000Y-119100000D01*
X159300000Y-117900000D02*
X159300000Y-118000000D01*
X197450000Y-125900000D02*
X197450000Y-125700000D01*
X194250000Y-125900000D02*
X195850000Y-125900000D01*
X192650000Y-126500000D02*
X192650000Y-125900000D01*
X192650000Y-127500000D02*
X192650000Y-126500000D01*
X192050000Y-129700000D02*
X192650000Y-129100000D01*
X192050000Y-130600000D02*
X192050000Y-129700000D01*
X189950000Y-129950000D02*
X190450000Y-130450000D01*
X188900000Y-129950000D02*
X189950000Y-129950000D01*
X159500000Y-116800000D02*
X159000000Y-117300000D01*
X159500000Y-114800000D02*
X159500000Y-115800000D01*
X157500000Y-114250000D02*
X158500000Y-114800000D01*
X155500000Y-114800000D02*
X156500000Y-114800000D01*
X174300000Y-106000000D02*
X174300000Y-107700000D01*
X173800000Y-105500000D02*
X174300000Y-106000000D01*
X172100000Y-105500000D02*
X173800000Y-105500000D01*
X169200000Y-102600000D02*
X172100000Y-105500000D01*
X166700000Y-114100000D02*
X166500000Y-114100000D01*
X169200000Y-114100000D02*
X169300000Y-114100000D01*
X175300000Y-114500000D02*
X175400000Y-114500000D01*
X174600000Y-115200000D02*
X175300000Y-114500000D01*
X129500000Y-84900000D02*
X129600000Y-84900000D01*
X129500000Y-89200000D02*
X129700000Y-89200000D01*
X161900000Y-108200000D02*
X161700000Y-108200000D01*
X161900000Y-105800000D02*
X161900000Y-107000000D01*
X162000000Y-105700000D02*
X161900000Y-105800000D01*
X162800000Y-107500000D02*
X162800000Y-106500000D01*
X166600000Y-107000000D02*
X166600000Y-106000000D01*
X165700000Y-107500000D02*
X165700000Y-106500000D01*
X162800000Y-111400000D02*
X162800000Y-110500000D01*
X162700000Y-111500000D02*
X162800000Y-111400000D01*
X164700000Y-111500000D02*
X163700000Y-111500000D01*
X165700000Y-110500000D02*
X165700000Y-111500000D01*
X132200000Y-107500000D02*
X132000000Y-106900000D01*
X157500000Y-98000000D02*
X157500000Y-96500000D01*
X151000000Y-98000000D02*
X150500000Y-98000000D01*
X158000000Y-91000000D02*
X151000000Y-98000000D01*
X158000000Y-88000000D02*
X158000000Y-89500000D01*
X143700000Y-117700000D02*
X144300000Y-117900000D01*
X144300000Y-117900000D02*
X144300000Y-114500000D01*
X146400000Y-121000000D02*
X144000000Y-118600000D01*
X144000000Y-118600000D02*
X143700000Y-117700000D01*
X146000000Y-126700000D02*
X146400000Y-125400000D01*
X146400000Y-125400000D02*
X146400000Y-121000000D01*
X121200000Y-119500000D02*
X121200000Y-117700000D01*
X121200000Y-115900000D02*
X121200000Y-113900000D01*
X147000000Y-127400000D02*
X146000000Y-126700000D01*
X144400000Y-129300000D02*
X147000000Y-127400000D01*
X132500000Y-128500000D02*
X132500000Y-126700000D01*
X134000000Y-130000000D02*
X132500000Y-128500000D01*
X160900000Y-96500000D02*
X160400000Y-96500000D01*
X160400000Y-96500000D02*
X159300000Y-97600000D01*
X158900000Y-97800000D02*
X159100000Y-97800000D01*
X159100000Y-97800000D02*
X159300000Y-97600000D01*
X169300000Y-98100000D02*
X169200000Y-98100000D01*
X161700000Y-97000000D02*
X161200000Y-96500000D01*
X161200000Y-96500000D02*
X160900000Y-96500000D01*
X169200000Y-98100000D02*
X167800000Y-99500000D01*
X167800000Y-99500000D02*
X163100000Y-99500000D01*
X163100000Y-99500000D02*
X161700000Y-98100000D01*
X161700000Y-98100000D02*
X161700000Y-97000000D01*
X131000000Y-90100000D02*
X131500000Y-89600000D01*
X129300000Y-90100000D02*
X131000000Y-90100000D01*
X135100000Y-102300000D02*
X128800000Y-102300000D01*
X128800000Y-102300000D02*
X128500000Y-102000000D01*
X128750000Y-102250000D02*
X128500000Y-102000000D01*
D21*
X145600000Y-114600000D02*
X145700000Y-114700000D01*
X145700000Y-114700000D02*
X145700000Y-118700000D01*
X175000000Y-99000000D02*
X175000000Y-96550000D01*
X146400000Y-118000000D02*
X146400000Y-114600000D01*
D20*
X169300000Y-100700000D02*
X169000000Y-101000000D01*
X162500000Y-101000000D02*
X162200000Y-100700000D01*
X169000000Y-101000000D02*
X162500000Y-101000000D01*
X162200000Y-100700000D02*
X159700000Y-98200000D01*
X163700000Y-100500000D02*
X162700000Y-100500000D01*
X160500000Y-98300000D02*
X160500000Y-98000000D01*
X162700000Y-100500000D02*
X160500000Y-98300000D01*
X169300000Y-99800000D02*
X168600000Y-100500000D01*
X168600000Y-100500000D02*
X163700000Y-100500000D01*
X169300000Y-98900000D02*
X168200000Y-100000000D01*
X161200000Y-98300000D02*
X161200000Y-97500000D01*
X162900000Y-100000000D02*
X161200000Y-98300000D01*
X168200000Y-100000000D02*
X162900000Y-100000000D01*
X161200000Y-97500000D02*
X160900000Y-97200000D01*
X150000000Y-113750000D02*
X150250000Y-114000000D01*
X150250000Y-114000000D02*
X150250000Y-119250000D01*
X150250000Y-119250000D02*
X150250000Y-120000000D01*
X150250000Y-120000000D02*
X150000000Y-120250000D01*
X149000000Y-113750000D02*
X149700000Y-114450000D01*
X149700000Y-119300000D02*
X149500000Y-119500000D01*
X149700000Y-114450000D02*
X149700000Y-119300000D01*
D21*
X150900000Y-137300000D02*
X150400000Y-137300000D01*
X151400000Y-136800000D02*
X150900000Y-137300000D01*
X134000000Y-137300000D02*
X150400000Y-137300000D01*
X132200000Y-135500000D02*
X134000000Y-137300000D01*
X131720000Y-135500000D02*
X132200000Y-135500000D01*
D20*
X169000000Y-101500000D02*
X161000000Y-101500000D01*
X161000000Y-101500000D02*
X160800000Y-101700000D01*
X150800000Y-113500000D02*
X150100000Y-112800000D01*
X150800000Y-117400000D02*
X150800000Y-113500000D01*
X151200000Y-117800000D02*
X150800000Y-117400000D01*
X169600000Y-101500000D02*
X169000000Y-101500000D01*
X170000000Y-101100000D02*
X169600000Y-101500000D01*
X170000000Y-98600000D02*
X170000000Y-101100000D01*
X170300000Y-98300000D02*
X170000000Y-98600000D01*
X150800000Y-134200000D02*
X152400000Y-134200000D01*
X148200000Y-134200000D02*
X146960000Y-132960000D01*
X150800000Y-134200000D02*
X148200000Y-134200000D01*
X143300000Y-131100000D02*
X143900000Y-131700000D01*
X143900000Y-131700000D02*
X144900000Y-131700000D01*
X155100000Y-89500000D02*
X151000000Y-89500000D01*
X151000000Y-89500000D02*
X149600000Y-88100000D01*
X142900000Y-130700000D02*
X142900000Y-130200000D01*
X143300000Y-131100000D02*
X142900000Y-130700000D01*
X142900000Y-130000000D02*
X142900000Y-130200000D01*
X142900000Y-130000000D02*
X142900000Y-115400000D01*
X142900000Y-115400000D02*
X143500000Y-114800000D01*
X143500000Y-114800000D02*
X143500000Y-114100000D01*
X143500000Y-114100000D02*
X143000000Y-113600000D01*
X156500000Y-90300000D02*
X155700000Y-89500000D01*
X155700000Y-89500000D02*
X155100000Y-89500000D01*
X144900000Y-131700000D02*
X145700000Y-132500000D01*
X145700000Y-132500000D02*
X145700000Y-134220000D01*
X145700000Y-134220000D02*
X144420000Y-135500000D01*
X144420000Y-132960000D02*
X142400000Y-130940000D01*
X142400000Y-130940000D02*
X142400000Y-130900000D01*
X142800000Y-114400000D02*
X142400000Y-114800000D01*
X142400000Y-114800000D02*
X142400000Y-130900000D01*
X143660000Y-132960000D02*
X144420000Y-132960000D01*
D22*
X138500000Y-128200000D02*
X138500000Y-129800000D01*
X138500000Y-129800000D02*
X140600000Y-131900000D01*
X138500000Y-105600000D02*
X138500000Y-102000000D01*
X138500000Y-102000000D02*
X148000000Y-92500000D01*
X148000000Y-92500000D02*
X148000000Y-87800000D01*
X148000000Y-87800000D02*
X147700000Y-87500000D01*
X141880000Y-135500000D02*
X140600000Y-134220000D01*
X140600000Y-134220000D02*
X140600000Y-131900000D01*
X138500000Y-128200000D02*
X138500000Y-105600000D01*
D20*
X141800000Y-114400000D02*
X141880000Y-114480000D01*
X141880000Y-114480000D02*
X141880000Y-132960000D01*
D22*
X136500000Y-129100000D02*
X136500000Y-130600000D01*
X136500000Y-130600000D02*
X138000000Y-132100000D01*
X146300000Y-87500000D02*
X146000000Y-87800000D01*
X146000000Y-87800000D02*
X146000000Y-91300000D01*
X146000000Y-91300000D02*
X136500000Y-100800000D01*
X136500000Y-100800000D02*
X136500000Y-129100000D01*
X138000000Y-132100000D02*
X138000000Y-134160000D01*
X138000000Y-134160000D02*
X139340000Y-135500000D01*
D20*
X141400000Y-115800000D02*
X141400000Y-114900000D01*
X141400000Y-114900000D02*
X141100000Y-114600000D01*
X141100000Y-114600000D02*
X141100000Y-114100000D01*
X141100000Y-114100000D02*
X142300000Y-112900000D01*
X142300000Y-112900000D02*
X144500000Y-112900000D01*
X144500000Y-112900000D02*
X145900000Y-111500000D01*
X141400000Y-129500000D02*
X141400000Y-115800000D01*
X141100000Y-130300000D02*
X141400000Y-130000000D01*
X141400000Y-130000000D02*
X141400000Y-129500000D01*
X136800000Y-135500000D02*
X136800000Y-135000000D01*
X136840000Y-132960000D02*
X136800000Y-132960000D01*
X136840000Y-132960000D02*
X136800000Y-132960000D01*
X140900000Y-128700000D02*
X140900000Y-128100000D01*
X140700000Y-128900000D02*
X140900000Y-128700000D01*
X140900000Y-128100000D02*
X140900000Y-115100000D01*
X140900000Y-115100000D02*
X140600000Y-114800000D01*
X140600000Y-114800000D02*
X140600000Y-113900000D01*
X140600000Y-113900000D02*
X142100000Y-112400000D01*
X142100000Y-112400000D02*
X143900000Y-112400000D01*
X143900000Y-112400000D02*
X144200000Y-112100000D01*
X149500000Y-132960000D02*
X149500000Y-130800000D01*
X149500000Y-130800000D02*
X148800000Y-130100000D01*
X148500000Y-119700000D02*
X149100000Y-120300000D01*
X148500000Y-117600000D02*
X148500000Y-119700000D01*
D23*
G36*
X115141128Y-83177124D02*
X115103362Y-83202358D01*
X114727093Y-83571529D01*
X117000000Y-85844437D01*
X119272907Y-83571529D01*
X118896638Y-83202358D01*
X117860509Y-82765000D01*
X174155304Y-82765000D01*
X173141128Y-83177124D01*
X173103362Y-83202358D01*
X172727093Y-83571529D01*
X175000000Y-85844437D01*
X177272907Y-83571529D01*
X176896638Y-83202358D01*
X175860509Y-82765000D01*
X198235000Y-82765000D01*
X198235000Y-138235000D01*
X175844696Y-138235000D01*
X176858872Y-137822876D01*
X176896638Y-137797642D01*
X177272907Y-137428471D01*
X175000000Y-135155563D01*
X172727093Y-137428471D01*
X173103362Y-137797642D01*
X174139491Y-138235000D01*
X117844696Y-138235000D01*
X118858872Y-137822876D01*
X118896638Y-137797642D01*
X119272907Y-137428471D01*
X117000000Y-135155563D01*
X114727093Y-137428471D01*
X115103362Y-137797642D01*
X116139491Y-138235000D01*
X113765000Y-138235000D01*
X113765000Y-135844696D01*
X114177124Y-136858872D01*
X114202358Y-136896638D01*
X114571529Y-137272907D01*
X116844437Y-135000000D01*
X117155563Y-135000000D01*
X119428471Y-137272907D01*
X119797642Y-136896638D01*
X120310496Y-135681654D01*
X120311858Y-135478869D01*
X125561400Y-135478869D01*
X125561400Y-135521131D01*
X125643504Y-135933893D01*
X125877315Y-136283816D01*
X126227238Y-136517627D01*
X126640000Y-136599731D01*
X127052762Y-136517627D01*
X127402685Y-136283816D01*
X127636496Y-135933893D01*
X127667804Y-135776498D01*
X128137430Y-135776498D01*
X128322602Y-136154425D01*
X128638305Y-136432722D01*
X128903504Y-136542558D01*
X129070000Y-136518930D01*
X129070000Y-135610000D01*
X129290000Y-135610000D01*
X129290000Y-136518930D01*
X129456496Y-136542558D01*
X129721695Y-136432722D01*
X130037398Y-136154425D01*
X130222570Y-135776498D01*
X130199238Y-135610000D01*
X129290000Y-135610000D01*
X129070000Y-135610000D01*
X128160762Y-135610000D01*
X128137430Y-135776498D01*
X127667804Y-135776498D01*
X127718600Y-135521131D01*
X127718600Y-135478869D01*
X130641400Y-135478869D01*
X130641400Y-135521131D01*
X130723504Y-135933893D01*
X130957315Y-136283816D01*
X131307238Y-136517627D01*
X131720000Y-136599731D01*
X132132762Y-136517627D01*
X132431271Y-136318170D01*
X133706550Y-137593449D01*
X133841186Y-137683410D01*
X134000000Y-137715000D01*
X150900000Y-137715000D01*
X151058814Y-137683410D01*
X151193449Y-137593449D01*
X151471835Y-137315063D01*
X151501990Y-137315089D01*
X151691343Y-137236850D01*
X151836341Y-137092105D01*
X151914910Y-136902889D01*
X151915089Y-136698010D01*
X151836850Y-136508657D01*
X151692105Y-136363659D01*
X151502889Y-136285090D01*
X151298010Y-136284911D01*
X151108657Y-136363150D01*
X150963659Y-136507895D01*
X150885090Y-136697111D01*
X150885063Y-136728039D01*
X150728102Y-136885000D01*
X134171899Y-136885000D01*
X133718517Y-136431619D01*
X133847238Y-136517627D01*
X134260000Y-136599731D01*
X134672762Y-136517627D01*
X135022685Y-136283816D01*
X135256496Y-135933893D01*
X135338600Y-135521131D01*
X135338600Y-135478869D01*
X135721400Y-135478869D01*
X135721400Y-135521131D01*
X135803504Y-135933893D01*
X136037315Y-136283816D01*
X136387238Y-136517627D01*
X136800000Y-136599731D01*
X137212762Y-136517627D01*
X137562685Y-136283816D01*
X137796496Y-135933893D01*
X137878600Y-135521131D01*
X137878600Y-135478869D01*
X137796496Y-135066107D01*
X137562685Y-134716184D01*
X137212762Y-134482373D01*
X136800000Y-134400269D01*
X136387238Y-134482373D01*
X136037315Y-134716184D01*
X135803504Y-135066107D01*
X135721400Y-135478869D01*
X135338600Y-135478869D01*
X135256496Y-135066107D01*
X135022685Y-134716184D01*
X134672762Y-134482373D01*
X134260000Y-134400269D01*
X133847238Y-134482373D01*
X133497315Y-134716184D01*
X133263504Y-135066107D01*
X133181400Y-135478869D01*
X133181400Y-135521131D01*
X133263504Y-135933893D01*
X133349513Y-136062614D01*
X132798600Y-135511702D01*
X132798600Y-135478869D01*
X132716496Y-135066107D01*
X132482685Y-134716184D01*
X132132762Y-134482373D01*
X131720000Y-134400269D01*
X131307238Y-134482373D01*
X130957315Y-134716184D01*
X130723504Y-135066107D01*
X130641400Y-135478869D01*
X127718600Y-135478869D01*
X127667805Y-135223502D01*
X128137430Y-135223502D01*
X128160762Y-135390000D01*
X129070000Y-135390000D01*
X129070000Y-134481070D01*
X129290000Y-134481070D01*
X129290000Y-135390000D01*
X130199238Y-135390000D01*
X130222570Y-135223502D01*
X130037398Y-134845575D01*
X129721695Y-134567278D01*
X129456496Y-134457442D01*
X129290000Y-134481070D01*
X129070000Y-134481070D01*
X128903504Y-134457442D01*
X128638305Y-134567278D01*
X128322602Y-134845575D01*
X128137430Y-135223502D01*
X127667805Y-135223502D01*
X127636496Y-135066107D01*
X127402685Y-134716184D01*
X127052762Y-134482373D01*
X126640000Y-134400269D01*
X126227238Y-134482373D01*
X125877315Y-134716184D01*
X125643504Y-135066107D01*
X125561400Y-135478869D01*
X120311858Y-135478869D01*
X120319357Y-134362894D01*
X119822876Y-133141128D01*
X119797642Y-133103362D01*
X119636253Y-132938869D01*
X125561400Y-132938869D01*
X125561400Y-132981131D01*
X125643504Y-133393893D01*
X125877315Y-133743816D01*
X126227238Y-133977627D01*
X126640000Y-134059731D01*
X127052762Y-133977627D01*
X127402685Y-133743816D01*
X127636496Y-133393893D01*
X127667804Y-133236498D01*
X128137430Y-133236498D01*
X128322602Y-133614425D01*
X128638305Y-133892722D01*
X128903504Y-134002558D01*
X129070000Y-133978930D01*
X129070000Y-133070000D01*
X129290000Y-133070000D01*
X129290000Y-133978930D01*
X129456496Y-134002558D01*
X129721695Y-133892722D01*
X130037398Y-133614425D01*
X130222570Y-133236498D01*
X130199238Y-133070000D01*
X129290000Y-133070000D01*
X129070000Y-133070000D01*
X128160762Y-133070000D01*
X128137430Y-133236498D01*
X127667804Y-133236498D01*
X127718600Y-132981131D01*
X127718600Y-132938869D01*
X130641400Y-132938869D01*
X130641400Y-132981131D01*
X130723504Y-133393893D01*
X130957315Y-133743816D01*
X131307238Y-133977627D01*
X131720000Y-134059731D01*
X132132762Y-133977627D01*
X132482685Y-133743816D01*
X132716496Y-133393893D01*
X132798600Y-132981131D01*
X132798600Y-132938869D01*
X133181400Y-132938869D01*
X133181400Y-132981131D01*
X133263504Y-133393893D01*
X133497315Y-133743816D01*
X133847238Y-133977627D01*
X134260000Y-134059731D01*
X134672762Y-133977627D01*
X135022685Y-133743816D01*
X135256496Y-133393893D01*
X135338600Y-132981131D01*
X135338600Y-132938869D01*
X135721400Y-132938869D01*
X135721400Y-132981131D01*
X135803504Y-133393893D01*
X136037315Y-133743816D01*
X136387238Y-133977627D01*
X136800000Y-134059731D01*
X137212762Y-133977627D01*
X137562685Y-133743816D01*
X137675000Y-133575725D01*
X137675000Y-134160000D01*
X137699739Y-134284372D01*
X137770190Y-134389810D01*
X138384753Y-135004373D01*
X138343504Y-135066107D01*
X138261400Y-135478869D01*
X138261400Y-135521131D01*
X138343504Y-135933893D01*
X138577315Y-136283816D01*
X138927238Y-136517627D01*
X139340000Y-136599731D01*
X139752762Y-136517627D01*
X140102685Y-136283816D01*
X140336496Y-135933893D01*
X140418600Y-135521131D01*
X140418600Y-135478869D01*
X140336496Y-135066107D01*
X140102685Y-134716184D01*
X139752762Y-134482373D01*
X139340000Y-134400269D01*
X138927238Y-134482373D01*
X138840170Y-134540550D01*
X138325000Y-134025380D01*
X138325000Y-133300868D01*
X138343504Y-133393893D01*
X138577315Y-133743816D01*
X138927238Y-133977627D01*
X139340000Y-134059731D01*
X139752762Y-133977627D01*
X140102685Y-133743816D01*
X140275000Y-133485928D01*
X140275000Y-134220000D01*
X140299739Y-134344372D01*
X140370190Y-134449810D01*
X140924753Y-135004373D01*
X140883504Y-135066107D01*
X140801400Y-135478869D01*
X140801400Y-135521131D01*
X140883504Y-135933893D01*
X141117315Y-136283816D01*
X141467238Y-136517627D01*
X141880000Y-136599731D01*
X142292762Y-136517627D01*
X142642685Y-136283816D01*
X142876496Y-135933893D01*
X142958600Y-135521131D01*
X142958600Y-135478869D01*
X142876496Y-135066107D01*
X142642685Y-134716184D01*
X142292762Y-134482373D01*
X141880000Y-134400269D01*
X141467238Y-134482373D01*
X141380170Y-134540550D01*
X140925000Y-134085380D01*
X140925000Y-133455996D01*
X141117315Y-133743816D01*
X141467238Y-133977627D01*
X141880000Y-134059731D01*
X142292762Y-133977627D01*
X142642685Y-133743816D01*
X142876496Y-133393893D01*
X142958600Y-132981131D01*
X142958600Y-132938869D01*
X142876496Y-132526107D01*
X142642685Y-132176184D01*
X142292762Y-131942373D01*
X142220000Y-131927900D01*
X142220000Y-131240832D01*
X143456257Y-132477089D01*
X143423504Y-132526107D01*
X143370367Y-132793242D01*
X143345881Y-132829888D01*
X143320000Y-132960000D01*
X143345881Y-133090112D01*
X143370367Y-133126758D01*
X143423504Y-133393893D01*
X143657315Y-133743816D01*
X144007238Y-133977627D01*
X144420000Y-134059731D01*
X144832762Y-133977627D01*
X145182685Y-133743816D01*
X145360000Y-133478445D01*
X145360000Y-134079167D01*
X144907114Y-134532053D01*
X144832762Y-134482373D01*
X144420000Y-134400269D01*
X144007238Y-134482373D01*
X143657315Y-134716184D01*
X143423504Y-135066107D01*
X143341400Y-135478869D01*
X143341400Y-135521131D01*
X143423504Y-135933893D01*
X143657315Y-136283816D01*
X144007238Y-136517627D01*
X144420000Y-136599731D01*
X144832762Y-136517627D01*
X145182685Y-136283816D01*
X145416496Y-135933893D01*
X145498600Y-135521131D01*
X145498600Y-135478869D01*
X145881400Y-135478869D01*
X145881400Y-135521131D01*
X145963504Y-135933893D01*
X146197315Y-136283816D01*
X146547238Y-136517627D01*
X146960000Y-136599731D01*
X147372762Y-136517627D01*
X147722685Y-136283816D01*
X147956496Y-135933893D01*
X148010231Y-135663750D01*
X148421400Y-135663750D01*
X148421400Y-136406366D01*
X148454132Y-136485388D01*
X148514612Y-136545868D01*
X148593634Y-136578600D01*
X149336250Y-136578600D01*
X149390000Y-136524850D01*
X149390000Y-135610000D01*
X149610000Y-135610000D01*
X149610000Y-136524850D01*
X149663750Y-136578600D01*
X150406366Y-136578600D01*
X150485388Y-136545868D01*
X150545868Y-136485388D01*
X150578600Y-136406366D01*
X150578600Y-135663750D01*
X150551956Y-135637106D01*
X171680643Y-135637106D01*
X172177124Y-136858872D01*
X172202358Y-136896638D01*
X172571529Y-137272907D01*
X174844437Y-135000000D01*
X175155563Y-135000000D01*
X177428471Y-137272907D01*
X177797642Y-136896638D01*
X178310496Y-135681654D01*
X178319357Y-134362894D01*
X177822876Y-133141128D01*
X177797642Y-133103362D01*
X177428471Y-132727093D01*
X175155563Y-135000000D01*
X174844437Y-135000000D01*
X172571529Y-132727093D01*
X172202358Y-133103362D01*
X171689504Y-134318346D01*
X171680643Y-135637106D01*
X150551956Y-135637106D01*
X150524850Y-135610000D01*
X149610000Y-135610000D01*
X149390000Y-135610000D01*
X148475150Y-135610000D01*
X148421400Y-135663750D01*
X148010231Y-135663750D01*
X148038600Y-135521131D01*
X148038600Y-135478869D01*
X147956496Y-135066107D01*
X147722685Y-134716184D01*
X147372762Y-134482373D01*
X146960000Y-134400269D01*
X146547238Y-134482373D01*
X146197315Y-134716184D01*
X145963504Y-135066107D01*
X145881400Y-135478869D01*
X145498600Y-135478869D01*
X145416496Y-135066107D01*
X145383743Y-135017089D01*
X145940416Y-134460417D01*
X146014118Y-134350113D01*
X146014119Y-134350112D01*
X146040000Y-134220000D01*
X146040000Y-133508377D01*
X146197315Y-133743816D01*
X146547238Y-133977627D01*
X146960000Y-134059731D01*
X147372762Y-133977627D01*
X147447114Y-133927946D01*
X147959584Y-134440416D01*
X148069888Y-134514119D01*
X148200000Y-134540000D01*
X148443616Y-134540000D01*
X148421400Y-134593634D01*
X148421400Y-135336250D01*
X148475150Y-135390000D01*
X149390000Y-135390000D01*
X149390000Y-135370000D01*
X149610000Y-135370000D01*
X149610000Y-135390000D01*
X150524850Y-135390000D01*
X150578600Y-135336250D01*
X150578600Y-134593634D01*
X150556384Y-134540000D01*
X152011722Y-134540000D01*
X152107895Y-134636341D01*
X152297111Y-134714910D01*
X152501990Y-134715089D01*
X152691343Y-134636850D01*
X152836341Y-134492105D01*
X152914910Y-134302889D01*
X152915089Y-134098010D01*
X152836850Y-133908657D01*
X152692105Y-133763659D01*
X152502889Y-133685090D01*
X152298010Y-133684911D01*
X152108657Y-133763150D01*
X152011638Y-133860000D01*
X150088803Y-133860000D01*
X150262685Y-133743816D01*
X150496496Y-133393893D01*
X150578600Y-132981131D01*
X150578600Y-132938869D01*
X150505532Y-132571529D01*
X172727093Y-132571529D01*
X175000000Y-134844437D01*
X177272907Y-132571529D01*
X176896638Y-132202358D01*
X175681654Y-131689504D01*
X174362894Y-131680643D01*
X173141128Y-132177124D01*
X173103362Y-132202358D01*
X172727093Y-132571529D01*
X150505532Y-132571529D01*
X150496496Y-132526107D01*
X150262685Y-132176184D01*
X149912762Y-131942373D01*
X149840000Y-131927900D01*
X149840000Y-130800000D01*
X149814119Y-130669888D01*
X149784714Y-130625881D01*
X149740416Y-130559583D01*
X149314970Y-130134138D01*
X149315089Y-129998010D01*
X149236850Y-129808657D01*
X149092105Y-129663659D01*
X148902889Y-129585090D01*
X148698010Y-129584911D01*
X148508657Y-129663150D01*
X148363659Y-129807895D01*
X148285090Y-129997111D01*
X148284911Y-130201990D01*
X148363150Y-130391343D01*
X148507895Y-130536341D01*
X148697111Y-130614910D01*
X148834197Y-130615030D01*
X149160000Y-130940833D01*
X149160000Y-131927900D01*
X149087238Y-131942373D01*
X148737315Y-132176184D01*
X148503504Y-132526107D01*
X148421400Y-132938869D01*
X148421400Y-132981131D01*
X148503504Y-133393893D01*
X148737315Y-133743816D01*
X148911197Y-133860000D01*
X148340832Y-133860000D01*
X147923743Y-133442911D01*
X147956496Y-133393893D01*
X148038600Y-132981131D01*
X148038600Y-132938869D01*
X147956496Y-132526107D01*
X147722685Y-132176184D01*
X147372762Y-131942373D01*
X146960000Y-131860269D01*
X146547238Y-131942373D01*
X146197315Y-132176184D01*
X146026453Y-132431897D01*
X146014119Y-132369888D01*
X145940416Y-132259584D01*
X145140416Y-131459584D01*
X145030113Y-131385881D01*
X144900000Y-131360000D01*
X144040832Y-131360000D01*
X143540418Y-130859586D01*
X143540416Y-130859583D01*
X143240000Y-130559168D01*
X143240000Y-115540832D01*
X143740416Y-115040416D01*
X143814119Y-114930113D01*
X143828301Y-114858813D01*
X143840000Y-114800000D01*
X143840000Y-114701990D01*
X145084911Y-114701990D01*
X145163150Y-114891343D01*
X145285000Y-115013406D01*
X145285000Y-118386591D01*
X145263659Y-118407895D01*
X145185090Y-118597111D01*
X145184911Y-118801990D01*
X145263150Y-118991343D01*
X145407895Y-119136341D01*
X145597111Y-119214910D01*
X145801990Y-119215089D01*
X145991343Y-119136850D01*
X146136341Y-118992105D01*
X146214910Y-118802889D01*
X146215089Y-118598010D01*
X146156655Y-118456588D01*
X146297111Y-118514910D01*
X146501990Y-118515089D01*
X146691343Y-118436850D01*
X146836341Y-118292105D01*
X146914910Y-118102889D01*
X146915089Y-117898010D01*
X146836850Y-117708657D01*
X146830195Y-117701990D01*
X147984911Y-117701990D01*
X148063150Y-117891343D01*
X148160000Y-117988362D01*
X148160000Y-119700000D01*
X148185881Y-119830113D01*
X148259584Y-119940416D01*
X148585030Y-120265862D01*
X148584911Y-120401990D01*
X148663150Y-120591343D01*
X148807895Y-120736341D01*
X148997111Y-120814910D01*
X149201990Y-120815089D01*
X149391343Y-120736850D01*
X149536341Y-120592105D01*
X149560292Y-120534425D01*
X149563150Y-120541343D01*
X149707895Y-120686341D01*
X149897111Y-120764910D01*
X150101990Y-120765089D01*
X150291343Y-120686850D01*
X150436341Y-120542105D01*
X150514910Y-120352889D01*
X150515040Y-120203563D01*
X150552160Y-120148010D01*
X150564119Y-120130112D01*
X150590000Y-120000000D01*
X150590000Y-118829685D01*
X193285878Y-118829685D01*
X193393907Y-118970067D01*
X193812815Y-119115925D01*
X194255653Y-119090371D01*
X194546093Y-118970067D01*
X194654122Y-118829685D01*
X193970000Y-118145563D01*
X193285878Y-118829685D01*
X150590000Y-118829685D01*
X150590000Y-117670832D01*
X150685030Y-117765862D01*
X150684911Y-117901990D01*
X150763150Y-118091343D01*
X150907895Y-118236341D01*
X151097111Y-118314910D01*
X151301990Y-118315089D01*
X151491343Y-118236850D01*
X151636341Y-118092105D01*
X151714910Y-117902889D01*
X151714971Y-117832815D01*
X192844075Y-117832815D01*
X192869629Y-118275653D01*
X192989933Y-118566093D01*
X193130315Y-118674122D01*
X193814437Y-117990000D01*
X194125563Y-117990000D01*
X194809685Y-118674122D01*
X194950067Y-118566093D01*
X195095925Y-118147185D01*
X195070371Y-117704347D01*
X194950067Y-117413907D01*
X194809685Y-117305878D01*
X194125563Y-117990000D01*
X193814437Y-117990000D01*
X193130315Y-117305878D01*
X192989933Y-117413907D01*
X192844075Y-117832815D01*
X151714971Y-117832815D01*
X151715089Y-117698010D01*
X151636850Y-117508657D01*
X151492105Y-117363659D01*
X151302889Y-117285090D01*
X151165803Y-117284970D01*
X151140000Y-117259168D01*
X151140000Y-117150315D01*
X193285878Y-117150315D01*
X193970000Y-117834437D01*
X194654122Y-117150315D01*
X194546093Y-117009933D01*
X194127185Y-116864075D01*
X193684347Y-116889629D01*
X193393907Y-117009933D01*
X193285878Y-117150315D01*
X151140000Y-117150315D01*
X151140000Y-113500000D01*
X151114119Y-113369888D01*
X151089662Y-113333286D01*
X151040416Y-113259583D01*
X150614970Y-112834138D01*
X150615089Y-112698010D01*
X150536850Y-112508657D01*
X150392105Y-112363659D01*
X150202889Y-112285090D01*
X149998010Y-112284911D01*
X149808657Y-112363150D01*
X149663659Y-112507895D01*
X149585090Y-112697111D01*
X149584911Y-112901990D01*
X149663150Y-113091343D01*
X149807895Y-113236341D01*
X149851115Y-113254288D01*
X149708657Y-113313150D01*
X149563659Y-113457895D01*
X149499940Y-113611347D01*
X149436850Y-113458657D01*
X149292105Y-113313659D01*
X149102889Y-113235090D01*
X148898010Y-113234911D01*
X148708657Y-113313150D01*
X148563659Y-113457895D01*
X148485090Y-113647111D01*
X148484911Y-113851990D01*
X148563150Y-114041343D01*
X148707895Y-114186341D01*
X148897111Y-114264910D01*
X149034197Y-114265030D01*
X149360000Y-114590833D01*
X149360000Y-119000616D01*
X149208657Y-119063150D01*
X149063659Y-119207895D01*
X148985090Y-119397111D01*
X148984911Y-119601990D01*
X149056795Y-119775963D01*
X148840000Y-119559168D01*
X148840000Y-117988278D01*
X148936341Y-117892105D01*
X149014910Y-117702889D01*
X149015089Y-117498010D01*
X148936850Y-117308657D01*
X148792105Y-117163659D01*
X148602889Y-117085090D01*
X148398010Y-117084911D01*
X148208657Y-117163150D01*
X148063659Y-117307895D01*
X147985090Y-117497111D01*
X147984911Y-117701990D01*
X146830195Y-117701990D01*
X146815000Y-117686769D01*
X146815000Y-114913409D01*
X146836341Y-114892105D01*
X146914910Y-114702889D01*
X146915089Y-114498010D01*
X146836850Y-114308657D01*
X146692105Y-114163659D01*
X146502889Y-114085090D01*
X146298010Y-114084911D01*
X146108657Y-114163150D01*
X145999937Y-114271680D01*
X145892105Y-114163659D01*
X145702889Y-114085090D01*
X145498010Y-114084911D01*
X145308657Y-114163150D01*
X145163659Y-114307895D01*
X145085090Y-114497111D01*
X145084911Y-114701990D01*
X143840000Y-114701990D01*
X143840000Y-114100000D01*
X143814119Y-113969888D01*
X143740416Y-113859584D01*
X143514970Y-113634138D01*
X143515089Y-113498010D01*
X143436850Y-113308657D01*
X143368313Y-113240000D01*
X144500000Y-113240000D01*
X144630113Y-113214119D01*
X144740416Y-113140416D01*
X145865862Y-112014970D01*
X146001990Y-112015089D01*
X146191343Y-111936850D01*
X146336341Y-111792105D01*
X146414910Y-111602889D01*
X146415089Y-111398010D01*
X146336850Y-111208657D01*
X146192105Y-111063659D01*
X146002889Y-110985090D01*
X145798010Y-110984911D01*
X145608657Y-111063150D01*
X145463659Y-111207895D01*
X145385090Y-111397111D01*
X145384970Y-111534198D01*
X144713938Y-112205230D01*
X144714910Y-112202889D01*
X144715089Y-111998010D01*
X144636850Y-111808657D01*
X144492105Y-111663659D01*
X144302889Y-111585090D01*
X144098010Y-111584911D01*
X143908657Y-111663150D01*
X143763659Y-111807895D01*
X143685090Y-111997111D01*
X143685035Y-112060000D01*
X142100000Y-112060000D01*
X141991474Y-112081587D01*
X141969887Y-112085881D01*
X141859583Y-112159584D01*
X140359584Y-113659584D01*
X140285881Y-113769887D01*
X140285881Y-113769888D01*
X140260000Y-113900000D01*
X140260000Y-114800000D01*
X140285881Y-114930113D01*
X140359584Y-115040416D01*
X140560000Y-115240832D01*
X140560000Y-128400616D01*
X140408657Y-128463150D01*
X140263659Y-128607895D01*
X140185090Y-128797111D01*
X140184911Y-129001990D01*
X140263150Y-129191343D01*
X140407895Y-129336341D01*
X140597111Y-129414910D01*
X140801990Y-129415089D01*
X140991343Y-129336850D01*
X141060000Y-129268313D01*
X141060000Y-129784965D01*
X140998010Y-129784911D01*
X140808657Y-129863150D01*
X140663659Y-130007895D01*
X140585090Y-130197111D01*
X140584911Y-130401990D01*
X140663150Y-130591343D01*
X140807895Y-130736341D01*
X140997111Y-130814910D01*
X141201990Y-130815089D01*
X141391343Y-130736850D01*
X141536341Y-130592105D01*
X141540000Y-130583293D01*
X141540000Y-131927900D01*
X141467238Y-131942373D01*
X141117315Y-132176184D01*
X140925000Y-132464004D01*
X140925000Y-131900000D01*
X140900261Y-131775627D01*
X140849728Y-131700000D01*
X140829810Y-131670190D01*
X140829807Y-131670188D01*
X138825000Y-129665380D01*
X138825000Y-102779685D01*
X183485878Y-102779685D01*
X183593907Y-102920067D01*
X184012815Y-103065925D01*
X184455653Y-103040371D01*
X184746093Y-102920067D01*
X184854122Y-102779685D01*
X184170000Y-102095563D01*
X183485878Y-102779685D01*
X138825000Y-102779685D01*
X138825000Y-102134620D01*
X143057630Y-97901990D01*
X158384911Y-97901990D01*
X158463150Y-98091343D01*
X158607895Y-98236341D01*
X158797111Y-98314910D01*
X159001990Y-98315089D01*
X159184966Y-98239485D01*
X159184911Y-98301990D01*
X159263150Y-98491343D01*
X159407895Y-98636341D01*
X159597111Y-98714910D01*
X159734198Y-98715030D01*
X162179168Y-101160000D01*
X161000000Y-101160000D01*
X160873992Y-101185065D01*
X160698010Y-101184911D01*
X160508657Y-101263150D01*
X160363659Y-101407895D01*
X160285090Y-101597111D01*
X160284911Y-101801990D01*
X160363150Y-101991343D01*
X160507895Y-102136341D01*
X160697111Y-102214910D01*
X160901990Y-102215089D01*
X161091343Y-102136850D01*
X161236341Y-101992105D01*
X161299500Y-101840000D01*
X169600000Y-101840000D01*
X169730113Y-101814119D01*
X169776962Y-101782815D01*
X183044075Y-101782815D01*
X183069629Y-102225653D01*
X183189933Y-102516093D01*
X183330315Y-102624122D01*
X184014437Y-101940000D01*
X184325563Y-101940000D01*
X185009685Y-102624122D01*
X185150067Y-102516093D01*
X185295925Y-102097185D01*
X185270371Y-101654347D01*
X185150067Y-101363907D01*
X185009685Y-101255878D01*
X184325563Y-101940000D01*
X184014437Y-101940000D01*
X183330315Y-101255878D01*
X183189933Y-101363907D01*
X183044075Y-101782815D01*
X169776962Y-101782815D01*
X169840416Y-101740416D01*
X170240416Y-101340417D01*
X170314118Y-101230113D01*
X170314119Y-101230112D01*
X170339937Y-101100315D01*
X183485878Y-101100315D01*
X184170000Y-101784437D01*
X184854122Y-101100315D01*
X184746093Y-100959933D01*
X184327185Y-100814075D01*
X183884347Y-100839629D01*
X183593907Y-100959933D01*
X183485878Y-101100315D01*
X170339937Y-101100315D01*
X170340000Y-101100000D01*
X170340000Y-98815035D01*
X170401990Y-98815089D01*
X170591343Y-98736850D01*
X170736341Y-98592105D01*
X170814910Y-98402889D01*
X170815089Y-98198010D01*
X170736850Y-98008657D01*
X170592105Y-97863659D01*
X170402889Y-97785090D01*
X170198010Y-97784911D01*
X170008657Y-97863150D01*
X169863659Y-98007895D01*
X169814978Y-98125133D01*
X169815089Y-97998010D01*
X169736850Y-97808657D01*
X169592105Y-97663659D01*
X169402889Y-97585090D01*
X169198010Y-97584911D01*
X169008657Y-97663150D01*
X168863659Y-97807895D01*
X168785090Y-97997111D01*
X168785058Y-98034110D01*
X167659168Y-99160000D01*
X163240832Y-99160000D01*
X162040000Y-97959168D01*
X162040000Y-97000000D01*
X162014119Y-96869888D01*
X161940416Y-96759584D01*
X161832822Y-96651990D01*
X174484911Y-96651990D01*
X174563150Y-96841343D01*
X174585000Y-96863231D01*
X174585000Y-98686591D01*
X174563659Y-98707895D01*
X174485090Y-98897111D01*
X174484911Y-99101990D01*
X174563150Y-99291343D01*
X174707895Y-99436341D01*
X174897111Y-99514910D01*
X175101990Y-99515089D01*
X175291343Y-99436850D01*
X175436341Y-99292105D01*
X175514910Y-99102889D01*
X175515089Y-98898010D01*
X175436850Y-98708657D01*
X175415000Y-98686769D01*
X175415000Y-96863409D01*
X175436341Y-96842105D01*
X175514910Y-96652889D01*
X175515089Y-96448010D01*
X175436850Y-96258657D01*
X175292105Y-96113659D01*
X175102889Y-96035090D01*
X174898010Y-96034911D01*
X174708657Y-96113150D01*
X174563659Y-96257895D01*
X174485090Y-96447111D01*
X174484911Y-96651990D01*
X161832822Y-96651990D01*
X161440416Y-96259584D01*
X161330113Y-96185881D01*
X161200000Y-96160000D01*
X160400000Y-96160000D01*
X160269887Y-96185881D01*
X160159584Y-96259584D01*
X159095587Y-97323581D01*
X159002889Y-97285090D01*
X158798010Y-97284911D01*
X158608657Y-97363150D01*
X158463659Y-97507895D01*
X158385090Y-97697111D01*
X158384911Y-97901990D01*
X143057630Y-97901990D01*
X148229810Y-92729810D01*
X148300261Y-92624372D01*
X148325001Y-92500000D01*
X148325000Y-92499995D01*
X148325000Y-88201990D01*
X149084911Y-88201990D01*
X149163150Y-88391343D01*
X149307895Y-88536341D01*
X149497111Y-88614910D01*
X149634198Y-88615030D01*
X150759584Y-89740416D01*
X150869887Y-89814119D01*
X151000000Y-89840000D01*
X155559168Y-89840000D01*
X155985030Y-90265862D01*
X155984911Y-90401990D01*
X156063150Y-90591343D01*
X156207895Y-90736341D01*
X156397111Y-90814910D01*
X156601990Y-90815089D01*
X156791343Y-90736850D01*
X156936341Y-90592105D01*
X157014910Y-90402889D01*
X157015089Y-90198010D01*
X156936850Y-90008657D01*
X156792105Y-89863659D01*
X156602889Y-89785090D01*
X156465802Y-89784970D01*
X155940416Y-89259584D01*
X155830113Y-89185881D01*
X155700000Y-89160000D01*
X151140832Y-89160000D01*
X150409303Y-88428471D01*
X172727093Y-88428471D01*
X173103362Y-88797642D01*
X174318346Y-89310496D01*
X175637106Y-89319357D01*
X176858872Y-88822876D01*
X176896638Y-88797642D01*
X177272907Y-88428471D01*
X175000000Y-86155563D01*
X172727093Y-88428471D01*
X150409303Y-88428471D01*
X150114970Y-88134138D01*
X150115089Y-87998010D01*
X150036850Y-87808657D01*
X149892105Y-87663659D01*
X149702889Y-87585090D01*
X149498010Y-87584911D01*
X149308657Y-87663150D01*
X149163659Y-87807895D01*
X149085090Y-87997111D01*
X149084911Y-88201990D01*
X148325000Y-88201990D01*
X148325000Y-87800000D01*
X148300261Y-87675628D01*
X148229810Y-87570190D01*
X148214952Y-87555332D01*
X148215089Y-87398010D01*
X148136850Y-87208657D01*
X147992105Y-87063659D01*
X147802889Y-86985090D01*
X147598010Y-86984911D01*
X147408657Y-87063150D01*
X147263659Y-87207895D01*
X147185090Y-87397111D01*
X147184911Y-87601990D01*
X147263150Y-87791343D01*
X147407895Y-87936341D01*
X147597111Y-88014910D01*
X147675000Y-88014978D01*
X147675000Y-92365380D01*
X138270190Y-101770190D01*
X138199739Y-101875628D01*
X138175000Y-102000000D01*
X138175000Y-129800000D01*
X138199739Y-129924372D01*
X138270190Y-130029810D01*
X140275000Y-132034619D01*
X140275000Y-132434072D01*
X140102685Y-132176184D01*
X139752762Y-131942373D01*
X139340000Y-131860269D01*
X138927238Y-131942373D01*
X138577315Y-132176184D01*
X138343504Y-132526107D01*
X138325000Y-132619132D01*
X138325000Y-132100000D01*
X138300261Y-131975628D01*
X138300261Y-131975627D01*
X138272042Y-131933395D01*
X138229810Y-131870190D01*
X138229807Y-131870188D01*
X136825000Y-130465380D01*
X136825000Y-100934620D01*
X146229810Y-91529810D01*
X146300261Y-91424372D01*
X146325001Y-91300000D01*
X146325000Y-91299995D01*
X146325000Y-88015022D01*
X146401990Y-88015089D01*
X146591343Y-87936850D01*
X146736341Y-87792105D01*
X146814910Y-87602889D01*
X146815089Y-87398010D01*
X146736850Y-87208657D01*
X146592105Y-87063659D01*
X146402889Y-86985090D01*
X146198010Y-86984911D01*
X146008657Y-87063150D01*
X145863659Y-87207895D01*
X145785090Y-87397111D01*
X145784952Y-87555428D01*
X145770190Y-87570190D01*
X145699739Y-87675628D01*
X145675000Y-87800000D01*
X145675000Y-91165380D01*
X136270190Y-100570190D01*
X136199739Y-100675628D01*
X136175000Y-100800000D01*
X136175000Y-130600000D01*
X136199739Y-130724372D01*
X136270190Y-130829810D01*
X137675000Y-132234619D01*
X137675000Y-132344275D01*
X137562685Y-132176184D01*
X137212762Y-131942373D01*
X136800000Y-131860269D01*
X136387238Y-131942373D01*
X136037315Y-132176184D01*
X135803504Y-132526107D01*
X135721400Y-132938869D01*
X135338600Y-132938869D01*
X135256496Y-132526107D01*
X135022685Y-132176184D01*
X134672762Y-131942373D01*
X134260000Y-131860269D01*
X133847238Y-131942373D01*
X133497315Y-132176184D01*
X133263504Y-132526107D01*
X133181400Y-132938869D01*
X132798600Y-132938869D01*
X132716496Y-132526107D01*
X132482685Y-132176184D01*
X132132762Y-131942373D01*
X131720000Y-131860269D01*
X131307238Y-131942373D01*
X130957315Y-132176184D01*
X130723504Y-132526107D01*
X130641400Y-132938869D01*
X127718600Y-132938869D01*
X127667805Y-132683502D01*
X128137430Y-132683502D01*
X128160762Y-132850000D01*
X129070000Y-132850000D01*
X129070000Y-131941070D01*
X129290000Y-131941070D01*
X129290000Y-132850000D01*
X130199238Y-132850000D01*
X130222570Y-132683502D01*
X130037398Y-132305575D01*
X129721695Y-132027278D01*
X129456496Y-131917442D01*
X129290000Y-131941070D01*
X129070000Y-131941070D01*
X128903504Y-131917442D01*
X128638305Y-132027278D01*
X128322602Y-132305575D01*
X128137430Y-132683502D01*
X127667805Y-132683502D01*
X127636496Y-132526107D01*
X127402685Y-132176184D01*
X127052762Y-131942373D01*
X126640000Y-131860269D01*
X126227238Y-131942373D01*
X125877315Y-132176184D01*
X125643504Y-132526107D01*
X125561400Y-132938869D01*
X119636253Y-132938869D01*
X119428471Y-132727093D01*
X117155563Y-135000000D01*
X116844437Y-135000000D01*
X114571529Y-132727093D01*
X114202358Y-133103362D01*
X113765000Y-134139491D01*
X113765000Y-132571529D01*
X114727093Y-132571529D01*
X117000000Y-134844437D01*
X119272907Y-132571529D01*
X118896638Y-132202358D01*
X117681654Y-131689504D01*
X116362894Y-131680643D01*
X115141128Y-132177124D01*
X115103362Y-132202358D01*
X114727093Y-132571529D01*
X113765000Y-132571529D01*
X113765000Y-108020000D01*
X115243764Y-108020000D01*
X115317457Y-108390480D01*
X115527317Y-108704557D01*
X115841394Y-108914417D01*
X116211874Y-108988110D01*
X117788126Y-108988110D01*
X118158606Y-108914417D01*
X118472683Y-108704557D01*
X118682543Y-108390480D01*
X118756236Y-108020000D01*
X118682543Y-107649520D01*
X118472683Y-107335443D01*
X118158606Y-107125583D01*
X117788126Y-107051890D01*
X116211874Y-107051890D01*
X115841394Y-107125583D01*
X115527317Y-107335443D01*
X115317457Y-107649520D01*
X115243764Y-108020000D01*
X113765000Y-108020000D01*
X113765000Y-105480000D01*
X115243764Y-105480000D01*
X115317457Y-105850480D01*
X115527317Y-106164557D01*
X115841394Y-106374417D01*
X116211874Y-106448110D01*
X117788126Y-106448110D01*
X118158606Y-106374417D01*
X118472683Y-106164557D01*
X118682543Y-105850480D01*
X118756236Y-105480000D01*
X118682543Y-105109520D01*
X118472683Y-104795443D01*
X118158606Y-104585583D01*
X117788126Y-104511890D01*
X116211874Y-104511890D01*
X115841394Y-104585583D01*
X115527317Y-104795443D01*
X115317457Y-105109520D01*
X115243764Y-105480000D01*
X113765000Y-105480000D01*
X113765000Y-102803441D01*
X122852123Y-102803441D01*
X122954020Y-102938621D01*
X123354775Y-103076110D01*
X123777639Y-103049771D01*
X124045980Y-102938621D01*
X124147877Y-102803441D01*
X123500000Y-102155563D01*
X122852123Y-102803441D01*
X113765000Y-102803441D01*
X113765000Y-101854775D01*
X122423890Y-101854775D01*
X122450229Y-102277639D01*
X122561379Y-102545980D01*
X122696559Y-102647877D01*
X123344437Y-102000000D01*
X123655563Y-102000000D01*
X124303441Y-102647877D01*
X124438621Y-102545980D01*
X124576110Y-102145225D01*
X124549771Y-101722361D01*
X124438621Y-101454020D01*
X124303441Y-101352123D01*
X123655563Y-102000000D01*
X123344437Y-102000000D01*
X122696559Y-101352123D01*
X122561379Y-101454020D01*
X122423890Y-101854775D01*
X113765000Y-101854775D01*
X113765000Y-101196559D01*
X122852123Y-101196559D01*
X123500000Y-101844437D01*
X124147877Y-101196559D01*
X124112782Y-101150000D01*
X127430788Y-101150000D01*
X127430788Y-102850000D01*
X127445780Y-102929674D01*
X127492867Y-103002850D01*
X127564714Y-103051941D01*
X127650000Y-103069212D01*
X129350000Y-103069212D01*
X129429674Y-103054220D01*
X129502850Y-103007133D01*
X129551941Y-102935286D01*
X129569212Y-102850000D01*
X129569212Y-102640000D01*
X134711722Y-102640000D01*
X134807895Y-102736341D01*
X134997111Y-102814910D01*
X135201990Y-102815089D01*
X135391343Y-102736850D01*
X135536341Y-102592105D01*
X135614910Y-102402889D01*
X135615089Y-102198010D01*
X135536850Y-102008657D01*
X135392105Y-101863659D01*
X135202889Y-101785090D01*
X134998010Y-101784911D01*
X134808657Y-101863150D01*
X134711638Y-101960000D01*
X129569212Y-101960000D01*
X129569212Y-101150000D01*
X129554220Y-101070326D01*
X129507133Y-100997150D01*
X129435286Y-100948059D01*
X129350000Y-100930788D01*
X127650000Y-100930788D01*
X127570326Y-100945780D01*
X127497150Y-100992867D01*
X127448059Y-101064714D01*
X127430788Y-101150000D01*
X124112782Y-101150000D01*
X124045980Y-101061379D01*
X123645225Y-100923890D01*
X123222361Y-100950229D01*
X122954020Y-101061379D01*
X122852123Y-101196559D01*
X113765000Y-101196559D01*
X113765000Y-90201990D01*
X128784911Y-90201990D01*
X128863150Y-90391343D01*
X129007895Y-90536341D01*
X129197111Y-90614910D01*
X129401990Y-90615089D01*
X129591343Y-90536850D01*
X129688362Y-90440000D01*
X131000000Y-90440000D01*
X131130113Y-90414119D01*
X131240416Y-90340416D01*
X131465862Y-90114970D01*
X131601990Y-90115089D01*
X131791343Y-90036850D01*
X131936341Y-89892105D01*
X132014910Y-89702889D01*
X132015089Y-89498010D01*
X131936850Y-89308657D01*
X131792105Y-89163659D01*
X131602889Y-89085090D01*
X131398010Y-89084911D01*
X131208657Y-89163150D01*
X131063659Y-89307895D01*
X130985090Y-89497111D01*
X130984970Y-89634198D01*
X130859168Y-89760000D01*
X129688278Y-89760000D01*
X129592105Y-89663659D01*
X129402889Y-89585090D01*
X129198010Y-89584911D01*
X129008657Y-89663150D01*
X128863659Y-89807895D01*
X128785090Y-89997111D01*
X128784911Y-90201990D01*
X113765000Y-90201990D01*
X113765000Y-88428471D01*
X114727093Y-88428471D01*
X115103362Y-88797642D01*
X116318346Y-89310496D01*
X117637106Y-89319357D01*
X118858872Y-88822876D01*
X118896638Y-88797642D01*
X119272907Y-88428471D01*
X117000000Y-86155563D01*
X114727093Y-88428471D01*
X113765000Y-88428471D01*
X113765000Y-86844696D01*
X114177124Y-87858872D01*
X114202358Y-87896638D01*
X114571529Y-88272907D01*
X116844437Y-86000000D01*
X117155563Y-86000000D01*
X119428471Y-88272907D01*
X119797642Y-87896638D01*
X120310496Y-86681654D01*
X120310795Y-86637106D01*
X171680643Y-86637106D01*
X172177124Y-87858872D01*
X172202358Y-87896638D01*
X172571529Y-88272907D01*
X174844437Y-86000000D01*
X175155563Y-86000000D01*
X177428471Y-88272907D01*
X177797642Y-87896638D01*
X178310496Y-86681654D01*
X178319357Y-85362894D01*
X177822876Y-84141128D01*
X177797642Y-84103362D01*
X177428471Y-83727093D01*
X175155563Y-86000000D01*
X174844437Y-86000000D01*
X172571529Y-83727093D01*
X172202358Y-84103362D01*
X171689504Y-85318346D01*
X171680643Y-86637106D01*
X120310795Y-86637106D01*
X120319357Y-85362894D01*
X119822876Y-84141128D01*
X119797642Y-84103362D01*
X119428471Y-83727093D01*
X117155563Y-86000000D01*
X116844437Y-86000000D01*
X114571529Y-83727093D01*
X114202358Y-84103362D01*
X113765000Y-85139491D01*
X113765000Y-82765000D01*
X116155304Y-82765000D01*
X115141128Y-83177124D01*
X115141128Y-83177124D01*
G37*
X115141128Y-83177124D02*
X115103362Y-83202358D01*
X114727093Y-83571529D01*
X117000000Y-85844437D01*
X119272907Y-83571529D01*
X118896638Y-83202358D01*
X117860509Y-82765000D01*
X174155304Y-82765000D01*
X173141128Y-83177124D01*
X173103362Y-83202358D01*
X172727093Y-83571529D01*
X175000000Y-85844437D01*
X177272907Y-83571529D01*
X176896638Y-83202358D01*
X175860509Y-82765000D01*
X198235000Y-82765000D01*
X198235000Y-138235000D01*
X175844696Y-138235000D01*
X176858872Y-137822876D01*
X176896638Y-137797642D01*
X177272907Y-137428471D01*
X175000000Y-135155563D01*
X172727093Y-137428471D01*
X173103362Y-137797642D01*
X174139491Y-138235000D01*
X117844696Y-138235000D01*
X118858872Y-137822876D01*
X118896638Y-137797642D01*
X119272907Y-137428471D01*
X117000000Y-135155563D01*
X114727093Y-137428471D01*
X115103362Y-137797642D01*
X116139491Y-138235000D01*
X113765000Y-138235000D01*
X113765000Y-135844696D01*
X114177124Y-136858872D01*
X114202358Y-136896638D01*
X114571529Y-137272907D01*
X116844437Y-135000000D01*
X117155563Y-135000000D01*
X119428471Y-137272907D01*
X119797642Y-136896638D01*
X120310496Y-135681654D01*
X120311858Y-135478869D01*
X125561400Y-135478869D01*
X125561400Y-135521131D01*
X125643504Y-135933893D01*
X125877315Y-136283816D01*
X126227238Y-136517627D01*
X126640000Y-136599731D01*
X127052762Y-136517627D01*
X127402685Y-136283816D01*
X127636496Y-135933893D01*
X127667804Y-135776498D01*
X128137430Y-135776498D01*
X128322602Y-136154425D01*
X128638305Y-136432722D01*
X128903504Y-136542558D01*
X129070000Y-136518930D01*
X129070000Y-135610000D01*
X129290000Y-135610000D01*
X129290000Y-136518930D01*
X129456496Y-136542558D01*
X129721695Y-136432722D01*
X130037398Y-136154425D01*
X130222570Y-135776498D01*
X130199238Y-135610000D01*
X129290000Y-135610000D01*
X129070000Y-135610000D01*
X128160762Y-135610000D01*
X128137430Y-135776498D01*
X127667804Y-135776498D01*
X127718600Y-135521131D01*
X127718600Y-135478869D01*
X130641400Y-135478869D01*
X130641400Y-135521131D01*
X130723504Y-135933893D01*
X130957315Y-136283816D01*
X131307238Y-136517627D01*
X131720000Y-136599731D01*
X132132762Y-136517627D01*
X132431271Y-136318170D01*
X133706550Y-137593449D01*
X133841186Y-137683410D01*
X134000000Y-137715000D01*
X150900000Y-137715000D01*
X151058814Y-137683410D01*
X151193449Y-137593449D01*
X151471835Y-137315063D01*
X151501990Y-137315089D01*
X151691343Y-137236850D01*
X151836341Y-137092105D01*
X151914910Y-136902889D01*
X151915089Y-136698010D01*
X151836850Y-136508657D01*
X151692105Y-136363659D01*
X151502889Y-136285090D01*
X151298010Y-136284911D01*
X151108657Y-136363150D01*
X150963659Y-136507895D01*
X150885090Y-136697111D01*
X150885063Y-136728039D01*
X150728102Y-136885000D01*
X134171899Y-136885000D01*
X133718517Y-136431619D01*
X133847238Y-136517627D01*
X134260000Y-136599731D01*
X134672762Y-136517627D01*
X135022685Y-136283816D01*
X135256496Y-135933893D01*
X135338600Y-135521131D01*
X135338600Y-135478869D01*
X135721400Y-135478869D01*
X135721400Y-135521131D01*
X135803504Y-135933893D01*
X136037315Y-136283816D01*
X136387238Y-136517627D01*
X136800000Y-136599731D01*
X137212762Y-136517627D01*
X137562685Y-136283816D01*
X137796496Y-135933893D01*
X137878600Y-135521131D01*
X137878600Y-135478869D01*
X137796496Y-135066107D01*
X137562685Y-134716184D01*
X137212762Y-134482373D01*
X136800000Y-134400269D01*
X136387238Y-134482373D01*
X136037315Y-134716184D01*
X135803504Y-135066107D01*
X135721400Y-135478869D01*
X135338600Y-135478869D01*
X135256496Y-135066107D01*
X135022685Y-134716184D01*
X134672762Y-134482373D01*
X134260000Y-134400269D01*
X133847238Y-134482373D01*
X133497315Y-134716184D01*
X133263504Y-135066107D01*
X133181400Y-135478869D01*
X133181400Y-135521131D01*
X133263504Y-135933893D01*
X133349513Y-136062614D01*
X132798600Y-135511702D01*
X132798600Y-135478869D01*
X132716496Y-135066107D01*
X132482685Y-134716184D01*
X132132762Y-134482373D01*
X131720000Y-134400269D01*
X131307238Y-134482373D01*
X130957315Y-134716184D01*
X130723504Y-135066107D01*
X130641400Y-135478869D01*
X127718600Y-135478869D01*
X127667805Y-135223502D01*
X128137430Y-135223502D01*
X128160762Y-135390000D01*
X129070000Y-135390000D01*
X129070000Y-134481070D01*
X129290000Y-134481070D01*
X129290000Y-135390000D01*
X130199238Y-135390000D01*
X130222570Y-135223502D01*
X130037398Y-134845575D01*
X129721695Y-134567278D01*
X129456496Y-134457442D01*
X129290000Y-134481070D01*
X129070000Y-134481070D01*
X128903504Y-134457442D01*
X128638305Y-134567278D01*
X128322602Y-134845575D01*
X128137430Y-135223502D01*
X127667805Y-135223502D01*
X127636496Y-135066107D01*
X127402685Y-134716184D01*
X127052762Y-134482373D01*
X126640000Y-134400269D01*
X126227238Y-134482373D01*
X125877315Y-134716184D01*
X125643504Y-135066107D01*
X125561400Y-135478869D01*
X120311858Y-135478869D01*
X120319357Y-134362894D01*
X119822876Y-133141128D01*
X119797642Y-133103362D01*
X119636253Y-132938869D01*
X125561400Y-132938869D01*
X125561400Y-132981131D01*
X125643504Y-133393893D01*
X125877315Y-133743816D01*
X126227238Y-133977627D01*
X126640000Y-134059731D01*
X127052762Y-133977627D01*
X127402685Y-133743816D01*
X127636496Y-133393893D01*
X127667804Y-133236498D01*
X128137430Y-133236498D01*
X128322602Y-133614425D01*
X128638305Y-133892722D01*
X128903504Y-134002558D01*
X129070000Y-133978930D01*
X129070000Y-133070000D01*
X129290000Y-133070000D01*
X129290000Y-133978930D01*
X129456496Y-134002558D01*
X129721695Y-133892722D01*
X130037398Y-133614425D01*
X130222570Y-133236498D01*
X130199238Y-133070000D01*
X129290000Y-133070000D01*
X129070000Y-133070000D01*
X128160762Y-133070000D01*
X128137430Y-133236498D01*
X127667804Y-133236498D01*
X127718600Y-132981131D01*
X127718600Y-132938869D01*
X130641400Y-132938869D01*
X130641400Y-132981131D01*
X130723504Y-133393893D01*
X130957315Y-133743816D01*
X131307238Y-133977627D01*
X131720000Y-134059731D01*
X132132762Y-133977627D01*
X132482685Y-133743816D01*
X132716496Y-133393893D01*
X132798600Y-132981131D01*
X132798600Y-132938869D01*
X133181400Y-132938869D01*
X133181400Y-132981131D01*
X133263504Y-133393893D01*
X133497315Y-133743816D01*
X133847238Y-133977627D01*
X134260000Y-134059731D01*
X134672762Y-133977627D01*
X135022685Y-133743816D01*
X135256496Y-133393893D01*
X135338600Y-132981131D01*
X135338600Y-132938869D01*
X135721400Y-132938869D01*
X135721400Y-132981131D01*
X135803504Y-133393893D01*
X136037315Y-133743816D01*
X136387238Y-133977627D01*
X136800000Y-134059731D01*
X137212762Y-133977627D01*
X137562685Y-133743816D01*
X137675000Y-133575725D01*
X137675000Y-134160000D01*
X137699739Y-134284372D01*
X137770190Y-134389810D01*
X138384753Y-135004373D01*
X138343504Y-135066107D01*
X138261400Y-135478869D01*
X138261400Y-135521131D01*
X138343504Y-135933893D01*
X138577315Y-136283816D01*
X138927238Y-136517627D01*
X139340000Y-136599731D01*
X139752762Y-136517627D01*
X140102685Y-136283816D01*
X140336496Y-135933893D01*
X140418600Y-135521131D01*
X140418600Y-135478869D01*
X140336496Y-135066107D01*
X140102685Y-134716184D01*
X139752762Y-134482373D01*
X139340000Y-134400269D01*
X138927238Y-134482373D01*
X138840170Y-134540550D01*
X138325000Y-134025380D01*
X138325000Y-133300868D01*
X138343504Y-133393893D01*
X138577315Y-133743816D01*
X138927238Y-133977627D01*
X139340000Y-134059731D01*
X139752762Y-133977627D01*
X140102685Y-133743816D01*
X140275000Y-133485928D01*
X140275000Y-134220000D01*
X140299739Y-134344372D01*
X140370190Y-134449810D01*
X140924753Y-135004373D01*
X140883504Y-135066107D01*
X140801400Y-135478869D01*
X140801400Y-135521131D01*
X140883504Y-135933893D01*
X141117315Y-136283816D01*
X141467238Y-136517627D01*
X141880000Y-136599731D01*
X142292762Y-136517627D01*
X142642685Y-136283816D01*
X142876496Y-135933893D01*
X142958600Y-135521131D01*
X142958600Y-135478869D01*
X142876496Y-135066107D01*
X142642685Y-134716184D01*
X142292762Y-134482373D01*
X141880000Y-134400269D01*
X141467238Y-134482373D01*
X141380170Y-134540550D01*
X140925000Y-134085380D01*
X140925000Y-133455996D01*
X141117315Y-133743816D01*
X141467238Y-133977627D01*
X141880000Y-134059731D01*
X142292762Y-133977627D01*
X142642685Y-133743816D01*
X142876496Y-133393893D01*
X142958600Y-132981131D01*
X142958600Y-132938869D01*
X142876496Y-132526107D01*
X142642685Y-132176184D01*
X142292762Y-131942373D01*
X142220000Y-131927900D01*
X142220000Y-131240832D01*
X143456257Y-132477089D01*
X143423504Y-132526107D01*
X143370367Y-132793242D01*
X143345881Y-132829888D01*
X143320000Y-132960000D01*
X143345881Y-133090112D01*
X143370367Y-133126758D01*
X143423504Y-133393893D01*
X143657315Y-133743816D01*
X144007238Y-133977627D01*
X144420000Y-134059731D01*
X144832762Y-133977627D01*
X145182685Y-133743816D01*
X145360000Y-133478445D01*
X145360000Y-134079167D01*
X144907114Y-134532053D01*
X144832762Y-134482373D01*
X144420000Y-134400269D01*
X144007238Y-134482373D01*
X143657315Y-134716184D01*
X143423504Y-135066107D01*
X143341400Y-135478869D01*
X143341400Y-135521131D01*
X143423504Y-135933893D01*
X143657315Y-136283816D01*
X144007238Y-136517627D01*
X144420000Y-136599731D01*
X144832762Y-136517627D01*
X145182685Y-136283816D01*
X145416496Y-135933893D01*
X145498600Y-135521131D01*
X145498600Y-135478869D01*
X145881400Y-135478869D01*
X145881400Y-135521131D01*
X145963504Y-135933893D01*
X146197315Y-136283816D01*
X146547238Y-136517627D01*
X146960000Y-136599731D01*
X147372762Y-136517627D01*
X147722685Y-136283816D01*
X147956496Y-135933893D01*
X148010231Y-135663750D01*
X148421400Y-135663750D01*
X148421400Y-136406366D01*
X148454132Y-136485388D01*
X148514612Y-136545868D01*
X148593634Y-136578600D01*
X149336250Y-136578600D01*
X149390000Y-136524850D01*
X149390000Y-135610000D01*
X149610000Y-135610000D01*
X149610000Y-136524850D01*
X149663750Y-136578600D01*
X150406366Y-136578600D01*
X150485388Y-136545868D01*
X150545868Y-136485388D01*
X150578600Y-136406366D01*
X150578600Y-135663750D01*
X150551956Y-135637106D01*
X171680643Y-135637106D01*
X172177124Y-136858872D01*
X172202358Y-136896638D01*
X172571529Y-137272907D01*
X174844437Y-135000000D01*
X175155563Y-135000000D01*
X177428471Y-137272907D01*
X177797642Y-136896638D01*
X178310496Y-135681654D01*
X178319357Y-134362894D01*
X177822876Y-133141128D01*
X177797642Y-133103362D01*
X177428471Y-132727093D01*
X175155563Y-135000000D01*
X174844437Y-135000000D01*
X172571529Y-132727093D01*
X172202358Y-133103362D01*
X171689504Y-134318346D01*
X171680643Y-135637106D01*
X150551956Y-135637106D01*
X150524850Y-135610000D01*
X149610000Y-135610000D01*
X149390000Y-135610000D01*
X148475150Y-135610000D01*
X148421400Y-135663750D01*
X148010231Y-135663750D01*
X148038600Y-135521131D01*
X148038600Y-135478869D01*
X147956496Y-135066107D01*
X147722685Y-134716184D01*
X147372762Y-134482373D01*
X146960000Y-134400269D01*
X146547238Y-134482373D01*
X146197315Y-134716184D01*
X145963504Y-135066107D01*
X145881400Y-135478869D01*
X145498600Y-135478869D01*
X145416496Y-135066107D01*
X145383743Y-135017089D01*
X145940416Y-134460417D01*
X146014118Y-134350113D01*
X146014119Y-134350112D01*
X146040000Y-134220000D01*
X146040000Y-133508377D01*
X146197315Y-133743816D01*
X146547238Y-133977627D01*
X146960000Y-134059731D01*
X147372762Y-133977627D01*
X147447114Y-133927946D01*
X147959584Y-134440416D01*
X148069888Y-134514119D01*
X148200000Y-134540000D01*
X148443616Y-134540000D01*
X148421400Y-134593634D01*
X148421400Y-135336250D01*
X148475150Y-135390000D01*
X149390000Y-135390000D01*
X149390000Y-135370000D01*
X149610000Y-135370000D01*
X149610000Y-135390000D01*
X150524850Y-135390000D01*
X150578600Y-135336250D01*
X150578600Y-134593634D01*
X150556384Y-134540000D01*
X152011722Y-134540000D01*
X152107895Y-134636341D01*
X152297111Y-134714910D01*
X152501990Y-134715089D01*
X152691343Y-134636850D01*
X152836341Y-134492105D01*
X152914910Y-134302889D01*
X152915089Y-134098010D01*
X152836850Y-133908657D01*
X152692105Y-133763659D01*
X152502889Y-133685090D01*
X152298010Y-133684911D01*
X152108657Y-133763150D01*
X152011638Y-133860000D01*
X150088803Y-133860000D01*
X150262685Y-133743816D01*
X150496496Y-133393893D01*
X150578600Y-132981131D01*
X150578600Y-132938869D01*
X150505532Y-132571529D01*
X172727093Y-132571529D01*
X175000000Y-134844437D01*
X177272907Y-132571529D01*
X176896638Y-132202358D01*
X175681654Y-131689504D01*
X174362894Y-131680643D01*
X173141128Y-132177124D01*
X173103362Y-132202358D01*
X172727093Y-132571529D01*
X150505532Y-132571529D01*
X150496496Y-132526107D01*
X150262685Y-132176184D01*
X149912762Y-131942373D01*
X149840000Y-131927900D01*
X149840000Y-130800000D01*
X149814119Y-130669888D01*
X149784714Y-130625881D01*
X149740416Y-130559583D01*
X149314970Y-130134138D01*
X149315089Y-129998010D01*
X149236850Y-129808657D01*
X149092105Y-129663659D01*
X148902889Y-129585090D01*
X148698010Y-129584911D01*
X148508657Y-129663150D01*
X148363659Y-129807895D01*
X148285090Y-129997111D01*
X148284911Y-130201990D01*
X148363150Y-130391343D01*
X148507895Y-130536341D01*
X148697111Y-130614910D01*
X148834197Y-130615030D01*
X149160000Y-130940833D01*
X149160000Y-131927900D01*
X149087238Y-131942373D01*
X148737315Y-132176184D01*
X148503504Y-132526107D01*
X148421400Y-132938869D01*
X148421400Y-132981131D01*
X148503504Y-133393893D01*
X148737315Y-133743816D01*
X148911197Y-133860000D01*
X148340832Y-133860000D01*
X147923743Y-133442911D01*
X147956496Y-133393893D01*
X148038600Y-132981131D01*
X148038600Y-132938869D01*
X147956496Y-132526107D01*
X147722685Y-132176184D01*
X147372762Y-131942373D01*
X146960000Y-131860269D01*
X146547238Y-131942373D01*
X146197315Y-132176184D01*
X146026453Y-132431897D01*
X146014119Y-132369888D01*
X145940416Y-132259584D01*
X145140416Y-131459584D01*
X145030113Y-131385881D01*
X144900000Y-131360000D01*
X144040832Y-131360000D01*
X143540418Y-130859586D01*
X143540416Y-130859583D01*
X143240000Y-130559168D01*
X143240000Y-115540832D01*
X143740416Y-115040416D01*
X143814119Y-114930113D01*
X143828301Y-114858813D01*
X143840000Y-114800000D01*
X143840000Y-114701990D01*
X145084911Y-114701990D01*
X145163150Y-114891343D01*
X145285000Y-115013406D01*
X145285000Y-118386591D01*
X145263659Y-118407895D01*
X145185090Y-118597111D01*
X145184911Y-118801990D01*
X145263150Y-118991343D01*
X145407895Y-119136341D01*
X145597111Y-119214910D01*
X145801990Y-119215089D01*
X145991343Y-119136850D01*
X146136341Y-118992105D01*
X146214910Y-118802889D01*
X146215089Y-118598010D01*
X146156655Y-118456588D01*
X146297111Y-118514910D01*
X146501990Y-118515089D01*
X146691343Y-118436850D01*
X146836341Y-118292105D01*
X146914910Y-118102889D01*
X146915089Y-117898010D01*
X146836850Y-117708657D01*
X146830195Y-117701990D01*
X147984911Y-117701990D01*
X148063150Y-117891343D01*
X148160000Y-117988362D01*
X148160000Y-119700000D01*
X148185881Y-119830113D01*
X148259584Y-119940416D01*
X148585030Y-120265862D01*
X148584911Y-120401990D01*
X148663150Y-120591343D01*
X148807895Y-120736341D01*
X148997111Y-120814910D01*
X149201990Y-120815089D01*
X149391343Y-120736850D01*
X149536341Y-120592105D01*
X149560292Y-120534425D01*
X149563150Y-120541343D01*
X149707895Y-120686341D01*
X149897111Y-120764910D01*
X150101990Y-120765089D01*
X150291343Y-120686850D01*
X150436341Y-120542105D01*
X150514910Y-120352889D01*
X150515040Y-120203563D01*
X150552160Y-120148010D01*
X150564119Y-120130112D01*
X150590000Y-120000000D01*
X150590000Y-118829685D01*
X193285878Y-118829685D01*
X193393907Y-118970067D01*
X193812815Y-119115925D01*
X194255653Y-119090371D01*
X194546093Y-118970067D01*
X194654122Y-118829685D01*
X193970000Y-118145563D01*
X193285878Y-118829685D01*
X150590000Y-118829685D01*
X150590000Y-117670832D01*
X150685030Y-117765862D01*
X150684911Y-117901990D01*
X150763150Y-118091343D01*
X150907895Y-118236341D01*
X151097111Y-118314910D01*
X151301990Y-118315089D01*
X151491343Y-118236850D01*
X151636341Y-118092105D01*
X151714910Y-117902889D01*
X151714971Y-117832815D01*
X192844075Y-117832815D01*
X192869629Y-118275653D01*
X192989933Y-118566093D01*
X193130315Y-118674122D01*
X193814437Y-117990000D01*
X194125563Y-117990000D01*
X194809685Y-118674122D01*
X194950067Y-118566093D01*
X195095925Y-118147185D01*
X195070371Y-117704347D01*
X194950067Y-117413907D01*
X194809685Y-117305878D01*
X194125563Y-117990000D01*
X193814437Y-117990000D01*
X193130315Y-117305878D01*
X192989933Y-117413907D01*
X192844075Y-117832815D01*
X151714971Y-117832815D01*
X151715089Y-117698010D01*
X151636850Y-117508657D01*
X151492105Y-117363659D01*
X151302889Y-117285090D01*
X151165803Y-117284970D01*
X151140000Y-117259168D01*
X151140000Y-117150315D01*
X193285878Y-117150315D01*
X193970000Y-117834437D01*
X194654122Y-117150315D01*
X194546093Y-117009933D01*
X194127185Y-116864075D01*
X193684347Y-116889629D01*
X193393907Y-117009933D01*
X193285878Y-117150315D01*
X151140000Y-117150315D01*
X151140000Y-113500000D01*
X151114119Y-113369888D01*
X151089662Y-113333286D01*
X151040416Y-113259583D01*
X150614970Y-112834138D01*
X150615089Y-112698010D01*
X150536850Y-112508657D01*
X150392105Y-112363659D01*
X150202889Y-112285090D01*
X149998010Y-112284911D01*
X149808657Y-112363150D01*
X149663659Y-112507895D01*
X149585090Y-112697111D01*
X149584911Y-112901990D01*
X149663150Y-113091343D01*
X149807895Y-113236341D01*
X149851115Y-113254288D01*
X149708657Y-113313150D01*
X149563659Y-113457895D01*
X149499940Y-113611347D01*
X149436850Y-113458657D01*
X149292105Y-113313659D01*
X149102889Y-113235090D01*
X148898010Y-113234911D01*
X148708657Y-113313150D01*
X148563659Y-113457895D01*
X148485090Y-113647111D01*
X148484911Y-113851990D01*
X148563150Y-114041343D01*
X148707895Y-114186341D01*
X148897111Y-114264910D01*
X149034197Y-114265030D01*
X149360000Y-114590833D01*
X149360000Y-119000616D01*
X149208657Y-119063150D01*
X149063659Y-119207895D01*
X148985090Y-119397111D01*
X148984911Y-119601990D01*
X149056795Y-119775963D01*
X148840000Y-119559168D01*
X148840000Y-117988278D01*
X148936341Y-117892105D01*
X149014910Y-117702889D01*
X149015089Y-117498010D01*
X148936850Y-117308657D01*
X148792105Y-117163659D01*
X148602889Y-117085090D01*
X148398010Y-117084911D01*
X148208657Y-117163150D01*
X148063659Y-117307895D01*
X147985090Y-117497111D01*
X147984911Y-117701990D01*
X146830195Y-117701990D01*
X146815000Y-117686769D01*
X146815000Y-114913409D01*
X146836341Y-114892105D01*
X146914910Y-114702889D01*
X146915089Y-114498010D01*
X146836850Y-114308657D01*
X146692105Y-114163659D01*
X146502889Y-114085090D01*
X146298010Y-114084911D01*
X146108657Y-114163150D01*
X145999937Y-114271680D01*
X145892105Y-114163659D01*
X145702889Y-114085090D01*
X145498010Y-114084911D01*
X145308657Y-114163150D01*
X145163659Y-114307895D01*
X145085090Y-114497111D01*
X145084911Y-114701990D01*
X143840000Y-114701990D01*
X143840000Y-114100000D01*
X143814119Y-113969888D01*
X143740416Y-113859584D01*
X143514970Y-113634138D01*
X143515089Y-113498010D01*
X143436850Y-113308657D01*
X143368313Y-113240000D01*
X144500000Y-113240000D01*
X144630113Y-113214119D01*
X144740416Y-113140416D01*
X145865862Y-112014970D01*
X146001990Y-112015089D01*
X146191343Y-111936850D01*
X146336341Y-111792105D01*
X146414910Y-111602889D01*
X146415089Y-111398010D01*
X146336850Y-111208657D01*
X146192105Y-111063659D01*
X146002889Y-110985090D01*
X145798010Y-110984911D01*
X145608657Y-111063150D01*
X145463659Y-111207895D01*
X145385090Y-111397111D01*
X145384970Y-111534198D01*
X144713938Y-112205230D01*
X144714910Y-112202889D01*
X144715089Y-111998010D01*
X144636850Y-111808657D01*
X144492105Y-111663659D01*
X144302889Y-111585090D01*
X144098010Y-111584911D01*
X143908657Y-111663150D01*
X143763659Y-111807895D01*
X143685090Y-111997111D01*
X143685035Y-112060000D01*
X142100000Y-112060000D01*
X141991474Y-112081587D01*
X141969887Y-112085881D01*
X141859583Y-112159584D01*
X140359584Y-113659584D01*
X140285881Y-113769887D01*
X140285881Y-113769888D01*
X140260000Y-113900000D01*
X140260000Y-114800000D01*
X140285881Y-114930113D01*
X140359584Y-115040416D01*
X140560000Y-115240832D01*
X140560000Y-128400616D01*
X140408657Y-128463150D01*
X140263659Y-128607895D01*
X140185090Y-128797111D01*
X140184911Y-129001990D01*
X140263150Y-129191343D01*
X140407895Y-129336341D01*
X140597111Y-129414910D01*
X140801990Y-129415089D01*
X140991343Y-129336850D01*
X141060000Y-129268313D01*
X141060000Y-129784965D01*
X140998010Y-129784911D01*
X140808657Y-129863150D01*
X140663659Y-130007895D01*
X140585090Y-130197111D01*
X140584911Y-130401990D01*
X140663150Y-130591343D01*
X140807895Y-130736341D01*
X140997111Y-130814910D01*
X141201990Y-130815089D01*
X141391343Y-130736850D01*
X141536341Y-130592105D01*
X141540000Y-130583293D01*
X141540000Y-131927900D01*
X141467238Y-131942373D01*
X141117315Y-132176184D01*
X140925000Y-132464004D01*
X140925000Y-131900000D01*
X140900261Y-131775627D01*
X140849728Y-131700000D01*
X140829810Y-131670190D01*
X140829807Y-131670188D01*
X138825000Y-129665380D01*
X138825000Y-102779685D01*
X183485878Y-102779685D01*
X183593907Y-102920067D01*
X184012815Y-103065925D01*
X184455653Y-103040371D01*
X184746093Y-102920067D01*
X184854122Y-102779685D01*
X184170000Y-102095563D01*
X183485878Y-102779685D01*
X138825000Y-102779685D01*
X138825000Y-102134620D01*
X143057630Y-97901990D01*
X158384911Y-97901990D01*
X158463150Y-98091343D01*
X158607895Y-98236341D01*
X158797111Y-98314910D01*
X159001990Y-98315089D01*
X159184966Y-98239485D01*
X159184911Y-98301990D01*
X159263150Y-98491343D01*
X159407895Y-98636341D01*
X159597111Y-98714910D01*
X159734198Y-98715030D01*
X162179168Y-101160000D01*
X161000000Y-101160000D01*
X160873992Y-101185065D01*
X160698010Y-101184911D01*
X160508657Y-101263150D01*
X160363659Y-101407895D01*
X160285090Y-101597111D01*
X160284911Y-101801990D01*
X160363150Y-101991343D01*
X160507895Y-102136341D01*
X160697111Y-102214910D01*
X160901990Y-102215089D01*
X161091343Y-102136850D01*
X161236341Y-101992105D01*
X161299500Y-101840000D01*
X169600000Y-101840000D01*
X169730113Y-101814119D01*
X169776962Y-101782815D01*
X183044075Y-101782815D01*
X183069629Y-102225653D01*
X183189933Y-102516093D01*
X183330315Y-102624122D01*
X184014437Y-101940000D01*
X184325563Y-101940000D01*
X185009685Y-102624122D01*
X185150067Y-102516093D01*
X185295925Y-102097185D01*
X185270371Y-101654347D01*
X185150067Y-101363907D01*
X185009685Y-101255878D01*
X184325563Y-101940000D01*
X184014437Y-101940000D01*
X183330315Y-101255878D01*
X183189933Y-101363907D01*
X183044075Y-101782815D01*
X169776962Y-101782815D01*
X169840416Y-101740416D01*
X170240416Y-101340417D01*
X170314118Y-101230113D01*
X170314119Y-101230112D01*
X170339937Y-101100315D01*
X183485878Y-101100315D01*
X184170000Y-101784437D01*
X184854122Y-101100315D01*
X184746093Y-100959933D01*
X184327185Y-100814075D01*
X183884347Y-100839629D01*
X183593907Y-100959933D01*
X183485878Y-101100315D01*
X170339937Y-101100315D01*
X170340000Y-101100000D01*
X170340000Y-98815035D01*
X170401990Y-98815089D01*
X170591343Y-98736850D01*
X170736341Y-98592105D01*
X170814910Y-98402889D01*
X170815089Y-98198010D01*
X170736850Y-98008657D01*
X170592105Y-97863659D01*
X170402889Y-97785090D01*
X170198010Y-97784911D01*
X170008657Y-97863150D01*
X169863659Y-98007895D01*
X169814978Y-98125133D01*
X169815089Y-97998010D01*
X169736850Y-97808657D01*
X169592105Y-97663659D01*
X169402889Y-97585090D01*
X169198010Y-97584911D01*
X169008657Y-97663150D01*
X168863659Y-97807895D01*
X168785090Y-97997111D01*
X168785058Y-98034110D01*
X167659168Y-99160000D01*
X163240832Y-99160000D01*
X162040000Y-97959168D01*
X162040000Y-97000000D01*
X162014119Y-96869888D01*
X161940416Y-96759584D01*
X161832822Y-96651990D01*
X174484911Y-96651990D01*
X174563150Y-96841343D01*
X174585000Y-96863231D01*
X174585000Y-98686591D01*
X174563659Y-98707895D01*
X174485090Y-98897111D01*
X174484911Y-99101990D01*
X174563150Y-99291343D01*
X174707895Y-99436341D01*
X174897111Y-99514910D01*
X175101990Y-99515089D01*
X175291343Y-99436850D01*
X175436341Y-99292105D01*
X175514910Y-99102889D01*
X175515089Y-98898010D01*
X175436850Y-98708657D01*
X175415000Y-98686769D01*
X175415000Y-96863409D01*
X175436341Y-96842105D01*
X175514910Y-96652889D01*
X175515089Y-96448010D01*
X175436850Y-96258657D01*
X175292105Y-96113659D01*
X175102889Y-96035090D01*
X174898010Y-96034911D01*
X174708657Y-96113150D01*
X174563659Y-96257895D01*
X174485090Y-96447111D01*
X174484911Y-96651990D01*
X161832822Y-96651990D01*
X161440416Y-96259584D01*
X161330113Y-96185881D01*
X161200000Y-96160000D01*
X160400000Y-96160000D01*
X160269887Y-96185881D01*
X160159584Y-96259584D01*
X159095587Y-97323581D01*
X159002889Y-97285090D01*
X158798010Y-97284911D01*
X158608657Y-97363150D01*
X158463659Y-97507895D01*
X158385090Y-97697111D01*
X158384911Y-97901990D01*
X143057630Y-97901990D01*
X148229810Y-92729810D01*
X148300261Y-92624372D01*
X148325001Y-92500000D01*
X148325000Y-92499995D01*
X148325000Y-88201990D01*
X149084911Y-88201990D01*
X149163150Y-88391343D01*
X149307895Y-88536341D01*
X149497111Y-88614910D01*
X149634198Y-88615030D01*
X150759584Y-89740416D01*
X150869887Y-89814119D01*
X151000000Y-89840000D01*
X155559168Y-89840000D01*
X155985030Y-90265862D01*
X155984911Y-90401990D01*
X156063150Y-90591343D01*
X156207895Y-90736341D01*
X156397111Y-90814910D01*
X156601990Y-90815089D01*
X156791343Y-90736850D01*
X156936341Y-90592105D01*
X157014910Y-90402889D01*
X157015089Y-90198010D01*
X156936850Y-90008657D01*
X156792105Y-89863659D01*
X156602889Y-89785090D01*
X156465802Y-89784970D01*
X155940416Y-89259584D01*
X155830113Y-89185881D01*
X155700000Y-89160000D01*
X151140832Y-89160000D01*
X150409303Y-88428471D01*
X172727093Y-88428471D01*
X173103362Y-88797642D01*
X174318346Y-89310496D01*
X175637106Y-89319357D01*
X176858872Y-88822876D01*
X176896638Y-88797642D01*
X177272907Y-88428471D01*
X175000000Y-86155563D01*
X172727093Y-88428471D01*
X150409303Y-88428471D01*
X150114970Y-88134138D01*
X150115089Y-87998010D01*
X150036850Y-87808657D01*
X149892105Y-87663659D01*
X149702889Y-87585090D01*
X149498010Y-87584911D01*
X149308657Y-87663150D01*
X149163659Y-87807895D01*
X149085090Y-87997111D01*
X149084911Y-88201990D01*
X148325000Y-88201990D01*
X148325000Y-87800000D01*
X148300261Y-87675628D01*
X148229810Y-87570190D01*
X148214952Y-87555332D01*
X148215089Y-87398010D01*
X148136850Y-87208657D01*
X147992105Y-87063659D01*
X147802889Y-86985090D01*
X147598010Y-86984911D01*
X147408657Y-87063150D01*
X147263659Y-87207895D01*
X147185090Y-87397111D01*
X147184911Y-87601990D01*
X147263150Y-87791343D01*
X147407895Y-87936341D01*
X147597111Y-88014910D01*
X147675000Y-88014978D01*
X147675000Y-92365380D01*
X138270190Y-101770190D01*
X138199739Y-101875628D01*
X138175000Y-102000000D01*
X138175000Y-129800000D01*
X138199739Y-129924372D01*
X138270190Y-130029810D01*
X140275000Y-132034619D01*
X140275000Y-132434072D01*
X140102685Y-132176184D01*
X139752762Y-131942373D01*
X139340000Y-131860269D01*
X138927238Y-131942373D01*
X138577315Y-132176184D01*
X138343504Y-132526107D01*
X138325000Y-132619132D01*
X138325000Y-132100000D01*
X138300261Y-131975628D01*
X138300261Y-131975627D01*
X138272042Y-131933395D01*
X138229810Y-131870190D01*
X138229807Y-131870188D01*
X136825000Y-130465380D01*
X136825000Y-100934620D01*
X146229810Y-91529810D01*
X146300261Y-91424372D01*
X146325001Y-91300000D01*
X146325000Y-91299995D01*
X146325000Y-88015022D01*
X146401990Y-88015089D01*
X146591343Y-87936850D01*
X146736341Y-87792105D01*
X146814910Y-87602889D01*
X146815089Y-87398010D01*
X146736850Y-87208657D01*
X146592105Y-87063659D01*
X146402889Y-86985090D01*
X146198010Y-86984911D01*
X146008657Y-87063150D01*
X145863659Y-87207895D01*
X145785090Y-87397111D01*
X145784952Y-87555428D01*
X145770190Y-87570190D01*
X145699739Y-87675628D01*
X145675000Y-87800000D01*
X145675000Y-91165380D01*
X136270190Y-100570190D01*
X136199739Y-100675628D01*
X136175000Y-100800000D01*
X136175000Y-130600000D01*
X136199739Y-130724372D01*
X136270190Y-130829810D01*
X137675000Y-132234619D01*
X137675000Y-132344275D01*
X137562685Y-132176184D01*
X137212762Y-131942373D01*
X136800000Y-131860269D01*
X136387238Y-131942373D01*
X136037315Y-132176184D01*
X135803504Y-132526107D01*
X135721400Y-132938869D01*
X135338600Y-132938869D01*
X135256496Y-132526107D01*
X135022685Y-132176184D01*
X134672762Y-131942373D01*
X134260000Y-131860269D01*
X133847238Y-131942373D01*
X133497315Y-132176184D01*
X133263504Y-132526107D01*
X133181400Y-132938869D01*
X132798600Y-132938869D01*
X132716496Y-132526107D01*
X132482685Y-132176184D01*
X132132762Y-131942373D01*
X131720000Y-131860269D01*
X131307238Y-131942373D01*
X130957315Y-132176184D01*
X130723504Y-132526107D01*
X130641400Y-132938869D01*
X127718600Y-132938869D01*
X127667805Y-132683502D01*
X128137430Y-132683502D01*
X128160762Y-132850000D01*
X129070000Y-132850000D01*
X129070000Y-131941070D01*
X129290000Y-131941070D01*
X129290000Y-132850000D01*
X130199238Y-132850000D01*
X130222570Y-132683502D01*
X130037398Y-132305575D01*
X129721695Y-132027278D01*
X129456496Y-131917442D01*
X129290000Y-131941070D01*
X129070000Y-131941070D01*
X128903504Y-131917442D01*
X128638305Y-132027278D01*
X128322602Y-132305575D01*
X128137430Y-132683502D01*
X127667805Y-132683502D01*
X127636496Y-132526107D01*
X127402685Y-132176184D01*
X127052762Y-131942373D01*
X126640000Y-131860269D01*
X126227238Y-131942373D01*
X125877315Y-132176184D01*
X125643504Y-132526107D01*
X125561400Y-132938869D01*
X119636253Y-132938869D01*
X119428471Y-132727093D01*
X117155563Y-135000000D01*
X116844437Y-135000000D01*
X114571529Y-132727093D01*
X114202358Y-133103362D01*
X113765000Y-134139491D01*
X113765000Y-132571529D01*
X114727093Y-132571529D01*
X117000000Y-134844437D01*
X119272907Y-132571529D01*
X118896638Y-132202358D01*
X117681654Y-131689504D01*
X116362894Y-131680643D01*
X115141128Y-132177124D01*
X115103362Y-132202358D01*
X114727093Y-132571529D01*
X113765000Y-132571529D01*
X113765000Y-108020000D01*
X115243764Y-108020000D01*
X115317457Y-108390480D01*
X115527317Y-108704557D01*
X115841394Y-108914417D01*
X116211874Y-108988110D01*
X117788126Y-108988110D01*
X118158606Y-108914417D01*
X118472683Y-108704557D01*
X118682543Y-108390480D01*
X118756236Y-108020000D01*
X118682543Y-107649520D01*
X118472683Y-107335443D01*
X118158606Y-107125583D01*
X117788126Y-107051890D01*
X116211874Y-107051890D01*
X115841394Y-107125583D01*
X115527317Y-107335443D01*
X115317457Y-107649520D01*
X115243764Y-108020000D01*
X113765000Y-108020000D01*
X113765000Y-105480000D01*
X115243764Y-105480000D01*
X115317457Y-105850480D01*
X115527317Y-106164557D01*
X115841394Y-106374417D01*
X116211874Y-106448110D01*
X117788126Y-106448110D01*
X118158606Y-106374417D01*
X118472683Y-106164557D01*
X118682543Y-105850480D01*
X118756236Y-105480000D01*
X118682543Y-105109520D01*
X118472683Y-104795443D01*
X118158606Y-104585583D01*
X117788126Y-104511890D01*
X116211874Y-104511890D01*
X115841394Y-104585583D01*
X115527317Y-104795443D01*
X115317457Y-105109520D01*
X115243764Y-105480000D01*
X113765000Y-105480000D01*
X113765000Y-102803441D01*
X122852123Y-102803441D01*
X122954020Y-102938621D01*
X123354775Y-103076110D01*
X123777639Y-103049771D01*
X124045980Y-102938621D01*
X124147877Y-102803441D01*
X123500000Y-102155563D01*
X122852123Y-102803441D01*
X113765000Y-102803441D01*
X113765000Y-101854775D01*
X122423890Y-101854775D01*
X122450229Y-102277639D01*
X122561379Y-102545980D01*
X122696559Y-102647877D01*
X123344437Y-102000000D01*
X123655563Y-102000000D01*
X124303441Y-102647877D01*
X124438621Y-102545980D01*
X124576110Y-102145225D01*
X124549771Y-101722361D01*
X124438621Y-101454020D01*
X124303441Y-101352123D01*
X123655563Y-102000000D01*
X123344437Y-102000000D01*
X122696559Y-101352123D01*
X122561379Y-101454020D01*
X122423890Y-101854775D01*
X113765000Y-101854775D01*
X113765000Y-101196559D01*
X122852123Y-101196559D01*
X123500000Y-101844437D01*
X124147877Y-101196559D01*
X124112782Y-101150000D01*
X127430788Y-101150000D01*
X127430788Y-102850000D01*
X127445780Y-102929674D01*
X127492867Y-103002850D01*
X127564714Y-103051941D01*
X127650000Y-103069212D01*
X129350000Y-103069212D01*
X129429674Y-103054220D01*
X129502850Y-103007133D01*
X129551941Y-102935286D01*
X129569212Y-102850000D01*
X129569212Y-102640000D01*
X134711722Y-102640000D01*
X134807895Y-102736341D01*
X134997111Y-102814910D01*
X135201990Y-102815089D01*
X135391343Y-102736850D01*
X135536341Y-102592105D01*
X135614910Y-102402889D01*
X135615089Y-102198010D01*
X135536850Y-102008657D01*
X135392105Y-101863659D01*
X135202889Y-101785090D01*
X134998010Y-101784911D01*
X134808657Y-101863150D01*
X134711638Y-101960000D01*
X129569212Y-101960000D01*
X129569212Y-101150000D01*
X129554220Y-101070326D01*
X129507133Y-100997150D01*
X129435286Y-100948059D01*
X129350000Y-100930788D01*
X127650000Y-100930788D01*
X127570326Y-100945780D01*
X127497150Y-100992867D01*
X127448059Y-101064714D01*
X127430788Y-101150000D01*
X124112782Y-101150000D01*
X124045980Y-101061379D01*
X123645225Y-100923890D01*
X123222361Y-100950229D01*
X122954020Y-101061379D01*
X122852123Y-101196559D01*
X113765000Y-101196559D01*
X113765000Y-90201990D01*
X128784911Y-90201990D01*
X128863150Y-90391343D01*
X129007895Y-90536341D01*
X129197111Y-90614910D01*
X129401990Y-90615089D01*
X129591343Y-90536850D01*
X129688362Y-90440000D01*
X131000000Y-90440000D01*
X131130113Y-90414119D01*
X131240416Y-90340416D01*
X131465862Y-90114970D01*
X131601990Y-90115089D01*
X131791343Y-90036850D01*
X131936341Y-89892105D01*
X132014910Y-89702889D01*
X132015089Y-89498010D01*
X131936850Y-89308657D01*
X131792105Y-89163659D01*
X131602889Y-89085090D01*
X131398010Y-89084911D01*
X131208657Y-89163150D01*
X131063659Y-89307895D01*
X130985090Y-89497111D01*
X130984970Y-89634198D01*
X130859168Y-89760000D01*
X129688278Y-89760000D01*
X129592105Y-89663659D01*
X129402889Y-89585090D01*
X129198010Y-89584911D01*
X129008657Y-89663150D01*
X128863659Y-89807895D01*
X128785090Y-89997111D01*
X128784911Y-90201990D01*
X113765000Y-90201990D01*
X113765000Y-88428471D01*
X114727093Y-88428471D01*
X115103362Y-88797642D01*
X116318346Y-89310496D01*
X117637106Y-89319357D01*
X118858872Y-88822876D01*
X118896638Y-88797642D01*
X119272907Y-88428471D01*
X117000000Y-86155563D01*
X114727093Y-88428471D01*
X113765000Y-88428471D01*
X113765000Y-86844696D01*
X114177124Y-87858872D01*
X114202358Y-87896638D01*
X114571529Y-88272907D01*
X116844437Y-86000000D01*
X117155563Y-86000000D01*
X119428471Y-88272907D01*
X119797642Y-87896638D01*
X120310496Y-86681654D01*
X120310795Y-86637106D01*
X171680643Y-86637106D01*
X172177124Y-87858872D01*
X172202358Y-87896638D01*
X172571529Y-88272907D01*
X174844437Y-86000000D01*
X175155563Y-86000000D01*
X177428471Y-88272907D01*
X177797642Y-87896638D01*
X178310496Y-86681654D01*
X178319357Y-85362894D01*
X177822876Y-84141128D01*
X177797642Y-84103362D01*
X177428471Y-83727093D01*
X175155563Y-86000000D01*
X174844437Y-86000000D01*
X172571529Y-83727093D01*
X172202358Y-84103362D01*
X171689504Y-85318346D01*
X171680643Y-86637106D01*
X120310795Y-86637106D01*
X120319357Y-85362894D01*
X119822876Y-84141128D01*
X119797642Y-84103362D01*
X119428471Y-83727093D01*
X117155563Y-86000000D01*
X116844437Y-86000000D01*
X114571529Y-83727093D01*
X114202358Y-84103362D01*
X113765000Y-85139491D01*
X113765000Y-82765000D01*
X116155304Y-82765000D01*
X115141128Y-83177124D01*
M02*
