M48
;DRILL file {KiCad 4.0.0-rc1-stable} date 11/3/2015 9:26:14 AM
;FORMAT={-:-/ absolute / inch / decimal}
FMAT,2
INCH,TZ
T1C0.016
T2C0.039
T3C0.040
T4C0.047
T5C0.059
T6C0.108
%
G90
G05
M72
T1
X4.5118Y-4.4882
X4.5118Y-4.7756
X4.5118Y-5.0787
X4.5157Y-4.2047
X4.5276Y-3.6417
X4.5276Y-3.8386
X4.5276Y-4.0354
X4.685Y-4.7835
X4.7244Y-3.6417
X4.7244Y-3.8386
X4.7244Y-4.0354
X4.7717Y-4.4843
X4.7717Y-4.563
X4.7717Y-4.6339
X4.7717Y-4.7047
X4.811Y-4.7913
X4.811Y-4.878
X4.811Y-5.
X4.8496Y-3.4622
X4.9213Y-3.8386
X5.Y-3.3071
X5.0906Y-3.5472
X5.0984Y-3.3425
X5.0984Y-3.5118
X5.1181Y-3.8386
X5.1772Y-3.5276
X5.2047Y-4.2323
X5.2165Y-4.9882
X5.2362Y-3.3071
X5.2559Y-4.3898
X5.2559Y-4.4882
X5.2559Y-4.6063
X5.2559Y-4.6457
X5.2756Y-5.1181
X5.3189Y-4.0276
X5.3346Y-3.9961
X5.3346Y-4.0551
X5.3346Y-4.1142
X5.3346Y-4.1732
X5.3346Y-4.2323
X5.3346Y-4.2913
X5.3346Y-4.3504
X5.3346Y-4.4094
X5.3346Y-4.4685
X5.3346Y-4.5276
X5.3346Y-4.5866
X5.3346Y-4.6457
X5.3346Y-4.7047
X5.3346Y-4.7638
X5.3346Y-4.8228
X5.3346Y-4.9016
X5.3346Y-4.9606
X5.3346Y-5.0197
X5.3346Y-5.0787
X5.3543Y-3.937
X5.3937Y-3.8976
X5.4134Y-3.3465
X5.4134Y-3.5433
X5.4134Y-3.7402
X5.4134Y-3.9961
X5.4134Y-4.0551
X5.4134Y-4.1142
X5.4134Y-4.1732
X5.4134Y-4.2323
X5.4134Y-4.2913
X5.4134Y-4.3504
X5.4134Y-4.4094
X5.4134Y-4.5276
X5.4134Y-4.5866
X5.4134Y-4.6457
X5.4134Y-4.7047
X5.4134Y-4.7638
X5.4134Y-4.8228
X5.4134Y-4.9016
X5.4134Y-4.9606
X5.4134Y-5.0197
X5.4134Y-5.0787
X5.4135Y-4.4683
X5.4331Y-3.8583
X5.4528Y-3.9567
X5.4724Y-3.8189
X5.4882Y-4.5236
X5.4921Y-3.9173
X5.4921Y-4.0551
X5.4921Y-4.1142
X5.4921Y-4.1732
X5.4921Y-4.2323
X5.4921Y-4.2913
X5.4921Y-4.3504
X5.4921Y-4.4094
X5.4921Y-4.4685
X5.4921Y-4.6299
X5.4921Y-4.689
X5.4921Y-4.9016
X5.4921Y-4.9606
X5.4921Y-5.0197
X5.5118Y-3.7795
X5.5315Y-3.878
X5.5315Y-3.9961
X5.5394Y-5.0748
X5.5512Y-3.7402
X5.5551Y-5.1299
X5.5551Y-5.1693
X5.5709Y-3.8386
X5.5709Y-3.9567
X5.5827Y-4.5039
X5.5906Y-3.7008
X5.6102Y-3.5433
X5.6102Y-3.7992
X5.6102Y-3.9173
X5.622Y-4.5039
X5.6299Y-3.6614
X5.6299Y-4.4724
X5.6496Y-3.7598
X5.6496Y-3.878
X5.6575Y-4.6339
X5.6575Y-4.6732
X5.6693Y-3.622
X5.6772Y-4.4134
X5.6811Y-4.5079
X5.685Y-5.0906
X5.689Y-3.7205
X5.689Y-3.8386
X5.7087Y-3.437
X5.7087Y-3.5039
X5.7087Y-3.563
X5.7283Y-3.6811
X5.7283Y-3.7992
X5.7323Y-4.5118
X5.7362Y-4.6732
X5.7441Y-4.3898
X5.748Y-4.9882
X5.7598Y-3.4449
X5.7638Y-4.5118
X5.7638Y-4.6457
X5.7638Y-4.7638
X5.7677Y-3.6417
X5.7677Y-3.7598
X5.7874Y-3.4803
X5.7874Y-3.5236
X5.7874Y-3.5827
X5.8071Y-3.7205
X5.8071Y-4.1339
X5.8071Y-4.3307
X5.815Y-3.4449
X5.8465Y-3.6811
X5.8465Y-4.6299
X5.8583Y-5.122
X5.8661Y-3.5039
X5.8661Y-3.563
X5.8661Y-3.622
X5.8661Y-4.4783
X5.8701Y-4.7362
X5.8858Y-4.7047
X5.8898Y-3.4685
X5.9055Y-4.4783
X5.9055Y-4.7343
X5.9094Y-4.4409
X5.9134Y-5.0433
X5.9213Y-3.4409
X5.9252Y-3.8583
X5.9528Y-4.6378
X5.9606Y-5.3858
X6.Y-5.2835
X6.0039Y-4.1339
X6.0039Y-4.3307
X6.0433Y-3.7303
X6.0827Y-3.4409
X6.1024Y-5.2165
X6.1024Y-5.4134
X6.122Y-4.5197
X6.122Y-4.6339
X6.122Y-4.8622
X6.122Y-5.0197
X6.1299Y-4.687
X6.1555Y-4.7441
X6.1614Y-3.5551
X6.1614Y-4.5197
X6.1988Y-4.7913
X6.2008Y-3.8583
X6.2008Y-4.1339
X6.2008Y-4.3307
X6.2008Y-4.498
X6.2106Y-3.7303
X6.2205Y-3.4646
X6.2205Y-3.5236
X6.2205Y-3.5827
X6.2402Y-4.5197
X6.2539Y-4.8228
X6.2559Y-3.8504
X6.2717Y-4.6417
X6.2795Y-4.5197
X6.2795Y-4.5591
X6.2795Y-4.5984
X6.2874Y-3.8661
X6.2992Y-4.4252
X6.2992Y-5.0197
X6.2992Y-5.2165
X6.2992Y-5.4134
X6.313Y-4.8465
X6.315Y-4.689
X6.3189Y-3.8583
X6.3307Y-4.0039
X6.3346Y-3.8268
X6.3661Y-3.4331
X6.372Y-4.8681
X6.374Y-4.2126
X6.374Y-4.2598
X6.374Y-4.7106
X6.378Y-4.1614
X6.3976Y-3.6417
X6.3976Y-4.5276
X6.4055Y-4.3898
X6.4094Y-4.1929
X6.4094Y-4.2323
X6.4094Y-4.3504
X6.4173Y-3.563
X6.4173Y-3.6024
X6.4173Y-3.6811
X6.4173Y-3.7205
X6.4311Y-4.8898
X6.4331Y-4.7343
X6.4449Y-4.3898
X6.4567Y-3.563
X6.4843Y-4.3898
X6.4902Y-4.9134
X6.4921Y-4.7559
X6.4961Y-3.2874
X6.4961Y-5.0197
X6.4961Y-5.2165
X6.4961Y-5.4134
X6.5236Y-4.1929
X6.5236Y-4.2323
X6.5236Y-4.3504
X6.5236Y-4.3898
X6.5276Y-3.5669
X6.5315Y-3.7165
X6.5354Y-3.878
X6.5354Y-4.0354
X6.5492Y-4.935
X6.5512Y-4.7795
X6.5591Y-4.1732
X6.5591Y-4.2126
X6.563Y-4.4921
X6.5906Y-3.5669
X6.5945Y-3.7165
X6.5945Y-4.626
X6.5984Y-3.4331
X6.6083Y-4.9587
X6.6102Y-4.8012
X6.6142Y-4.5748
X6.6535Y-3.5669
X6.6575Y-3.7165
X6.6614Y-4.0394
X6.6614Y-4.2165
X6.6614Y-4.4921
X6.6654Y-3.8622
X6.6654Y-3.8937
X6.6654Y-3.9291
X6.6654Y-3.9646
X6.6673Y-4.9823
X6.6693Y-4.8228
X6.6929Y-3.2874
X6.6929Y-5.2165
X6.6929Y-5.4134
X6.7047Y-3.8701
X6.7165Y-3.5669
X6.7205Y-3.7165
X6.7244Y-4.5551
X6.7264Y-5.0039
X6.7283Y-4.8465
X6.7795Y-3.5669
X6.7835Y-3.7165
X6.7854Y-5.0276
X6.7874Y-4.8681
X6.7913Y-4.7244
X6.8425Y-3.5669
X6.8445Y-5.0492
X6.8465Y-3.7165
X6.8465Y-4.8917
X6.8622Y-4.2402
X6.8661Y-3.9449
X6.874Y-4.5354
X6.8898Y-3.8012
X6.8898Y-3.8976
X6.9035Y-5.0709
X6.9055Y-3.5669
X6.9055Y-4.9134
X6.9094Y-3.7165
X6.9626Y-5.0925
X6.9646Y-4.937
X6.9685Y-3.563
X6.9724Y-3.7165
X6.9882Y-3.8386
X6.9882Y-4.0354
X6.9882Y-4.626
X6.9882Y-4.8228
X7.0197Y-3.5276
X7.0217Y-5.1161
X7.0236Y-4.9587
X7.0276Y-4.2323
X7.0276Y-4.4291
X7.0315Y-3.7008
X7.063Y-3.4843
X7.0807Y-5.1378
X7.0827Y-4.9823
X7.0866Y-3.2874
X7.0866Y-3.6732
X7.0866Y-5.2165
X7.0866Y-5.4134
X7.0945Y-3.8819
X7.0984Y-3.7441
X7.1102Y-3.4449
X7.1339Y-3.6299
X7.1398Y-5.1614
X7.1417Y-5.0039
X7.1654Y-3.7165
X7.1693Y-3.4213
X7.1772Y-3.5827
X7.185Y-4.0354
X7.185Y-4.2323
X7.185Y-4.4291
X7.185Y-4.626
X7.185Y-4.8228
X7.1988Y-3.8819
X7.1988Y-5.1831
X7.2008Y-3.6654
X7.2008Y-5.0276
X7.2165Y-3.6181
X7.2244Y-3.8031
X7.2323Y-3.4094
X7.2362Y-3.5591
X7.2579Y-5.2067
X7.2598Y-5.0492
X7.2756Y-3.6102
X7.2835Y-3.2874
X7.2835Y-5.4134
X7.2913Y-3.7362
X7.2953Y-3.4094
X7.2992Y-3.5591
X7.3169Y-5.2283
X7.3189Y-5.0728
X7.3386Y-3.6102
X7.3583Y-3.4094
X7.3622Y-3.5591
X7.376Y-5.252
X7.378Y-3.7362
X7.378Y-5.0945
X7.3819Y-3.8386
X7.3819Y-4.0354
X7.3819Y-4.2323
X7.3819Y-4.4291
X7.3819Y-4.626
X7.3819Y-4.8228
X7.3819Y-5.0197
X7.4016Y-3.6102
X7.4213Y-3.4094
X7.4252Y-3.5591
X7.435Y-5.2736
X7.437Y-5.1161
X7.4646Y-3.6063
X7.4724Y-3.7362
X7.4803Y-3.2874
X7.4803Y-5.4134
X7.4843Y-3.4094
X7.498Y-5.1358
X7.498Y-5.2874
X7.5472Y-3.4094
X7.561Y-5.1417
X7.561Y-5.2894
X7.563Y-3.7362
X7.5787Y-4.0354
X7.5787Y-4.2323
X7.5787Y-4.4291
X7.5787Y-4.8228
X7.5827Y-3.3031
X7.5827Y-3.3661
X7.5827Y-3.5591
X7.5827Y-3.622
X7.5827Y-3.685
X7.5846Y-4.9567
X7.5846Y-5.0197
X7.5846Y-5.0827
X7.5866Y-5.3465
X7.5866Y-5.4094
X7.6063Y-3.7441
X7.6476Y-4.9567
X7.6693Y-3.7441
X7.7106Y-4.9567
X7.7323Y-3.7441
X7.7736Y-4.9567
X7.7756Y-4.0354
X7.7756Y-4.2323
X7.7756Y-4.4291
X7.7756Y-4.626
X7.7756Y-4.8228
X7.7795Y-3.7835
T2
X4.6063Y-4.1528
X4.6063Y-4.2528
T3
X4.9858Y-5.2346
X4.9858Y-5.3346
X5.0858Y-5.2346
X5.0858Y-5.3346
X5.1858Y-5.2346
X5.1858Y-5.3346
X5.2858Y-5.2346
X5.2858Y-5.3346
X5.3858Y-5.2346
X5.3858Y-5.3346
X5.4858Y-5.2346
X5.4858Y-5.3346
X5.5858Y-5.2346
X5.5858Y-5.3346
X5.6858Y-5.2346
X5.6858Y-5.3346
X5.7858Y-5.2346
X5.7858Y-5.3346
X5.8858Y-5.2346
X5.8858Y-5.3346
T4
X4.8622Y-4.0157
X5.0591Y-4.0157
T5
X7.2508Y-4.0134
X7.6366Y-4.6453
T6
X4.6063Y-3.3858
X4.6063Y-5.315
X6.8898Y-3.3858
X6.8898Y-5.315
T0
M30
