G04 #@! TF.FileFunction,Legend,Top*
%FSLAX46Y46*%
G04 Gerber Fmt 4.6, Leading zero omitted, Abs format (unit mm)*
G04 Created by KiCad (PCBNEW 4.0.0-rc1-stable) date 11/3/2015 9:26:12 AM*
%MOMM*%
G01*
G04 APERTURE LIST*
%ADD10C,0.100000*%
%ADD11C,0.150000*%
G04 APERTURE END LIST*
D10*
D11*
X114028571Y-103471429D02*
X114028571Y-103871429D01*
X113885714Y-103242857D02*
X113742857Y-103671429D01*
X114114285Y-103671429D01*
X114257143Y-103271429D02*
X114457143Y-103871429D01*
X114657143Y-103271429D01*
X115171429Y-103871429D02*
X114828572Y-103871429D01*
X115000000Y-103871429D02*
X115000000Y-103271429D01*
X114942857Y-103357143D01*
X114885715Y-103414286D01*
X114828572Y-103442857D01*
X116228572Y-103814286D02*
X116200001Y-103842857D01*
X116114287Y-103871429D01*
X116057144Y-103871429D01*
X115971429Y-103842857D01*
X115914287Y-103785714D01*
X115885715Y-103728571D01*
X115857144Y-103614286D01*
X115857144Y-103528571D01*
X115885715Y-103414286D01*
X115914287Y-103357143D01*
X115971429Y-103300000D01*
X116057144Y-103271429D01*
X116114287Y-103271429D01*
X116200001Y-103300000D01*
X116228572Y-103328571D01*
X116485715Y-103271429D02*
X116485715Y-103757143D01*
X116514287Y-103814286D01*
X116542858Y-103842857D01*
X116600001Y-103871429D01*
X116714287Y-103871429D01*
X116771429Y-103842857D01*
X116800001Y-103814286D01*
X116828572Y-103757143D01*
X116828572Y-103271429D01*
X117457143Y-103871429D02*
X117257143Y-103585714D01*
X117114286Y-103871429D02*
X117114286Y-103271429D01*
X117342858Y-103271429D01*
X117400000Y-103300000D01*
X117428572Y-103328571D01*
X117457143Y-103385714D01*
X117457143Y-103471429D01*
X117428572Y-103528571D01*
X117400000Y-103557143D01*
X117342858Y-103585714D01*
X117114286Y-103585714D01*
X118142858Y-103842857D02*
X118228572Y-103871429D01*
X118371429Y-103871429D01*
X118428572Y-103842857D01*
X118457143Y-103814286D01*
X118485715Y-103757143D01*
X118485715Y-103700000D01*
X118457143Y-103642857D01*
X118428572Y-103614286D01*
X118371429Y-103585714D01*
X118257143Y-103557143D01*
X118200001Y-103528571D01*
X118171429Y-103500000D01*
X118142858Y-103442857D01*
X118142858Y-103385714D01*
X118171429Y-103328571D01*
X118200001Y-103300000D01*
X118257143Y-103271429D01*
X118400001Y-103271429D01*
X118485715Y-103300000D01*
X118742858Y-103557143D02*
X118942858Y-103557143D01*
X119028572Y-103871429D02*
X118742858Y-103871429D01*
X118742858Y-103271429D01*
X119028572Y-103271429D01*
X119285715Y-103871429D02*
X119285715Y-103271429D01*
X119628572Y-103871429D01*
X119628572Y-103271429D01*
X158500000Y-87000000D02*
X157500000Y-88000000D01*
X157500000Y-88000000D02*
X159500000Y-88000000D01*
X158500000Y-87000000D02*
X159500000Y-88000000D01*
X163000000Y-86000000D02*
X164000000Y-87000000D01*
X164000000Y-87000000D02*
X164000000Y-87750000D01*
X164000000Y-87750000D02*
X162250000Y-86000000D01*
X162250000Y-86000000D02*
X161500000Y-86000000D01*
X161500000Y-86000000D02*
X164000000Y-88500000D01*
X164000000Y-88500000D02*
X164000000Y-89250000D01*
X164000000Y-89250000D02*
X160750000Y-86000000D01*
X134000000Y-86000000D02*
X134000000Y-116000000D01*
X134000000Y-116000000D02*
X164000000Y-116000000D01*
X164000000Y-116000000D02*
X164000000Y-86000000D01*
X164000000Y-86000000D02*
X134000000Y-86000000D01*
X172825000Y-98000000D02*
X172825000Y-97000000D01*
X174175000Y-97000000D02*
X174175000Y-98000000D01*
X186500000Y-87825000D02*
X187500000Y-87825000D01*
X187500000Y-89175000D02*
X186500000Y-89175000D01*
X151500000Y-118825000D02*
X152500000Y-118825000D01*
X152500000Y-120175000D02*
X151500000Y-120175000D01*
X151500000Y-121325000D02*
X152500000Y-121325000D01*
X152500000Y-122675000D02*
X151500000Y-122675000D01*
X151500000Y-123825000D02*
X152500000Y-123825000D01*
X152500000Y-125175000D02*
X151500000Y-125175000D01*
X119675000Y-126000000D02*
X119675000Y-127000000D01*
X118325000Y-127000000D02*
X118325000Y-126000000D01*
X120325000Y-122500000D02*
X120325000Y-121500000D01*
X121675000Y-121500000D02*
X121675000Y-122500000D01*
X128175000Y-91500000D02*
X128175000Y-92500000D01*
X126825000Y-92500000D02*
X126825000Y-91500000D01*
X131175000Y-91500000D02*
X131175000Y-92500000D01*
X129825000Y-92500000D02*
X129825000Y-91500000D01*
X125175000Y-91500000D02*
X125175000Y-92500000D01*
X123825000Y-92500000D02*
X123825000Y-91500000D01*
X152500000Y-127675000D02*
X151500000Y-127675000D01*
X151500000Y-126325000D02*
X152500000Y-126325000D01*
X152500000Y-130175000D02*
X151500000Y-130175000D01*
X151500000Y-128825000D02*
X152500000Y-128825000D01*
X190325000Y-90000000D02*
X190325000Y-89000000D01*
X191675000Y-89000000D02*
X191675000Y-90000000D01*
X185600000Y-93775000D02*
X184600000Y-93775000D01*
X184600000Y-92425000D02*
X185600000Y-92425000D01*
X138825000Y-121500000D02*
X138825000Y-120500000D01*
X140175000Y-120500000D02*
X140175000Y-121500000D01*
X124000000Y-126525000D02*
X126000000Y-126525000D01*
X126000000Y-124475000D02*
X124000000Y-124475000D01*
X124000000Y-129525000D02*
X126000000Y-129525000D01*
X126000000Y-127475000D02*
X124000000Y-127475000D01*
X121675000Y-126000000D02*
X121675000Y-127000000D01*
X120325000Y-127000000D02*
X120325000Y-126000000D01*
X118800000Y-116850000D02*
X117800000Y-116850000D01*
X117800000Y-118550000D02*
X118800000Y-118550000D01*
X168850000Y-113500000D02*
X168850000Y-112500000D01*
X167150000Y-112500000D02*
X167150000Y-113500000D01*
X168675000Y-107500000D02*
X168675000Y-108500000D01*
X167325000Y-108500000D02*
X167325000Y-107500000D01*
X131675000Y-108000000D02*
X131675000Y-109000000D01*
X130325000Y-109000000D02*
X130325000Y-108000000D01*
X132850000Y-116500000D02*
X132850000Y-115500000D01*
X131150000Y-115500000D02*
X131150000Y-116500000D01*
X187825000Y-94500000D02*
X187825000Y-93500000D01*
X189175000Y-93500000D02*
X189175000Y-94500000D01*
X190325000Y-94500000D02*
X190325000Y-93500000D01*
X191675000Y-93500000D02*
X191675000Y-94500000D01*
X168675000Y-103000000D02*
X168675000Y-104000000D01*
X167325000Y-104000000D02*
X167325000Y-103000000D01*
X167325000Y-99500000D02*
X167325000Y-98500000D01*
X168675000Y-98500000D02*
X168675000Y-99500000D01*
X120425000Y-109925000D02*
X120425000Y-110070000D01*
X124575000Y-109925000D02*
X124575000Y-110070000D01*
X124575000Y-115075000D02*
X124575000Y-114930000D01*
X120425000Y-115075000D02*
X120425000Y-114930000D01*
X120425000Y-109925000D02*
X124575000Y-109925000D01*
X120425000Y-115075000D02*
X124575000Y-115075000D01*
X120425000Y-110070000D02*
X119025000Y-110070000D01*
X116400000Y-121800000D02*
G75*
G03X116400000Y-121800000I-100000J0D01*
G01*
X116550000Y-121250000D02*
X116550000Y-121750000D01*
X119450000Y-121250000D02*
X116550000Y-121250000D01*
X119450000Y-121750000D02*
X119450000Y-121250000D01*
X116550000Y-121750000D02*
X119450000Y-121750000D01*
X131300000Y-86600000D02*
G75*
G03X131300000Y-86600000I-100000J0D01*
G01*
X130950000Y-87250000D02*
X130950000Y-86750000D01*
X128050000Y-87250000D02*
X130950000Y-87250000D01*
X128050000Y-86750000D02*
X128050000Y-87250000D01*
X130950000Y-86750000D02*
X128050000Y-86750000D01*
X118270000Y-109290000D02*
X118270000Y-104210000D01*
X113825000Y-109290000D02*
X113825000Y-104210000D01*
X120175000Y-104210000D02*
X120175000Y-109290000D01*
X120175000Y-104210000D02*
X113825000Y-104210000D01*
X120175000Y-109290000D02*
X113825000Y-109290000D01*
X198500000Y-129500000D02*
X199500000Y-129500000D01*
X199500000Y-129500000D02*
X199500000Y-131000000D01*
X199500000Y-131000000D02*
X201500000Y-131000000D01*
X201500000Y-131000000D02*
X202000000Y-130500000D01*
X202000000Y-130500000D02*
X202500000Y-131000000D01*
X202500000Y-131000000D02*
X203000000Y-130500000D01*
X203000000Y-130500000D02*
X203500000Y-131000000D01*
X203500000Y-131000000D02*
X204000000Y-130500000D01*
X204000000Y-130500000D02*
X204500000Y-131000000D01*
X204500000Y-131000000D02*
X204500000Y-134000000D01*
X204500000Y-134000000D02*
X204000000Y-134500000D01*
X204000000Y-134500000D02*
X203500000Y-134000000D01*
X203500000Y-134000000D02*
X203000000Y-134500000D01*
X203000000Y-134500000D02*
X202500000Y-134000000D01*
X202500000Y-134000000D02*
X202000000Y-134500000D01*
X202000000Y-134500000D02*
X201500000Y-134000000D01*
X201500000Y-134000000D02*
X199500000Y-134000000D01*
X199500000Y-134000000D02*
X199500000Y-135500000D01*
X199500000Y-135500000D02*
X198500000Y-135500000D01*
X198500000Y-85500000D02*
X199500000Y-85500000D01*
X199500000Y-85500000D02*
X199500000Y-87000000D01*
X199500000Y-87000000D02*
X201500000Y-87000000D01*
X201500000Y-87000000D02*
X202000000Y-86500000D01*
X202000000Y-86500000D02*
X202500000Y-87000000D01*
X202500000Y-87000000D02*
X203000000Y-86500000D01*
X203000000Y-86500000D02*
X203500000Y-87000000D01*
X203500000Y-87000000D02*
X204000000Y-86500000D01*
X204000000Y-86500000D02*
X204500000Y-87000000D01*
X204500000Y-87000000D02*
X204500000Y-90000000D01*
X204500000Y-90000000D02*
X204000000Y-90500000D01*
X204000000Y-90500000D02*
X203500000Y-90000000D01*
X203500000Y-90000000D02*
X203000000Y-90500000D01*
X203000000Y-90500000D02*
X202500000Y-90000000D01*
X202500000Y-90000000D02*
X202000000Y-90500000D01*
X202000000Y-90500000D02*
X201500000Y-90000000D01*
X201500000Y-90000000D02*
X199500000Y-90000000D01*
X199500000Y-90000000D02*
X199500000Y-91500000D01*
X199500000Y-91500000D02*
X198500000Y-91500000D01*
X199500000Y-103800000D02*
G75*
G03X199200000Y-103500000I-300000J0D01*
G01*
X200500000Y-103800000D02*
G75*
G03X200200000Y-103500000I-300000J0D01*
G01*
X199200000Y-118500000D02*
G75*
G03X199500000Y-118200000I0J300000D01*
G01*
X200200000Y-118500000D02*
G75*
G03X200500000Y-118200000I0J300000D01*
G01*
X200500000Y-103800000D02*
X200500000Y-118200000D01*
X199500000Y-118200000D02*
X199500000Y-103800000D01*
X204300000Y-103500000D02*
X198500000Y-103500000D01*
X204600000Y-103800000D02*
G75*
G03X204300000Y-103500000I-300000J0D01*
G01*
X204600000Y-118200000D02*
X204600000Y-103800000D01*
X204300000Y-118500000D02*
X198500000Y-118500000D01*
X204300000Y-118500000D02*
G75*
G03X204600000Y-118200000I0J300000D01*
G01*
X198500000Y-100700000D02*
X198500000Y-119500000D01*
X172200000Y-117300000D02*
X172200000Y-116500000D01*
X172200000Y-116500000D02*
X173700000Y-116500000D01*
X173700000Y-116500000D02*
X173700000Y-106000000D01*
X173700000Y-106000000D02*
X172000000Y-106000000D01*
X172200000Y-119500000D02*
X172200000Y-117300000D01*
X172200000Y-119500000D02*
X198500000Y-119500000D01*
X172000000Y-100700000D02*
X198500000Y-100700000D01*
X172000000Y-106000000D02*
X172000000Y-100700000D01*
X127700000Y-115800000D02*
X127700000Y-120200000D01*
X127700000Y-120200000D02*
X123300000Y-120200000D01*
X123300000Y-120200000D02*
X123300000Y-115800000D01*
X123300000Y-115800000D02*
X127700000Y-115800000D01*
X124682500Y-122500000D02*
X124301500Y-122500000D01*
X125698500Y-122500000D02*
X125317500Y-122500000D01*
X125317500Y-122500000D02*
X124682500Y-122881000D01*
X124682500Y-122881000D02*
X124682500Y-122119000D01*
X124682500Y-122119000D02*
X125317500Y-122500000D01*
X125317500Y-123008000D02*
X125317500Y-121992000D01*
X127000000Y-121600000D02*
X123460000Y-121600000D01*
X127000000Y-123400000D02*
X123460000Y-123400000D01*
X143738000Y-126921000D02*
X145262000Y-126921000D01*
X145643000Y-126794000D02*
X143357000Y-126794000D01*
X143103000Y-126667000D02*
X145897000Y-126667000D01*
X146151000Y-126540000D02*
X142849000Y-126540000D01*
X142722000Y-126413000D02*
X146278000Y-126413000D01*
X141198000Y-127302000D02*
X147802000Y-127302000D01*
X147802000Y-127302000D02*
X147802000Y-121460000D01*
X147802000Y-121460000D02*
X147040000Y-120698000D01*
X147040000Y-120698000D02*
X141960000Y-120698000D01*
X141960000Y-120698000D02*
X141198000Y-121460000D01*
X141198000Y-121460000D02*
X141198000Y-127302000D01*
X144500000Y-121841000D02*
X144500000Y-122603000D01*
X144119000Y-122222000D02*
X144881000Y-122222000D01*
X147548000Y-124000000D02*
G75*
G03X147548000Y-124000000I-3048000J0D01*
G01*
X133238000Y-126921000D02*
X134762000Y-126921000D01*
X135143000Y-126794000D02*
X132857000Y-126794000D01*
X132603000Y-126667000D02*
X135397000Y-126667000D01*
X135651000Y-126540000D02*
X132349000Y-126540000D01*
X132222000Y-126413000D02*
X135778000Y-126413000D01*
X130698000Y-127302000D02*
X137302000Y-127302000D01*
X137302000Y-127302000D02*
X137302000Y-121460000D01*
X137302000Y-121460000D02*
X136540000Y-120698000D01*
X136540000Y-120698000D02*
X131460000Y-120698000D01*
X131460000Y-120698000D02*
X130698000Y-121460000D01*
X130698000Y-121460000D02*
X130698000Y-127302000D01*
X134000000Y-121841000D02*
X134000000Y-122603000D01*
X133619000Y-122222000D02*
X134381000Y-122222000D01*
X137048000Y-124000000D02*
G75*
G03X137048000Y-124000000I-3048000J0D01*
G01*
X125925000Y-108250000D02*
X125925000Y-95750000D01*
X125785000Y-108246000D02*
X125785000Y-95754000D01*
X125645000Y-108240000D02*
X125645000Y-95760000D01*
X125505000Y-108230000D02*
X125505000Y-95770000D01*
X125365000Y-108218000D02*
X125365000Y-95782000D01*
X125225000Y-108202000D02*
X125225000Y-95798000D01*
X125085000Y-108183000D02*
X125085000Y-95817000D01*
X124945000Y-108160000D02*
X124945000Y-95840000D01*
X124805000Y-108135000D02*
X124805000Y-95865000D01*
X124665000Y-108106000D02*
X124665000Y-95894000D01*
X124525000Y-108073000D02*
X124525000Y-102521000D01*
X124525000Y-101479000D02*
X124525000Y-95927000D01*
X124385000Y-108038000D02*
X124385000Y-102734000D01*
X124385000Y-101266000D02*
X124385000Y-95962000D01*
X124245000Y-107999000D02*
X124245000Y-102876000D01*
X124245000Y-101124000D02*
X124245000Y-96001000D01*
X124105000Y-107956000D02*
X124105000Y-102978000D01*
X124105000Y-101022000D02*
X124105000Y-96044000D01*
X123965000Y-107909000D02*
X123965000Y-103052000D01*
X123965000Y-100948000D02*
X123965000Y-96091000D01*
X123825000Y-107859000D02*
X123825000Y-103103000D01*
X123825000Y-100897000D02*
X123825000Y-96141000D01*
X123685000Y-107805000D02*
X123685000Y-103135000D01*
X123685000Y-100865000D02*
X123685000Y-96195000D01*
X123545000Y-107748000D02*
X123545000Y-103149000D01*
X123545000Y-100851000D02*
X123545000Y-96252000D01*
X123405000Y-107686000D02*
X123405000Y-103146000D01*
X123405000Y-100854000D02*
X123405000Y-96314000D01*
X123265000Y-107620000D02*
X123265000Y-103126000D01*
X123265000Y-100874000D02*
X123265000Y-96380000D01*
X123125000Y-107549000D02*
X123125000Y-103087000D01*
X123125000Y-100913000D02*
X123125000Y-96451000D01*
X122985000Y-107475000D02*
X122985000Y-103028000D01*
X122985000Y-100972000D02*
X122985000Y-96525000D01*
X122845000Y-107395000D02*
X122845000Y-102945000D01*
X122845000Y-101055000D02*
X122845000Y-96605000D01*
X122705000Y-107311000D02*
X122705000Y-102831000D01*
X122705000Y-101169000D02*
X122705000Y-96689000D01*
X122565000Y-107221000D02*
X122565000Y-102670000D01*
X122565000Y-101330000D02*
X122565000Y-96779000D01*
X122425000Y-107127000D02*
X122425000Y-102409000D01*
X122425000Y-101591000D02*
X122425000Y-96873000D01*
X122285000Y-107026000D02*
X122285000Y-96974000D01*
X122145000Y-106919000D02*
X122145000Y-97081000D01*
X122005000Y-106807000D02*
X122005000Y-97193000D01*
X121865000Y-106687000D02*
X121865000Y-97313000D01*
X121725000Y-106559000D02*
X121725000Y-97441000D01*
X121585000Y-106424000D02*
X121585000Y-97576000D01*
X121445000Y-106280000D02*
X121445000Y-97720000D01*
X121305000Y-106125000D02*
X121305000Y-97875000D01*
X121165000Y-105960000D02*
X121165000Y-98040000D01*
X121025000Y-105783000D02*
X121025000Y-98217000D01*
X120885000Y-105592000D02*
X120885000Y-98408000D01*
X120745000Y-105383000D02*
X120745000Y-98617000D01*
X120605000Y-105155000D02*
X120605000Y-98845000D01*
X120465000Y-104903000D02*
X120465000Y-99097000D01*
X120325000Y-104619000D02*
X120325000Y-99381000D01*
X120185000Y-104291000D02*
X120185000Y-99709000D01*
X120045000Y-103897000D02*
X120045000Y-100103000D01*
X119905000Y-103383000D02*
X119905000Y-100617000D01*
X119765000Y-102433000D02*
X119765000Y-101567000D01*
X124650000Y-102000000D02*
G75*
G03X124650000Y-102000000I-1150000J0D01*
G01*
X132287500Y-102000000D02*
G75*
G03X132287500Y-102000000I-6287500J0D01*
G01*
X182350000Y-98000000D02*
X182350000Y-97000000D01*
X180650000Y-97000000D02*
X180650000Y-98000000D01*
X177300000Y-95800000D02*
G75*
G03X177300000Y-95800000I-100000J0D01*
G01*
X177750000Y-96050000D02*
X177250000Y-96050000D01*
X177750000Y-98950000D02*
X177750000Y-96050000D01*
X177250000Y-98950000D02*
X177750000Y-98950000D01*
X177250000Y-96050000D02*
X177250000Y-98950000D01*
X113500000Y-138500000D02*
X198500000Y-138500000D01*
X198500000Y-138500000D02*
X198500000Y-82500000D01*
X198500000Y-82500000D02*
X113500000Y-82500000D01*
X113500000Y-82500000D02*
X113500000Y-138500000D01*
X164452381Y-88761905D02*
X165261905Y-88761905D01*
X165357143Y-88714286D01*
X165404762Y-88666667D01*
X165452381Y-88571429D01*
X165452381Y-88380952D01*
X165404762Y-88285714D01*
X165357143Y-88238095D01*
X165261905Y-88190476D01*
X164452381Y-88190476D01*
X164785714Y-87285714D02*
X165452381Y-87285714D01*
X164404762Y-87523810D02*
X165119048Y-87761905D01*
X165119048Y-87142857D01*
X173114285Y-96014286D02*
X173085714Y-96042857D01*
X173000000Y-96071429D01*
X172942857Y-96071429D01*
X172857142Y-96042857D01*
X172800000Y-95985714D01*
X172771428Y-95928571D01*
X172742857Y-95814286D01*
X172742857Y-95728571D01*
X172771428Y-95614286D01*
X172800000Y-95557143D01*
X172857142Y-95500000D01*
X172942857Y-95471429D01*
X173000000Y-95471429D01*
X173085714Y-95500000D01*
X173114285Y-95528571D01*
X173685714Y-96071429D02*
X173342857Y-96071429D01*
X173514285Y-96071429D02*
X173514285Y-95471429D01*
X173457142Y-95557143D01*
X173400000Y-95614286D01*
X173342857Y-95642857D01*
X173971429Y-96071429D02*
X174085714Y-96071429D01*
X174142857Y-96042857D01*
X174171429Y-96014286D01*
X174228571Y-95928571D01*
X174257143Y-95814286D01*
X174257143Y-95585714D01*
X174228571Y-95528571D01*
X174200000Y-95500000D01*
X174142857Y-95471429D01*
X174028571Y-95471429D01*
X173971429Y-95500000D01*
X173942857Y-95528571D01*
X173914286Y-95585714D01*
X173914286Y-95728571D01*
X173942857Y-95785714D01*
X173971429Y-95814286D01*
X174028571Y-95842857D01*
X174142857Y-95842857D01*
X174200000Y-95814286D01*
X174228571Y-95785714D01*
X174257143Y-95728571D01*
X172785714Y-99571429D02*
X172442857Y-99571429D01*
X172614285Y-99571429D02*
X172614285Y-98971429D01*
X172557142Y-99057143D01*
X172500000Y-99114286D01*
X172442857Y-99142857D01*
X173157143Y-98971429D02*
X173214286Y-98971429D01*
X173271429Y-99000000D01*
X173300000Y-99028571D01*
X173328571Y-99085714D01*
X173357143Y-99200000D01*
X173357143Y-99342857D01*
X173328571Y-99457143D01*
X173300000Y-99514286D01*
X173271429Y-99542857D01*
X173214286Y-99571429D01*
X173157143Y-99571429D01*
X173100000Y-99542857D01*
X173071429Y-99514286D01*
X173042857Y-99457143D01*
X173014286Y-99342857D01*
X173014286Y-99200000D01*
X173042857Y-99085714D01*
X173071429Y-99028571D01*
X173100000Y-99000000D01*
X173157143Y-98971429D01*
X173728572Y-98971429D02*
X173785715Y-98971429D01*
X173842858Y-99000000D01*
X173871429Y-99028571D01*
X173900000Y-99085714D01*
X173928572Y-99200000D01*
X173928572Y-99342857D01*
X173900000Y-99457143D01*
X173871429Y-99514286D01*
X173842858Y-99542857D01*
X173785715Y-99571429D01*
X173728572Y-99571429D01*
X173671429Y-99542857D01*
X173642858Y-99514286D01*
X173614286Y-99457143D01*
X173585715Y-99342857D01*
X173585715Y-99200000D01*
X173614286Y-99085714D01*
X173642858Y-99028571D01*
X173671429Y-99000000D01*
X173728572Y-98971429D01*
X174185715Y-99571429D02*
X174185715Y-98971429D01*
X174528572Y-99571429D01*
X174528572Y-98971429D01*
X185414286Y-88885715D02*
X185442857Y-88914286D01*
X185471429Y-89000000D01*
X185471429Y-89057143D01*
X185442857Y-89142858D01*
X185385714Y-89200000D01*
X185328571Y-89228572D01*
X185214286Y-89257143D01*
X185128571Y-89257143D01*
X185014286Y-89228572D01*
X184957143Y-89200000D01*
X184900000Y-89142858D01*
X184871429Y-89057143D01*
X184871429Y-89000000D01*
X184900000Y-88914286D01*
X184928571Y-88885715D01*
X184928571Y-88657143D02*
X184900000Y-88628572D01*
X184871429Y-88571429D01*
X184871429Y-88428572D01*
X184900000Y-88371429D01*
X184928571Y-88342858D01*
X184985714Y-88314286D01*
X185042857Y-88314286D01*
X185128571Y-88342858D01*
X185471429Y-88685715D01*
X185471429Y-88314286D01*
X185471429Y-87742857D02*
X185471429Y-88085714D01*
X185471429Y-87914286D02*
X184871429Y-87914286D01*
X184957143Y-87971429D01*
X185014286Y-88028571D01*
X185042857Y-88085714D01*
X189171429Y-89171429D02*
X189171429Y-89514286D01*
X189171429Y-89342858D02*
X188571429Y-89342858D01*
X188657143Y-89400001D01*
X188714286Y-89457143D01*
X188742857Y-89514286D01*
X188571429Y-88628572D02*
X188571429Y-88914286D01*
X188857143Y-88942857D01*
X188828571Y-88914286D01*
X188800000Y-88857143D01*
X188800000Y-88714286D01*
X188828571Y-88657143D01*
X188857143Y-88628572D01*
X188914286Y-88600000D01*
X189057143Y-88600000D01*
X189114286Y-88628572D01*
X189142857Y-88657143D01*
X189171429Y-88714286D01*
X189171429Y-88857143D01*
X189142857Y-88914286D01*
X189114286Y-88942857D01*
X188571429Y-88228571D02*
X188571429Y-88171428D01*
X188600000Y-88114285D01*
X188628571Y-88085714D01*
X188685714Y-88057143D01*
X188800000Y-88028571D01*
X188942857Y-88028571D01*
X189057143Y-88057143D01*
X189114286Y-88085714D01*
X189142857Y-88114285D01*
X189171429Y-88171428D01*
X189171429Y-88228571D01*
X189142857Y-88285714D01*
X189114286Y-88314285D01*
X189057143Y-88342857D01*
X188942857Y-88371428D01*
X188800000Y-88371428D01*
X188685714Y-88342857D01*
X188628571Y-88314285D01*
X188600000Y-88285714D01*
X188571429Y-88228571D01*
X188771429Y-87771428D02*
X189371429Y-87771428D01*
X188800000Y-87771428D02*
X188771429Y-87714285D01*
X188771429Y-87599999D01*
X188800000Y-87542856D01*
X188828571Y-87514285D01*
X188885714Y-87485714D01*
X189057143Y-87485714D01*
X189114286Y-87514285D01*
X189142857Y-87542856D01*
X189171429Y-87599999D01*
X189171429Y-87714285D01*
X189142857Y-87771428D01*
X150471429Y-119885715D02*
X150185714Y-120085715D01*
X150471429Y-120228572D02*
X149871429Y-120228572D01*
X149871429Y-120000000D01*
X149900000Y-119942858D01*
X149928571Y-119914286D01*
X149985714Y-119885715D01*
X150071429Y-119885715D01*
X150128571Y-119914286D01*
X150157143Y-119942858D01*
X150185714Y-120000000D01*
X150185714Y-120228572D01*
X150128571Y-119542858D02*
X150100000Y-119600000D01*
X150071429Y-119628572D01*
X150014286Y-119657143D01*
X149985714Y-119657143D01*
X149928571Y-119628572D01*
X149900000Y-119600000D01*
X149871429Y-119542858D01*
X149871429Y-119428572D01*
X149900000Y-119371429D01*
X149928571Y-119342858D01*
X149985714Y-119314286D01*
X150014286Y-119314286D01*
X150071429Y-119342858D01*
X150100000Y-119371429D01*
X150128571Y-119428572D01*
X150128571Y-119542858D01*
X150157143Y-119600000D01*
X150185714Y-119628572D01*
X150242857Y-119657143D01*
X150357143Y-119657143D01*
X150414286Y-119628572D01*
X150442857Y-119600000D01*
X150471429Y-119542858D01*
X150471429Y-119428572D01*
X150442857Y-119371429D01*
X150414286Y-119342858D01*
X150357143Y-119314286D01*
X150242857Y-119314286D01*
X150185714Y-119342858D01*
X150157143Y-119371429D01*
X150128571Y-119428572D01*
X149871429Y-118800000D02*
X149871429Y-118914286D01*
X149900000Y-118971429D01*
X149928571Y-119000000D01*
X150014286Y-119057143D01*
X150128571Y-119085714D01*
X150357143Y-119085714D01*
X150414286Y-119057143D01*
X150442857Y-119028571D01*
X150471429Y-118971429D01*
X150471429Y-118857143D01*
X150442857Y-118800000D01*
X150414286Y-118771429D01*
X150357143Y-118742857D01*
X150214286Y-118742857D01*
X150157143Y-118771429D01*
X150128571Y-118800000D01*
X150100000Y-118857143D01*
X150100000Y-118971429D01*
X150128571Y-119028571D01*
X150157143Y-119057143D01*
X150214286Y-119085714D01*
X154171429Y-120257143D02*
X153571429Y-120257143D01*
X153571429Y-120114286D01*
X153600000Y-120028571D01*
X153657143Y-119971429D01*
X153714286Y-119942857D01*
X153828571Y-119914286D01*
X153914286Y-119914286D01*
X154028571Y-119942857D01*
X154085714Y-119971429D01*
X154142857Y-120028571D01*
X154171429Y-120114286D01*
X154171429Y-120257143D01*
X154171429Y-119657143D02*
X153571429Y-119657143D01*
X154171429Y-119314286D01*
X153571429Y-119314286D01*
X154142857Y-119057143D02*
X154171429Y-118971429D01*
X154171429Y-118828572D01*
X154142857Y-118771429D01*
X154114286Y-118742858D01*
X154057143Y-118714286D01*
X154000000Y-118714286D01*
X153942857Y-118742858D01*
X153914286Y-118771429D01*
X153885714Y-118828572D01*
X153857143Y-118942858D01*
X153828571Y-119000000D01*
X153800000Y-119028572D01*
X153742857Y-119057143D01*
X153685714Y-119057143D01*
X153628571Y-119028572D01*
X153600000Y-119000000D01*
X153571429Y-118942858D01*
X153571429Y-118800000D01*
X153600000Y-118714286D01*
X150371429Y-122385715D02*
X150085714Y-122585715D01*
X150371429Y-122728572D02*
X149771429Y-122728572D01*
X149771429Y-122500000D01*
X149800000Y-122442858D01*
X149828571Y-122414286D01*
X149885714Y-122385715D01*
X149971429Y-122385715D01*
X150028571Y-122414286D01*
X150057143Y-122442858D01*
X150085714Y-122500000D01*
X150085714Y-122728572D01*
X150028571Y-122042858D02*
X150000000Y-122100000D01*
X149971429Y-122128572D01*
X149914286Y-122157143D01*
X149885714Y-122157143D01*
X149828571Y-122128572D01*
X149800000Y-122100000D01*
X149771429Y-122042858D01*
X149771429Y-121928572D01*
X149800000Y-121871429D01*
X149828571Y-121842858D01*
X149885714Y-121814286D01*
X149914286Y-121814286D01*
X149971429Y-121842858D01*
X150000000Y-121871429D01*
X150028571Y-121928572D01*
X150028571Y-122042858D01*
X150057143Y-122100000D01*
X150085714Y-122128572D01*
X150142857Y-122157143D01*
X150257143Y-122157143D01*
X150314286Y-122128572D01*
X150342857Y-122100000D01*
X150371429Y-122042858D01*
X150371429Y-121928572D01*
X150342857Y-121871429D01*
X150314286Y-121842858D01*
X150257143Y-121814286D01*
X150142857Y-121814286D01*
X150085714Y-121842858D01*
X150057143Y-121871429D01*
X150028571Y-121928572D01*
X149771429Y-121271429D02*
X149771429Y-121557143D01*
X150057143Y-121585714D01*
X150028571Y-121557143D01*
X150000000Y-121500000D01*
X150000000Y-121357143D01*
X150028571Y-121300000D01*
X150057143Y-121271429D01*
X150114286Y-121242857D01*
X150257143Y-121242857D01*
X150314286Y-121271429D01*
X150342857Y-121300000D01*
X150371429Y-121357143D01*
X150371429Y-121500000D01*
X150342857Y-121557143D01*
X150314286Y-121585714D01*
X153571429Y-122028571D02*
X153571429Y-121971428D01*
X153600000Y-121914285D01*
X153628571Y-121885714D01*
X153685714Y-121857143D01*
X153800000Y-121828571D01*
X153942857Y-121828571D01*
X154057143Y-121857143D01*
X154114286Y-121885714D01*
X154142857Y-121914285D01*
X154171429Y-121971428D01*
X154171429Y-122028571D01*
X154142857Y-122085714D01*
X154114286Y-122114285D01*
X154057143Y-122142857D01*
X153942857Y-122171428D01*
X153800000Y-122171428D01*
X153685714Y-122142857D01*
X153628571Y-122114285D01*
X153600000Y-122085714D01*
X153571429Y-122028571D01*
X150371429Y-124985715D02*
X150085714Y-125185715D01*
X150371429Y-125328572D02*
X149771429Y-125328572D01*
X149771429Y-125100000D01*
X149800000Y-125042858D01*
X149828571Y-125014286D01*
X149885714Y-124985715D01*
X149971429Y-124985715D01*
X150028571Y-125014286D01*
X150057143Y-125042858D01*
X150085714Y-125100000D01*
X150085714Y-125328572D01*
X150028571Y-124642858D02*
X150000000Y-124700000D01*
X149971429Y-124728572D01*
X149914286Y-124757143D01*
X149885714Y-124757143D01*
X149828571Y-124728572D01*
X149800000Y-124700000D01*
X149771429Y-124642858D01*
X149771429Y-124528572D01*
X149800000Y-124471429D01*
X149828571Y-124442858D01*
X149885714Y-124414286D01*
X149914286Y-124414286D01*
X149971429Y-124442858D01*
X150000000Y-124471429D01*
X150028571Y-124528572D01*
X150028571Y-124642858D01*
X150057143Y-124700000D01*
X150085714Y-124728572D01*
X150142857Y-124757143D01*
X150257143Y-124757143D01*
X150314286Y-124728572D01*
X150342857Y-124700000D01*
X150371429Y-124642858D01*
X150371429Y-124528572D01*
X150342857Y-124471429D01*
X150314286Y-124442858D01*
X150257143Y-124414286D01*
X150142857Y-124414286D01*
X150085714Y-124442858D01*
X150057143Y-124471429D01*
X150028571Y-124528572D01*
X149971429Y-123900000D02*
X150371429Y-123900000D01*
X149742857Y-124042857D02*
X150171429Y-124185714D01*
X150171429Y-123814286D01*
X154171429Y-125257143D02*
X153571429Y-125257143D01*
X153571429Y-125114286D01*
X153600000Y-125028571D01*
X153657143Y-124971429D01*
X153714286Y-124942857D01*
X153828571Y-124914286D01*
X153914286Y-124914286D01*
X154028571Y-124942857D01*
X154085714Y-124971429D01*
X154142857Y-125028571D01*
X154171429Y-125114286D01*
X154171429Y-125257143D01*
X154171429Y-124657143D02*
X153571429Y-124657143D01*
X154171429Y-124314286D01*
X153571429Y-124314286D01*
X154142857Y-124057143D02*
X154171429Y-123971429D01*
X154171429Y-123828572D01*
X154142857Y-123771429D01*
X154114286Y-123742858D01*
X154057143Y-123714286D01*
X154000000Y-123714286D01*
X153942857Y-123742858D01*
X153914286Y-123771429D01*
X153885714Y-123828572D01*
X153857143Y-123942858D01*
X153828571Y-124000000D01*
X153800000Y-124028572D01*
X153742857Y-124057143D01*
X153685714Y-124057143D01*
X153628571Y-124028572D01*
X153600000Y-124000000D01*
X153571429Y-123942858D01*
X153571429Y-123800000D01*
X153600000Y-123714286D01*
X118614285Y-125071429D02*
X118414285Y-124785714D01*
X118271428Y-125071429D02*
X118271428Y-124471429D01*
X118500000Y-124471429D01*
X118557142Y-124500000D01*
X118585714Y-124528571D01*
X118614285Y-124585714D01*
X118614285Y-124671429D01*
X118585714Y-124728571D01*
X118557142Y-124757143D01*
X118500000Y-124785714D01*
X118271428Y-124785714D01*
X119185714Y-125071429D02*
X118842857Y-125071429D01*
X119014285Y-125071429D02*
X119014285Y-124471429D01*
X118957142Y-124557143D01*
X118900000Y-124614286D01*
X118842857Y-124642857D01*
X119385714Y-124471429D02*
X119785714Y-124471429D01*
X119528571Y-125071429D01*
X118928571Y-129442858D02*
X118900000Y-129500000D01*
X118871429Y-129528572D01*
X118814286Y-129557143D01*
X118785714Y-129557143D01*
X118728571Y-129528572D01*
X118700000Y-129500000D01*
X118671429Y-129442858D01*
X118671429Y-129328572D01*
X118700000Y-129271429D01*
X118728571Y-129242858D01*
X118785714Y-129214286D01*
X118814286Y-129214286D01*
X118871429Y-129242858D01*
X118900000Y-129271429D01*
X118928571Y-129328572D01*
X118928571Y-129442858D01*
X118957143Y-129500000D01*
X118985714Y-129528572D01*
X119042857Y-129557143D01*
X119157143Y-129557143D01*
X119214286Y-129528572D01*
X119242857Y-129500000D01*
X119271429Y-129442858D01*
X119271429Y-129328572D01*
X119242857Y-129271429D01*
X119214286Y-129242858D01*
X119157143Y-129214286D01*
X119042857Y-129214286D01*
X118985714Y-129242858D01*
X118957143Y-129271429D01*
X118928571Y-129328572D01*
X119271429Y-128957143D02*
X118671429Y-128957143D01*
X119271429Y-128614286D02*
X118928571Y-128871429D01*
X118671429Y-128614286D02*
X119014286Y-128957143D01*
X118728571Y-128385714D02*
X118700000Y-128357143D01*
X118671429Y-128300000D01*
X118671429Y-128157143D01*
X118700000Y-128100000D01*
X118728571Y-128071429D01*
X118785714Y-128042857D01*
X118842857Y-128042857D01*
X118928571Y-128071429D01*
X119271429Y-128414286D01*
X119271429Y-128042857D01*
X120614285Y-120571429D02*
X120414285Y-120285714D01*
X120271428Y-120571429D02*
X120271428Y-119971429D01*
X120500000Y-119971429D01*
X120557142Y-120000000D01*
X120585714Y-120028571D01*
X120614285Y-120085714D01*
X120614285Y-120171429D01*
X120585714Y-120228571D01*
X120557142Y-120257143D01*
X120500000Y-120285714D01*
X120271428Y-120285714D01*
X121185714Y-120571429D02*
X120842857Y-120571429D01*
X121014285Y-120571429D02*
X121014285Y-119971429D01*
X120957142Y-120057143D01*
X120900000Y-120114286D01*
X120842857Y-120142857D01*
X121700000Y-119971429D02*
X121585714Y-119971429D01*
X121528571Y-120000000D01*
X121500000Y-120028571D01*
X121442857Y-120114286D01*
X121414286Y-120228571D01*
X121414286Y-120457143D01*
X121442857Y-120514286D01*
X121471429Y-120542857D01*
X121528571Y-120571429D01*
X121642857Y-120571429D01*
X121700000Y-120542857D01*
X121728571Y-120514286D01*
X121757143Y-120457143D01*
X121757143Y-120314286D01*
X121728571Y-120257143D01*
X121700000Y-120228571D01*
X121642857Y-120200000D01*
X121528571Y-120200000D01*
X121471429Y-120228571D01*
X121442857Y-120257143D01*
X121414286Y-120314286D01*
X120242857Y-123428571D02*
X120271428Y-123400000D01*
X120328571Y-123371429D01*
X120471428Y-123371429D01*
X120528571Y-123400000D01*
X120557142Y-123428571D01*
X120585714Y-123485714D01*
X120585714Y-123542857D01*
X120557142Y-123628571D01*
X120214285Y-123971429D01*
X120585714Y-123971429D01*
X120842857Y-123971429D02*
X120842857Y-123371429D01*
X121185714Y-123971429D02*
X120928571Y-123628571D01*
X121185714Y-123371429D02*
X120842857Y-123714286D01*
X121557143Y-123371429D02*
X121614286Y-123371429D01*
X121671429Y-123400000D01*
X121700000Y-123428571D01*
X121728571Y-123485714D01*
X121757143Y-123600000D01*
X121757143Y-123742857D01*
X121728571Y-123857143D01*
X121700000Y-123914286D01*
X121671429Y-123942857D01*
X121614286Y-123971429D01*
X121557143Y-123971429D01*
X121500000Y-123942857D01*
X121471429Y-123914286D01*
X121442857Y-123857143D01*
X121414286Y-123742857D01*
X121414286Y-123600000D01*
X121442857Y-123485714D01*
X121471429Y-123428571D01*
X121500000Y-123400000D01*
X121557143Y-123371429D01*
X127114285Y-93971429D02*
X126914285Y-93685714D01*
X126771428Y-93971429D02*
X126771428Y-93371429D01*
X127000000Y-93371429D01*
X127057142Y-93400000D01*
X127085714Y-93428571D01*
X127114285Y-93485714D01*
X127114285Y-93571429D01*
X127085714Y-93628571D01*
X127057142Y-93657143D01*
X127000000Y-93685714D01*
X126771428Y-93685714D01*
X127685714Y-93971429D02*
X127342857Y-93971429D01*
X127514285Y-93971429D02*
X127514285Y-93371429D01*
X127457142Y-93457143D01*
X127400000Y-93514286D01*
X127342857Y-93542857D01*
X128200000Y-93571429D02*
X128200000Y-93971429D01*
X128057143Y-93342857D02*
X127914286Y-93771429D01*
X128285714Y-93771429D01*
X127042857Y-90028571D02*
X127071428Y-90000000D01*
X127128571Y-89971429D01*
X127271428Y-89971429D01*
X127328571Y-90000000D01*
X127357142Y-90028571D01*
X127385714Y-90085714D01*
X127385714Y-90142857D01*
X127357142Y-90228571D01*
X127014285Y-90571429D01*
X127385714Y-90571429D01*
X127614286Y-90028571D02*
X127642857Y-90000000D01*
X127700000Y-89971429D01*
X127842857Y-89971429D01*
X127900000Y-90000000D01*
X127928571Y-90028571D01*
X127957143Y-90085714D01*
X127957143Y-90142857D01*
X127928571Y-90228571D01*
X127585714Y-90571429D01*
X127957143Y-90571429D01*
X130114285Y-93971429D02*
X129914285Y-93685714D01*
X129771428Y-93971429D02*
X129771428Y-93371429D01*
X130000000Y-93371429D01*
X130057142Y-93400000D01*
X130085714Y-93428571D01*
X130114285Y-93485714D01*
X130114285Y-93571429D01*
X130085714Y-93628571D01*
X130057142Y-93657143D01*
X130000000Y-93685714D01*
X129771428Y-93685714D01*
X130685714Y-93971429D02*
X130342857Y-93971429D01*
X130514285Y-93971429D02*
X130514285Y-93371429D01*
X130457142Y-93457143D01*
X130400000Y-93514286D01*
X130342857Y-93542857D01*
X130885714Y-93371429D02*
X131257143Y-93371429D01*
X131057143Y-93600000D01*
X131142857Y-93600000D01*
X131200000Y-93628571D01*
X131228571Y-93657143D01*
X131257143Y-93714286D01*
X131257143Y-93857143D01*
X131228571Y-93914286D01*
X131200000Y-93942857D01*
X131142857Y-93971429D01*
X130971429Y-93971429D01*
X130914286Y-93942857D01*
X130885714Y-93914286D01*
X130042857Y-90028571D02*
X130071428Y-90000000D01*
X130128571Y-89971429D01*
X130271428Y-89971429D01*
X130328571Y-90000000D01*
X130357142Y-90028571D01*
X130385714Y-90085714D01*
X130385714Y-90142857D01*
X130357142Y-90228571D01*
X130014285Y-90571429D01*
X130385714Y-90571429D01*
X130614286Y-90028571D02*
X130642857Y-90000000D01*
X130700000Y-89971429D01*
X130842857Y-89971429D01*
X130900000Y-90000000D01*
X130928571Y-90028571D01*
X130957143Y-90085714D01*
X130957143Y-90142857D01*
X130928571Y-90228571D01*
X130585714Y-90571429D01*
X130957143Y-90571429D01*
X124114285Y-93971429D02*
X123914285Y-93685714D01*
X123771428Y-93971429D02*
X123771428Y-93371429D01*
X124000000Y-93371429D01*
X124057142Y-93400000D01*
X124085714Y-93428571D01*
X124114285Y-93485714D01*
X124114285Y-93571429D01*
X124085714Y-93628571D01*
X124057142Y-93657143D01*
X124000000Y-93685714D01*
X123771428Y-93685714D01*
X124685714Y-93971429D02*
X124342857Y-93971429D01*
X124514285Y-93971429D02*
X124514285Y-93371429D01*
X124457142Y-93457143D01*
X124400000Y-93514286D01*
X124342857Y-93542857D01*
X124914286Y-93428571D02*
X124942857Y-93400000D01*
X125000000Y-93371429D01*
X125142857Y-93371429D01*
X125200000Y-93400000D01*
X125228571Y-93428571D01*
X125257143Y-93485714D01*
X125257143Y-93542857D01*
X125228571Y-93628571D01*
X124885714Y-93971429D01*
X125257143Y-93971429D01*
X124042857Y-90028571D02*
X124071428Y-90000000D01*
X124128571Y-89971429D01*
X124271428Y-89971429D01*
X124328571Y-90000000D01*
X124357142Y-90028571D01*
X124385714Y-90085714D01*
X124385714Y-90142857D01*
X124357142Y-90228571D01*
X124014285Y-90571429D01*
X124385714Y-90571429D01*
X124614286Y-90028571D02*
X124642857Y-90000000D01*
X124700000Y-89971429D01*
X124842857Y-89971429D01*
X124900000Y-90000000D01*
X124928571Y-90028571D01*
X124957143Y-90085714D01*
X124957143Y-90142857D01*
X124928571Y-90228571D01*
X124585714Y-90571429D01*
X124957143Y-90571429D01*
X150371429Y-127100000D02*
X150085714Y-127300000D01*
X150371429Y-127442857D02*
X149771429Y-127442857D01*
X149771429Y-127214285D01*
X149800000Y-127157143D01*
X149828571Y-127128571D01*
X149885714Y-127100000D01*
X149971429Y-127100000D01*
X150028571Y-127128571D01*
X150057143Y-127157143D01*
X150085714Y-127214285D01*
X150085714Y-127442857D01*
X150371429Y-126814285D02*
X150371429Y-126700000D01*
X150342857Y-126642857D01*
X150314286Y-126614285D01*
X150228571Y-126557143D01*
X150114286Y-126528571D01*
X149885714Y-126528571D01*
X149828571Y-126557143D01*
X149800000Y-126585714D01*
X149771429Y-126642857D01*
X149771429Y-126757143D01*
X149800000Y-126814285D01*
X149828571Y-126842857D01*
X149885714Y-126871428D01*
X150028571Y-126871428D01*
X150085714Y-126842857D01*
X150114286Y-126814285D01*
X150142857Y-126757143D01*
X150142857Y-126642857D01*
X150114286Y-126585714D01*
X150085714Y-126557143D01*
X150028571Y-126528571D01*
X154171429Y-127757143D02*
X153571429Y-127757143D01*
X153571429Y-127614286D01*
X153600000Y-127528571D01*
X153657143Y-127471429D01*
X153714286Y-127442857D01*
X153828571Y-127414286D01*
X153914286Y-127414286D01*
X154028571Y-127442857D01*
X154085714Y-127471429D01*
X154142857Y-127528571D01*
X154171429Y-127614286D01*
X154171429Y-127757143D01*
X154171429Y-127157143D02*
X153571429Y-127157143D01*
X154171429Y-126814286D01*
X153571429Y-126814286D01*
X154142857Y-126557143D02*
X154171429Y-126471429D01*
X154171429Y-126328572D01*
X154142857Y-126271429D01*
X154114286Y-126242858D01*
X154057143Y-126214286D01*
X154000000Y-126214286D01*
X153942857Y-126242858D01*
X153914286Y-126271429D01*
X153885714Y-126328572D01*
X153857143Y-126442858D01*
X153828571Y-126500000D01*
X153800000Y-126528572D01*
X153742857Y-126557143D01*
X153685714Y-126557143D01*
X153628571Y-126528572D01*
X153600000Y-126500000D01*
X153571429Y-126442858D01*
X153571429Y-126300000D01*
X153600000Y-126214286D01*
X150371429Y-129600000D02*
X150085714Y-129800000D01*
X150371429Y-129942857D02*
X149771429Y-129942857D01*
X149771429Y-129714285D01*
X149800000Y-129657143D01*
X149828571Y-129628571D01*
X149885714Y-129600000D01*
X149971429Y-129600000D01*
X150028571Y-129628571D01*
X150057143Y-129657143D01*
X150085714Y-129714285D01*
X150085714Y-129942857D01*
X150028571Y-129257143D02*
X150000000Y-129314285D01*
X149971429Y-129342857D01*
X149914286Y-129371428D01*
X149885714Y-129371428D01*
X149828571Y-129342857D01*
X149800000Y-129314285D01*
X149771429Y-129257143D01*
X149771429Y-129142857D01*
X149800000Y-129085714D01*
X149828571Y-129057143D01*
X149885714Y-129028571D01*
X149914286Y-129028571D01*
X149971429Y-129057143D01*
X150000000Y-129085714D01*
X150028571Y-129142857D01*
X150028571Y-129257143D01*
X150057143Y-129314285D01*
X150085714Y-129342857D01*
X150142857Y-129371428D01*
X150257143Y-129371428D01*
X150314286Y-129342857D01*
X150342857Y-129314285D01*
X150371429Y-129257143D01*
X150371429Y-129142857D01*
X150342857Y-129085714D01*
X150314286Y-129057143D01*
X150257143Y-129028571D01*
X150142857Y-129028571D01*
X150085714Y-129057143D01*
X150057143Y-129085714D01*
X150028571Y-129142857D01*
X154171429Y-130257143D02*
X153571429Y-130257143D01*
X153571429Y-130114286D01*
X153600000Y-130028571D01*
X153657143Y-129971429D01*
X153714286Y-129942857D01*
X153828571Y-129914286D01*
X153914286Y-129914286D01*
X154028571Y-129942857D01*
X154085714Y-129971429D01*
X154142857Y-130028571D01*
X154171429Y-130114286D01*
X154171429Y-130257143D01*
X154171429Y-129657143D02*
X153571429Y-129657143D01*
X154171429Y-129314286D01*
X153571429Y-129314286D01*
X154142857Y-129057143D02*
X154171429Y-128971429D01*
X154171429Y-128828572D01*
X154142857Y-128771429D01*
X154114286Y-128742858D01*
X154057143Y-128714286D01*
X154000000Y-128714286D01*
X153942857Y-128742858D01*
X153914286Y-128771429D01*
X153885714Y-128828572D01*
X153857143Y-128942858D01*
X153828571Y-129000000D01*
X153800000Y-129028572D01*
X153742857Y-129057143D01*
X153685714Y-129057143D01*
X153628571Y-129028572D01*
X153600000Y-129000000D01*
X153571429Y-128942858D01*
X153571429Y-128800000D01*
X153600000Y-128714286D01*
X190900000Y-88071429D02*
X190614286Y-88071429D01*
X190614286Y-87471429D01*
X191071429Y-87528571D02*
X191100000Y-87500000D01*
X191157143Y-87471429D01*
X191300000Y-87471429D01*
X191357143Y-87500000D01*
X191385714Y-87528571D01*
X191414286Y-87585714D01*
X191414286Y-87642857D01*
X191385714Y-87728571D01*
X191042857Y-88071429D01*
X191414286Y-88071429D01*
X190285714Y-91571429D02*
X189942857Y-91571429D01*
X190114285Y-91571429D02*
X190114285Y-90971429D01*
X190057142Y-91057143D01*
X190000000Y-91114286D01*
X189942857Y-91142857D01*
X190514286Y-91028571D02*
X190542857Y-91000000D01*
X190600000Y-90971429D01*
X190742857Y-90971429D01*
X190800000Y-91000000D01*
X190828571Y-91028571D01*
X190857143Y-91085714D01*
X190857143Y-91142857D01*
X190828571Y-91228571D01*
X190485714Y-91571429D01*
X190857143Y-91571429D01*
X191228572Y-90971429D02*
X191285715Y-90971429D01*
X191342858Y-91000000D01*
X191371429Y-91028571D01*
X191400000Y-91085714D01*
X191428572Y-91200000D01*
X191428572Y-91342857D01*
X191400000Y-91457143D01*
X191371429Y-91514286D01*
X191342858Y-91542857D01*
X191285715Y-91571429D01*
X191228572Y-91571429D01*
X191171429Y-91542857D01*
X191142858Y-91514286D01*
X191114286Y-91457143D01*
X191085715Y-91342857D01*
X191085715Y-91200000D01*
X191114286Y-91085714D01*
X191142858Y-91028571D01*
X191171429Y-91000000D01*
X191228572Y-90971429D01*
X191685715Y-91571429D02*
X191685715Y-90971429D01*
X192028572Y-91571429D01*
X192028572Y-90971429D01*
X183671429Y-93100000D02*
X183671429Y-93385714D01*
X183071429Y-93385714D01*
X183671429Y-92585714D02*
X183671429Y-92928571D01*
X183671429Y-92757143D02*
X183071429Y-92757143D01*
X183157143Y-92814286D01*
X183214286Y-92871428D01*
X183242857Y-92928571D01*
X186571429Y-94185715D02*
X186571429Y-93814286D01*
X186800000Y-94014286D01*
X186800000Y-93928572D01*
X186828571Y-93871429D01*
X186857143Y-93842858D01*
X186914286Y-93814286D01*
X187057143Y-93814286D01*
X187114286Y-93842858D01*
X187142857Y-93871429D01*
X187171429Y-93928572D01*
X187171429Y-94100000D01*
X187142857Y-94157143D01*
X187114286Y-94185715D01*
X186571429Y-93614286D02*
X186571429Y-93242857D01*
X186800000Y-93442857D01*
X186800000Y-93357143D01*
X186828571Y-93300000D01*
X186857143Y-93271429D01*
X186914286Y-93242857D01*
X187057143Y-93242857D01*
X187114286Y-93271429D01*
X187142857Y-93300000D01*
X187171429Y-93357143D01*
X187171429Y-93528571D01*
X187142857Y-93585714D01*
X187114286Y-93614286D01*
X186571429Y-92871428D02*
X186571429Y-92814285D01*
X186600000Y-92757142D01*
X186628571Y-92728571D01*
X186685714Y-92700000D01*
X186800000Y-92671428D01*
X186942857Y-92671428D01*
X187057143Y-92700000D01*
X187114286Y-92728571D01*
X187142857Y-92757142D01*
X187171429Y-92814285D01*
X187171429Y-92871428D01*
X187142857Y-92928571D01*
X187114286Y-92957142D01*
X187057143Y-92985714D01*
X186942857Y-93014285D01*
X186800000Y-93014285D01*
X186685714Y-92985714D01*
X186628571Y-92957142D01*
X186600000Y-92928571D01*
X186571429Y-92871428D01*
X187171429Y-92414285D02*
X186571429Y-92414285D01*
X187171429Y-92071428D01*
X186571429Y-92071428D01*
X139000000Y-118457143D02*
X138800000Y-118457143D01*
X138800000Y-118771429D02*
X138800000Y-118171429D01*
X139085714Y-118171429D01*
X139514286Y-118457143D02*
X139600000Y-118485714D01*
X139628572Y-118514286D01*
X139657143Y-118571429D01*
X139657143Y-118657143D01*
X139628572Y-118714286D01*
X139600000Y-118742857D01*
X139542858Y-118771429D01*
X139314286Y-118771429D01*
X139314286Y-118171429D01*
X139514286Y-118171429D01*
X139571429Y-118200000D01*
X139600000Y-118228571D01*
X139628572Y-118285714D01*
X139628572Y-118342857D01*
X139600000Y-118400000D01*
X139571429Y-118428571D01*
X139514286Y-118457143D01*
X139314286Y-118457143D01*
X139857143Y-118171429D02*
X140228572Y-118171429D01*
X140028572Y-118400000D01*
X140114286Y-118400000D01*
X140171429Y-118428571D01*
X140200000Y-118457143D01*
X140228572Y-118514286D01*
X140228572Y-118657143D01*
X140200000Y-118714286D01*
X140171429Y-118742857D01*
X140114286Y-118771429D01*
X139942858Y-118771429D01*
X139885715Y-118742857D01*
X139857143Y-118714286D01*
X138757143Y-122428571D02*
X138785714Y-122400000D01*
X138842857Y-122371429D01*
X138985714Y-122371429D01*
X139042857Y-122400000D01*
X139071428Y-122428571D01*
X139100000Y-122485714D01*
X139100000Y-122542857D01*
X139071428Y-122628571D01*
X138728571Y-122971429D01*
X139100000Y-122971429D01*
X139328572Y-122428571D02*
X139357143Y-122400000D01*
X139414286Y-122371429D01*
X139557143Y-122371429D01*
X139614286Y-122400000D01*
X139642857Y-122428571D01*
X139671429Y-122485714D01*
X139671429Y-122542857D01*
X139642857Y-122628571D01*
X139300000Y-122971429D01*
X139671429Y-122971429D01*
X140042858Y-122371429D02*
X140100001Y-122371429D01*
X140157144Y-122400000D01*
X140185715Y-122428571D01*
X140214286Y-122485714D01*
X140242858Y-122600000D01*
X140242858Y-122742857D01*
X140214286Y-122857143D01*
X140185715Y-122914286D01*
X140157144Y-122942857D01*
X140100001Y-122971429D01*
X140042858Y-122971429D01*
X139985715Y-122942857D01*
X139957144Y-122914286D01*
X139928572Y-122857143D01*
X139900001Y-122742857D01*
X139900001Y-122600000D01*
X139928572Y-122485714D01*
X139957144Y-122428571D01*
X139985715Y-122400000D01*
X140042858Y-122371429D01*
X122450000Y-125850000D02*
X122483333Y-125883334D01*
X122516667Y-125983334D01*
X122516667Y-126050000D01*
X122483333Y-126150000D01*
X122416667Y-126216667D01*
X122350000Y-126250000D01*
X122216667Y-126283334D01*
X122116667Y-126283334D01*
X121983333Y-126250000D01*
X121916667Y-126216667D01*
X121850000Y-126150000D01*
X121816667Y-126050000D01*
X121816667Y-125983334D01*
X121850000Y-125883334D01*
X121883333Y-125850000D01*
X122050000Y-125250000D02*
X122516667Y-125250000D01*
X121783333Y-125416667D02*
X122283333Y-125583334D01*
X122283333Y-125150000D01*
X122516667Y-124850000D02*
X122516667Y-124716667D01*
X122483333Y-124650000D01*
X122450000Y-124616667D01*
X122350000Y-124550000D01*
X122216667Y-124516667D01*
X121950000Y-124516667D01*
X121883333Y-124550000D01*
X121850000Y-124583333D01*
X121816667Y-124650000D01*
X121816667Y-124783333D01*
X121850000Y-124850000D01*
X121883333Y-124883333D01*
X121950000Y-124916667D01*
X122116667Y-124916667D01*
X122183333Y-124883333D01*
X122216667Y-124850000D01*
X122250000Y-124783333D01*
X122250000Y-124650000D01*
X122216667Y-124583333D01*
X122183333Y-124550000D01*
X122116667Y-124516667D01*
X128316667Y-126000000D02*
X128316667Y-126400000D01*
X128316667Y-126200000D02*
X127616667Y-126200000D01*
X127716667Y-126266666D01*
X127783333Y-126333333D01*
X127816667Y-126400000D01*
X127616667Y-125566666D02*
X127616667Y-125499999D01*
X127650000Y-125433333D01*
X127683333Y-125399999D01*
X127750000Y-125366666D01*
X127883333Y-125333333D01*
X128050000Y-125333333D01*
X128183333Y-125366666D01*
X128250000Y-125399999D01*
X128283333Y-125433333D01*
X128316667Y-125499999D01*
X128316667Y-125566666D01*
X128283333Y-125633333D01*
X128250000Y-125666666D01*
X128183333Y-125699999D01*
X128050000Y-125733333D01*
X127883333Y-125733333D01*
X127750000Y-125699999D01*
X127683333Y-125666666D01*
X127650000Y-125633333D01*
X127616667Y-125566666D01*
X127616667Y-125033332D02*
X128183333Y-125033332D01*
X128250000Y-124999999D01*
X128283333Y-124966666D01*
X128316667Y-124899999D01*
X128316667Y-124766666D01*
X128283333Y-124699999D01*
X128250000Y-124666666D01*
X128183333Y-124633332D01*
X127616667Y-124633332D01*
X122350000Y-128950000D02*
X122383333Y-128983334D01*
X122416667Y-129083334D01*
X122416667Y-129150000D01*
X122383333Y-129250000D01*
X122316667Y-129316667D01*
X122250000Y-129350000D01*
X122116667Y-129383334D01*
X122016667Y-129383334D01*
X121883333Y-129350000D01*
X121816667Y-129316667D01*
X121750000Y-129250000D01*
X121716667Y-129150000D01*
X121716667Y-129083334D01*
X121750000Y-128983334D01*
X121783333Y-128950000D01*
X121950000Y-128350000D02*
X122416667Y-128350000D01*
X121683333Y-128516667D02*
X122183333Y-128683334D01*
X122183333Y-128250000D01*
X122016667Y-127883333D02*
X121983333Y-127950000D01*
X121950000Y-127983333D01*
X121883333Y-128016667D01*
X121850000Y-128016667D01*
X121783333Y-127983333D01*
X121750000Y-127950000D01*
X121716667Y-127883333D01*
X121716667Y-127750000D01*
X121750000Y-127683333D01*
X121783333Y-127650000D01*
X121850000Y-127616667D01*
X121883333Y-127616667D01*
X121950000Y-127650000D01*
X121983333Y-127683333D01*
X122016667Y-127750000D01*
X122016667Y-127883333D01*
X122050000Y-127950000D01*
X122083333Y-127983333D01*
X122150000Y-128016667D01*
X122283333Y-128016667D01*
X122350000Y-127983333D01*
X122383333Y-127950000D01*
X122416667Y-127883333D01*
X122416667Y-127750000D01*
X122383333Y-127683333D01*
X122350000Y-127650000D01*
X122283333Y-127616667D01*
X122150000Y-127616667D01*
X122083333Y-127650000D01*
X122050000Y-127683333D01*
X122016667Y-127750000D01*
X128316667Y-129000000D02*
X128316667Y-129400000D01*
X128316667Y-129200000D02*
X127616667Y-129200000D01*
X127716667Y-129266666D01*
X127783333Y-129333333D01*
X127816667Y-129400000D01*
X127616667Y-128566666D02*
X127616667Y-128499999D01*
X127650000Y-128433333D01*
X127683333Y-128399999D01*
X127750000Y-128366666D01*
X127883333Y-128333333D01*
X128050000Y-128333333D01*
X128183333Y-128366666D01*
X128250000Y-128399999D01*
X128283333Y-128433333D01*
X128316667Y-128499999D01*
X128316667Y-128566666D01*
X128283333Y-128633333D01*
X128250000Y-128666666D01*
X128183333Y-128699999D01*
X128050000Y-128733333D01*
X127883333Y-128733333D01*
X127750000Y-128699999D01*
X127683333Y-128666666D01*
X127650000Y-128633333D01*
X127616667Y-128566666D01*
X127616667Y-128033332D02*
X128183333Y-128033332D01*
X128250000Y-127999999D01*
X128283333Y-127966666D01*
X128316667Y-127899999D01*
X128316667Y-127766666D01*
X128283333Y-127699999D01*
X128250000Y-127666666D01*
X128183333Y-127633332D01*
X127616667Y-127633332D01*
X120514285Y-125014286D02*
X120485714Y-125042857D01*
X120400000Y-125071429D01*
X120342857Y-125071429D01*
X120257142Y-125042857D01*
X120200000Y-124985714D01*
X120171428Y-124928571D01*
X120142857Y-124814286D01*
X120142857Y-124728571D01*
X120171428Y-124614286D01*
X120200000Y-124557143D01*
X120257142Y-124500000D01*
X120342857Y-124471429D01*
X120400000Y-124471429D01*
X120485714Y-124500000D01*
X120514285Y-124528571D01*
X121028571Y-124671429D02*
X121028571Y-125071429D01*
X120885714Y-124442857D02*
X120742857Y-124871429D01*
X121114285Y-124871429D01*
X121600000Y-124471429D02*
X121485714Y-124471429D01*
X121428571Y-124500000D01*
X121400000Y-124528571D01*
X121342857Y-124614286D01*
X121314286Y-124728571D01*
X121314286Y-124957143D01*
X121342857Y-125014286D01*
X121371429Y-125042857D01*
X121428571Y-125071429D01*
X121542857Y-125071429D01*
X121600000Y-125042857D01*
X121628571Y-125014286D01*
X121657143Y-124957143D01*
X121657143Y-124814286D01*
X121628571Y-124757143D01*
X121600000Y-124728571D01*
X121542857Y-124700000D01*
X121428571Y-124700000D01*
X121371429Y-124728571D01*
X121342857Y-124757143D01*
X121314286Y-124814286D01*
X120771429Y-130171429D02*
X120771429Y-129800000D01*
X121000000Y-130000000D01*
X121000000Y-129914286D01*
X121028571Y-129857143D01*
X121057143Y-129828572D01*
X121114286Y-129800000D01*
X121257143Y-129800000D01*
X121314286Y-129828572D01*
X121342857Y-129857143D01*
X121371429Y-129914286D01*
X121371429Y-130085714D01*
X121342857Y-130142857D01*
X121314286Y-130171429D01*
X120771429Y-129600000D02*
X120771429Y-129228571D01*
X121000000Y-129428571D01*
X121000000Y-129342857D01*
X121028571Y-129285714D01*
X121057143Y-129257143D01*
X121114286Y-129228571D01*
X121257143Y-129228571D01*
X121314286Y-129257143D01*
X121342857Y-129285714D01*
X121371429Y-129342857D01*
X121371429Y-129514285D01*
X121342857Y-129571428D01*
X121314286Y-129600000D01*
X120771429Y-128857142D02*
X120771429Y-128799999D01*
X120800000Y-128742856D01*
X120828571Y-128714285D01*
X120885714Y-128685714D01*
X121000000Y-128657142D01*
X121142857Y-128657142D01*
X121257143Y-128685714D01*
X121314286Y-128714285D01*
X121342857Y-128742856D01*
X121371429Y-128799999D01*
X121371429Y-128857142D01*
X121342857Y-128914285D01*
X121314286Y-128942856D01*
X121257143Y-128971428D01*
X121142857Y-128999999D01*
X121000000Y-128999999D01*
X120885714Y-128971428D01*
X120828571Y-128942856D01*
X120800000Y-128914285D01*
X120771429Y-128857142D01*
X121371429Y-128399999D02*
X120771429Y-128399999D01*
X120771429Y-128171427D01*
X120800000Y-128114285D01*
X120828571Y-128085713D01*
X120885714Y-128057142D01*
X120971429Y-128057142D01*
X121028571Y-128085713D01*
X121057143Y-128114285D01*
X121085714Y-128171427D01*
X121085714Y-128399999D01*
X116050000Y-118050000D02*
X116083333Y-118083334D01*
X116116667Y-118183334D01*
X116116667Y-118250000D01*
X116083333Y-118350000D01*
X116016667Y-118416667D01*
X115950000Y-118450000D01*
X115816667Y-118483334D01*
X115716667Y-118483334D01*
X115583333Y-118450000D01*
X115516667Y-118416667D01*
X115450000Y-118350000D01*
X115416667Y-118250000D01*
X115416667Y-118183334D01*
X115450000Y-118083334D01*
X115483333Y-118050000D01*
X115650000Y-117450000D02*
X116116667Y-117450000D01*
X115383333Y-117616667D02*
X115883333Y-117783334D01*
X115883333Y-117350000D01*
X115416667Y-117150000D02*
X115416667Y-116683333D01*
X116116667Y-116983333D01*
X120650000Y-118266666D02*
X121116667Y-118266666D01*
X120383333Y-118433333D02*
X120883333Y-118600000D01*
X120883333Y-118166666D01*
X120416667Y-117899999D02*
X120983333Y-117899999D01*
X121050000Y-117866666D01*
X121083333Y-117833333D01*
X121116667Y-117766666D01*
X121116667Y-117633333D01*
X121083333Y-117566666D01*
X121050000Y-117533333D01*
X120983333Y-117499999D01*
X120416667Y-117499999D01*
X120416667Y-117233333D02*
X120416667Y-116766666D01*
X121116667Y-117066666D01*
X167550000Y-110850000D02*
X167516666Y-110883333D01*
X167416666Y-110916667D01*
X167350000Y-110916667D01*
X167250000Y-110883333D01*
X167183333Y-110816667D01*
X167150000Y-110750000D01*
X167116666Y-110616667D01*
X167116666Y-110516667D01*
X167150000Y-110383333D01*
X167183333Y-110316667D01*
X167250000Y-110250000D01*
X167350000Y-110216667D01*
X167416666Y-110216667D01*
X167516666Y-110250000D01*
X167550000Y-110283333D01*
X167816666Y-110283333D02*
X167850000Y-110250000D01*
X167916666Y-110216667D01*
X168083333Y-110216667D01*
X168150000Y-110250000D01*
X168183333Y-110283333D01*
X168216666Y-110350000D01*
X168216666Y-110416667D01*
X168183333Y-110516667D01*
X167783333Y-110916667D01*
X168216666Y-110916667D01*
X168616667Y-110516667D02*
X168550000Y-110483333D01*
X168516667Y-110450000D01*
X168483333Y-110383333D01*
X168483333Y-110350000D01*
X168516667Y-110283333D01*
X168550000Y-110250000D01*
X168616667Y-110216667D01*
X168750000Y-110216667D01*
X168816667Y-110250000D01*
X168850000Y-110283333D01*
X168883333Y-110350000D01*
X168883333Y-110383333D01*
X168850000Y-110450000D01*
X168816667Y-110483333D01*
X168750000Y-110516667D01*
X168616667Y-110516667D01*
X168550000Y-110550000D01*
X168516667Y-110583333D01*
X168483333Y-110650000D01*
X168483333Y-110783333D01*
X168516667Y-110850000D01*
X168550000Y-110883333D01*
X168616667Y-110916667D01*
X168750000Y-110916667D01*
X168816667Y-110883333D01*
X168850000Y-110850000D01*
X168883333Y-110783333D01*
X168883333Y-110650000D01*
X168850000Y-110583333D01*
X168816667Y-110550000D01*
X168750000Y-110516667D01*
X167433334Y-115350000D02*
X167433334Y-115816667D01*
X167266667Y-115083333D02*
X167100000Y-115583333D01*
X167533334Y-115583333D01*
X167800001Y-115116667D02*
X167800001Y-115683333D01*
X167833334Y-115750000D01*
X167866667Y-115783333D01*
X167933334Y-115816667D01*
X168066667Y-115816667D01*
X168133334Y-115783333D01*
X168166667Y-115750000D01*
X168200001Y-115683333D01*
X168200001Y-115116667D01*
X168466667Y-115116667D02*
X168933334Y-115116667D01*
X168633334Y-115816667D01*
X167614285Y-106514286D02*
X167585714Y-106542857D01*
X167500000Y-106571429D01*
X167442857Y-106571429D01*
X167357142Y-106542857D01*
X167300000Y-106485714D01*
X167271428Y-106428571D01*
X167242857Y-106314286D01*
X167242857Y-106228571D01*
X167271428Y-106114286D01*
X167300000Y-106057143D01*
X167357142Y-106000000D01*
X167442857Y-105971429D01*
X167500000Y-105971429D01*
X167585714Y-106000000D01*
X167614285Y-106028571D01*
X167842857Y-106028571D02*
X167871428Y-106000000D01*
X167928571Y-105971429D01*
X168071428Y-105971429D01*
X168128571Y-106000000D01*
X168157142Y-106028571D01*
X168185714Y-106085714D01*
X168185714Y-106142857D01*
X168157142Y-106228571D01*
X167814285Y-106571429D01*
X168185714Y-106571429D01*
X168385714Y-105971429D02*
X168785714Y-105971429D01*
X168528571Y-106571429D01*
X167571429Y-109971429D02*
X167228572Y-109971429D01*
X167400000Y-109971429D02*
X167400000Y-109371429D01*
X167342857Y-109457143D01*
X167285715Y-109514286D01*
X167228572Y-109542857D01*
X167942858Y-109371429D02*
X168000001Y-109371429D01*
X168057144Y-109400000D01*
X168085715Y-109428571D01*
X168114286Y-109485714D01*
X168142858Y-109600000D01*
X168142858Y-109742857D01*
X168114286Y-109857143D01*
X168085715Y-109914286D01*
X168057144Y-109942857D01*
X168000001Y-109971429D01*
X167942858Y-109971429D01*
X167885715Y-109942857D01*
X167857144Y-109914286D01*
X167828572Y-109857143D01*
X167800001Y-109742857D01*
X167800001Y-109600000D01*
X167828572Y-109485714D01*
X167857144Y-109428571D01*
X167885715Y-109400000D01*
X167942858Y-109371429D01*
X168400001Y-109971429D02*
X168400001Y-109371429D01*
X168742858Y-109971429D01*
X168742858Y-109371429D01*
X130514285Y-107014286D02*
X130485714Y-107042857D01*
X130400000Y-107071429D01*
X130342857Y-107071429D01*
X130257142Y-107042857D01*
X130200000Y-106985714D01*
X130171428Y-106928571D01*
X130142857Y-106814286D01*
X130142857Y-106728571D01*
X130171428Y-106614286D01*
X130200000Y-106557143D01*
X130257142Y-106500000D01*
X130342857Y-106471429D01*
X130400000Y-106471429D01*
X130485714Y-106500000D01*
X130514285Y-106528571D01*
X130742857Y-106528571D02*
X130771428Y-106500000D01*
X130828571Y-106471429D01*
X130971428Y-106471429D01*
X131028571Y-106500000D01*
X131057142Y-106528571D01*
X131085714Y-106585714D01*
X131085714Y-106642857D01*
X131057142Y-106728571D01*
X130714285Y-107071429D01*
X131085714Y-107071429D01*
X131628571Y-106471429D02*
X131342857Y-106471429D01*
X131314286Y-106757143D01*
X131342857Y-106728571D01*
X131400000Y-106700000D01*
X131542857Y-106700000D01*
X131600000Y-106728571D01*
X131628571Y-106757143D01*
X131657143Y-106814286D01*
X131657143Y-106957143D01*
X131628571Y-107014286D01*
X131600000Y-107042857D01*
X131542857Y-107071429D01*
X131400000Y-107071429D01*
X131342857Y-107042857D01*
X131314286Y-107014286D01*
X130285714Y-110571429D02*
X129942857Y-110571429D01*
X130114285Y-110571429D02*
X130114285Y-109971429D01*
X130057142Y-110057143D01*
X130000000Y-110114286D01*
X129942857Y-110142857D01*
X130657143Y-109971429D02*
X130714286Y-109971429D01*
X130771429Y-110000000D01*
X130800000Y-110028571D01*
X130828571Y-110085714D01*
X130857143Y-110200000D01*
X130857143Y-110342857D01*
X130828571Y-110457143D01*
X130800000Y-110514286D01*
X130771429Y-110542857D01*
X130714286Y-110571429D01*
X130657143Y-110571429D01*
X130600000Y-110542857D01*
X130571429Y-110514286D01*
X130542857Y-110457143D01*
X130514286Y-110342857D01*
X130514286Y-110200000D01*
X130542857Y-110085714D01*
X130571429Y-110028571D01*
X130600000Y-110000000D01*
X130657143Y-109971429D01*
X131228572Y-109971429D02*
X131285715Y-109971429D01*
X131342858Y-110000000D01*
X131371429Y-110028571D01*
X131400000Y-110085714D01*
X131428572Y-110200000D01*
X131428572Y-110342857D01*
X131400000Y-110457143D01*
X131371429Y-110514286D01*
X131342858Y-110542857D01*
X131285715Y-110571429D01*
X131228572Y-110571429D01*
X131171429Y-110542857D01*
X131142858Y-110514286D01*
X131114286Y-110457143D01*
X131085715Y-110342857D01*
X131085715Y-110200000D01*
X131114286Y-110085714D01*
X131142858Y-110028571D01*
X131171429Y-110000000D01*
X131228572Y-109971429D01*
X131685715Y-110571429D02*
X131685715Y-109971429D01*
X132028572Y-110571429D01*
X132028572Y-109971429D01*
X131550000Y-118650000D02*
X131516666Y-118683333D01*
X131416666Y-118716667D01*
X131350000Y-118716667D01*
X131250000Y-118683333D01*
X131183333Y-118616667D01*
X131150000Y-118550000D01*
X131116666Y-118416667D01*
X131116666Y-118316667D01*
X131150000Y-118183333D01*
X131183333Y-118116667D01*
X131250000Y-118050000D01*
X131350000Y-118016667D01*
X131416666Y-118016667D01*
X131516666Y-118050000D01*
X131550000Y-118083333D01*
X131816666Y-118083333D02*
X131850000Y-118050000D01*
X131916666Y-118016667D01*
X132083333Y-118016667D01*
X132150000Y-118050000D01*
X132183333Y-118083333D01*
X132216666Y-118150000D01*
X132216666Y-118216667D01*
X132183333Y-118316667D01*
X131783333Y-118716667D01*
X132216666Y-118716667D01*
X132816667Y-118250000D02*
X132816667Y-118716667D01*
X132650000Y-117983333D02*
X132483333Y-118483333D01*
X132916667Y-118483333D01*
X131433334Y-113350000D02*
X131433334Y-113816667D01*
X131266667Y-113083333D02*
X131100000Y-113583333D01*
X131533334Y-113583333D01*
X131800001Y-113116667D02*
X131800001Y-113683333D01*
X131833334Y-113750000D01*
X131866667Y-113783333D01*
X131933334Y-113816667D01*
X132066667Y-113816667D01*
X132133334Y-113783333D01*
X132166667Y-113750000D01*
X132200001Y-113683333D01*
X132200001Y-113116667D01*
X132466667Y-113116667D02*
X132933334Y-113116667D01*
X132633334Y-113816667D01*
X188114285Y-92514286D02*
X188085714Y-92542857D01*
X188000000Y-92571429D01*
X187942857Y-92571429D01*
X187857142Y-92542857D01*
X187800000Y-92485714D01*
X187771428Y-92428571D01*
X187742857Y-92314286D01*
X187742857Y-92228571D01*
X187771428Y-92114286D01*
X187800000Y-92057143D01*
X187857142Y-92000000D01*
X187942857Y-91971429D01*
X188000000Y-91971429D01*
X188085714Y-92000000D01*
X188114285Y-92028571D01*
X188685714Y-92571429D02*
X188342857Y-92571429D01*
X188514285Y-92571429D02*
X188514285Y-91971429D01*
X188457142Y-92057143D01*
X188400000Y-92114286D01*
X188342857Y-92142857D01*
X189028571Y-92228571D02*
X188971429Y-92200000D01*
X188942857Y-92171429D01*
X188914286Y-92114286D01*
X188914286Y-92085714D01*
X188942857Y-92028571D01*
X188971429Y-92000000D01*
X189028571Y-91971429D01*
X189142857Y-91971429D01*
X189200000Y-92000000D01*
X189228571Y-92028571D01*
X189257143Y-92085714D01*
X189257143Y-92114286D01*
X189228571Y-92171429D01*
X189200000Y-92200000D01*
X189142857Y-92228571D01*
X189028571Y-92228571D01*
X188971429Y-92257143D01*
X188942857Y-92285714D01*
X188914286Y-92342857D01*
X188914286Y-92457143D01*
X188942857Y-92514286D01*
X188971429Y-92542857D01*
X189028571Y-92571429D01*
X189142857Y-92571429D01*
X189200000Y-92542857D01*
X189228571Y-92514286D01*
X189257143Y-92457143D01*
X189257143Y-92342857D01*
X189228571Y-92285714D01*
X189200000Y-92257143D01*
X189142857Y-92228571D01*
X187742857Y-95671429D02*
X187742857Y-96071429D01*
X187600000Y-95442857D02*
X187457143Y-95871429D01*
X187828571Y-95871429D01*
X188000000Y-95471429D02*
X188400000Y-95471429D01*
X188142857Y-96071429D01*
X188742858Y-95471429D02*
X188800001Y-95471429D01*
X188857144Y-95500000D01*
X188885715Y-95528571D01*
X188914286Y-95585714D01*
X188942858Y-95700000D01*
X188942858Y-95842857D01*
X188914286Y-95957143D01*
X188885715Y-96014286D01*
X188857144Y-96042857D01*
X188800001Y-96071429D01*
X188742858Y-96071429D01*
X188685715Y-96042857D01*
X188657144Y-96014286D01*
X188628572Y-95957143D01*
X188600001Y-95842857D01*
X188600001Y-95700000D01*
X188628572Y-95585714D01*
X188657144Y-95528571D01*
X188685715Y-95500000D01*
X188742858Y-95471429D01*
X189200001Y-96071429D02*
X189200001Y-95471429D01*
X189428573Y-95471429D01*
X189485715Y-95500000D01*
X189514287Y-95528571D01*
X189542858Y-95585714D01*
X189542858Y-95671429D01*
X189514287Y-95728571D01*
X189485715Y-95757143D01*
X189428573Y-95785714D01*
X189200001Y-95785714D01*
X190614285Y-92514286D02*
X190585714Y-92542857D01*
X190500000Y-92571429D01*
X190442857Y-92571429D01*
X190357142Y-92542857D01*
X190300000Y-92485714D01*
X190271428Y-92428571D01*
X190242857Y-92314286D01*
X190242857Y-92228571D01*
X190271428Y-92114286D01*
X190300000Y-92057143D01*
X190357142Y-92000000D01*
X190442857Y-91971429D01*
X190500000Y-91971429D01*
X190585714Y-92000000D01*
X190614285Y-92028571D01*
X191185714Y-92571429D02*
X190842857Y-92571429D01*
X191014285Y-92571429D02*
X191014285Y-91971429D01*
X190957142Y-92057143D01*
X190900000Y-92114286D01*
X190842857Y-92142857D01*
X191385714Y-91971429D02*
X191785714Y-91971429D01*
X191528571Y-92571429D01*
X190557142Y-95471429D02*
X190271428Y-95471429D01*
X190242857Y-95757143D01*
X190271428Y-95728571D01*
X190328571Y-95700000D01*
X190471428Y-95700000D01*
X190528571Y-95728571D01*
X190557142Y-95757143D01*
X190585714Y-95814286D01*
X190585714Y-95957143D01*
X190557142Y-96014286D01*
X190528571Y-96042857D01*
X190471428Y-96071429D01*
X190328571Y-96071429D01*
X190271428Y-96042857D01*
X190242857Y-96014286D01*
X191100000Y-95471429D02*
X190985714Y-95471429D01*
X190928571Y-95500000D01*
X190900000Y-95528571D01*
X190842857Y-95614286D01*
X190814286Y-95728571D01*
X190814286Y-95957143D01*
X190842857Y-96014286D01*
X190871429Y-96042857D01*
X190928571Y-96071429D01*
X191042857Y-96071429D01*
X191100000Y-96042857D01*
X191128571Y-96014286D01*
X191157143Y-95957143D01*
X191157143Y-95814286D01*
X191128571Y-95757143D01*
X191100000Y-95728571D01*
X191042857Y-95700000D01*
X190928571Y-95700000D01*
X190871429Y-95728571D01*
X190842857Y-95757143D01*
X190814286Y-95814286D01*
X191414286Y-96071429D02*
X191414286Y-95471429D01*
X191642858Y-95471429D01*
X191700000Y-95500000D01*
X191728572Y-95528571D01*
X191757143Y-95585714D01*
X191757143Y-95671429D01*
X191728572Y-95728571D01*
X191700000Y-95757143D01*
X191642858Y-95785714D01*
X191414286Y-95785714D01*
X167614285Y-102014286D02*
X167585714Y-102042857D01*
X167500000Y-102071429D01*
X167442857Y-102071429D01*
X167357142Y-102042857D01*
X167300000Y-101985714D01*
X167271428Y-101928571D01*
X167242857Y-101814286D01*
X167242857Y-101728571D01*
X167271428Y-101614286D01*
X167300000Y-101557143D01*
X167357142Y-101500000D01*
X167442857Y-101471429D01*
X167500000Y-101471429D01*
X167585714Y-101500000D01*
X167614285Y-101528571D01*
X168185714Y-102071429D02*
X167842857Y-102071429D01*
X168014285Y-102071429D02*
X168014285Y-101471429D01*
X167957142Y-101557143D01*
X167900000Y-101614286D01*
X167842857Y-101642857D01*
X168728571Y-101471429D02*
X168442857Y-101471429D01*
X168414286Y-101757143D01*
X168442857Y-101728571D01*
X168500000Y-101700000D01*
X168642857Y-101700000D01*
X168700000Y-101728571D01*
X168728571Y-101757143D01*
X168757143Y-101814286D01*
X168757143Y-101957143D01*
X168728571Y-102014286D01*
X168700000Y-102042857D01*
X168642857Y-102071429D01*
X168500000Y-102071429D01*
X168442857Y-102042857D01*
X168414286Y-102014286D01*
X166928571Y-104971429D02*
X167300000Y-104971429D01*
X167100000Y-105200000D01*
X167185714Y-105200000D01*
X167242857Y-105228571D01*
X167271428Y-105257143D01*
X167300000Y-105314286D01*
X167300000Y-105457143D01*
X167271428Y-105514286D01*
X167242857Y-105542857D01*
X167185714Y-105571429D01*
X167014286Y-105571429D01*
X166957143Y-105542857D01*
X166928571Y-105514286D01*
X167500000Y-104971429D02*
X167871429Y-104971429D01*
X167671429Y-105200000D01*
X167757143Y-105200000D01*
X167814286Y-105228571D01*
X167842857Y-105257143D01*
X167871429Y-105314286D01*
X167871429Y-105457143D01*
X167842857Y-105514286D01*
X167814286Y-105542857D01*
X167757143Y-105571429D01*
X167585715Y-105571429D01*
X167528572Y-105542857D01*
X167500000Y-105514286D01*
X168242858Y-104971429D02*
X168300001Y-104971429D01*
X168357144Y-105000000D01*
X168385715Y-105028571D01*
X168414286Y-105085714D01*
X168442858Y-105200000D01*
X168442858Y-105342857D01*
X168414286Y-105457143D01*
X168385715Y-105514286D01*
X168357144Y-105542857D01*
X168300001Y-105571429D01*
X168242858Y-105571429D01*
X168185715Y-105542857D01*
X168157144Y-105514286D01*
X168128572Y-105457143D01*
X168100001Y-105342857D01*
X168100001Y-105200000D01*
X168128572Y-105085714D01*
X168157144Y-105028571D01*
X168185715Y-105000000D01*
X168242858Y-104971429D01*
X168700001Y-105571429D02*
X168700001Y-104971429D01*
X168928573Y-104971429D01*
X168985715Y-105000000D01*
X169014287Y-105028571D01*
X169042858Y-105085714D01*
X169042858Y-105171429D01*
X169014287Y-105228571D01*
X168985715Y-105257143D01*
X168928573Y-105285714D01*
X168700001Y-105285714D01*
X167614285Y-97514286D02*
X167585714Y-97542857D01*
X167500000Y-97571429D01*
X167442857Y-97571429D01*
X167357142Y-97542857D01*
X167300000Y-97485714D01*
X167271428Y-97428571D01*
X167242857Y-97314286D01*
X167242857Y-97228571D01*
X167271428Y-97114286D01*
X167300000Y-97057143D01*
X167357142Y-97000000D01*
X167442857Y-96971429D01*
X167500000Y-96971429D01*
X167585714Y-97000000D01*
X167614285Y-97028571D01*
X168185714Y-97571429D02*
X167842857Y-97571429D01*
X168014285Y-97571429D02*
X168014285Y-96971429D01*
X167957142Y-97057143D01*
X167900000Y-97114286D01*
X167842857Y-97142857D01*
X168700000Y-97171429D02*
X168700000Y-97571429D01*
X168557143Y-96942857D02*
X168414286Y-97371429D01*
X168785714Y-97371429D01*
X167285714Y-100971429D02*
X166942857Y-100971429D01*
X167114285Y-100971429D02*
X167114285Y-100371429D01*
X167057142Y-100457143D01*
X167000000Y-100514286D01*
X166942857Y-100542857D01*
X167657143Y-100371429D02*
X167714286Y-100371429D01*
X167771429Y-100400000D01*
X167800000Y-100428571D01*
X167828571Y-100485714D01*
X167857143Y-100600000D01*
X167857143Y-100742857D01*
X167828571Y-100857143D01*
X167800000Y-100914286D01*
X167771429Y-100942857D01*
X167714286Y-100971429D01*
X167657143Y-100971429D01*
X167600000Y-100942857D01*
X167571429Y-100914286D01*
X167542857Y-100857143D01*
X167514286Y-100742857D01*
X167514286Y-100600000D01*
X167542857Y-100485714D01*
X167571429Y-100428571D01*
X167600000Y-100400000D01*
X167657143Y-100371429D01*
X168228572Y-100371429D02*
X168285715Y-100371429D01*
X168342858Y-100400000D01*
X168371429Y-100428571D01*
X168400000Y-100485714D01*
X168428572Y-100600000D01*
X168428572Y-100742857D01*
X168400000Y-100857143D01*
X168371429Y-100914286D01*
X168342858Y-100942857D01*
X168285715Y-100971429D01*
X168228572Y-100971429D01*
X168171429Y-100942857D01*
X168142858Y-100914286D01*
X168114286Y-100857143D01*
X168085715Y-100742857D01*
X168085715Y-100600000D01*
X168114286Y-100485714D01*
X168142858Y-100428571D01*
X168171429Y-100400000D01*
X168228572Y-100371429D01*
X168685715Y-100971429D02*
X168685715Y-100371429D01*
X169028572Y-100971429D01*
X169028572Y-100371429D01*
X117457143Y-110928571D02*
X117400000Y-110900000D01*
X117342857Y-110842857D01*
X117257143Y-110757143D01*
X117200000Y-110728571D01*
X117142857Y-110728571D01*
X117171429Y-110871429D02*
X117114286Y-110842857D01*
X117057143Y-110785714D01*
X117028572Y-110671429D01*
X117028572Y-110471429D01*
X117057143Y-110357143D01*
X117114286Y-110300000D01*
X117171429Y-110271429D01*
X117285715Y-110271429D01*
X117342857Y-110300000D01*
X117400000Y-110357143D01*
X117428572Y-110471429D01*
X117428572Y-110671429D01*
X117400000Y-110785714D01*
X117342857Y-110842857D01*
X117285715Y-110871429D01*
X117171429Y-110871429D01*
X118000000Y-110871429D02*
X117657143Y-110871429D01*
X117828571Y-110871429D02*
X117828571Y-110271429D01*
X117771428Y-110357143D01*
X117714286Y-110414286D01*
X117657143Y-110442857D01*
X118228572Y-110328571D02*
X118257143Y-110300000D01*
X118314286Y-110271429D01*
X118457143Y-110271429D01*
X118514286Y-110300000D01*
X118542857Y-110328571D01*
X118571429Y-110385714D01*
X118571429Y-110442857D01*
X118542857Y-110528571D01*
X118200000Y-110871429D01*
X118571429Y-110871429D01*
X115521429Y-123642857D02*
X116007143Y-123642857D01*
X116064286Y-123614285D01*
X116092857Y-123585714D01*
X116121429Y-123528571D01*
X116121429Y-123414285D01*
X116092857Y-123357143D01*
X116064286Y-123328571D01*
X116007143Y-123300000D01*
X115521429Y-123300000D01*
X116121429Y-122700000D02*
X116121429Y-123042857D01*
X116121429Y-122871429D02*
X115521429Y-122871429D01*
X115607143Y-122928572D01*
X115664286Y-122985714D01*
X115692857Y-123042857D01*
X115521429Y-122500000D02*
X115521429Y-122128571D01*
X115750000Y-122328571D01*
X115750000Y-122242857D01*
X115778571Y-122185714D01*
X115807143Y-122157143D01*
X115864286Y-122128571D01*
X116007143Y-122128571D01*
X116064286Y-122157143D01*
X116092857Y-122185714D01*
X116121429Y-122242857D01*
X116121429Y-122414285D01*
X116092857Y-122471428D01*
X116064286Y-122500000D01*
X130871429Y-86257143D02*
X131357143Y-86257143D01*
X131414286Y-86228571D01*
X131442857Y-86200000D01*
X131471429Y-86142857D01*
X131471429Y-86028571D01*
X131442857Y-85971429D01*
X131414286Y-85942857D01*
X131357143Y-85914286D01*
X130871429Y-85914286D01*
X130871429Y-85685715D02*
X130871429Y-85314286D01*
X131100000Y-85514286D01*
X131100000Y-85428572D01*
X131128571Y-85371429D01*
X131157143Y-85342858D01*
X131214286Y-85314286D01*
X131357143Y-85314286D01*
X131414286Y-85342858D01*
X131442857Y-85371429D01*
X131471429Y-85428572D01*
X131471429Y-85600000D01*
X131442857Y-85657143D01*
X131414286Y-85685715D01*
X121071429Y-109228572D02*
X120471429Y-109228572D01*
X120471429Y-109000000D01*
X120500000Y-108942858D01*
X120528571Y-108914286D01*
X120585714Y-108885715D01*
X120671429Y-108885715D01*
X120728571Y-108914286D01*
X120757143Y-108942858D01*
X120785714Y-109000000D01*
X120785714Y-109228572D01*
X121071429Y-108314286D02*
X121071429Y-108657143D01*
X121071429Y-108485715D02*
X120471429Y-108485715D01*
X120557143Y-108542858D01*
X120614286Y-108600000D01*
X120642857Y-108657143D01*
X120671429Y-107800000D02*
X121071429Y-107800000D01*
X120442857Y-107942857D02*
X120871429Y-108085714D01*
X120871429Y-107714286D01*
X196661905Y-125352381D02*
X196661905Y-124352381D01*
X197042858Y-124352381D01*
X197138096Y-124400000D01*
X197185715Y-124447619D01*
X197233334Y-124542857D01*
X197233334Y-124685714D01*
X197185715Y-124780952D01*
X197138096Y-124828571D01*
X197042858Y-124876190D01*
X196661905Y-124876190D01*
X197566667Y-124352381D02*
X198185715Y-124352381D01*
X197852381Y-124733333D01*
X197995239Y-124733333D01*
X198090477Y-124780952D01*
X198138096Y-124828571D01*
X198185715Y-124923810D01*
X198185715Y-125161905D01*
X198138096Y-125257143D01*
X198090477Y-125304762D01*
X197995239Y-125352381D01*
X197709524Y-125352381D01*
X197614286Y-125304762D01*
X197566667Y-125257143D01*
X196661905Y-95652381D02*
X196661905Y-94652381D01*
X197042858Y-94652381D01*
X197138096Y-94700000D01*
X197185715Y-94747619D01*
X197233334Y-94842857D01*
X197233334Y-94985714D01*
X197185715Y-95080952D01*
X197138096Y-95128571D01*
X197042858Y-95176190D01*
X196661905Y-95176190D01*
X197614286Y-94747619D02*
X197661905Y-94700000D01*
X197757143Y-94652381D01*
X197995239Y-94652381D01*
X198090477Y-94700000D01*
X198138096Y-94747619D01*
X198185715Y-94842857D01*
X198185715Y-94938095D01*
X198138096Y-95080952D01*
X197566667Y-95652381D01*
X198185715Y-95652381D01*
X172057143Y-100471429D02*
X172057143Y-99871429D01*
X172285715Y-99871429D01*
X172342857Y-99900000D01*
X172371429Y-99928571D01*
X172400000Y-99985714D01*
X172400000Y-100071429D01*
X172371429Y-100128571D01*
X172342857Y-100157143D01*
X172285715Y-100185714D01*
X172057143Y-100185714D01*
X172971429Y-100471429D02*
X172628572Y-100471429D01*
X172800000Y-100471429D02*
X172800000Y-99871429D01*
X172742857Y-99957143D01*
X172685715Y-100014286D01*
X172628572Y-100042857D01*
X122171429Y-118100000D02*
X122171429Y-118385714D01*
X121571429Y-118385714D01*
X121771429Y-117642857D02*
X122171429Y-117642857D01*
X121542857Y-117785714D02*
X121971429Y-117928571D01*
X121971429Y-117557143D01*
X122671429Y-122942857D02*
X122071429Y-122942857D01*
X122071429Y-122800000D01*
X122100000Y-122714285D01*
X122157143Y-122657143D01*
X122214286Y-122628571D01*
X122328571Y-122600000D01*
X122414286Y-122600000D01*
X122528571Y-122628571D01*
X122585714Y-122657143D01*
X122642857Y-122714285D01*
X122671429Y-122800000D01*
X122671429Y-122942857D01*
X122071429Y-122400000D02*
X122071429Y-122028571D01*
X122300000Y-122228571D01*
X122300000Y-122142857D01*
X122328571Y-122085714D01*
X122357143Y-122057143D01*
X122414286Y-122028571D01*
X122557143Y-122028571D01*
X122614286Y-122057143D01*
X122642857Y-122085714D01*
X122671429Y-122142857D01*
X122671429Y-122314285D01*
X122642857Y-122371428D01*
X122614286Y-122400000D01*
X142014285Y-120414286D02*
X141985714Y-120442857D01*
X141900000Y-120471429D01*
X141842857Y-120471429D01*
X141757142Y-120442857D01*
X141700000Y-120385714D01*
X141671428Y-120328571D01*
X141642857Y-120214286D01*
X141642857Y-120128571D01*
X141671428Y-120014286D01*
X141700000Y-119957143D01*
X141757142Y-119900000D01*
X141842857Y-119871429D01*
X141900000Y-119871429D01*
X141985714Y-119900000D01*
X142014285Y-119928571D01*
X142242857Y-119928571D02*
X142271428Y-119900000D01*
X142328571Y-119871429D01*
X142471428Y-119871429D01*
X142528571Y-119900000D01*
X142557142Y-119928571D01*
X142585714Y-119985714D01*
X142585714Y-120042857D01*
X142557142Y-120128571D01*
X142214285Y-120471429D01*
X142585714Y-120471429D01*
X143100000Y-119871429D02*
X142985714Y-119871429D01*
X142928571Y-119900000D01*
X142900000Y-119928571D01*
X142842857Y-120014286D01*
X142814286Y-120128571D01*
X142814286Y-120357143D01*
X142842857Y-120414286D01*
X142871429Y-120442857D01*
X142928571Y-120471429D01*
X143042857Y-120471429D01*
X143100000Y-120442857D01*
X143128571Y-120414286D01*
X143157143Y-120357143D01*
X143157143Y-120214286D01*
X143128571Y-120157143D01*
X143100000Y-120128571D01*
X143042857Y-120100000D01*
X142928571Y-120100000D01*
X142871429Y-120128571D01*
X142842857Y-120157143D01*
X142814286Y-120214286D01*
X141242857Y-127628571D02*
X141271428Y-127600000D01*
X141328571Y-127571429D01*
X141471428Y-127571429D01*
X141528571Y-127600000D01*
X141557142Y-127628571D01*
X141585714Y-127685714D01*
X141585714Y-127742857D01*
X141557142Y-127828571D01*
X141214285Y-128171429D01*
X141585714Y-128171429D01*
X141814286Y-127628571D02*
X141842857Y-127600000D01*
X141900000Y-127571429D01*
X142042857Y-127571429D01*
X142100000Y-127600000D01*
X142128571Y-127628571D01*
X142157143Y-127685714D01*
X142157143Y-127742857D01*
X142128571Y-127828571D01*
X141785714Y-128171429D01*
X142157143Y-128171429D01*
X142528572Y-127571429D02*
X142585715Y-127571429D01*
X142642858Y-127600000D01*
X142671429Y-127628571D01*
X142700000Y-127685714D01*
X142728572Y-127800000D01*
X142728572Y-127942857D01*
X142700000Y-128057143D01*
X142671429Y-128114286D01*
X142642858Y-128142857D01*
X142585715Y-128171429D01*
X142528572Y-128171429D01*
X142471429Y-128142857D01*
X142442858Y-128114286D01*
X142414286Y-128057143D01*
X142385715Y-127942857D01*
X142385715Y-127800000D01*
X142414286Y-127685714D01*
X142442858Y-127628571D01*
X142471429Y-127600000D01*
X142528572Y-127571429D01*
X142985715Y-127571429D02*
X142985715Y-128057143D01*
X143014287Y-128114286D01*
X143042858Y-128142857D01*
X143100001Y-128171429D01*
X143214287Y-128171429D01*
X143271429Y-128142857D01*
X143300001Y-128114286D01*
X143328572Y-128057143D01*
X143328572Y-127571429D01*
X131314285Y-120314286D02*
X131285714Y-120342857D01*
X131200000Y-120371429D01*
X131142857Y-120371429D01*
X131057142Y-120342857D01*
X131000000Y-120285714D01*
X130971428Y-120228571D01*
X130942857Y-120114286D01*
X130942857Y-120028571D01*
X130971428Y-119914286D01*
X131000000Y-119857143D01*
X131057142Y-119800000D01*
X131142857Y-119771429D01*
X131200000Y-119771429D01*
X131285714Y-119800000D01*
X131314285Y-119828571D01*
X131542857Y-119828571D02*
X131571428Y-119800000D01*
X131628571Y-119771429D01*
X131771428Y-119771429D01*
X131828571Y-119800000D01*
X131857142Y-119828571D01*
X131885714Y-119885714D01*
X131885714Y-119942857D01*
X131857142Y-120028571D01*
X131514285Y-120371429D01*
X131885714Y-120371429D01*
X132085714Y-119771429D02*
X132457143Y-119771429D01*
X132257143Y-120000000D01*
X132342857Y-120000000D01*
X132400000Y-120028571D01*
X132428571Y-120057143D01*
X132457143Y-120114286D01*
X132457143Y-120257143D01*
X132428571Y-120314286D01*
X132400000Y-120342857D01*
X132342857Y-120371429D01*
X132171429Y-120371429D01*
X132114286Y-120342857D01*
X132085714Y-120314286D01*
X130742857Y-127628571D02*
X130771428Y-127600000D01*
X130828571Y-127571429D01*
X130971428Y-127571429D01*
X131028571Y-127600000D01*
X131057142Y-127628571D01*
X131085714Y-127685714D01*
X131085714Y-127742857D01*
X131057142Y-127828571D01*
X130714285Y-128171429D01*
X131085714Y-128171429D01*
X131314286Y-127628571D02*
X131342857Y-127600000D01*
X131400000Y-127571429D01*
X131542857Y-127571429D01*
X131600000Y-127600000D01*
X131628571Y-127628571D01*
X131657143Y-127685714D01*
X131657143Y-127742857D01*
X131628571Y-127828571D01*
X131285714Y-128171429D01*
X131657143Y-128171429D01*
X132028572Y-127571429D02*
X132085715Y-127571429D01*
X132142858Y-127600000D01*
X132171429Y-127628571D01*
X132200000Y-127685714D01*
X132228572Y-127800000D01*
X132228572Y-127942857D01*
X132200000Y-128057143D01*
X132171429Y-128114286D01*
X132142858Y-128142857D01*
X132085715Y-128171429D01*
X132028572Y-128171429D01*
X131971429Y-128142857D01*
X131942858Y-128114286D01*
X131914286Y-128057143D01*
X131885715Y-127942857D01*
X131885715Y-127800000D01*
X131914286Y-127685714D01*
X131942858Y-127628571D01*
X131971429Y-127600000D01*
X132028572Y-127571429D01*
X132485715Y-127571429D02*
X132485715Y-128057143D01*
X132514287Y-128114286D01*
X132542858Y-128142857D01*
X132600001Y-128171429D01*
X132714287Y-128171429D01*
X132771429Y-128142857D01*
X132800001Y-128114286D01*
X132828572Y-128057143D01*
X132828572Y-127571429D01*
X119857143Y-96357143D02*
X119809524Y-96404762D01*
X119666667Y-96452381D01*
X119571429Y-96452381D01*
X119428571Y-96404762D01*
X119333333Y-96309524D01*
X119285714Y-96214286D01*
X119238095Y-96023810D01*
X119238095Y-95880952D01*
X119285714Y-95690476D01*
X119333333Y-95595238D01*
X119428571Y-95500000D01*
X119571429Y-95452381D01*
X119666667Y-95452381D01*
X119809524Y-95500000D01*
X119857143Y-95547619D01*
X120809524Y-96452381D02*
X120238095Y-96452381D01*
X120523809Y-96452381D02*
X120523809Y-95452381D01*
X120428571Y-95595238D01*
X120333333Y-95690476D01*
X120238095Y-95738095D01*
X121666667Y-95452381D02*
X121476190Y-95452381D01*
X121380952Y-95500000D01*
X121333333Y-95547619D01*
X121238095Y-95690476D01*
X121190476Y-95880952D01*
X121190476Y-96261905D01*
X121238095Y-96357143D01*
X121285714Y-96404762D01*
X121380952Y-96452381D01*
X121571429Y-96452381D01*
X121666667Y-96404762D01*
X121714286Y-96357143D01*
X121761905Y-96261905D01*
X121761905Y-96023810D01*
X121714286Y-95928571D01*
X121666667Y-95880952D01*
X121571429Y-95833333D01*
X121380952Y-95833333D01*
X121285714Y-95880952D01*
X121238095Y-95928571D01*
X121190476Y-96023810D01*
X126809524Y-98952381D02*
X126904763Y-98952381D01*
X127000001Y-99000000D01*
X127047620Y-99047619D01*
X127095239Y-99142857D01*
X127142858Y-99333333D01*
X127142858Y-99571429D01*
X127095239Y-99761905D01*
X127047620Y-99857143D01*
X127000001Y-99904762D01*
X126904763Y-99952381D01*
X126809524Y-99952381D01*
X126714286Y-99904762D01*
X126666667Y-99857143D01*
X126619048Y-99761905D01*
X126571429Y-99571429D01*
X126571429Y-99333333D01*
X126619048Y-99142857D01*
X126666667Y-99047619D01*
X126714286Y-99000000D01*
X126809524Y-98952381D01*
X127571429Y-99857143D02*
X127619048Y-99904762D01*
X127571429Y-99952381D01*
X127523810Y-99904762D01*
X127571429Y-99857143D01*
X127571429Y-99952381D01*
X128571429Y-99952381D02*
X128000000Y-99952381D01*
X128285714Y-99952381D02*
X128285714Y-98952381D01*
X128190476Y-99095238D01*
X128095238Y-99190476D01*
X128000000Y-99238095D01*
X129333334Y-99428571D02*
X129000000Y-99428571D01*
X129000000Y-99952381D02*
X129000000Y-98952381D01*
X129476191Y-98952381D01*
X181050000Y-95350000D02*
X181016666Y-95383333D01*
X180916666Y-95416667D01*
X180850000Y-95416667D01*
X180750000Y-95383333D01*
X180683333Y-95316667D01*
X180650000Y-95250000D01*
X180616666Y-95116667D01*
X180616666Y-95016667D01*
X180650000Y-94883333D01*
X180683333Y-94816667D01*
X180750000Y-94750000D01*
X180850000Y-94716667D01*
X180916666Y-94716667D01*
X181016666Y-94750000D01*
X181050000Y-94783333D01*
X181316666Y-94783333D02*
X181350000Y-94750000D01*
X181416666Y-94716667D01*
X181583333Y-94716667D01*
X181650000Y-94750000D01*
X181683333Y-94783333D01*
X181716666Y-94850000D01*
X181716666Y-94916667D01*
X181683333Y-95016667D01*
X181283333Y-95416667D01*
X181716666Y-95416667D01*
X182150000Y-94716667D02*
X182216667Y-94716667D01*
X182283333Y-94750000D01*
X182316667Y-94783333D01*
X182350000Y-94850000D01*
X182383333Y-94983333D01*
X182383333Y-95150000D01*
X182350000Y-95283333D01*
X182316667Y-95350000D01*
X182283333Y-95383333D01*
X182216667Y-95416667D01*
X182150000Y-95416667D01*
X182083333Y-95383333D01*
X182050000Y-95350000D01*
X182016667Y-95283333D01*
X181983333Y-95150000D01*
X181983333Y-94983333D01*
X182016667Y-94850000D01*
X182050000Y-94783333D01*
X182083333Y-94750000D01*
X182150000Y-94716667D01*
X180933334Y-99850000D02*
X180933334Y-100316667D01*
X180766667Y-99583333D02*
X180600000Y-100083333D01*
X181033334Y-100083333D01*
X181300001Y-99616667D02*
X181300001Y-100183333D01*
X181333334Y-100250000D01*
X181366667Y-100283333D01*
X181433334Y-100316667D01*
X181566667Y-100316667D01*
X181633334Y-100283333D01*
X181666667Y-100250000D01*
X181700001Y-100183333D01*
X181700001Y-99616667D01*
X181966667Y-99616667D02*
X182433334Y-99616667D01*
X182133334Y-100316667D01*
X175457143Y-95071429D02*
X175457143Y-95557143D01*
X175485715Y-95614286D01*
X175514286Y-95642857D01*
X175571429Y-95671429D01*
X175685715Y-95671429D01*
X175742857Y-95642857D01*
X175771429Y-95614286D01*
X175800000Y-95557143D01*
X175800000Y-95071429D01*
X176057143Y-95128571D02*
X176085714Y-95100000D01*
X176142857Y-95071429D01*
X176285714Y-95071429D01*
X176342857Y-95100000D01*
X176371428Y-95128571D01*
X176400000Y-95185714D01*
X176400000Y-95242857D01*
X176371428Y-95328571D01*
X176028571Y-95671429D01*
X176400000Y-95671429D01*
X176914286Y-95271429D02*
X176914286Y-95671429D01*
X176771429Y-95042857D02*
X176628572Y-95471429D01*
X177000000Y-95471429D01*
X114166667Y-139952381D02*
X113833333Y-139476190D01*
X113595238Y-139952381D02*
X113595238Y-138952381D01*
X113976191Y-138952381D01*
X114071429Y-139000000D01*
X114119048Y-139047619D01*
X114166667Y-139142857D01*
X114166667Y-139285714D01*
X114119048Y-139380952D01*
X114071429Y-139428571D01*
X113976191Y-139476190D01*
X113595238Y-139476190D01*
X114595238Y-139428571D02*
X114928572Y-139428571D01*
X115071429Y-139952381D02*
X114595238Y-139952381D01*
X114595238Y-138952381D01*
X115071429Y-138952381D01*
X115833334Y-139428571D02*
X115500000Y-139428571D01*
X115500000Y-139952381D02*
X115500000Y-138952381D01*
X115976191Y-138952381D01*
X116500000Y-138952381D02*
X116500000Y-139190476D01*
X116261905Y-139095238D02*
X116500000Y-139190476D01*
X116738096Y-139095238D01*
X116357143Y-139380952D02*
X116500000Y-139190476D01*
X116642858Y-139380952D01*
X117261905Y-138952381D02*
X117261905Y-139190476D01*
X117023810Y-139095238D02*
X117261905Y-139190476D01*
X117500001Y-139095238D01*
X117119048Y-139380952D02*
X117261905Y-139190476D01*
X117404763Y-139380952D01*
M02*
