  0
SECTION
  2
HEADER
  9
$ACADVER
  1
AC1009
  9
$EXTMAX
 10
22.8989219665527
 20
20.0205020904541
 30
0.0
  9
$EXTMIN
 10
0.0151747949421
 20
0.0205052513629
 30
0.0
  9
$INSUNITS
 70
     4
  9
$LUNITS
 70
     2
  9
$LUPREC
 70
     4
  9
$MEASUREMENT
 70
     1
  0
ENDSEC
  0
SECTION
  2
TABLES
  0
TABLE
  2
LAYER
 70
     1
  0
LAYER
  2
0
 70
     0
 62
    70
  6
Continuous
  0
ENDTAB
  0
TABLE
  2
APPID
 70
     1
  0
APPID
  2
ACAD
 70
     0
  0
ENDTAB
  0
ENDSEC
  0
SECTION
  2
ENTITIES
  0
POLYLINE
  8
0
 66
     1
 10
0.0
 20
0.0
 30
0.0
 70
     1
  0
VERTEX
  8
0
 10
22.6122518246904
 20
3.5742501706923
 42
-0.040313
  0
VERTEX
  8
0
 10
22.6847618146576
 20
3.5293650899288
 42
-0.036856
  0
VERTEX
  8
0
 10
22.7514891942836
 20
3.4721791592189
 42
-0.036596
  0
VERTEX
  8
0
 10
22.8095490369652
 20
3.4053653553132
 42
-0.038359
  0
VERTEX
  8
0
 10
22.8562425814859
 20
3.3318017534038
 42
-0.036528
  0
VERTEX
  8
0
 10
22.877509110912
 20
3.2836465230306
 42
-0.042418
  0
VERTEX
  8
0
 10
22.8902866260795
 20
3.2352364201614
 42
-0.03196
  0
VERTEX
  8
0
 10
22.896874981676
 20
3.1752402335802
 42
-0.011017
  0
VERTEX
  8
0
 10
22.8989215850463
 20
3.0879599713772
 42
-0.010801
  0
VERTEX
  8
0
 10
22.8969889659984
 20
2.9922462202959
 42
-0.042438
  0
VERTEX
  8
0
 10
22.889541308341
 20
2.933739125212
 42
-0.051774
  0
VERTEX
  8
0
 10
22.8731006813576
 20
2.8832662650818
 42
-0.021787
  0
VERTEX
  8
0
 10
22.841253913281
 20
2.8192963372115
 42
-0.069507
  0
VERTEX
  8
0
 10
22.7471670346109
 20
2.6940496071605
 42
-0.080619
  0
VERTEX
  8
0
 10
22.6265364766213
 20
2.6066788291308
 42
-0.077192
  0
VERTEX
  8
0
 10
22.4800124285839
 20
2.5594407035694
 42
-0.057368
  0
VERTEX
  8
0
 10
22.3099017316957
 20
2.5520902780516
 42
-0.047053
  0
VERTEX
  8
0
 10
22.1960424330316
 20
2.5711037160841
 42
-0.058527
  0
VERTEX
  8
0
 10
22.0963009399611
 20
2.6105284537289
 42
-0.058726
  0
VERTEX
  8
0
 10
22.0086696539084
 20
2.6718617269776
 42
-0.047842
  0
VERTEX
  8
0
 10
21.9307797428801
 20
2.7559403150833
 42
-0.038983
  0
VERTEX
  8
0
 10
21.8829362613658
 20
2.8299832455792
 42
-0.049422
  0
VERTEX
  8
0
 10
21.8514657226123
 20
2.9050491979139
 42
-0.046111
  0
VERTEX
  8
0
 10
21.8339317841013
 20
2.9889331866421
 42
-0.028234
  0
VERTEX
  8
0
 10
21.8281246823776
 20
3.089904942265
 42
-0.070492
  0
VERTEX
  8
0
 10
21.8519787871615
 20
3.2594757672514
 42
-0.084458
  0
VERTEX
  8
0
 10
21.9218751857081
 20
3.4045336711941
 42
-0.083163
  0
VERTEX
  8
0
 10
22.0368539856604
 20
3.519953759926
 42
-0.065934
  0
VERTEX
  8
0
 10
22.1924403856242
 20
3.6028804038641
 42
-0.073569
  0
VERTEX
  8
0
 10
22.2819960690314
 20
3.6220755104417
 42
-0.033102
  0
VERTEX
  8
0
 10
22.4025238172537
 20
3.6218450521291
 42
-0.033124
  0
VERTEX
  8
0
 10
22.5228505199821
 20
3.6055854181995
 42
-0.068398
  0
SEQEND
  0
POLYLINE
  8
0
 66
     1
 10
0.0
 20
0.0
 30
0.0
 70
     1
  0
VERTEX
  8
0
 10
8.2988924230763
 20
3.13620934593
 42
0.0
  0
VERTEX
  8
0
 10
8.2988924230763
 20
2.7019649749551
 42
0.0
  0
VERTEX
  8
0
 10
7.0444086847043
 20
2.7019649749551
 42
0.0
  0
VERTEX
  8
0
 10
5.7899249463323
 20
2.7019649749551
 42
0.0
  0
VERTEX
  8
0
 10
5.7899249463323
 20
2.480165070504
 42
0.0
  0
VERTEX
  8
0
 10
5.7899249463323
 20
2.2583651660529
 42
0.0
  0
VERTEX
  8
0
 10
6.9816844977857
 20
2.253393010106
 42
0.0
  0
VERTEX
  8
0
 10
8.1734440492391
 20
2.2484208541591
 42
0.0
  0
VERTEX
  8
0
 10
8.1786605400188
 20
1.8479510453711
 42
0.0
  0
VERTEX
  8
0
 10
8.1838770500982
 20
1.4474812365831
 42
0.0
  0
VERTEX
  8
0
 10
6.9869009885654
 20
1.4474812365831
 42
0.0
  0
VERTEX
  8
0
 10
5.7899249463323
 20
1.4474812365831
 42
0.0
  0
VERTEX
  8
0
 10
5.7899249463323
 20
1.1772847390876
 42
0.0
  0
VERTEX
  8
0
 10
5.7899249463323
 20
0.9070882415921
 42
0.0
  0
VERTEX
  8
0
 10
7.0540585596149
 20
0.9070882415921
 42
0.0
  0
VERTEX
  8
0
 10
8.3181921728974
 20
0.9070882415921
 42
0.0
  0
VERTEX
  8
0
 10
8.3181921728974
 20
0.4728438706171
 42
0.0
  0
VERTEX
  8
0
 10
8.3181921728974
 20
0.0385994996422
 42
0.0
  0
VERTEX
  8
0
 10
6.5715648140872
 20
0.0385994996422
 42
0.0
  0
VERTEX
  8
0
 10
4.8249374552769
 20
0.0385994996422
 42
0.0
  0
VERTEX
  8
0
 10
4.8249374552769
 20
1.8045266082736
 42
0.0
  0
VERTEX
  8
0
 10
4.8249374552769
 20
3.5704537169049
 42
0.0
  0
VERTEX
  8
0
 10
6.5619149391766
 20
3.5704537169049
 42
0.0
  0
VERTEX
  8
0
 10
8.2988924230763
 20
3.5704537169049
 42
0.0
  0
SEQEND
  0
POLYLINE
  8
0
 66
     1
 10
0.0
 20
0.0
 30
0.0
 70
     1
  0
VERTEX
  8
0
 10
10.719565609462
 20
3.4250210504202
 42
-0.003871
  0
VERTEX
  8
0
 10
10.7534097858466
 20
3.3682896674181
 42
-0.005824
  0
VERTEX
  8
0
 10
10.7819565283007
 20
3.3182583276646
 42
-0.002572
  0
VERTEX
  8
0
 10
10.8055240125
 20
3.2752933790108
 42
-0.122711
  0
VERTEX
  8
0
 10
10.8079725138606
 20
3.2657981143961
 42
0.136825
  0
VERTEX
  8
0
 10
10.8108220061231
 20
3.2558934441884
 42
0.000839
  0
VERTEX
  8
0
 10
10.8604599976755
 20
3.1756121783588
 42
0.003363
  0
VERTEX
  8
0
 10
10.9180979864255
 20
3.0841201317523
 42
0.002127
  0
VERTEX
  8
0
 10
10.9864951997058
 20
2.9781472319584
 42
-0.002345
  0
VERTEX
  8
0
 10
11.1667616372471
 20
2.698578447854
 42
-0.001806
  0
VERTEX
  8
0
 10
11.3609386589683
 20
2.3918745242971
 42
-0.001179
  0
VERTEX
  8
0
 10
11.5373718187996
 20
2.1094801989197
 42
-0.016245
  0
VERTEX
  8
0
 10
11.5977142042931
 20
2.0049624616627
 42
0.013466
  0
VERTEX
  8
0
 10
11.6201548146998
 20
1.9655897947429
 42
0.002451
  0
VERTEX
  8
0
 10
11.6640451284582
 20
1.8939813153897
 42
0.002637
  0
VERTEX
  8
0
 10
11.716286154468
 20
1.8106634462229
 42
0.00239
  0
VERTEX
  8
0
 10
11.7711309483256
 20
1.7251160892566
 42
-0.000543
  0
VERTEX
  8
0
 10
11.8357543850246
 20
1.6251307438472
 42
-0.000256
  0
VERTEX
  8
0
 10
11.9189515342562
 20
1.4959554918208
 42
-0.000254
  0
VERTEX
  8
0
 10
12.0059034691153
 20
1.360647107397
 42
-0.000359
  0
VERTEX
  8
0
 10
12.0832192125864
 20
1.2400089260062
 42
0.006589
  0
VERTEX
  8
0
 10
12.1553673708438
 20
1.1304628705303
 42
0.011755
  0
VERTEX
  8
0
 10
12.2179786735257
 20
1.0425920745823
 42
0.006776
  0
VERTEX
  8
0
 10
12.2709842012254
 20
0.9737498862702
 42
0.229163
  0
VERTEX
  8
0
 10
12.289098444614
 20
0.9649874910554
 42
0.404717
  0
VERTEX
  8
0
 10
12.3077721684502
 20
0.9830634244406
 42
0.004357
  0
VERTEX
  8
0
 10
12.3124248942378
 20
1.1783889163743
 42
0.0052
  0
VERTEX
  8
0
 10
12.3139516395469
 20
1.50307515023
 42
0.000538
  0
VERTEX
  8
0
 10
12.3087727639797
 20
2.2677206039802
 42
0.0
  0
VERTEX
  8
0
 10
12.2985478916227
 20
3.5704537169049
 42
0.0
  0
VERTEX
  8
0
 10
12.7883878939223
 20
3.5704537169049
 42
0.0
  0
VERTEX
  8
0
 10
13.2782278769221
 20
3.5704537169049
 42
0.0
  0
VERTEX
  8
0
 10
13.2782278769221
 20
1.8045266082736
 42
0.0
  0
VERTEX
  8
0
 10
13.2782278769221
 20
0.0385994996422
 42
0.0
  0
VERTEX
  8
0
 10
12.4435136971592
 20
0.0392949275275
 42
0.0
  0
VERTEX
  8
0
 10
11.6087995173963
 20
0.0399903747126
 42
0.0
  0
VERTEX
  8
0
 10
11.494120732055
 20
0.2274674882833
 42
0.003515
  0
VERTEX
  8
0
 10
11.4337516550076
 20
0.3246178934416
 42
0.001064
  0
VERTEX
  8
0
 10
11.3407969382615
 20
0.4711954596852
 42
0.001066
  0
VERTEX
  8
0
 10
11.2358890758616
 20
0.6350734181672
 42
0.001161
  0
VERTEX
  8
0
 10
11.1332057026262
 20
0.7939139875478
 42
-0.002232
  0
VERTEX
  8
0
 10
11.034511182384
 20
0.9473038636848
 42
-0.002556
  0
VERTEX
  8
0
 10
10.941589931404
 20
1.0948060230431
 42
-0.002305
  0
VERTEX
  8
0
 10
10.8639904237113
 20
1.2206836812156
 42
-0.014582
  0
VERTEX
  8
0
 10
10.8266752645204
 20
1.2860576079861
 42
0.010421
  0
VERTEX
  8
0
 10
10.7963275080125
 20
1.3402678646691
 42
0.004484
  0
VERTEX
  8
0
 10
10.7537087775708
 20
1.4113413356576
 42
0.004435
  0
VERTEX
  8
0
 10
10.7069623517356
 20
1.4862363887076
 42
0.005847
  0
VERTEX
  8
0
 10
10.6629471492961
 20
1.5536298605992
 42
-0.005875
  0
VERTEX
  8
0
 10
10.5402366572682
 20
1.7415406202487
 42
-0.001004
  0
VERTEX
  8
0
 10
10.3118135225728
 20
2.1020725496436
 42
-0.000623
  0
VERTEX
  8
0
 10
10.0776880451957
 20
2.474279148602
 42
-0.013777
  0
VERTEX
  8
0
 10
10.0126428510638
 20
2.5846126917698
 42
0.039196
  0
VERTEX
  8
0
 10
9.99762478934
 20
2.6073616349797
 42
0.04373
  0
VERTEX
  8
0
 10
9.9797281892302
 20
2.6266014011784
 42
0.048502
  0
VERTEX
  8
0
 10
9.9617379853337
 20
2.6399182671545
 42
0.1359
  0
VERTEX
  8
0
 10
9.9467605302835
 20
2.6440657254918
 42
0.401441
  0
VERTEX
  8
0
 10
9.9256598629073
 20
2.6238697145887
 42
0.006986
  0
VERTEX
  8
0
 10
9.9204891318345
 20
2.4506029875115
 42
0.005864
  0
VERTEX
  8
0
 10
9.9192294564634
 20
2.145854321609
 42
0.000469
  0
VERTEX
  8
0
 10
9.9260949757671
 20
1.341332612567
 42
0.0
  0
VERTEX
  8
0
 10
9.9384348112082
 20
0.0385994996422
 42
0.0
  0
VERTEX
  8
0
 10
9.4371094891905
 20
0.0385994996422
 42
0.0
  0
VERTEX
  8
0
 10
8.9357841671729
 20
0.0385994996422
 42
0.0
  0
VERTEX
  8
0
 10
8.9357841671729
 20
1.8045266082736
 42
0.0
  0
VERTEX
  8
0
 10
8.9357841671729
 20
3.5704537169049
 42
0.0
  0
VERTEX
  8
0
 10
9.7835277431383
 20
3.5704537169049
 42
0.0
  0
VERTEX
  8
0
 10
10.6312713191037
 20
3.5704537169049
 42
0.0
  0
SEQEND
  0
POLYLINE
  8
0
 66
     1
 10
0.0
 20
0.0
 30
0.0
 70
     1
  0
VERTEX
  8
0
 10
15.0731046102852
 20
1.8045266082736
 42
0.0
  0
VERTEX
  8
0
 10
15.0731046102852
 20
0.0385994996422
 42
0.0
  0
VERTEX
  8
0
 10
14.5520113651153
 20
0.0385994996422
 42
0.0
  0
VERTEX
  8
0
 10
14.0309181199453
 20
0.0385994996422
 42
0.0
  0
VERTEX
  8
0
 10
14.0309181199453
 20
1.8045266082736
 42
0.0
  0
VERTEX
  8
0
 10
14.0309181199453
 20
3.5704537169049
 42
0.0
  0
VERTEX
  8
0
 10
14.5520113651153
 20
3.5704537169049
 42
0.0
  0
VERTEX
  8
0
 10
15.0731046102852
 20
3.5704537169049
 42
0.0
  0
SEQEND
  0
POLYLINE
  8
0
 66
     1
 10
0.0
 20
0.0
 30
0.0
 70
     1
  0
VERTEX
  8
0
 10
16.6611023845798
 20
3.4594801554336
 42
-0.000959
  0
VERTEX
  8
0
 10
16.8012029740832
 20
3.1424077500813
 42
-0.002446
  0
VERTEX
  8
0
 10
16.9012101861092
 20
2.911838463906
 42
-0.000791
  0
VERTEX
  8
0
 10
16.9788829942517
 20
2.7295374274388
 42
-0.100636
  0
VERTEX
  8
0
 10
16.9837798425748
 20
2.705454350423
 42
0.099909
  0
VERTEX
  8
0
 10
16.9868728204812
 20
2.6901298279718
 42
0.001185
  0
VERTEX
  8
0
 10
17.0270176124921
 20
2.5953587538707
 42
0.003519
  0
VERTEX
  8
0
 10
17.0745581651331
 20
2.4860044800089
 42
0.002286
  0
VERTEX
  8
0
 10
17.1309722409485
 20
2.3602525404067
 42
-0.001124
  0
VERTEX
  8
0
 10
17.1940435724671
 20
2.2205310365893
 42
-0.000881
  0
VERTEX
  8
0
 10
17.2618707097372
 20
2.0686530063546
 42
-0.00089
  0
VERTEX
  8
0
 10
17.324484637185
 20
1.9271043566221
 42
-0.002183
  0
VERTEX
  8
0
 10
17.3698883601254
 20
1.8227330658668
 42
0.001612
  0
VERTEX
  8
0
 10
17.4087540033177
 20
1.7331114352145
 42
0.001439
  0
VERTEX
  8
0
 10
17.4496831950606
 20
1.6402870110794
 42
0.001443
  0
VERTEX
  8
0
 10
17.4869446430477
 20
1.5570831069354
 42
0.004485
  0
VERTEX
  8
0
 10
17.5127268121384
 20
1.501294902707
 42
-0.004573
  0
VERTEX
  8
0
 10
17.538640296727
 20
1.445196783096
 42
-0.001431
  0
VERTEX
  8
0
 10
17.5764617848544
 20
1.3606682985223
 42
-0.00143
  0
VERTEX
  8
0
 10
17.6181519271332
 20
1.2660446552101
 42
-0.001581
  0
VERTEX
  8
0
 10
17.6579188493424
 20
1.1742924479761
 42
0.003943
  0
VERTEX
  8
0
 10
17.719241256832
 20
1.034618132047
 42
0.048693
  0
VERTEX
  8
0
 10
17.7480139221575
 20
0.9842366369325
 42
0.13091
  0
VERTEX
  8
0
 10
17.7761227339885
 20
0.9608357481736
 42
0.088943
  0
VERTEX
  8
0
 10
17.8166072015962
 20
0.9502178364115
 42
0.0
  0
VERTEX
  8
0
 10
17.8812182092563
 20
0.945098075978
 42
0.0
  0
VERTEX
  8
0
 10
18.0004359097605
 20
1.2204143339071
 42
-0.000698
  0
VERTEX
  8
0
 10
18.0596615924296
 20
1.3566653760114
 42
-0.000271
  0
VERTEX
  8
0
 10
18.142070655677
 20
1.5452503917206
 42
-0.000268
  0
VERTEX
  8
0
 10
18.2315890326677
 20
1.7495046427126
 42
-0.000331
  0
VERTEX
  8
0
 10
18.3151846638338
 20
1.9396248570213
 42
0.001534
  0
VERTEX
  8
0
 10
18.3919123053284
 20
2.1152706063597
 42
0.002026
  0
VERTEX
  8
0
 10
18.4606805948985
 20
2.2758023742178
 42
0.001455
  0
VERTEX
  8
0
 10
18.5173817737921
 20
2.4107531342774
 42
0.019839
  0
VERTEX
  8
0
 10
18.5359144164571
 20
2.4607181021912
 42
-0.015338
  0
VERTEX
  8
0
 10
18.5514867669958
 20
2.5038898476643
 42
-0.003008
  0
VERTEX
  8
0
 10
18.582315724166
 20
2.5804368628003
 42
-0.003189
  0
VERTEX
  8
0
 10
18.6193624817361
 20
2.6692303604875
 42
-0.002952
  0
VERTEX
  8
0
 10
18.6584909296217
 20
2.7598642244184
 42
0.000294
  0
VERTEX
  8
0
 10
18.7047299843338
 20
2.8654229129817
 42
0.000139
  0
VERTEX
  8
0
 10
18.7642639805063
 20
3.001653902646
 42
0.000138
  0
VERTEX
  8
0
 10
18.826490658474
 20
3.1442619349459
 42
0.000195
  0
VERTEX
  8
0
 10
18.8818260712718
 20
3.2713075946778
 42
0.0
  0
VERTEX
  8
0
 10
19.0077833795118
 20
3.5608038419944
 42
0.0
  0
VERTEX
  8
0
 10
19.5397616063818
 20
3.5659340821921
 42
-0.00102
  0
VERTEX
  8
0
 10
19.8871496534583
 20
3.5685753494539
 42
-0.017269
  0
VERTEX
  8
0
 10
20.0016661472033
 20
3.5652567960716
 42
-0.062829
  0
VERTEX
  8
0
 10
20.0550833578665
 20
3.5550391611208
 42
-0.324829
  0
VERTEX
  8
0
 10
20.0717398139521
 20
3.5321055772044
 42
-0.100333
  0
VERTEX
  8
0
 10
20.0619048737405
 20
3.4835876273331
 42
-0.001336
  0
VERTEX
  8
0
 10
19.9412432624534
 20
3.2003045677762
 42
-0.003075
  0
VERTEX
  8
0
 10
19.7790765355891
 20
2.8287063741311
 42
-0.001078
  0
VERTEX
  8
0
 10
19.5416138612714
 20
2.2966702287118
 42
0.001037
  0
VERTEX
  8
0
 10
19.4771141359687
 20
2.1521898890823
 42
0.001175
  0
VERTEX
  8
0
 10
19.415857000233
 20
2.0133257766507
 42
0.001068
  0
VERTEX
  8
0
 10
19.3643231363565
 20
1.8950694159848
 42
0.006498
  0
VERTEX
  8
0
 10
19.3385839478086
 20
1.8334762330052
 42
-0.004856
  0
VERTEX
  8
0
 10
19.2549326175644
 20
1.6314378441895
 42
-0.001145
  0
VERTEX
  8
0
 10
19.1111257620046
 20
1.2955706090709
 42
-0.001082
  0
VERTEX
  8
0
 10
18.9663803017118
 20
0.9616303188738
 42
-0.005874
  0
VERTEX
  8
0
 10
18.8853709721199
 20
0.7816398677549
 42
0.003047
  0
VERTEX
  8
0
 10
18.8459532788838
 20
0.6953662998023
 42
0.001179
  0
VERTEX
  8
0
 10
18.7923375895935
 20
0.5753436260328
 42
0.001167
  0
VERTEX
  8
0
 10
18.7348375940548
 20
0.4449863801284
 42
0.001443
  0
VERTEX
  8
0
 10
18.6819068528856
 20
0.3232708095036
 42
0.0
  0
VERTEX
  8
0
 10
18.5590870470748
 20
0.0385994996422
 42
0.0
  0
VERTEX
  8
0
 10
17.8122744849604
 20
0.0385994996422
 42
0.0
  0
VERTEX
  8
0
 10
17.065461922846
 20
0.0385994996422
 42
0.0
  0
VERTEX
  8
0
 10
17.0224890612948
 20
0.1495730611136
 42
0.005936
  0
VERTEX
  8
0
 10
16.9652522950438
 20
0.2923255906404
 42
0.003264
  0
VERTEX
  8
0
 10
16.8920021017718
 20
0.4657113585745
 42
0.003261
  0
VERTEX
  8
0
 10
16.8161199630171
 20
0.6389839913752
 42
0.00567
  0
VERTEX
  8
0
 10
16.7505846131391
 20
0.7816398677549
 42
-0.004527
  0
VERTEX
  8
0
 10
16.6474302874085
 20
1.0048364372013
 42
-0.001299
  0
VERTEX
  8
0
 10
16.4917140194281
 20
1.3523373492147
 42
-0.001131
  0
VERTEX
  8
0
 10
16.3393094534188
 20
1.6969261798769
 42
-0.007311
  0
VERTEX
  8
0
 10
16.2653543560843
 20
1.8720757326475
 42
0.003622
  0
VERTEX
  8
0
 10
16.1827653033701
 20
2.0717715950289
 42
0.004171
  0
VERTEX
  8
0
 10
16.1010108297373
 20
2.2610414044613
 42
0.002087
  0
VERTEX
  8
0
 10
15.9800299040895
 20
2.5317659624117
 42
0.000267
  0
VERTEX
  8
0
 10
15.7175988925315
 20
3.1116751951614
 42
-0.002575
  0
VERTEX
  8
0
 10
15.648116203422
 20
3.2671214403421
 42
-0.003925
  0
VERTEX
  8
0
 10
15.5895555708321
 20
3.4028420288226
 42
-0.001468
  0
VERTEX
  8
0
 10
15.5405123975692
 20
3.519961634224
 42
-0.098725
  0
VERTEX
  8
0
 10
15.5362986059917
 20
3.5410946286811
 42
-0.376046
  0
VERTEX
  8
0
 10
15.551136195755
 20
3.5580332471091
 42
-0.019379
  0
VERTEX
  8
0
 10
15.6294997612434
 20
3.5653653571644
 42
-0.012169
  0
VERTEX
  8
0
 10
15.768218913254
 20
3.569556529435
 42
-0.001467
  0
VERTEX
  8
0
 10
16.0740559499482
 20
3.5704537169049
 42
0.0
  0
VERTEX
  8
0
 10
16.6118133132044
 20
3.5704537169049
 42
0.0
  0
SEQEND
  0
POLYLINE
  8
0
 66
     1
 10
0.0
 20
0.0
 30
0.0
 70
     1
  0
VERTEX
  8
0
 10
21.5771202999985
 20
1.8045266082736
 42
0.0
  0
VERTEX
  8
0
 10
21.5771202999985
 20
0.0385994996422
 42
0.0
  0
VERTEX
  8
0
 10
21.0656769297391
 20
0.0385994996422
 42
0.0
  0
VERTEX
  8
0
 10
20.5542335594798
 20
0.0385994996422
 42
0.0
  0
VERTEX
  8
0
 10
20.5542335594798
 20
1.8045266082736
 42
0.0
  0
VERTEX
  8
0
 10
20.5542335594798
 20
3.5704537169049
 42
0.0
  0
VERTEX
  8
0
 10
21.0656769297391
 20
3.5704537169049
 42
0.0
  0
VERTEX
  8
0
 10
21.5771202999985
 20
3.5704537169049
 42
0.0
  0
SEQEND
  0
POLYLINE
  8
0
 66
     1
 10
0.0
 20
0.0
 30
0.0
 70
     1
  0
VERTEX
  8
0
 10
22.2405492000991
 20
3.4619772728639
 42
0.089389
  0
VERTEX
  8
0
 10
22.1276800943993
 20
3.3974919451746
 42
0.072655
  0
VERTEX
  8
0
 10
22.0348086174741
 20
3.293373558341
 42
0.07455
  0
VERTEX
  8
0
 10
21.977560445071
 20
3.1700106189707
 42
0.105134
  0
VERTEX
  8
0
 10
21.9683657161605
 20
3.0495228791298
 42
0.110397
  0
VERTEX
  8
0
 10
22.0281965810846
 20
2.8872471472784
 42
0.099646
  0
VERTEX
  8
0
 10
22.1531698336807
 20
2.7588211501396
 42
0.103184
  0
VERTEX
  8
0
 10
22.3140494409298
 20
2.6917961683713
 42
0.127657
  0
VERTEX
  8
0
 10
22.4755095846534
 20
2.7022788081869
 42
0.070092
  0
VERTEX
  8
0
 10
22.5599595771446
 20
2.7439858763463
 42
0.050378
  0
VERTEX
  8
0
 10
22.640567568439
 20
2.8117922277858
 42
0.050073
  0
VERTEX
  8
0
 10
22.7065309095691
 20
2.8949315163675
 42
0.066418
  0
VERTEX
  8
0
 10
22.7474434842273
 20
2.9822871440935
 42
0.016554
  0
VERTEX
  8
0
 10
22.7640859479943
 20
3.0418966794867
 42
0.052032
  0
VERTEX
  8
0
 10
22.769678359301
 20
3.0830129244049
 42
0.055422
  0
VERTEX
  8
0
 10
22.7664932636887
 20
3.1229844432618
 42
0.020689
  0
VERTEX
  8
0
 10
22.7535504268642
 20
3.1778612361047
 42
0.092476
  0
VERTEX
  8
0
 10
22.6965136253212
 20
3.2937331126802
 42
0.065091
  0
VERTEX
  8
0
 10
22.5949513359533
 20
3.3980858177764
 42
0.066591
  0
VERTEX
  8
0
 10
22.4731224564973
 20
3.4704469294734
 42
0.111676
  0
VERTEX
  8
0
 10
22.3565210107791
 20
3.4917310602714
 42
0.041285
  0
VERTEX
  8
0
 10
22.3373704287244
 20
3.4893362894143
 42
0.011055
  0
VERTEX
  8
0
 10
22.3074556621036
 20
3.482362363416
 42
0.011125
  0
VERTEX
  8
0
 10
22.2736958256258
 20
3.472895662431
 42
0.011282
  0
SEQEND
  0
POLYLINE
  8
0
 66
     1
 10
0.0
 20
0.0
 30
0.0
 70
     1
  0
VERTEX
  8
0
 10
22.5438413910815
 20
3.3222438032016
 42
-0.104384
  0
VERTEX
  8
0
 10
22.5742011906334
 20
3.2628104552245
 42
-0.076006
  0
VERTEX
  8
0
 10
22.5825591209912
 20
3.1888531577186
 42
-0.080981
  0
VERTEX
  8
0
 10
22.5686578006913
 20
3.1205550679534
 42
-0.158393
  0
VERTEX
  8
0
 10
22.5342540666602
 20
3.0777122481165
 42
0.0
  0
VERTEX
  8
0
 10
22.487800861924
 20
3.0472749214696
 42
0.0
  0
VERTEX
  8
0
 10
22.5535538164813
 20
2.9474341118866
 42
-0.012394
  0
VERTEX
  8
0
 10
22.6083826108463
 20
2.859511669808
 42
-0.170298
  0
VERTEX
  8
0
 10
22.6155753381084
 20
2.823180489062
 42
-0.328553
  0
VERTEX
  8
0
 10
22.5962978794983
 20
2.8035684306893
 42
-0.0398
  0
VERTEX
  8
0
 10
22.5322704383735
 20
2.7984637240606
 42
-0.022706
  0
VERTEX
  8
0
 10
22.4781142402898
 20
2.8009243263643
 42
-0.128735
  0
VERTEX
  8
0
 10
22.4511889856166
 20
2.8106573831966
 42
-0.11404
  0
VERTEX
  8
0
 10
22.4308812291621
 20
2.8328638490385
 42
-0.016114
  0
VERTEX
  8
0
 10
22.4019971270811
 20
2.8881500860738
 42
0.023766
  0
VERTEX
  8
0
 10
22.3822532707168
 20
2.924572670435
 42
0.022147
  0
VERTEX
  8
0
 10
22.3587050862673
 20
2.9598530184027
 42
0.022745
  0
VERTEX
  8
0
 10
22.3349778773385
 20
2.9892954429463
 42
0.066784
  0
VERTEX
  8
0
 10
22.3153357306558
 20
3.0063026140856
 42
0.044011
  0
VERTEX
  8
0
 10
22.28862128715
 20
3.0206304588566
 42
0.400633
  0
VERTEX
  8
0
 10
22.2773470680955
 20
3.0164153548962
 42
0.109193
  0
VERTEX
  8
0
 10
22.2725426462743
 20
2.996205004279
 42
0.003966
  0
VERTEX
  8
0
 10
22.2719112935584
 20
2.9166162520725
 42
0.0
  0
VERTEX
  8
0
 10
22.2719112935584
 20
2.7984637240606
 42
0.0
  0
VERTEX
  8
0
 10
22.1947122942739
 20
2.7984637240606
 42
0.0
  0
VERTEX
  8
0
 10
22.1175132949895
 20
2.7984637240606
 42
0.0
  0
VERTEX
  8
0
 10
22.1175132949895
 20
3.0897684930337
 42
0.0
  0
VERTEX
  8
0
 10
22.1175132949895
 20
3.3810732813066
 42
0.0
  0
VERTEX
  8
0
 10
22.3122443932283
 20
3.3744398028951
 42
-0.005557
  0
VERTEX
  8
0
 10
22.4276037456475
 20
3.3692259561812
 42
-0.041371
  0
VERTEX
  8
0
 10
22.4819216177355
 20
3.3616281271703
 42
-0.087697
  0
VERTEX
  8
0
 10
22.5156988239882
 20
3.347481835146
 42
-0.079907
  0
SEQEND
  0
POLYLINE
  8
0
 66
     1
 10
0.0
 20
0.0
 30
0.0
 70
     1
  0
VERTEX
  8
0
 10
22.2719112935584
 20
3.1844587204828
 42
0.030489
  0
VERTEX
  8
0
 10
22.2738816822166
 20
3.1521757587605
 42
0.162059
  0
VERTEX
  8
0
 10
22.2813642338217
 20
3.1364146566686
 42
0.169207
  0
VERTEX
  8
0
 10
22.2965999774238
 20
3.1286564660365
 42
0.033951
  0
VERTEX
  8
0
 10
22.3274473851548
 20
3.1265594710195
 42
0.081295
  0
VERTEX
  8
0
 10
22.3698761481591
 20
3.1335038491008
 42
0.108131
  0
VERTEX
  8
0
 10
22.4033029674537
 20
3.1535359279289
 42
0.134185
  0
VERTEX
  8
0
 10
22.4207389404346
 20
3.182057522809
 42
0.163519
  0
VERTEX
  8
0
 10
22.419424299376
 20
3.2131625629005
 42
0.140593
  0
VERTEX
  8
0
 10
22.4101767470503
 20
3.2254347334187
 42
0.07342
  0
VERTEX
  8
0
 10
22.3932300034276
 20
3.2346730604641
 42
0.056252
  0
VERTEX
  8
0
 10
22.3695471260241
 20
3.2404722106908
 42
0.03195
  0
VERTEX
  8
0
 10
22.3400661405804
 20
3.2423579699461
 42
0.020917
  0
VERTEX
  8
0
 10
22.299833901403
 20
3.2406742018725
 42
0.156398
  0
VERTEX
  8
0
 10
22.2824157999905
 20
3.2334341323241
 42
0.186585
  0
VERTEX
  8
0
 10
22.2740787133625
 20
3.2180876274578
 42
0.032192
  0
SEQEND
  0
POLYLINE
  8
0
 66
     1
 10
0.0
 20
0.0
 30
0.0
 70
     1
  0
VERTEX
  8
0
 10
3.0885113845294
 20
2.5986567337197
 42
0.12835
  0
VERTEX
  8
0
 10
3.0531853154543
 20
2.6289360147153
 42
0.035222
  0
VERTEX
  8
0
 10
2.9846296705278
 20
2.6565490738726
 42
0.049988
  0
VERTEX
  8
0
 10
2.9050792283246
 20
2.6737206788804
 42
0.014637
  0
VERTEX
  8
0
 10
2.7802892654526
 20
2.6841564975029
 42
0.00855
  0
VERTEX
  8
0
 10
2.5847407649097
 20
2.6914072591127
 42
0.001697
  0
VERTEX
  8
0
 10
2.2346639924866
 20
2.6972080691179
 42
0.0063
  0
VERTEX
  8
0
 10
1.6452015958726
 20
2.697546490231
 42
0.035404
  0
VERTEX
  8
0
 10
1.3313334314844
 20
2.6714973863005
 42
0.074275
  0
VERTEX
  8
0
 10
1.1478681183095
 20
2.614370976019
 42
0.163667
  0
VERTEX
  8
0
 10
1.0442048581761
 20
2.5129238096588
 42
0.060011
  0
VERTEX
  8
0
 10
1.0058660788542
 20
2.4084993480928
 42
0.030718
  0
VERTEX
  8
0
 10
0.9821419192859
 20
2.270762939343
 42
0.020738
  0
VERTEX
  8
0
 10
0.969157298503
 20
2.079209487013
 42
0.006703
  0
VERTEX
  8
0
 10
0.9655155901097
 20
1.794876733363
 42
0.010245
  0
VERTEX
  8
0
 10
0.9741135128565
 20
1.3871920990994
 42
0.047997
  0
VERTEX
  8
0
 10
1.0062361901566
 20
1.1550383034638
 42
0.091706
  0
VERTEX
  8
0
 10
1.068895433417
 20
1.0133266094448
 42
0.130926
  0
VERTEX
  8
0
 10
1.1725645606743
 20
0.924001558048
 42
0.048576
  0
VERTEX
  8
0
 10
1.2384270606116
 20
0.8996785465425
 42
0.037467
  0
VERTEX
  8
0
 10
1.3137799616266
 20
0.8858273862924
 42
0.017761
  0
VERTEX
  8
0
 10
1.4311289252549
 20
0.8774378236446
 42
0.002397
  0
VERTEX
  8
0
 10
1.6780229241162
 20
0.8697671766777
 42
0.006853
  0
VERTEX
  8
0
 10
2.0970018491741
 20
0.864504945491
 42
0.006309
  0
VERTEX
  8
0
 10
2.5276798965786
 20
0.8704331724446
 42
0.003327
  0
VERTEX
  8
0
 10
2.9190598126971
 20
0.8833675945782
 42
0.083326
  0
VERTEX
  8
0
 10
3.0239623097665
 20
0.90528400448
 42
0.084452
  0
VERTEX
  8
0
 10
3.0836954407575
 20
0.9411492699656
 42
0.100404
  0
VERTEX
  8
0
 10
3.1240230592985
 20
0.9929583868741
 42
0.073859
  0
VERTEX
  8
0
 10
3.1487572905735
 20
1.0691661124082
 42
0.027147
  0
VERTEX
  8
0
 10
3.1614466830833
 20
1.1818830395807
 42
0.0
  0
VERTEX
  8
0
 10
3.170118446673
 20
1.3316827376564
 42
0.0
  0
VERTEX
  8
0
 10
2.550046704742
 20
1.3316827376564
 42
0.0
  0
VERTEX
  8
0
 10
1.9299749821108
 20
1.3316827376564
 42
0.0
  0
VERTEX
  8
0
 10
1.9299749821108
 20
1.6983779842575
 42
0.0
  0
VERTEX
  8
0
 10
1.9299749821108
 20
2.0650732308585
 42
0.0
  0
VERTEX
  8
0
 10
3.0328479145841
 20
2.0650732308585
 42
0.0
  0
VERTEX
  8
0
 10
4.1357208470574
 20
2.0650732308585
 42
0.0
  0
VERTEX
  8
0
 10
4.124295568861
 20
1.4523061740383
 42
-0.004104
  0
VERTEX
  8
0
 10
4.1128541367741
 20
1.0263147813817
 42
-0.020937
  0
VERTEX
  8
0
 10
4.0946456720069
 20
0.7900891438285
 42
-0.036822
  0
VERTEX
  8
0
 10
4.0626215392295
 20
0.6257083110652
 42
-0.042656
  0
VERTEX
  8
0
 10
4.0077686973762
 20
0.4760323436856
 42
-0.077285
  0
VERTEX
  8
0
 10
3.8874701722825
 20
0.2966743646681
 42
-0.081768
  0
VERTEX
  8
0
 10
3.7204370328005
 20
0.1663532285955
 42
-0.065453
  0
VERTEX
  8
0
 10
3.489238806378
 20
0.0770352602069
 42
-0.030616
  0
VERTEX
  8
0
 10
3.1727093994869
 20
0.0205052507944
 42
0.0
  0
VERTEX
  8
0
 10
0.8974383666815
 20
0.0217715073802
 42
-0.049986
  0
VERTEX
  8
0
 10
0.5577224140531
 20
0.0992574746447
 42
-0.088218
  0
VERTEX
  8
0
 10
0.3060067779938
 20
0.2368106129702
 42
-0.097532
  0
VERTEX
  8
0
 10
0.133477976851
 20
0.441542860866
 42
-0.073122
  0
VERTEX
  8
0
 10
0.0294347046437
 20
0.7181171922869
 42
0.040539
  0
VERTEX
  8
0
 10
0.0151747949921
 20
0.7650692376567
 42
0.0
  0
VERTEX
  8
0
 10
0.0314381344736
 20
2.8241955594039
 42
-0.051692
  0
VERTEX
  8
0
 10
0.1266271832565
 20
3.1167079137233
 42
-0.094792
  0
VERTEX
  8
0
 10
0.2690759926204
 20
3.3218631542359
 42
-0.096601
  0
VERTEX
  8
0
 10
0.4751359282056
 20
3.4575307649031
 42
-0.055316
  0
VERTEX
  8
0
 10
0.7623401179338
 20
3.5398459734671
 42
-0.0236
  0
VERTEX
  8
0
 10
1.1191720343912
 20
3.5833851475773
 42
-0.009238
  0
VERTEX
  8
0
 10
1.6146372189727
 20
3.6110353008538
 42
-0.009123
  0
VERTEX
  8
0
 10
2.1523950068234
 20
3.6212690510957
 42
-0.011254
  0
VERTEX
  8
0
 10
2.6537156004023
 20
3.6103767740901
 42
-0.006315
  0
VERTEX
  8
0
 10
2.9889401731516
 20
3.5912954009383
 42
-0.014891
  0
VERTEX
  8
0
 10
3.2381003486368
 20
3.5664799949155
 42
-0.019355
  0
VERTEX
  8
0
 10
3.4391907723409
 20
3.5324262425477
 42
-0.024885
  0
VERTEX
  8
0
 10
3.6205724652254
 20
3.4849083092134
 42
-0.014813
  0
VERTEX
  8
0
 10
3.7055990570423
 20
3.4552511556533
 42
-0.038232
  0
VERTEX
  8
0
 10
3.7643311100101
 20
3.4274824054142
 42
-0.043267
  0
VERTEX
  8
0
 10
3.8138600772758
 20
3.3932650490671
 42
-0.024072
  0
VERTEX
  8
0
 10
3.8681217870918
 20
3.3438010061598
 42
-0.053376
  0
VERTEX
  8
0
 10
3.9814816082306
 20
3.2027076761251
 42
-0.063643
  0
VERTEX
  8
0
 10
4.0546015474911
 20
3.0486207123244
 42
-0.048627
  0
VERTEX
  8
0
 10
4.0988127002905
 20
2.849774038935
 42
-0.01776
  0
VERTEX
  8
0
 10
4.123628743205
 20
2.5622134214272
 42
0.0
  0
VERTEX
  8
0
 10
4.1361257172091
 20
2.3152946223874
 42
0.0
  0
VERTEX
  8
0
 10
3.6459586806488
 20
2.3204572282656
 42
0.0
  0
VERTEX
  8
0
 10
3.1557916440885
 20
2.3256198534435
 42
0.0
  0
VERTEX
  8
0
 10
3.1339882342219
 20
2.4414183523701
 42
0.01329
  0
VERTEX
  8
0
 10
3.1106504556449
 20
2.5494868768989
 42
0.09216
  0
SEQEND
  0
POLYLINE
  8
0
 66
     1
 10
0.0
 20
0.0
 30
0.0
 70
     1
  0
VERTEX
  8
0
 10
11.1787624532829
 20
19.3648405626492
 42
-0.11157
  0
VERTEX
  8
0
 10
11.292375660837
 20
19.2700722291126
 42
-0.111397
  0
VERTEX
  8
0
 10
11.3542846070235
 20
19.1356108142097
 42
-0.113648
  0
VERTEX
  8
0
 10
11.3518465468276
 20
18.9897893928643
 42
-0.119943
  0
VERTEX
  8
0
 10
11.2855285920943
 20
18.8629586744462
 42
-0.041001
  0
VERTEX
  8
0
 10
11.222661587027
 20
18.8022047217878
 42
-0.073302
  0
VERTEX
  8
0
 10
11.1611500033896
 20
18.7653322409586
 42
-0.06788
  0
VERTEX
  8
0
 10
11.0883569825914
 20
18.7461148238702
 42
-0.030649
  0
VERTEX
  8
0
 10
10.9896265069153
 20
18.7400570762956
 42
-0.013102
  0
VERTEX
  8
0
 10
10.9080050664581
 20
18.7421962412661
 42
-0.079979
  0
VERTEX
  8
0
 10
10.8668965221401
 20
18.7510452151585
 42
-0.086808
  0
VERTEX
  8
0
 10
10.8321378850096
 20
18.772109135811
 42
-0.01685
  0
VERTEX
  8
0
 10
10.7783246241804
 20
18.8224127178355
 42
-0.07352
  0
VERTEX
  8
0
 10
10.6927606694292
 20
18.9376652268397
 42
-0.112119
  0
VERTEX
  8
0
 10
10.6598371297106
 20
19.0573053216685
 42
-0.115352
  0
VERTEX
  8
0
 10
10.6821613433262
 20
19.1769589842214
 42
-0.080998
  0
VERTEX
  8
0
 10
10.75705301892
 20
19.2923257670443
 42
-0.07737
  0
VERTEX
  8
0
 10
10.8480315377832
 20
19.3657364377361
 42
-0.088786
  0
VERTEX
  8
0
 10
10.9529059537166
 20
19.4037093710004
 42
-0.087718
  0
VERTEX
  8
0
 10
11.0654783064632
 20
19.4031803069585
 42
-0.073457
  0
SEQEND
  0
POLYLINE
  8
0
 66
     1
 10
0.0
 20
0.0
 30
0.0
 70
     1
  0
VERTEX
  8
0
 10
10.0176165702905
 20
18.5692797467488
 42
-0.046866
  0
VERTEX
  8
0
 10
10.1179950516038
 20
18.4908084886565
 42
-0.080527
  0
VERTEX
  8
0
 10
10.1823413052959
 20
18.4066745488683
 42
-0.07952
  0
VERTEX
  8
0
 10
10.217304403976
 20
18.3057529339955
 42
-0.044657
  0
VERTEX
  8
0
 10
10.228416582331
 20
18.1761592826927
 42
-0.055714
  0
VERTEX
  8
0
 10
10.2156604126868
 20
18.0657552954381
 42
-0.061339
  0
VERTEX
  8
0
 10
10.1788822883344
 20
17.9646457203018
 42
-0.062201
  0
VERTEX
  8
0
 10
10.1192372414015
 20
17.8766405401958
 42
-0.06004
  0
VERTEX
  8
0
 10
10.0391351544493
 20
17.8048134139768
 42
-0.028195
  0
VERTEX
  8
0
 10
9.9881019839823
 20
17.7731954444344
 42
-0.056929
  0
VERTEX
  8
0
 10
9.9443130711094
 20
17.7554732947631
 42
-0.045489
  0
VERTEX
  8
0
 10
9.8916455785279
 20
17.7458939025389
 42
-0.012535
  0
VERTEX
  8
0
 10
9.807538156596
 20
17.7405093881373
 42
-0.011775
  0
VERTEX
  8
0
 10
9.719126736056
 20
17.7391553369896
 42
-0.050638
  0
VERTEX
  8
0
 10
9.6668752495818
 20
17.7448957580777
 42
-0.059355
  0
VERTEX
  8
0
 10
9.6209114865011
 20
17.7605974362399
 42
-0.020167
  0
VERTEX
  8
0
 10
9.5584495831826
 20
17.793759926161
 42
-0.061048
  0
VERTEX
  8
0
 10
9.4650435031874
 20
17.8648194048308
 42
-0.070609
  0
VERTEX
  8
0
 10
9.3967634586883
 20
17.9532498163247
 42
-0.070075
  0
VERTEX
  8
0
 10
9.3554256526422
 20
18.0577737681011
 42
-0.058866
  0
VERTEX
  8
0
 10
9.3412600222685
 20
18.1761592826927
 42
-0.083051
  0
VERTEX
  8
0
 10
9.3721604271126
 20
18.3626211715236
 42
-0.116133
  0
VERTEX
  8
0
 10
9.4617313959216
 20
18.5051160107908
 42
-0.114972
  0
VERTEX
  8
0
 10
9.6062555073837
 20
18.5936152644923
 42
-0.080272
  0
VERTEX
  8
0
 10
9.7956694473477
 20
18.6242433498664
 42
-0.014317
  0
VERTEX
  8
0
 10
9.8724737281488
 20
18.6220522299694
 42
-0.046435
  0
VERTEX
  8
0
 10
9.9228296703946
 20
18.6144439211945
 42
-0.05509
  0
VERTEX
  8
0
 10
9.9661928114866
 20
18.5984760222832
 42
-0.026745
  0
SEQEND
  0
POLYLINE
  8
0
 66
     1
 10
0.0
 20
0.0
 30
0.0
 70
     1
  0
VERTEX
  8
0
 10
11.3186062210154
 20
18.0754021016884
 42
-0.04281
  0
VERTEX
  8
0
 10
11.4120020335437
 20
18.0193439518593
 42
-0.055386
  0
VERTEX
  8
0
 10
11.4859723390811
 20
17.9522340318921
 42
-0.054434
  0
VERTEX
  8
0
 10
11.5443319261771
 20
17.8695413781208
 42
-0.039425
  0
VERTEX
  8
0
 10
11.5910625841167
 20
17.7668354820773
 42
-0.034395
  0
VERTEX
  8
0
 10
11.6235210577639
 20
17.6537146111411
 42
-0.048266
  0
VERTEX
  8
0
 10
11.6354870763507
 20
17.5493982860733
 42
-0.047486
  0
VERTEX
  8
0
 10
11.6272963397256
 20
17.4434384715097
 42
-0.031892
  0
VERTEX
  8
0
 10
11.5989025863883
 20
17.325269191315
 42
-0.021664
  0
VERTEX
  8
0
 10
11.5738001351865
 20
17.2549533513055
 42
-0.048095
  0
VERTEX
  8
0
 10
11.5474371980241
 20
17.2046015392062
 42
-0.045463
  0
VERTEX
  8
0
 10
11.5109882695044
 20
17.158529504529
 42
-0.017541
  0
VERTEX
  8
0
 10
11.4527387295819
 20
17.1014167005712
 42
-0.044242
  0
VERTEX
  8
0
 10
11.351717373602
 20
17.0242943212935
 42
-0.059695
  0
VERTEX
  8
0
 10
11.2479978353981
 20
16.9749112601365
 42
-0.058607
  0
VERTEX
  8
0
 10
11.1340458400356
 20
16.9508574222417
 42
-0.040677
  0
VERTEX
  8
0
 10
11.0023041458775
 20
16.9495868811115
 42
-0.060924
  0
VERTEX
  8
0
 10
10.8509840714101
 20
16.9792169185231
 42
-0.06881
  0
VERTEX
  8
0
 10
10.7178995585587
 20
17.0439090623315
 42
-0.069098
  0
VERTEX
  8
0
 10
10.6077974579908
 20
17.1420145735089
 42
-0.062204
  0
VERTEX
  8
0
 10
10.5239622204306
 20
17.2697711974247
 42
-0.021882
  0
VERTEX
  8
0
 10
10.4953658004204
 20
17.3350786172573
 42
-0.043909
  0
VERTEX
  8
0
 10
10.4797549661806
 20
17.3891215258097
 42
-0.037083
  0
VERTEX
  8
0
 10
10.4723771543177
 20
17.450664201344
 42
-0.011648
  0
VERTEX
  8
0
 10
10.4703458556491
 20
17.543472587387
 42
-0.01114
  0
VERTEX
  8
0
 10
10.4724502231706
 20
17.6322833197508
 42
-0.033342
  0
VERTEX
  8
0
 10
10.4792730514276
 20
17.6926053054086
 42
-0.043246
  0
VERTEX
  8
0
 10
10.4927928735727
 20
17.7422812595689
 42
-0.032026
  0
VERTEX
  8
0
 10
10.5158165294216
 20
17.7943693350614
 42
-0.050504
  0
VERTEX
  8
0
 10
10.5898650375452
 20
17.9071096921301
 42
-0.049042
  0
VERTEX
  8
0
 10
10.6856736661967
 20
18.0039444691798
 42
-0.050123
  0
VERTEX
  8
0
 10
10.7962462946652
 20
18.0783890853687
 42
-0.058423
  0
VERTEX
  8
0
 10
10.9140085238364
 20
18.1248359211875
 42
-0.064477
  0
VERTEX
  8
0
 10
11.0011916503986
 20
18.1362509512167
 42
-0.030758
  0
VERTEX
  8
0
 10
11.1142586943325
 20
18.1294496228809
 42
-0.030656
  0
VERTEX
  8
0
 10
11.228106316648
 20
18.1083950047079
 42
-0.052761
  0
SEQEND
  0
POLYLINE
  8
0
 66
     1
 10
0.0
 20
0.0
 30
0.0
 70
     1
  0
VERTEX
  8
0
 10
9.4215000831322
 20
16.8821262074911
 42
-0.055208
  0
VERTEX
  8
0
 10
9.545213911254
 20
16.7894391010759
 42
-0.075727
  0
VERTEX
  8
0
 10
9.6310469431172
 20
16.6802787704
 42
-0.072633
  0
VERTEX
  8
0
 10
9.6828048770892
 20
16.5468963852099
 42
-0.046335
  0
VERTEX
  8
0
 10
9.7048314113635
 20
16.3816835402317
 42
-0.010263
  0
VERTEX
  8
0
 10
9.7066932196292
 20
16.2857881785046
 42
-0.03708
  0
VERTEX
  8
0
 10
9.7021047041093
 20
16.2249172307628
 42
-0.046484
  0
VERTEX
  8
0
 10
9.6892023967594
 20
16.1727066983578
 42
-0.023546
  0
VERTEX
  8
0
 10
9.6639194928967
 20
16.1098179617722
 42
-0.068988
  0
VERTEX
  8
0
 10
9.5699335712179
 20
15.9622440459441
 42
-0.075473
  0
VERTEX
  8
0
 10
9.4418196510336
 20
15.8509434309123
 42
-0.074855
  0
VERTEX
  8
0
 10
9.2854956725309
 20
15.7820324582918
 42
-0.06632
  0
VERTEX
  8
0
 10
9.1090760997234
 20
15.7583723159936
 42
-0.091974
  0
VERTEX
  8
0
 10
8.8716656891282
 20
15.802202067137
 42
-0.104393
  0
VERTEX
  8
0
 10
8.6775936580461
 20
15.927701141417
 42
-0.104727
  0
VERTEX
  8
0
 10
8.5512274846062
 20
16.1205576163562
 42
-0.093106
  0
VERTEX
  8
0
 10
8.5069008421038
 20
16.3565379733888
 42
-0.071305
  0
VERTEX
  8
0
 10
8.5342329741027
 20
16.5472196753191
 42
-0.079493
  0
VERTEX
  8
0
 10
8.6138749936187
 20
16.7149118047588
 42
-0.083477
  0
VERTEX
  8
0
 10
8.7378200327434
 20
16.8430893948177
 42
-0.090247
  0
VERTEX
  8
0
 10
8.8937214046243
 20
16.9194797152848
 42
-0.035145
  0
VERTEX
  8
0
 10
8.9426558816962
 20
16.9296716429689
 42
-0.016265
  0
VERTEX
  8
0
 10
9.0073177441971
 20
16.9363262546064
 42
-0.014852
  0
VERTEX
  8
0
 10
9.0816430686324
 20
16.9393249146354
 42
-0.012255
  0
VERTEX
  8
0
 10
9.1609534605473
 20
16.9382233814144
 42
-0.009847
  0
VERTEX
  8
0
 10
9.2578813588898
 20
16.9325865420836
 42
-0.033584
  0
VERTEX
  8
0
 10
9.3203931713614
 20
16.9234629906504
 42
-0.045981
  0
VERTEX
  8
0
 10
9.3700782929029
 20
16.9078774583826
 42
-0.03422
  0
SEQEND
  0
POLYLINE
  8
0
 66
     1
 10
0.0
 20
0.0
 30
0.0
 70
     1
  0
VERTEX
  8
0
 10
11.3350983204315
 20
16.1931916844149
 42
-0.037638
  0
VERTEX
  8
0
 10
11.4366984759085
 20
16.1329436939979
 42
-0.047794
  0
VERTEX
  8
0
 10
11.5196490515364
 20
16.0622195677809
 42
-0.046199
  0
VERTEX
  8
0
 10
11.5897348964273
 20
15.975006719604
 42
-0.031942
  0
VERTEX
  8
0
 10
11.652764636985
 20
15.8651136932259
 42
-0.024876
  0
VERTEX
  8
0
 10
11.681816839887
 20
15.7977445004196
 42
-0.048605
  0
VERTEX
  8
0
 10
11.6968505730077
 20
15.7412921146009
 42
-0.033896
  0
VERTEX
  8
0
 10
11.7035720196789
 20
15.6710264732407
 42
-0.0069
  0
VERTEX
  8
0
 10
11.7052982665019
 20
15.5459484809023
 42
-0.006735
  0
VERTEX
  8
0
 10
11.7035230755133
 20
15.4141753088522
 42
-0.040333
  0
VERTEX
  8
0
 10
11.6961604139541
 20
15.3459897945277
 42
-0.053845
  0
VERTEX
  8
0
 10
11.6786479367649
 20
15.2885167414397
 42
-0.017605
  0
VERTEX
  8
0
 10
11.640978607865
 20
15.2082028590329
 42
-0.033943
  0
VERTEX
  8
0
 10
11.5728519384778
 20
15.0949694705552
 42
-0.04313
  0
VERTEX
  8
0
 10
11.4946994157537
 20
15.0013692543766
 42
-0.045182
  0
VERTEX
  8
0
 10
11.4049519314328
 20
14.9259922865735
 42
-0.043875
  0
VERTEX
  8
0
 10
11.3022698898801
 20
14.867119731427
 42
-0.020832
  0
VERTEX
  8
0
 10
11.2300910643201
 20
14.8373455248842
 42
-0.044015
  0
VERTEX
  8
0
 10
11.1716517306578
 20
14.8216986001122
 42
-0.034647
  0
VERTEX
  8
0
 10
11.103153039293
 20
14.814523165426
 42
-0.008777
  0
VERTEX
  8
0
 10
10.9912075231209
 20
14.8125579877002
 42
-0.008656
  0
VERTEX
  8
0
 10
10.8805716493721
 20
14.8144734685702
 42
-0.033578
  0
VERTEX
  8
0
 10
10.8123928127611
 20
14.8214349655297
 42
-0.043991
  0
VERTEX
  8
0
 10
10.7553697719396
 20
14.8364096221161
 42
-0.023395
  0
VERTEX
  8
0
 10
10.687852800949
 20
14.8642823980068
 42
-0.044507
  0
VERTEX
  8
0
 10
10.5767823547335
 20
14.9289508803218
 42
-0.040016
  0
VERTEX
  8
0
 10
10.4745842737073
 20
15.0143684271708
 42
-0.039994
  0
VERTEX
  8
0
 10
10.3872426575996
 20
15.1150296691188
 42
-0.044328
  0
VERTEX
  8
0
 10
10.3203729230189
 20
15.2250514634277
 42
-0.01726
  0
VERTEX
  8
0
 10
10.284712041884
 20
15.3042648933995
 42
-0.048969
  0
VERTEX
  8
0
 10
10.2673717184632
 20
15.3622392381894
 42
-0.039751
  0
VERTEX
  8
0
 10
10.2597923400132
 20
15.42884051325
 42
-0.008464
  0
VERTEX
  8
0
 10
10.2578170299188
 20
15.5455238478067
 42
-0.00861
  0
VERTEX
  8
0
 10
10.2597189816641
 20
15.655964350188
 42
-0.033127
  0
VERTEX
  8
0
 10
10.2666162876557
 20
15.7242469808536
 42
-0.04376
  0
VERTEX
  8
0
 10
10.2813822753471
 20
15.7810401809545
 42
-0.02416
  0
VERTEX
  8
0
 10
10.3086750551561
 20
15.8474107854053
 42
-0.047573
  0
VERTEX
  8
0
 10
10.3858612008072
 20
15.9780877895647
 42
-0.058073
  0
VERTEX
  8
0
 10
10.482030290886
 20
16.082438796283
 42
-0.053412
  0
VERTEX
  8
0
 10
10.6063585651428
 20
16.1681257676395
 42
-0.032434
  0
VERTEX
  8
0
 10
10.7687036988945
 20
16.2429490256202
 42
-0.050439
  0
VERTEX
  8
0
 10
10.8093480842293
 20
16.2540331807385
 42
-0.020719
  0
VERTEX
  8
0
 10
10.8661122961059
 20
16.2611089901161
 42
-0.017495
  0
VERTEX
  8
0
 10
10.9364559470549
 20
16.2644595617833
 42
-0.010473
  0
VERTEX
  8
0
 10
11.0201571478525
 20
16.263761740729
 42
-0.010344
  0
VERTEX
  8
0
 10
11.1273946058543
 20
16.2583986683495
 42
-0.037462
  0
VERTEX
  8
0
 10
11.1949458532006
 20
16.2484969317038
 42
-0.043011
  0
VERTEX
  8
0
 10
11.2554347816945
 20
16.2293603805672
 42
-0.016912
  0
SEQEND
  0
POLYLINE
  8
0
 66
     1
 10
0.0
 20
0.0
 30
0.0
 70
     1
  0
VERTEX
  8
0
 10
8.7700576400535
 20
15.017425546142
 42
-0.023533
  0
VERTEX
  8
0
 10
8.8185984022291
 20
14.9977533497489
 42
-0.01379
  0
VERTEX
  8
0
 10
8.8748046390386
 20
14.9699285144368
 42
-0.013775
  0
VERTEX
  8
0
 10
8.9296105246006
 20
14.9389256472209
 42
-0.022722
  0
VERTEX
  8
0
 10
8.9738827418085
 20
14.9094244549391
 42
-0.050085
  0
VERTEX
  8
0
 10
9.0538779081468
 20
14.8373566994393
 42
-0.027784
  0
VERTEX
  8
0
 10
9.1367451667547
 20
14.7352675462011
 42
-0.027791
  0
VERTEX
  8
0
 10
9.2063166154135
 20
14.6268986403661
 42
-0.061135
  0
VERTEX
  8
0
 10
9.2439611827344
 20
14.5361030638315
 42
-0.055618
  0
VERTEX
  8
0
 10
9.2608107521167
 20
14.4315572261388
 42
-0.016559
  0
VERTEX
  8
0
 10
9.2633303923551
 20
14.2696114042109
 42
-0.01626
  0
VERTEX
  8
0
 10
9.2552651234036
 20
14.1086805368263
 42
-0.061616
  0
VERTEX
  8
0
 10
9.234726947236
 20
14.0102314708023
 42
-0.070576
  0
VERTEX
  8
0
 10
9.160691119048
 20
13.8643596192107
 42
-0.052499
  0
VERTEX
  8
0
 10
9.0420742004559
 20
13.7278779836955
 42
-0.051593
  0
VERTEX
  8
0
 10
8.8949748461762
 20
13.6166737902138
 42
-0.061587
  0
VERTEX
  8
0
 10
8.7364447325711
 20
13.5456494563884
 42
-0.086576
  0
VERTEX
  8
0
 10
8.4570405367332
 20
13.510408885205
 42
-0.087727
  0
VERTEX
  8
0
 10
8.1835881328434
 20
13.5722080930139
 42
-0.088697
  0
VERTEX
  8
0
 10
7.9502926798068
 20
13.7231290100555
 42
-0.091066
  0
VERTEX
  8
0
 10
7.7862836953233
 20
13.9443155684573
 42
-0.02217
  0
VERTEX
  8
0
 10
7.7538451583177
 20
14.0185287613462
 42
-0.051482
  0
VERTEX
  8
0
 10
7.7379640310817
 20
14.0770784123785
 42
-0.034741
  0
VERTEX
  8
0
 10
7.7311810954075
 20
14.1501645770768
 42
-0.005772
  0
VERTEX
  8
0
 10
7.7295498033537
 20
14.2914647425303
 42
-0.005499
  0
VERTEX
  8
0
 10
7.731102680524
 20
14.4326571188811
 42
-0.03492
  0
VERTEX
  8
0
 10
7.7376785877818
 20
14.5040824436085
 42
-0.054867
  0
VERTEX
  8
0
 10
7.7530907889965
 20
14.5595023507111
 42
-0.025948
  0
VERTEX
  8
0
 10
7.7842478805132
 20
14.6269481828239
 42
-0.085707
  0
VERTEX
  8
0
 10
7.9624897356988
 20
14.8586925728666
 42
-0.092015
  0
VERTEX
  8
0
 10
8.2041462263528
 20
15.0104186368712
 42
-0.09232
  0
VERTEX
  8
0
 10
8.4834644418053
 20
15.0650123216839
 42
-0.08694
  0
SEQEND
  0
POLYLINE
  8
0
 66
     1
 10
0.0
 20
0.0
 30
0.0
 70
     1
  0
VERTEX
  8
0
 10
13.2077442062882
 20
14.6670747365712
 42
-0.061828
  0
VERTEX
  8
0
 10
13.4128477041716
 20
14.5316095802796
 42
-0.076677
  0
VERTEX
  8
0
 10
13.5618799476957
 20
14.3584109813193
 42
-0.076695
  0
VERTEX
  8
0
 10
13.651767104306
 20
14.1483878035087
 42
-0.061894
  0
VERTEX
  8
0
 10
13.6830508214813
 20
13.9046996667905
 42
-0.105112
  0
VERTEX
  8
0
 10
13.6056326156384
 20
13.5331138249853
 42
-0.114284
  0
VERTEX
  8
0
 10
13.3847269264957
 20
13.2379220091992
 42
-0.112686
  0
VERTEX
  8
0
 10
13.0537088500185
 20
13.0671240482199
 42
-0.099982
  0
VERTEX
  8
0
 10
12.6660007692027
 20
13.0467039479217
 42
-0.030516
  0
VERTEX
  8
0
 10
12.5234866301857
 20
13.0767364044168
 42
-0.046576
  0
VERTEX
  8
0
 10
12.405368803124
 20
13.1214380603579
 42
-0.047907
  0
VERTEX
  8
0
 10
12.2999627948816
 20
13.1861526883748
 42
-0.034774
  0
VERTEX
  8
0
 10
12.1960156547281
 20
13.2765661491628
 42
-0.099103
  0
VERTEX
  8
0
 10
12.0030647461131
 20
13.5660967500341
 42
-0.098766
  0
VERTEX
  8
0
 10
11.9361206881958
 20
13.9079467917987
 42
-0.099152
  0
VERTEX
  8
0
 10
12.0055133246726
 20
14.2482255830311
 42
-0.100728
  0
VERTEX
  8
0
 10
12.2004290443182
 20
14.533373519514
 42
-0.010457
  0
VERTEX
  8
0
 10
12.2319330102384
 20
14.562692946752
 42
-0.014664
  0
VERTEX
  8
0
 10
12.261343570895
 20
14.5874278342185
 42
-0.010895
  0
VERTEX
  8
0
 10
12.2865372520143
 20
14.6065064475061
 42
-0.157881
  0
VERTEX
  8
0
 10
12.2970493432481
 20
14.6099106145786
 42
0.110648
  0
VERTEX
  8
0
 10
12.3069782539415
 20
14.6121350844432
 42
0.016509
  0
VERTEX
  8
0
 10
12.3253136145638
 20
14.6215369768683
 42
0.01789
  0
VERTEX
  8
0
 10
12.3465391127218
 20
14.6343354322644
 42
0.014565
  0
VERTEX
  8
0
 10
12.3683369449608
 20
14.6494896923227
 42
-0.059339
  0
VERTEX
  8
0
 10
12.4584986791118
 20
14.7008855243886
 42
-0.043751
  0
VERTEX
  8
0
 10
12.5679629229482
 20
14.7362050315487
 42
-0.038302
  0
VERTEX
  8
0
 10
12.6964826589719
 20
14.7553789856005
 42
-0.026259
  0
VERTEX
  8
0
 10
12.8439835059472
 20
14.7581858254159
 42
-0.010048
  0
VERTEX
  8
0
 10
12.9634015378546
 20
14.7517820719265
 42
-0.042964
  0
VERTEX
  8
0
 10
13.033777554484
 20
14.740457712122
 42
-0.043362
  0
VERTEX
  8
0
 10
13.100879465055
 20
14.7173168295928
 42
-0.010361
  0
SEQEND
  0
POLYLINE
  8
0
 66
     1
 10
0.0
 20
0.0
 30
0.0
 70
     1
  0
VERTEX
  8
0
 10
10.6672758515839
 20
14.2244353990186
 42
-0.065099
  0
VERTEX
  8
0
 10
10.7660740500822
 20
14.1657124748324
 42
-0.033952
  0
VERTEX
  8
0
 10
10.8726062373262
 20
14.0695730677688
 42
-0.033593
  0
VERTEX
  8
0
 10
10.9678581260945
 20
13.9568507752659
 42
-0.051319
  0
VERTEX
  8
0
 10
11.0327299505737
 20
13.846608577814
 42
-0.022835
  0
VERTEX
  8
0
 10
11.0601553775633
 20
13.7786693861965
 42
-0.05065
  0
VERTEX
  8
0
 10
11.0732417852267
 20
13.7244414702424
 42
-0.03672
  0
VERTEX
  8
0
 10
11.0773267123746
 20
13.6588241543268
 42
-0.007426
  0
VERTEX
  8
0
 10
11.0742793590769
 20
13.5420349606424
 42
-0.029514
  0
VERTEX
  8
0
 10
11.0582566874756
 20
13.3822624256426
 42
-0.063237
  0
VERTEX
  8
0
 10
11.0234475428998
 20
13.2635672272653
 42
-0.067411
  0
VERTEX
  8
0
 10
10.9617648669803
 20
13.1620947203336
 42
-0.03778
  0
VERTEX
  8
0
 10
10.8625201494702
 20
13.0569064132691
 42
-0.029988
  0
VERTEX
  8
0
 10
10.7499536445478
 20
12.9660677789926
 42
-0.067643
  0
VERTEX
  8
0
 10
10.653134075701
 20
12.9151763651881
 42
-0.06347
  0
VERTEX
  8
0
 10
10.5424140164436
 20
12.8901739445896
 42
-0.023835
  0
VERTEX
  8
0
 10
10.383265403756
 20
12.8825830055894
 42
-0.023873
  0
VERTEX
  8
0
 10
10.2273308749049
 20
12.8900325546224
 42
-0.064063
  0
VERTEX
  8
0
 10
10.1191880463392
 20
12.9146047837974
 42
-0.065857
  0
VERTEX
  8
0
 10
10.0225008544765
 20
12.9652984523652
 42
-0.026339
  0
VERTEX
  8
0
 10
9.9048183139723
 20
13.0579775300844
 42
-0.136846
  0
VERTEX
  8
0
 10
9.7111582939493
 20
13.3541901289383
 42
-0.129933
  0
VERTEX
  8
0
 10
9.6936425358027
 20
13.7142231019011
 42
-0.1272
  0
VERTEX
  8
0
 10
9.8570079122292
 20
14.0416089268625
 42
-0.128408
  0
VERTEX
  8
0
 10
10.1580847042295
 20
14.2473613981333
 42
-0.06148
  0
VERTEX
  8
0
 10
10.2711837857481
 20
14.272803061738
 42
-0.035879
  0
VERTEX
  8
0
 10
10.4103087728981
 20
14.276523320113
 42
-0.035635
  0
VERTEX
  8
0
 10
10.5505176532977
 20
14.260152403826
 42
-0.05475
  0
SEQEND
  0
POLYLINE
  8
0
 66
     1
 10
0.0
 20
0.0
 30
0.0
 70
     1
  0
VERTEX
  8
0
 10
15.1701273089988
 20
13.5157804301747
 42
-0.032396
  0
VERTEX
  8
0
 10
15.2724259224219
 20
13.4568219139425
 42
-0.050289
  0
VERTEX
  8
0
 10
15.3510501310316
 20
13.3921811846676
 42
-0.049265
  0
VERTEX
  8
0
 10
15.4162831889282
 20
13.3121294893621
 42
-0.029619
  0
VERTEX
  8
0
 10
15.4778721452626
 20
13.206062869983
 42
-0.032465
  0
VERTEX
  8
0
 10
15.5307292771859
 20
13.0817209508031
 42
-0.043312
  0
VERTEX
  8
0
 10
15.5611270779451
 20
12.9629083134481
 42
-0.045325
  0
VERTEX
  8
0
 10
15.5697810471654
 20
12.8450812564173
 42
-0.041258
  0
VERTEX
  8
0
 10
15.5576393622557
 20
12.7237565443259
 42
-0.051822
  0
VERTEX
  8
0
 10
15.5061166343348
 20
12.5483930152291
 42
-0.063816
  0
VERTEX
  8
0
 10
15.4219406789912
 20
12.4002702724153
 42
-0.064202
  0
VERTEX
  8
0
 10
15.3036062508374
 20
12.2788333901779
 42
-0.053357
  0
VERTEX
  8
0
 10
15.1510229498449
 20
12.182426392083
 42
-0.024474
  0
VERTEX
  8
0
 10
15.0842858238453
 20
12.1535831861719
 42
-0.04781
  0
VERTEX
  8
0
 10
15.0283858933652
 20
12.1385053917224
 42
-0.034441
  0
VERTEX
  8
0
 10
14.9597534354343
 20
12.1316846285386
 42
-0.00755
  0
VERTEX
  8
0
 10
14.8411017965924
 20
12.1298927625662
 42
-0.007658
  0
VERTEX
  8
0
 10
14.7167942116674
 20
12.1317967214856
 42
-0.03992
  0
VERTEX
  8
0
 10
14.6487349177067
 20
12.1393430587639
 42
-0.050242
  0
VERTEX
  8
0
 10
14.5898929912631
 20
12.1569423076283
 42
-0.016612
  0
VERTEX
  8
0
 10
14.5076092412913
 20
12.1941078358588
 42
-0.039677
  0
VERTEX
  8
0
 10
14.3869294689397
 20
12.2659197345751
 42
-0.043355
  0
VERTEX
  8
0
 10
14.2829105337168
 20
12.3540236908007
 42
-0.046038
  0
VERTEX
  8
0
 10
14.2012989747316
 20
12.4530314459825
 42
-0.059908
  0
VERTEX
  8
0
 10
14.1473250820846
 20
12.5572912034836
 42
-0.061867
  0
VERTEX
  8
0
 10
14.0960482329764
 20
12.7719833574711
 42
-0.07173
  0
VERTEX
  8
0
 10
14.102837537568
 20
12.9818211225851
 42
-0.073345
  0
VERTEX
  8
0
 10
14.1680816156217
 20
13.1774009273222
 42
-0.06898
  0
VERTEX
  8
0
 10
14.2880108786021
 20
13.3504071077768
 42
-0.042985
  0
VERTEX
  8
0
 10
14.412654510771
 20
13.4644432886481
 42
-0.067838
  0
VERTEX
  8
0
 10
14.5382682255649
 20
13.5362983223053
 42
-0.065467
  0
VERTEX
  8
0
 10
14.6818020668637
 20
13.5734665139013
 42
-0.037169
  0
VERTEX
  8
0
 10
14.8613313118611
 20
13.582150455633
 42
-0.010125
  0
VERTEX
  8
0
 10
14.9678582881727
 20
13.5772231716045
 42
-0.036326
  0
VERTEX
  8
0
 10
15.035257183294
 20
13.5677876976147
 42
-0.043005
  0
VERTEX
  8
0
 10
15.0946225382525
 20
13.5495754693962
 42
-0.018614
  0
SEQEND
  0
POLYLINE
  8
0
 66
     1
 10
0.0
 20
0.0
 30
0.0
 70
     1
  0
VERTEX
  8
0
 10
7.5663659796737
 20
13.1638766083353
 42
-0.045063
  0
VERTEX
  8
0
 10
7.6670431825148
 20
13.1148478519855
 42
-0.04628
  0
VERTEX
  8
0
 10
7.7563438197281
 20
13.0489485667251
 42
-0.046995
  0
VERTEX
  8
0
 10
7.8307989735804
 20
12.9688078416737
 42
-0.049603
  0
VERTEX
  8
0
 10
7.887458580813
 20
12.8775428180244
 42
-0.021807
  0
VERTEX
  8
0
 10
7.9167557361397
 20
12.8106595350193
 42
-0.045231
  0
VERTEX
  8
0
 10
7.9324298928586
 20
12.7559144243695
 42
-0.036937
  0
VERTEX
  8
0
 10
7.9397195048648
 20
12.692590825821
 42
-0.010393
  0
VERTEX
  8
0
 10
7.9417086528799
 20
12.5930867582728
 42
-0.009857
  0
VERTEX
  8
0
 10
7.9398067976333
 20
12.500371165427
 42
-0.03088
  0
VERTEX
  8
0
 10
7.933464822643
 20
12.4383887064935
 42
-0.042778
  0
VERTEX
  8
0
 10
7.9210591171558
 20
12.3896433862696
 42
-0.039165
  0
VERTEX
  8
0
 10
7.9002646210108
 20
12.3421900105984
 42
-0.038097
  0
VERTEX
  8
0
 10
7.8400261067709
 20
12.2476806411049
 42
-0.035458
  0
VERTEX
  8
0
 10
7.7648039229614
 20
12.1609571766843
 42
-0.036957
  0
VERTEX
  8
0
 10
7.6822082311332
 20
12.0897437632099
 42
-0.055434
  0
VERTEX
  8
0
 10
7.6000036101357
 20
12.0419211061256
 42
-0.06115
  0
VERTEX
  8
0
 10
7.4837243158415
 20
12.0067160078825
 42
-0.041198
  0
VERTEX
  8
0
 10
7.3454311286091
 20
11.9943066354427
 42
-0.041473
  0
VERTEX
  8
0
 10
7.2085210965472
 20
12.0046981997389
 42
-0.066744
  0
VERTEX
  8
0
 10
7.0966300828685
 20
12.0383251188397
 42
-0.058494
  0
VERTEX
  8
0
 10
7.0145034135605
 20
12.0877880230618
 42
-0.032054
  0
VERTEX
  8
0
 10
6.9263122417655
 20
12.1656119289456
 42
-0.031865
  0
VERTEX
  8
0
 10
6.847497235829
 20
12.2554791103149
 42
-0.050974
  0
VERTEX
  8
0
 10
6.7938077442954
 20
12.3421900105984
 42
-0.09704
  0
VERTEX
  8
0
 10
6.7422650990327
 20
12.5366733000495
 42
-0.078404
  0
VERTEX
  8
0
 10
6.7619116074588
 20
12.7522259719822
 42
-0.078943
  0
VERTEX
  8
0
 10
6.846639477748
 20
12.9498980818972
 42
-0.100912
  0
VERTEX
  8
0
 10
6.9833499503968
 20
13.0926907163042
 42
-0.066541
  0
VERTEX
  8
0
 10
7.1140224963141
 20
13.1595826648969
 42
-0.05474
  0
VERTEX
  8
0
 10
7.2666715708539
 20
13.1954643351698
 42
-0.054743
  0
VERTEX
  8
0
 10
7.4234614839168
 20
13.1973650131317
 42
-0.066565
  0
SEQEND
  0
POLYLINE
  8
0
 66
     1
 10
0.0
 20
0.0
 30
0.0
 70
     1
  0
VERTEX
  8
0
 10
12.5101568912765
 20
12.3408848650168
 42
-0.109947
  0
VERTEX
  8
0
 10
12.8223929337216
 20
12.1535123946895
 42
-0.105289
  0
VERTEX
  8
0
 10
13.0315643556732
 20
11.848739276004
 42
-0.102916
  0
VERTEX
  8
0
 10
13.101337699015
 20
11.4791090585484
 42
-0.100475
  0
VERTEX
  8
0
 10
13.0190039240917
 20
11.1088663249328
 42
-0.092443
  0
VERTEX
  8
0
 10
12.8500162217463
 20
10.8636814154169
 42
-0.081631
  0
VERTEX
  8
0
 10
12.5971381424555
 20
10.6831212742828
 42
-0.080548
  0
VERTEX
  8
0
 10
12.2965004969627
 20
10.5913003020402
 42
-0.086309
  0
VERTEX
  8
0
 10
11.9896815468969
 20
10.6025098090335
 42
-0.052263
  0
VERTEX
  8
0
 10
11.7869590012497
 20
10.6681499758528
 42
-0.059594
  0
VERTEX
  8
0
 10
11.6117514913305
 20
10.7723708057585
 42
-0.060001
  0
VERTEX
  8
0
 10
11.4670079803124
 20
10.9142841049641
 42
-0.054151
  0
VERTEX
  8
0
 10
11.3542642264876
 20
11.0912629073224
 42
0.0
  0
VERTEX
  8
0
 10
11.2807037704375
 20
11.2401023849453
 42
0.0
  0
VERTEX
  8
0
 10
11.2807037704375
 20
11.4930010184697
 42
0.0
  0
VERTEX
  8
0
 10
11.2807037704375
 20
11.745899651994
 42
0.0
  0
VERTEX
  8
0
 10
11.3547523171606
 20
11.8957266785155
 42
-0.087839
  0
VERTEX
  8
0
 10
11.5551211425186
 20
12.1680999947933
 42
-0.09871
  0
VERTEX
  8
0
 10
11.8295703784867
 20
12.3419056480845
 42
-0.095579
  0
VERTEX
  8
0
 10
12.1571221426971
 20
12.4005554455187
 42
-0.077172
  0
SEQEND
  0
POLYLINE
  8
0
 66
     1
 10
0.0
 20
0.0
 30
0.0
 70
     1
  0
VERTEX
  8
0
 10
9.842872408765
 20
12.3203819880916
 42
-0.103215
  0
VERTEX
  8
0
 10
10.0858737638858
 20
12.1360026194653
 42
-0.099355
  0
VERTEX
  8
0
 10
10.2388959411892
 20
11.8674700692004
 42
-0.097676
  0
VERTEX
  8
0
 10
10.277995902644
 20
11.556699630457
 42
-0.096117
  0
VERTEX
  8
0
 10
10.1966544629572
 20
11.2524258155991
 42
-0.05186
  0
VERTEX
  8
0
 10
10.124098114991
 20
11.1357902093237
 42
-0.036719
  0
VERTEX
  8
0
 10
10.0207893912618
 20
11.0211670265617
 42
-0.037268
  0
VERTEX
  8
0
 10
9.9049027889772
 20
10.9256459641826
 42
-0.064404
  0
VERTEX
  8
0
 10
9.7946469852017
 20
10.8673697520057
 42
-0.089487
  0
VERTEX
  8
0
 10
9.4954137439039
 20
10.8131960876484
 42
-0.092167
  0
VERTEX
  8
0
 10
9.1994141756885
 20
10.8680413639998
 42
-0.093906
  0
VERTEX
  8
0
 10
8.9472327787668
 20
11.0241465412388
 42
-0.097146
  0
VERTEX
  8
0
 10
8.7732107366806
 20
11.2600548523054
 42
-0.098427
  0
VERTEX
  8
0
 10
8.6945244986749
 20
11.5738973673261
 42
-0.100947
  0
VERTEX
  8
0
 10
8.7430210065241
 20
11.8909586946219
 42
-0.102992
  0
VERTEX
  8
0
 10
8.9103165454047
 20
12.1588379483554
 42
-0.106719
  0
VERTEX
  8
0
 10
9.1687329774029
 20
12.3336076048505
 42
-0.015062
  0
VERTEX
  8
0
 10
9.2574597365552
 20
12.3661859492437
 42
-0.043195
  0
VERTEX
  8
0
 10
9.3212457764092
 20
12.3814872540959
 42
-0.036109
  0
VERTEX
  8
0
 10
9.3927126920976
 20
12.3869948816016
 42
-0.008124
  0
VERTEX
  8
0
 10
9.5147766618061
 20
12.3855884895324
 42
-0.008548
  0
VERTEX
  8
0
 10
9.6325003300772
 20
12.3803032530439
 42
-0.033569
  0
VERTEX
  8
0
 10
9.7045362602895
 20
12.3709533348451
 42
-0.042238
  0
VERTEX
  8
0
 10
9.766191163869
 20
12.3531833989933
 42
-0.019589
  0
SEQEND
  0
POLYLINE
  8
0
 66
     1
 10
0.0
 20
0.0
 30
0.0
 70
     1
  0
VERTEX
  8
0
 10
14.8411937213008
 20
11.6571084123775
 42
-0.043314
  0
VERTEX
  8
0
 10
14.9458031709689
 20
11.6277066717066
 42
-0.027425
  0
VERTEX
  8
0
 10
15.061791791731
 20
11.5765477440698
 42
-0.027522
  0
VERTEX
  8
0
 10
15.1705163919552
 20
11.5135333468131
 42
-0.046626
  0
VERTEX
  8
0
 10
15.2527041642712
 20
11.4479523916262
 42
-0.034225
  0
VERTEX
  8
0
 10
15.2852425002831
 20
11.4120080550657
 42
-0.015824
  0
VERTEX
  8
0
 10
15.3226877783872
 20
11.3612540361801
 42
-0.01559
  0
VERTEX
  8
0
 10
15.3588296478872
 20
11.3052149159043
 42
-0.020901
  0
VERTEX
  8
0
 10
15.3878024130189
 20
11.2521599615453
 42
0.0
  0
VERTEX
  8
0
 10
15.4494497317968
 20
11.1271174228474
 42
0.0
  0
VERTEX
  8
0
 10
15.4494497317968
 20
9.5441321023773
 42
0.0
  0
VERTEX
  8
0
 10
15.4494497317968
 20
7.961146801207
 42
0.0
  0
VERTEX
  8
0
 10
15.3975687040204
 20
7.8504474891805
 42
-0.029875
  0
VERTEX
  8
0
 10
15.3706799258744
 20
7.8009930768484
 42
-0.016243
  0
VERTEX
  8
0
 10
15.3321782759638
 20
7.7435166463042
 42
-0.016133
  0
VERTEX
  8
0
 10
15.2890815872177
 20
7.6874058467576
 42
-0.024548
  0
VERTEX
  8
0
 10
15.2478171781202
 20
7.6418776790303
 42
-0.122451
  0
VERTEX
  8
0
 10
14.9255503802019
 20
7.4479520172508
 42
-0.117852
  0
VERTEX
  8
0
 10
14.5451267390593
 20
7.4238019315037
 42
-0.1182
  0
VERTEX
  8
0
 10
14.1957569550717
 20
7.5742113086763
 42
-0.123681
  0
VERTEX
  8
0
 10
13.9595235204196
 20
7.8646480521014
 42
0.0
  0
VERTEX
  8
0
 10
13.9054697461081
 20
7.9804465510281
 42
0.0
  0
VERTEX
  8
0
 10
13.9054697461081
 20
9.5437262865378
 42
0.0
  0
VERTEX
  8
0
 10
13.9054697461081
 20
11.1070060220475
 42
0.0
  0
VERTEX
  8
0
 10
13.9582352621191
 20
11.21963731623
 42
-0.027607
  0
VERTEX
  8
0
 10
14.0181833344239
 20
11.331136564287
 42
-0.043809
  0
VERTEX
  8
0
 10
14.0825388712956
 20
11.4182843530072
 42
-0.046754
  0
VERTEX
  8
0
 10
14.1577496875525
 20
11.4888745582602
 42
-0.037611
  0
VERTEX
  8
0
 10
14.250261262743
 20
11.5501605278221
 42
-0.035147
  0
VERTEX
  8
0
 10
14.4001686148232
 20
11.6206677441508
 42
-0.047618
  0
VERTEX
  8
0
 10
14.5441555370488
 20
11.6611704307224
 42
-0.049393
  0
VERTEX
  8
0
 10
14.6889548436436
 20
11.6728284060023
 42
-0.042288
  0
SEQEND
  0
POLYLINE
  8
0
 66
     1
 10
0.0
 20
0.0
 30
0.0
 70
     1
  0
VERTEX
  8
0
 10
7.4209347220708
 20
11.5769421151576
 42
-0.045528
  0
VERTEX
  8
0
 10
7.5316420434933
 20
11.5290639326931
 42
-0.052767
  0
VERTEX
  8
0
 10
7.6260716085213
 20
11.4638195072439
 42
-0.052736
  0
VERTEX
  8
0
 10
7.7047973145153
 20
11.3802182791503
 42
-0.045384
  0
VERTEX
  8
0
 10
7.7688819021993
 20
11.2778408262493
 42
0.0
  0
VERTEX
  8
0
 10
7.8260485524592
 20
11.1649052715108
 42
0.0
  0
VERTEX
  8
0
 10
7.8260485524592
 20
9.8718220334966
 42
0.0
  0
VERTEX
  8
0
 10
7.8260485524592
 20
8.5787387954824
 42
0.0
  0
VERTEX
  8
0
 10
7.7688447694807
 20
8.4658409910546
 42
-0.047743
  0
VERTEX
  8
0
 10
7.7061703759166
 20
8.3668435226395
 42
-0.040142
  0
VERTEX
  8
0
 10
7.6224220644296
 20
8.2751332730616
 42
-0.04137
  0
VERTEX
  8
0
 10
7.528740770002
 20
8.2012471916324
 42
-0.064268
  0
VERTEX
  8
0
 10
7.4365036179542
 20
8.1559203974948
 42
-0.034778
  0
VERTEX
  8
0
 10
7.3895311920486
 20
8.1434815736369
 42
-0.016484
  0
VERTEX
  8
0
 10
7.3276347521001
 20
8.1337227130391
 42
-0.015562
  0
VERTEX
  8
0
 10
7.2585507765222
 20
8.1273286673238
 42
-0.015294
  0
VERTEX
  8
0
 10
7.1888013841699
 20
8.1251946746864
 42
-0.012779
  0
VERTEX
  8
0
 10
7.0983386125212
 20
8.1275070742112
 42
-0.04003
  0
VERTEX
  8
0
 10
7.0380777298713
 20
8.1354546146888
 42
-0.044424
  0
VERTEX
  8
0
 10
6.9832756270602
 20
8.1524029987902
 42
-0.018674
  0
VERTEX
  8
0
 10
6.9129541322241
 20
8.1843198828578
 42
-0.04381
  0
VERTEX
  8
0
 10
6.8184709331913
 20
8.242374977801
 42
-0.039575
  0
VERTEX
  8
0
 10
6.7320311750931
 20
8.3178297042961
 42
-0.038946
  0
VERTEX
  8
0
 10
6.6572628249006
 20
8.4072882906619
 42
-0.03928
  0
VERTEX
  8
0
 10
6.597509680069
 20
8.5070141123355
 42
0.0
  0
VERTEX
  8
0
 10
6.5522650642661
 20
8.5980385453035
 42
0.0
  0
VERTEX
  8
0
 10
6.5522650642661
 20
9.8525222836755
 42
-0.001202
  0
VERTEX
  8
0
 10
6.5545612327013
 20
10.8074447236022
 42
-0.024377
  0
VERTEX
  8
0
 10
6.5700602634904
 20
11.0965834237536
 42
-0.082752
  0
VERTEX
  8
0
 10
6.6150760614594
 20
11.2608817500865
 42
-0.07508
  0
VERTEX
  8
0
 10
6.7119366422746
 20
11.4079410573854
 42
-0.075505
  0
VERTEX
  8
0
 10
6.857211649103
 20
11.5272961528085
 42
-0.075905
  0
VERTEX
  8
0
 10
7.0311169470025
 20
11.5978713814556
 42
-0.073516
  0
VERTEX
  8
0
 10
7.223074902789
 20
11.6146589021423
 42
-0.064504
  0
SEQEND
  0
POLYLINE
  8
0
 66
     1
 10
0.0
 20
0.0
 30
0.0
 70
     1
  0
VERTEX
  8
0
 10
9.4976676265872
 20
10.3445640014347
 42
-0.057654
  0
VERTEX
  8
0
 10
9.6731027770556
 20
10.2903554238299
 42
-0.053772
  0
VERTEX
  8
0
 10
9.836020958979
 20
10.1965741759979
 42
-0.054649
  0
VERTEX
  8
0
 10
9.9727549194233
 20
10.071989176469
 42
-0.064179
  0
VERTEX
  8
0
 10
10.070886099268
 20
9.9268397917122
 42
-0.064653
  0
VERTEX
  8
0
 10
10.1322075031706
 20
9.751917088201
 42
-0.039536
  0
VERTEX
  8
0
 10
10.1603864502924
 20
9.5347227795485
 42
-0.012676
  0
VERTEX
  8
0
 10
10.169917824739
 20
9.1479761543696
 42
-0.000784
  0
VERTEX
  8
0
 10
10.1673015313535
 20
7.9997463008492
 42
-0.000658
  0
VERTEX
  8
0
 10
10.1610583517826
 20
6.790408672357
 42
-0.01783
  0
VERTEX
  8
0
 10
10.1475867597123
 20
6.4708580247297
 42
-0.068186
  0
VERTEX
  8
0
 10
10.1081884627247
 20
6.2895286534669
 42
-0.061583
  0
VERTEX
  8
0
 10
10.0206716820877
 20
6.1185637882511
 42
-0.099174
  0
VERTEX
  8
0
 10
9.8130845186996
 20
5.9144497499416
 42
-0.088549
  0
VERTEX
  8
0
 10
9.5346051089738
 20
5.7958481360512
 42
-0.08644
  0
VERTEX
  8
0
 10
9.2262249635455
 20
5.7793229182644
 42
-0.088437
  0
VERTEX
  8
0
 10
8.933070853945
 20
5.8685081815732
 42
-0.046032
  0
VERTEX
  8
0
 10
8.8505473817807
 20
5.9206775669116
 42
-0.025089
  0
VERTEX
  8
0
 10
8.75927012209
 20
5.9984861680939
 42
-0.02487
  0
VERTEX
  8
0
 10
8.6741750740605
 20
6.0871274293545
 42
-0.037428
  0
VERTEX
  8
0
 10
8.6101851709492
 20
6.1729938690846
 42
-0.074915
  0
VERTEX
  8
0
 10
8.538539500978
 20
6.3351389030302
 42
-0.051081
  0
VERTEX
  8
0
 10
8.5054914585733
 20
6.5342967848854
 42
-0.014833
  0
VERTEX
  8
0
 10
8.4936693968204
 20
6.8956731748337
 42
-0.000759
  0
VERTEX
  8
0
 10
8.4918899212874
 20
8.067295425223
 42
-0.000776
  0
VERTEX
  8
0
 10
8.4937302296319
 20
9.2526122183927
 42
-0.016079
  0
VERTEX
  8
0
 10
8.5062772864868
 20
9.6082971893178
 42
-0.056593
  0
VERTEX
  8
0
 10
8.5422659159732
 20
9.8055286666446
 42
-0.073231
  0
VERTEX
  8
0
 10
8.6204789241133
 20
9.9717710760767
 42
-0.031537
  0
VERTEX
  8
0
 10
8.6921562842736
 20
10.0662533487214
 42
-0.036058
  0
VERTEX
  8
0
 10
8.7722354045236
 20
10.146534305755
 42
-0.036327
  0
VERTEX
  8
0
 10
8.8624639737083
 20
10.213987298075
 42
-0.032922
  0
VERTEX
  8
0
 10
8.9644433692693
 20
10.2701641220658
 42
-0.031375
  0
VERTEX
  8
0
 10
9.1016864378141
 20
10.3241798372706
 42
-0.043426
  0
VERTEX
  8
0
 10
9.2305634701063
 20
10.3537350688519
 42
-0.044677
  0
VERTEX
  8
0
 10
9.3597121463772
 20
10.3601122851853
 42
-0.036154
  0
SEQEND
  0
POLYLINE
  8
0
 66
     1
 10
0.0
 20
0.0
 30
0.0
 70
     1
  0
VERTEX
  8
0
 10
12.3228902607773
 20
10.0046080371176
 42
-0.06762
  0
VERTEX
  8
0
 10
12.522105964683
 20
9.924002381093
 42
-0.06318
  0
VERTEX
  8
0
 10
12.6977336301558
 20
9.7916761747118
 42
-0.060723
  0
VERTEX
  8
0
 10
12.8404803890574
 20
9.6142865964783
 42
-0.054293
  0
VERTEX
  8
0
 10
12.9428654074604
 20
9.4011537078783
 42
0.0
  0
VERTEX
  8
0
 10
12.9879174889591
 20
9.2735297890423
 42
0.0
  0
VERTEX
  8
0
 10
12.9879174889591
 20
7.4014540563948
 42
0.0
  0
VERTEX
  8
0
 10
12.9879174889591
 20
5.5293783237474
 42
0.0
  0
VERTEX
  8
0
 10
12.9435087646207
 20
5.4039299499102
 42
-0.053163
  0
VERTEX
  8
0
 10
12.8429023918615
 20
5.1937623520718
 42
-0.060878
  0
VERTEX
  8
0
 10
12.7039240056112
 20
5.0198791137863
 42
-0.060596
  0
VERTEX
  8
0
 10
12.5265631454054
 20
4.883966569994
 42
-0.051921
  0
VERTEX
  8
0
 10
12.3125037530156
 20
4.7860375164293
 42
-0.021646
  0
VERTEX
  8
0
 10
12.2377786728622
 20
4.7643860341932
 42
-0.033687
  0
VERTEX
  8
0
 10
12.1717217472453
 20
4.7529523606057
 42
-0.02613
  0
VERTEX
  8
0
 10
12.09369660287
 20
4.7489075576377
 42
-0.00798
  0
VERTEX
  8
0
 10
11.9754947639974
 20
4.7508478000867
 42
-0.008064
  0
VERTEX
  8
0
 10
11.8462783070051
 20
4.7571196204863
 42
-0.03736
  0
VERTEX
  8
0
 10
11.7722830468912
 20
4.7674952238894
 42
-0.043813
  0
VERTEX
  8
0
 10
11.7061924818103
 20
4.7880528735046
 42
-0.013859
  0
VERTEX
  8
0
 10
11.6116339172545
 20
4.8299235842427
 42
-0.059353
  0
VERTEX
  8
0
 10
11.4171819898969
 20
4.9526859153986
 42
-0.055404
  0
VERTEX
  8
0
 10
11.2519264538722
 20
5.1202707961285
 42
-0.055998
  0
VERTEX
  8
0
 10
11.1290247013237
 20
5.3181327383827
 42
-0.063566
  0
VERTEX
  8
0
 10
11.0594623621467
 20
5.5301832005139
 42
-0.043787
  0
VERTEX
  8
0
 10
11.0484743390823
 20
5.6370022592393
 42
-0.00166
  0
VERTEX
  8
0
 10
11.0437937637557
 20
6.0381153479886
 42
-0.002239
  0
VERTEX
  8
0
 10
11.0416051528262
 20
6.6033607466227
 42
-0.000662
  0
VERTEX
  8
0
 10
11.0432745039868
 20
7.4690031807687
 42
0.0
  0
VERTEX
  8
0
 10
11.0492048925123
 20
9.2928295388634
 42
0.0
  0
VERTEX
  8
0
 10
11.0926647639504
 20
9.4070700654857
 42
-0.026268
  0
VERTEX
  8
0
 10
11.1418533994278
 20
9.5183985493563
 42
-0.030125
  0
VERTEX
  8
0
 10
11.2005060339251
 20
9.6187790571434
 42
-0.030072
  0
VERTEX
  8
0
 10
11.2708945760922
 20
9.7115332301891
 42
-0.026003
  0
VERTEX
  8
0
 10
11.3552214554793
 20
9.8000300907216
 42
-0.035384
  0
VERTEX
  8
0
 10
11.469228590227
 20
9.8935105326528
 42
-0.050157
  0
VERTEX
  8
0
 10
11.5832582284831
 20
9.9581681492088
 42
-0.043227
  0
VERTEX
  8
0
 10
11.7202348253822
 20
10.0049618980305
 42
-0.019017
  0
VERTEX
  8
0
 10
11.9079456396235
 20
10.0439434941197
 42
-0.050958
  0
VERTEX
  8
0
 10
11.9817542711566
 20
10.0487404855372
 42
-0.014398
  0
VERTEX
  8
0
 10
12.0968773367388
 20
10.041163596755
 42
-0.015034
  0
VERTEX
  8
0
 10
12.2192348363424
 20
10.0258408884802
 42
-0.023704
  0
SEQEND
  0
POLYLINE
  8
0
 66
     1
 10
0.0
 20
0.0
 30
0.0
 70
     1
  0
VERTEX
  8
0
 10
10.3281674850167
 20
19.6973246674226
 42
0.5773502691896
  0
VERTEX
  8
0
 10
9.8434017183851
 20
19.9772043132813
 42
0.5773502691896
  0
VERTEX
  8
0
 10
9.8434017183851
 20
19.4174450215639
 42
0.5773502691896
  0
SEQEND
  0
ENDSEC
  0
EOF
